<svg xmlns="http://www.w3.org/2000/svg" width="580" height="430"><path fill="#1673a9" d="M308.87 15.8a59 59 0 0 0 9.9 2.75 110 110 0 0 1 20.38 6.3c14.27 5.74 29.06 10.25 43.65 15.09q7.45 2.47 14.88 4.97c17.14 5.8 17.14 5.8 34.38 11.28l3.6 1.1c3.92.83 7.34.84 11.34.71l1 3c3.8 1.9 7.92 2.88 12 4v10l6 1q.15 32 .2 64l.1 29.72q.06 12.96.08 25.93 0 6.86.04 13.7.04 6.48.03 12.95l.03 4.71c.25 27.22-9.53 51.89-25.23 73.83a308 308 0 0 0-8.62 13L431 316h-2l-.94 1.88L426 322h-2l-.79 1.77a24 24 0 0 1-4.62 5.9l-2 2.01-2.09 2.07-2.09 2.11-2 2-1.84 1.83C407 341 407 341 405 341l-1 3c-1.7 1.65-1.7 1.65-3.81 3.38A55 55 0 0 0 392 356c-3.52 3-3.52 3-6 3l-1 3c-1.9 1.76-1.9 1.76-4.37 3.69l-2.72 2.11q-5.69 4.29-11.46 8.44a134 134 0 0 0-4.65 3.49C360 381 360 381 358 381v2a147 147 0 0 1-7.06 5.5l-2.2 1.62A456 456 0 0 1 314 413l-3.3 2.05-3.2 1.95-2.84 1.75c-2.94 1.38-4.46 1.5-7.66 1.25-2.1-.87-2.1-.87-4.19-2.09l-2.35-1.36q-1.2-.74-2.46-1.49l-2.56-1.5A284 284 0 0 1 265 400l-5.69-4-2.38-1.69c-1.9-1.35-1.9-1.35-3.93-2.31v-2h-3v-2l-2.1-.7c-3.5-1.57-6.3-3.73-9.28-6.11l-3.44-2.71-1.65-1.3a119 119 0 0 0-5.84-4.18l-2.69-2v-2l-1.73-.81a49 49 0 0 1-6.52-4.19l-2.14-1.56L213 361v-2l-1.78-.82c-7.62-4.06-13.8-11.58-19.84-17.61l-4.34-4.3c-6.44-6.44-12.72-12.9-17.14-20.93-2.09-3.67-4.5-6.62-7.28-9.78l-2.94-3.42-1.4-1.64a127 127 0 0 1-18.34-28.75l-1.31-2.8L135 261l-1.65-3.62c-6-14.27-6.8-29.69-6.86-44.97l-.06-4.97-.1-13.21q-.03-5.52-.1-11.02a8408 8408 0 0 1-.26-41.33 8142 8142 0 0 1-.1-36.2c-.03-13.6-.04-27.13 1.13-40.68l7.52-2.83c2.5-1 2.5-1 3.97-2.78 2.2-2.02 3.89-1.73 6.82-1.77 6.25-.36 11.34-2.08 17.15-4.3 3.33-1.24 6.62-2.22 10.04-3.13 7.23-2 14.2-4.58 21.24-7.19 8-2.95 16.1-5.52 24.26-8a168 168 0 0 0 13.44-4.81c5.53-2.26 11.2-4.1 16.87-5.97a329 329 0 0 0 15.14-5.36c2.78-.94 5.6-1.62 8.44-2.3 2.74-.72 5.38-1.64 8.04-2.57 11.6-3.94 17.71-2.73 28.94 1.81m-34.5 41.08C272 58 272 58 268.5 58.84c-5.06 1.23-9.87 3.03-14.74 4.85l-5.92 2.18-2.98 1.1q-6.16 2.22-12.35 4.34a1513 1513 0 0 0-27.46 9.91c-8.83 3.25-17.67 6.45-26.58 9.5a244 244 0 0 0-11.73 4.38l-2.7 1.08L162 97q-.07 24.22-.1 48.46l-.05 22.5a8221 8221 0 0 0-.06 30.01c-.1 25.77 2.23 45 14.21 68.03h2l2 6h2v3h2l.8 2.22c4.28 9.9 13.88 17.74 21.44 25.22a1622 1622 0 0 1 9.33 9.3l1.69 1.68c3.44 3.4 7 6.51 10.74 9.58 2.19 2.14 4.35 4.26 6.38 6.56a27 27 0 0 0 5.25 3.5C243 335 243 335 244 337h3v2c1.49 1.36 1.49 1.36 3.38 2.63l1.9 1.35c1.67 1.19 1.67 1.19 3.72 1.02v2q2.47 1.55 5 3c2.5 1.74 4.93 3.56 7.38 5.38l9.59 7.09c3.18 2.62 3.18 2.62 7.03 3.53l-.59-1.72-.79-2.34-.77-2.29c-1.02-3.2-1.93-6.42-2.85-9.65l26 1-5 15c4.58-1.52 8.13-4.12 11.94-7l4-2.98 2.04-1.52a607 607 0 0 1 11.19-8.06c4.77-3.4 4.77-3.4 6.8-4.77q2.54-1.77 5.03-3.67v-2l1.69-.81A74 74 0 0 0 351 330v-2l1.63-.69c3.2-1.77 5.66-3.85 8.37-6.31v-2l1.76-.79a28 28 0 0 0 6.1-4.62l4.45-4.21 2.23-2.09c4.2-3.98 8.13-8.09 11.9-12.5a84 84 0 0 1 4.17-4.38 94 94 0 0 0 7.7-9.04l1.38-1.73c2.72-3.41 2.72-3.41 3.31-7.64h2l5.9-10.32q1.8-3.15 3.64-6.3c7.54-13 8.78-26.96 8.69-41.79v-3.85q0-5.15-.03-10.3l-.01-10.84q-.01-10.2-.05-20.44l-.04-23.3q-.03-23.92-.1-47.86l-4.7-1.9-2.63-1.05c-4.14-1.63-8.34-3.05-12.55-4.49-5.6-1.93-11.12-3.9-16.56-6.25-4.89-2.1-9.83-3.65-14.93-5.17-4.96-1.56-9.8-3.39-14.67-5.21a926 926 0 0 0-25.33-8.9l-3.22-1.11-2.87-.98A61 61 0 0 1 320 59q-2.26-.6-4.56-1.06A62 62 0 0 1 308 56l2 9c-4.03-1.38-6.73-3.3-10-6-3.36-2.53-3.36-2.53-7.38-2.75-2.82.8-4.67 1.88-7.06 3.56l-2.33 1.62L281 63l-3.56 2.38L275 67l3-11c-2.01-.16-2.01-.16-3.62.88"/><path fill="#8b2e2b" d="M292 99a23 23 0 0 1 7.54 5.33l2.05 2.05 2.17 2.22 2.25 2.27 7.12 7.2 11.56 11.68 2.03 2.05 1.78 1.8c1.47 1.5 1.47 1.5 3.5 2.4l-.04-1.93-.02-2.5-.04-2.5c.1-2.07.1-2.07 1.1-3.07q2.78-.12 5.57-.1l3.4.01 3.6.03 3.6.01 8.83.05-.05 3.25q-.06 6.03-.02 12.06.01 2.6-.04 5.2c-.39 10.29-.39 10.29 3.11 19.65 2.78 2.81 5.46 5.07 9 6.84v2l1.81.81c2.27 1.23 3.7 2.08 5.19 4.19-.08 3.24-.83 4.77-2.75 7.38-2.25 1.62-2.25 1.62-4.56 1.8-3.5-1.54-5.57-3.8-8.14-6.59-1.48-1.7-1.48-1.7-3.55-2.59l-1 17h14c-1.16 5.82-3.62 9.64-6.7 14.65-1.67 4.32-1.02 6.12.7 10.35a107 107 0 0 0 3.13 5.75c2.87 4.92 2.87 4.92 2.87 8.25h-14v42H228v-42h-13c.97-5.82 1.98-7.66 5.06-12.37 1.9-3.27 3.28-5.97 2.5-9.79-1.9-4.97-4.72-9.36-7.56-13.84l-1-3c4.72-1.57 9.08-.52 14 0l-1-17-6 6h-2l-1 3c-3.57-.3-5.03-1.02-7.87-3.31-2.13-2.69-2.13-2.69-2.25-4.75 1.57-2.72 3.55-4.18 6.12-5.94h2v-2l2.06-1.62c3.18-2.57 5.65-5.38 8.3-8.47A61 61 0 0 1 232 157h2l1-3h2l1-3h2l1-3h2l1-3c1.7-1.75 1.7-1.75 3.81-3.56l2.08-1.82A29 29 0 0 1 256 136v-2c1.57-1.52 1.57-1.52 3.69-3.25a50 50 0 0 0 7.19-7.19L269 121h2l.76-1.76c1.4-2.53 2.96-4.1 5.08-6.06l2.28-2.12 2.38-2.19 4.66-4.32 2.08-1.92q1.92-1.78 3.76-3.63m-19 57-2 15-4 1c-2.67 2.08-3.85 3.21-4.5 6.56.28 2.6.28 2.6 2.5 4.25l2 1.19c2.03-.64 2.03-.64 4-2 .81-2.56.81-2.56 1-5l-2-1-1 4h-3v-5h2v-2a37 37 0 0 1 9 2c2.06 3.13 2.06 3.13 3 6h2l-.87-8-.24-2.25A98 98 0 0 0 278 156zm41 2v2h3v-2zm-28 6v17h3l1-15zm5 0-1 2h3l1 15h2v-17zm10 0c-1.44 2.88-1.1 5.42-1.06 8.63l.02 3.6.04 2.77c3.29.8 4.71 1.1 8 0l-1 6-4 1v-2h-3v2c3.22 2.15 4.27 2.38 8 2 2.22-1.8 2.22-1.8 2.23-4.25l-.03-2.76-.02-2.99-.06-3.12-.02-3.16-.1-7.72c-2.54 2.23-2.54 2.23-3.3 5.48l.11 2.7.08 2.74.11 2.08-4 1q.17-2.7.38-5.37l.2-3.03c.42-2.6.42-2.6 2.42-4.6zm13 0v17h3v-17zm-70 42v6h1v-6zm22 0 4 1Zm9 0 4 1Zm25 0v1h5v-1zm9 0v8h1v-7l3-1zm37 0v8h1v-7l4-1zm-86 1 1 3Zm-21 4 1 2Zm73 9v7h1v-7zm6 2 1 2Zm-33 1 1 2Zm-22 26v4h2l2-4 3 1v6l4-3c-.57-2.87-.86-3.86-3-6-3.73-.38-4.78-.15-8 2m16.8-.82c-2 1.69-2 1.69-2.3 4.2l.06 2.62v2.63c.52 2.8 1.16 3.71 3.44 5.37 4.08.42 5.53.31 9-2 .66-2.05.66-2.05.81-4.37l.27-2.34c-.1-2.66-.57-4.1-2.08-6.29-3.58-1-5.85-1.62-9.2.18m16.32.13c-1.4 1.77-1.4 1.77-1.12 4.69l3-1 1-3 4 1c-.09 2.9-.54 4.55-2.62 6.6a139 139 0 0 1-3.88 3.07L295 261v2h12v-3l-6-1 2.5-2.19c2.7-2.53 2.7-2.53 2.94-5.5-.25-2.5-.25-2.5-2.44-4.31-4.2-.46-4.2-.46-7.87 1.31M315 248v2l2 1v5l-6 1-1-2v3l7 1 1 4h2v-5l3-1h-3v-10c-2.93-.22-2.93-.22-5 1m-2 3-1 2h2zm-50 9v3h11v-3h-6v-2c-2.32-.18-2.32-.18-5 2"/><path fill="#1e90d0" d="M266 36h2v2h4v2l1.69.13c3.47 1.3 5.64 3.62 7.31 6.87-.19 3.88-.19 3.88-1 7l-4 1v2a25 25 0 0 1-7.52 2.84c-5.05 1.23-9.86 3.03-14.73 4.85l-5.92 2.18-2.98 1.1q-6.16 2.22-12.35 4.34c-8.54 2.96-17.02 6.07-25.5 9.19a1335 1335 0 0 1-39.76 14.09l-2.42.8L163 97q-.07 24.22-.1 48.46l-.05 22.5a8221 8221 0 0 0-.06 30.01c-.1 23.02.08 42.42 12.07 62.79C176 263 176 263 176 266h2l2 6h2v3h2a126 126 0 0 1 3.7 5.55c5.67 8.56 12.86 15.48 20.18 22.64l7.8 7.73 1.79 1.77A51 51 0 0 0 225 319v2l4 2v2l1.81.81c2.19 1.19 2.19 1.19 3.5 2.56a21 21 0 0 0 5.31 3.63c3.38 2 3.38 2 4.38 5h3v2l1.69.81A74 74 0 0 1 256 344v2l1.63.21c3.3 1.1 5.7 3.19 8.37 5.35A240 240 0 0 0 285 365l-1.1-2.23-1.4-2.96-1.4-2.92C280 354 280 354 280 349h26c1.4 4.18-.05 5.79-1.94 9.69l-1.71 3.57L301 365a466 466 0 0 0 27.39-19.31l2.2-1.67 4.26-3.26c4.93-3.76 4.93-3.76 7.15-3.76v-2c2.65-2.36 4.62-3.87 8-5a189 189 0 0 0 7.19-7.31C359 321 359 321 361 321v-2c1.33-1.34 1.33-1.34 3.25-2.94 8.14-6.94 16.08-13.93 23.03-22.09C389 292 389 292 390.9 290.16a94 94 0 0 0 7.3-8.72l1.36-1.75c1.97-2.55 3.42-4.61 4.45-7.69h2l.79-2.14a64 64 0 0 1 4.58-8.55A96 96 0 0 0 419 245l.98-2.27c3.43-9.2 3.3-19.44 3.25-29.14v-3.85q0-5.15-.03-10.3l-.01-10.84q-.01-10.2-.05-20.44l-.04-23.3q-.03-23.92-.1-47.86l-7.2-2.38-2.04-.68A249 249 0 0 1 399 88.5a347 347 0 0 0-20.26-7.27c-9.05-2.98-18-6.24-26.95-9.47l-3.3-1.2-6.4-2.31a569 569 0 0 0-18.8-6.43C321 61 321 61 320 60q-3.47-.72-6.97-1.3L311 58l-1-3c-2.02-.73-2.02-.73-4-1-.75-3.25-.75-3.25-1-7 2.48-3.77 6.29-5.27 10.3-7.07 1.88-.82 1.88-.82 2.7-2.93h4v2l2.16.33 5.75.94a43 43 0 0 1 8 2.85c4.55 1.91 9.28 3.34 13.96 4.88l3.15 1.04 11.51 3.79q6.58 2.16 13.03 4.67l3.38 1.3 5.25 2.08c5.78 2.3 11.76 3.7 17.81 5.12v2l2.81.25c4.32.6 8.15 2.16 12.2 3.71a94 94 0 0 0 12.36 3.13c3.12 1.08 4.55 2.37 6.63 4.91 1.08 3.23 1.13 5.55 1.13 8.94l.02 3.77v8.49l.02 19.23.02 25.85q0 12.03.02 24.05a10360 10360 0 0 1 .03 33 2652 2652 0 0 1 .01 15.87c.04 10.09-.43 19.86-4.12 29.36l-1.06 2.74L435 254l-.97 2.63a66 66 0 0 1-6.76 13.4c-1.29 2-2.37 4.04-3.46 6.16-3.21 5.86-7.4 11-11.54 16.2l-3.63 4.66-2.14 2.76-1.9 2.46L403 304h-2l-.69 1.69c-1.68 2.96-3.87 4.93-6.31 7.31q-1.42 1.68-2.81 3.38c-3.74 4.41-8.06 9.17-13.37 11.63-2.17.91-2.17.91-2.82 3.99-1.45 1.21-1.45 1.21-3.25 2.38-3.35 2.17-5.94 4.79-8.75 7.62a249 249 0 0 1-18.56 14.56l-1.84 1.34c-4.36 3.1-4.36 3.1-6.6 3.1v2c-2.05 1.48-2.05 1.48-4.87 3.19a199 199 0 0 0-14.04 9.52C315 377 315 377 312 377v2h-2v2c-9.41 5.37-9.41 5.37-14 7v2c-4.69.5-6.86-.92-10.62-3.62a145 145 0 0 0-14.95-9.07A65 65 0 0 1 262 372v-2l-2.14-.75c-3.23-1.41-5.82-3.18-8.67-5.25l-2.96-2.12L246 360v-2l-1.69-.79a67 67 0 0 1-7.31-4.58l-2.56-1.78A60 60 0 0 1 228 345c-2.13-1.24-2.13-1.24-4-2v-2l-1.62-.75A50 50 0 0 1 209 330c-4.5-4.59-8.92-9.05-14-13-3.89-3.73-7.4-7.7-10.87-11.81a508 508 0 0 0-12.02-13.74C171 290 171 290 171 288h-2l-2-6h-2l-1.1-2.09-1.53-2.85-1.47-2.77c-1.52-2.64-3.11-5-4.87-7.47-3.4-5.05-5.14-10.26-6.84-16.07l-.9-2.93c-1.99-6.5-3.41-12.33-3.43-19.16l-.02-3.87-.02-8.7-.03-19.7q-.03-11.85-.03-23.71 0-13.68-.05-27.36-.03-10.57-.03-21.16l-.03-12.63q-.02-5.94 0-11.88l-.02-4.36v-9.31c.42-3.39 1.37-5.25 3.37-7.98 3.87-2.94 8.18-4.07 12.81-5.31 6.7-1.88 13.2-4.07 19.66-6.63a70 70 0 0 1 9.5-3.05A89 89 0 0 0 202 59q4.84-1.86 9.69-3.69l2.5-.97c7.49-2.8 7.49-2.8 11.81-2.34v-2l1.84-.45a168 168 0 0 0 19.22-6.35c4.9-1.87 9.8-3.36 14.9-4.56 2.24-.53 2.24-.53 4.04-2.64"/><path fill="#de6251" d="M292 99a23 23 0 0 1 7.54 5.33l2.05 2.05 2.17 2.22 2.25 2.27 7.12 7.2 11.56 11.68 2.03 2.05 1.78 1.8c1.47 1.5 1.47 1.5 3.5 2.4l-.04-1.93-.02-2.5-.04-2.5c.1-2.07.1-2.07 1.1-3.07q2.78-.12 5.57-.1l3.4.01 3.6.03 3.6.01 8.83.05-.05 3.25q-.06 6.03-.02 12.06.01 2.6-.04 5.2c-.39 10.29-.39 10.29 3.11 19.65 2.78 2.81 5.46 5.07 9 6.84v2l1.81.81c2.27 1.23 3.7 2.08 5.19 4.19-.08 3.24-.83 4.77-2.75 7.38-2.25 1.62-2.25 1.62-4.56 1.8-3.5-1.54-5.57-3.8-8.14-6.59-1.48-1.7-1.48-1.7-3.55-2.59l-1 17h14c-.84 4.2-1.5 6.28-3.56 9.81l-1.38 2.4L365 211l-1-2c1-2.38 1-2.38 2.44-5.12l1.43-2.76L369 199c-31.1-1.16-62.2-1.12-93.31-1.07l-18.26.02L216 198l-1 2-1-3c4.72-1.57 9.08-.52 14 0l-1-17-6 6h-2l-1 3c-3.57-.3-5.03-1.02-7.87-3.31-2.13-2.69-2.13-2.69-2.25-4.75 1.57-2.72 3.55-4.18 6.12-5.94h2v-2l2.06-1.62c3.18-2.57 5.65-5.38 8.3-8.47A61 61 0 0 1 232 157h2l1-3h2l1-3h2l1-3h2l1-3c1.7-1.75 1.7-1.75 3.81-3.56l2.08-1.82A29 29 0 0 1 256 136v-2c1.57-1.52 1.57-1.52 3.69-3.25a50 50 0 0 0 7.19-7.19L269 121h2l.76-1.76c1.4-2.53 2.96-4.1 5.08-6.06l2.28-2.12 2.38-2.19 4.66-4.32 2.08-1.92q1.92-1.78 3.76-3.63m-19 57-2 15-4 1c-2.67 2.08-3.85 3.21-4.5 6.56.28 2.6.28 2.6 2.5 4.25l2 1.19c2.03-.64 2.03-.64 4-2 .81-2.56.81-2.56 1-5l-2-1-1 4h-3v-5h2v-2a37 37 0 0 1 9 2c2.06 3.13 2.06 3.13 3 6h2l-.87-8-.24-2.25A98 98 0 0 0 278 156zm41 2v2h3v-2zm-28 6v17h3l1-15zm5 0-1 2h3l1 15h2v-17zm10 0c-1.44 2.88-1.1 5.42-1.06 8.63l.02 3.6.04 2.77c3.29.8 4.71 1.1 8 0l-1 6-4 1v-2h-3v2c3.22 2.15 4.27 2.38 8 2 2.22-1.8 2.22-1.8 2.23-4.25l-.03-2.76-.02-2.99-.06-3.12-.02-3.16-.1-7.72c-2.54 2.23-2.54 2.23-3.3 5.48l.11 2.7.08 2.74.11 2.08-4 1q.17-2.7.38-5.37l.2-3.03c.42-2.6.42-2.6 2.42-4.6zm13 0v17h3v-17z"/><path fill="#d6e7f0" d="m448 61 2.06.88A105 105 0 0 0 460 65v10l6 1q.15 32 .2 64l.1 29.72q.06 12.96.08 25.93 0 6.86.04 13.7.04 6.48.03 12.95l.03 4.71c.25 27.22-9.53 51.89-25.23 73.83a308 308 0 0 0-8.62 13L431 316h-2l-.94 1.88L426 322h-2l-.79 1.77a24 24 0 0 1-4.62 5.9l-2 2.01-2.09 2.07-2.09 2.11-2 2-1.84 1.83C407 341 407 341 405 341l-1 3c-1.7 1.65-1.7 1.65-3.81 3.38A55 55 0 0 0 392 356c-3.52 3-3.52 3-6 3l-1 3c-1.9 1.76-1.9 1.76-4.37 3.69l-2.72 2.11q-5.69 4.29-11.46 8.44a134 134 0 0 0-4.65 3.49C360 381 360 381 358 381v2a147 147 0 0 1-7.06 5.5l-2.2 1.62A456 456 0 0 1 314 413l-3.3 2.05-3.2 1.95-2.84 1.75c-2.94 1.38-4.46 1.5-7.66 1.25-2.1-.87-2.1-.87-4.19-2.09l-2.35-1.36q-1.2-.74-2.46-1.49l-2.56-1.5A284 284 0 0 1 265 400l-5.69-4-2.38-1.69c-1.9-1.35-1.9-1.35-3.93-2.31v-2h-3v-2l-2.1-.7c-3.5-1.57-6.3-3.73-9.28-6.11l-3.44-2.71-1.65-1.3a119 119 0 0 0-5.84-4.18l-2.69-2v-2l-1.73-.81a49 49 0 0 1-6.52-4.19l-2.14-1.56L213 361v-2l-1.78-.82c-7.62-4.06-13.8-11.58-19.84-17.61l-4.34-4.3c-6.44-6.44-12.72-12.9-17.14-20.93-2.09-3.67-4.5-6.63-7.28-9.78A217 217 0 0 1 151 291l1-2 1.25 1.88c1.56 2.21 1.56 2.21 3.73 3 3.06 1.7 3.61 4.13 4.9 7.25 1.39 2.32 2.7 2.75 5.12 3.87a60 60 0 0 1 5.13 8.2c2.74 4.1 6.22 7.36 9.75 10.8l2.14 2.12 4.14 4.07q2.23 2.2 4.43 4.42a311 311 0 0 0 29.26 25.84c17.19 13.4 35.07 25.71 53.29 37.67q2.92 1.92 5.82 3.88l2.9 1.92 2.56 1.72A18.5 18.5 0 0 0 295 408c2.49-.89 2.49-.89 4.76-2.46l2.62-1.67 2.75-1.8 2.85-1.84Q312 397.65 316 395l3.45-2.23q4.31-2.82 8.55-5.77l1.8-1.24c20.92-14.42 40.8-29.92 59.41-47.2q3.78-3.45 7.67-6.81c31.11-27.97 57.7-65.13 61.12-107.75.53-11.34.49-22.69.5-34.03l.07-13.12.1-24.73q.03-14.1.1-28.2.15-28.96.23-57.92l-3.35-.37c-4-.7-5.15-1.53-7.65-4.63"/><path fill="#df6d5d" d="m370 233 1 3h-14v42H228v-42h-13v-1h155zm-107 16v4h2l2-4 3 1v6l4-3c-.57-2.87-.86-3.86-3-6-3.73-.38-4.78-.15-8 2m16.8-.82c-2 1.69-2 1.69-2.3 4.2l.06 2.62v2.63c.52 2.8 1.16 3.71 3.44 5.37 4.08.42 5.53.31 9-2 .66-2.05.66-2.05.81-4.37l.27-2.34c-.1-2.66-.57-4.1-2.08-6.29-3.58-1-5.85-1.62-9.2.18m16.32.13c-1.4 1.77-1.4 1.77-1.12 4.69l3-1 1-3 4 1c-.09 2.9-.54 4.55-2.62 6.6a139 139 0 0 1-3.88 3.07L295 261v2h12v-3l-6-1 2.5-2.19c2.7-2.53 2.7-2.53 2.94-5.5-.25-2.5-.25-2.5-2.44-4.31-4.2-.46-4.2-.46-7.87 1.31M315 248v2l2 1v5l-6 1-1-2v3l7 1 1 4h2v-5l3-1h-3v-10c-2.93-.22-2.93-.22-5 1m-2 3-1 2h2zm-50 9v3h11v-3h-6v-2c-2.32-.18-2.32-.18-5 2"/><path fill="#1773a9" d="M308.87 15.8a59 59 0 0 0 9.9 2.75 110 110 0 0 1 20.38 6.3c14.27 5.74 29.06 10.25 43.65 15.09q7.45 2.47 14.88 4.97c17.14 5.8 17.14 5.8 34.38 11.28l3.6 1.1c2.8.6 4.86.76 7.67.69L447 58c1.69 2.19 1.69 2.19 3 5q2.44 2.56 5 5l2 2c-.14 4.24-3.3 6.86-6.06 9.75l-1.43 1.54L446 85c-2.45-.39-3.7-.67-5.4-2.53l-1.31-1.86c-3.43-4.21-6.73-5.18-11.92-6.3l-4.78-1.18-2.35-.56C415.4 71.34 410.7 69.65 406 68v-2l-2.27-.3A75 75 0 0 1 384 60q-3.33-1.33-6.69-2.62l-3.13-1.23A145 145 0 0 0 364 53a641 641 0 0 1-10.95-3.64l-2.02-.68-9.9-3.3L322 39v-2h-4l-.75 1.87c-1.49 2.54-2.59 3.09-5.25 4.26-2.57 1.14-3.98 1.85-6 3.87-.17 3.58-.17 3.58 0 7l4 2h-2l3 10c-5.44-1.09-6.94-2.45-11-6-3.35-2.54-3.35-2.54-7.37-2.75-2.86.81-4.76 1.93-7.2 3.63l-2.25 1.55a124 124 0 0 0-4.33 3.27C277 67 277 67 275 67q.46-2.2.94-4.37l.52-2.47C277 58 277 58 278 56l-2-1 4-1c.43-4.3.41-7.01-2.31-10.37-2.47-2.8-2.47-2.8-5.69-3.63v-2l-3-1v-3l18-1 1.94-6.31c1-3.24 1.99-6.48 3.06-9.69h2l3 10c0-2.04-.6-4.07-1-6.06l-.56-2.79L295 16h-3l-1-2h-7c6.66-6.66 17.6-1.14 24.87 1.8"/><path fill="#da6555" d="M292 99a23 23 0 0 1 7.54 5.33l2.05 2.05 2.17 2.22 2.25 2.27 7.12 7.2 11.56 11.68 2.03 2.05 1.78 1.8c1.47 1.5 1.47 1.5 3.5 2.4l-.04-1.93-.02-2.5-.04-2.5c.1-2.07.1-2.07 1.1-3.07q2.78-.12 5.57-.1l3.4.01 3.6.03 3.6.01 8.83.05-.05 3.25q-.06 6.03-.02 12.06.01 2.6-.04 5.2c-.39 10.29-.39 10.29 3.11 19.65 2.78 2.81 5.46 5.07 9 6.84v2l1.81.81c2.27 1.23 3.7 2.08 5.19 4.19-.08 3.24-.83 4.77-2.75 7.38-2.25 1.62-2.25 1.62-4.56 1.8-3.5-1.54-5.57-3.8-8.14-6.59-1.48-1.7-1.48-1.7-3.55-2.59l-1 17h14c-.84 4.2-1.5 6.28-3.56 9.81l-1.38 2.4L365 211l-1-2 5-10-37-1v-1h24c1.14-14.81 1.14-14.81-5-27.54-2.57-2.32-5.21-4.4-8-6.46a316 316 0 0 1-3.94-3.44L336 157a563 563 0 0 1-5-5l-2.7-2.7C307 128 307 128 304.3 125.28a134 134 0 0 0-8.73-7.72L294 116v-2c-7.15 5.97-13.65 12.57-20.19 19.19l-6.35 6.42-1.44 1.46A96 96 0 0 1 257 149q-3.66 3.6-7.19 7.31C248 158 248 158 246 158l-.69 1.69c-1.69 2.97-3.78 5.03-6.31 7.31h-2l-.75 1.75A22 22 0 0 1 231 175h-2v23h-13l-1 2-1-3c4.72-1.57 9.08-.52 14 0l-1-17-6 6h-2l-1 3c-3.57-.3-5.03-1.02-7.87-3.31-2.13-2.69-2.13-2.69-2.25-4.75 1.57-2.72 3.55-4.18 6.12-5.94h2v-2l2.06-1.62c3.18-2.57 5.65-5.38 8.3-8.47A61 61 0 0 1 232 157h2l1-3h2l1-3h2l1-3h2l1-3c1.7-1.75 1.7-1.75 3.81-3.56l2.08-1.82A29 29 0 0 1 256 136v-2c1.57-1.52 1.57-1.52 3.69-3.25a50 50 0 0 0 7.19-7.19L269 121h2l.76-1.76c1.4-2.53 2.96-4.1 5.08-6.06l2.28-2.12 2.38-2.19 4.66-4.32 2.08-1.92q1.92-1.78 3.76-3.63"/><path fill="#1a75aa" d="M292 14v2h3a30.4 30.4 0 0 1 4 17h-1c-1.67-5.3-3.27-10.47-4-16h-2l-.33 1.69-.48 2.31-.46 2.25c-.97 3.67-2.4 7.2-3.73 10.75h-18l1 4h-2v-2l-3.01 1.84c-3.8 2.18-7.6 3.47-11.8 4.66a118 118 0 0 0-13.63 4.75c-4.54 1.91-8.66 2.43-13.56 2.75v2l-2.21.66A940 940 0 0 0 201 59.9l-2.24.74-1.98.66c-2.08.76-2.08.76-4.79 2.71q-2.58.7-5.19 1.25a127 127 0 0 0-16.79 5.48 176 176 0 0 1-16.35 5.31A18 18 0 0 0 147 80l-.94 2.13C145 84 145 84 142.76 84.9c-2.76.09-2.76.09-5.4-1.86l-2.61-2.74-2.64-2.7c-2.98-3.69-2.98-3.69-3.11-6.61 1.94-2.75 1.94-2.75 4-5l-3-2 1.68-.8 2.2-1.08 2.17-1.05c2.1-1.04 2.1-1.04 3.95-3.07 2.33-.24 2.33-.24 5.25-.31 6.25-.42 11.4-2.15 17.21-4.38 3.33-1.23 6.62-2.2 10.04-3.12 7.23-2 14.2-4.58 21.24-7.19 8-2.95 16.1-5.52 24.26-8a168 168 0 0 0 13.44-4.81c5.53-2.26 11.2-4.1 16.87-5.97q6.45-2.1 12.81-4.47A98 98 0 0 1 274 16l3.46-.82 3.79-.87 3.58-.82c2.9-.45 4.47-.49 7.17.51"/><path fill="#de6352" d="M292 123c3.48 1.3 6 3.55 8.75 6l2.42 2.13C305 133 305 133 305 135l1.69.63c2.55 1.52 4 3.34 5.82 5.66 2.3 2.64 4.96 4.83 7.62 7.1A86 86 0 0 1 326 154l-1 2-6-5v3l-.22 6.42-.14 3.8-.14 3.97L318 182l-2.87.31c-3.42.38-3.42.38-5.13 3.69l-1-21c-1.26 2.52-1.1 4.31-1.06 7.13l.02 2.75.04 2.12-5 1q-.08-2.7-.12-5.37l-.08-3.03c.2-2.6.2-2.6 2.2-4.6l-4-1v15h7v6l-5 1v-2h-3v2l7 2v1c-5.75.13-5.75.13-8-1v-5h5v2h2v-3l-2.37.13C301 182 301 182 299 180l-1 2h-6v-15h-2v15l-5.37.56-3.03.32c-2.6.12-2.6.12-4.6-.88v-4h-2l-.25 3.38c-.75 3.62-.75 3.62-2.5 5.06-4.04 1-6.32 1.06-10.06-.94L260 184q.14-2.16.31-4.31l.18-2.43c.6-2.67 1.62-3.37 3.51-5.26-.23-3.65-.23-3.65-1-7l-3-1v-5l-2-1c1.36-4.22 3.1-6.31 6.47-9.16a283 283 0 0 0 16.03-15.34l5.28-5.34 2.32-2.35C290 124 290 124 292 123m-19 33-2 15-4 1c-2.67 2.08-3.85 3.21-4.5 6.56.28 2.6.28 2.6 2.5 4.25l2 1.19c2.03-.64 2.03-.64 4-2 .81-2.56.81-2.56 1-5l-2-1-1 4h-3v-5h2v-2a37 37 0 0 1 9 2c2.06 3.13 2.06 3.13 3 6h2l-.87-8-.24-2.25A98 98 0 0 0 278 156zm41 2v2h3v-2zm-28 6v17h3l1-15zm5 0-1 2h3l1 15h2v-17zm23 0v17h3v-17z"/><path fill="#8d2925" d="M248 198q9.69-.22 19.38-.33 3.3-.04 6.59-.12c3.16-.08 6.32-.1 9.48-.14l2.97-.09c6.7 0 6.7 0 9.34 2.06 1.4 1.66 1.4 1.66 3.24 4.62l-2.25.44q-3.39.69-6.75 1.56v5c-4.87-1.75-4.87-1.75-6-4-2.58-.7-2.58-.7-5.56-1.12l-3.07-.51L273 205v9l-1-2h-5l4-1v-2h-4v-2h4v-2h-7v9l-1-3h-2l-1-5-6-1v9l8-1v2h10l-2 3h-2l-.44 2.75A80 80 0 0 1 266 228h2v-2h4v2h2v-4h3l1 4h3v-3h2v3h4v-3h2v3h3v-2h4v2h2q-.38-2.22-.81-4.44l-.46-2.5L296 219l-3-1c5.75-.12 5.75-.12 8 1v9h2v-3c3 0 3 0 4.69 1.5L309 228l-.62-2.31C308 223 308 223 310 220l1 9h5l2 4c-2 2-2 2-3.82 2.25h-4.84l-2.84-.02h-2.98q-4.9 0-9.8-.03l-6.8-.01-17.88-.05-18.24-.04-35.8-.1q1.13-1.98 2.3-3.94l1.28-2.21C220 227 220 227 223.31 226H226l-.75-3.25c-.25-3.75-.25-3.75 1.69-6.19L229 215l-2-7c2.9 2.22 4.95 3.93 7 7l6-2v-4h2v3h2v2l6-1 1-8-2-1v-3z"/><path fill="#8f2d29" d="M351 198h19l-2.37 5q-1.33 3-2.63 6l-.99 2.09c-1.36 3.6-1.21 5.37.18 9.03 2.4 5.28 2.4 5.28 5.81 9.88v5h-54l1-3-1-3h-5l-1-6c-1.22 2.07-1.22 2.07-1 5l-3-1v-2h-3v3h-2v-10h5l2-13h13l2 3 2-7 6 1 2 10 2-6 6-1 1 3h-2v-2h-2l-1 6 7-1 1-7 2.25-.44q3.39-.69 6.75-1.56zm-42 8v8h1v-7l3-1zm37 0v8h1v-7l4-1zm-34 14v7h1v-7zm6 2 1 2Z"/><path fill="#dc6757" d="M292 99a22 22 0 0 1 7.12 4.89l1.75 1.76 1.86 1.89 1.94 1.94 6.08 6.14 4.14 4.17L325 130c-3 0-3 0-4.96-1.7-1.1-1.16-1.1-1.16-2.2-2.35l-2.47-2.56-5.06-5.37c-4.86-5.03-8.5-8.22-15.31-10.02v-4h-4q.42 2.22.88 4.44l.49 2.5.63 2.06 2 1-2.1 1.1c-3.59 2.35-6.35 5.12-9.34 8.18l-1.82 1.84q-2.88 2.9-5.74 5.82l-9.3 9.41A98 98 0 0 1 257 149q-3.66 3.6-7.19 7.31C248 158 248 158 246 158l-.69 1.69c-1.69 2.97-3.78 5.03-6.31 7.31h-2l-.75 1.75A22 22 0 0 1 231 175h-2v23h-13l-1 2-1-3c4.72-1.57 9.08-.52 14 0l-1-17-6 6h-2l-1 3c-3.57-.3-5.03-1.02-7.87-3.31-2.13-2.69-2.13-2.69-2.25-4.75 1.57-2.72 3.55-4.18 6.12-5.94h2v-2l2.06-1.62c3.18-2.57 5.65-5.38 8.3-8.47A61 61 0 0 1 232 157h2l1-3h2l1-3h2l1-3h2l1-3c1.7-1.75 1.7-1.75 3.81-3.56l2.08-1.82A29 29 0 0 1 256 136v-2c1.57-1.52 1.57-1.52 3.69-3.25a50 50 0 0 0 7.19-7.19L269 121h2l.76-1.76c1.4-2.53 2.96-4.1 5.08-6.06l2.28-2.12 2.38-2.19 4.66-4.32 2.08-1.92q1.92-1.78 3.76-3.63"/><path fill="#942b25" d="M294 114q1.87 2.16 3.66 4.37c3.12 3.8 6.78 7.01 10.46 10.25 6.27 5.59 12.13 11.58 18.02 17.55a176 176 0 0 0 12.32 11.51c2.3 1.98 4.4 4.16 6.54 6.32l2.9 2.61c7.76 7.18 7.76 7.18 8.81 10.88-.02 2.2-.02 2.2-.71 5.51a185 185 0 0 1-12-11 451 451 0 0 0-5.94-5.16A159 159 0 0 1 331 160l-3.6-3.6-7.8-7.8-1.87-1.87-4.51-4.54c-2.28-2.31-2.28-2.31-5.22-4.69a105 105 0 0 1-8-7.5l-3.31-3.31L294 124c-4.7 1.43-7.56 4.18-10.9 7.64l-1.66 1.69q-2.63 2.67-5.25 5.36l-8.59 8.73c-3.37 3.4-6.85 6.6-10.5 9.7-2.8 2.5-5.43 5.15-8.06 7.81l-1.58 1.6-6.5 6.6-4.8 4.87-1.48 1.52A98 98 0 0 1 231 183h-2c-.36-3-.6-5.09 0-8 2-2.45 4.45-4.14 7-6 2.65-2.52 5-5 7.25-7.87 2.76-3.4 6.14-5.8 9.62-8.41 2.8-2.26 4.87-4.94 7.13-7.72q1.66-1.49 3.38-2.91a184 184 0 0 0 10.58-10.02l1.58-1.6 6.5-6.6 4.8-4.87 1.48-1.52c3.45-3.48 3.45-3.48 5.68-3.48"/><path fill="#e87822" d="M292 17h2l.59 1.98.79 2.64.77 2.6c.9 2.95 1.88 5.86 2.85 8.78l18 1c-1.08 4.32-1.66 4.94-4.94 7.63L308 45c-2.41 1.96-2.41 1.96-2.12 5.63L306 54l4 2h-2l3 10c-5.44-1.09-6.94-2.45-11-6-3.35-2.54-3.35-2.54-7.37-2.75-2.86.81-4.76 1.93-7.2 3.63l-2.25 1.55a124 124 0 0 0-4.33 3.27C277 67 277 67 275 67q.46-2.2.94-4.37l.52-2.47C277 58 277 58 278 56l-2-1 4-1c.43-4.3.41-7.01-2.31-10.37-2.47-2.8-2.47-2.8-5.69-3.63v-2l-3-1v-3l18-1 1.94-6.31c1-3.24 1.99-6.48 3.06-9.69"/><path fill="#de6352" d="m282.42 235.89 6.97.02 12.86.04L315 236l-3 1 1 7-3 1v3h4v-3h7v11h3v3h-3v5h-5v-4l-7 1-1 3h-15l-1-3-1.56 1.5c-3.29 2.02-5.64 1.78-9.44 1.5l-3-1-1 2-6.87.06-3.87.04C263 265 263 265 261 264c-.62-3.06-.62-3.06-1-6l4 1v-4h-2c-.37-6.46-.37-6.46 1.16-8.73 2.56-1.77 4.33-1.5 7.4-1.33 2.87.19 2.87.19 5.44.06 2.35-1.89 2.35-1.89 2.06-5.06L278 237c1-1 1-1 4.42-1.11M263 249v4h2l2-4 3 1v6l4-3c-.57-2.87-.86-3.86-3-6-3.73-.38-4.78-.15-8 2m16.8-.82c-2 1.69-2 1.69-2.3 4.2l.06 2.62v2.62c.52 2.8 1.16 3.72 3.44 5.38 4.08.42 5.53.31 9-2 .66-2.05.66-2.05.81-4.38l.27-2.33c-.1-2.66-.57-4.1-2.08-6.29-3.58-1-5.85-1.62-9.2.18m16.33.13c-1.4 1.77-1.4 1.77-1.13 4.69l3-1 1-3 4 1c-.09 2.9-.54 4.55-2.62 6.6a139 139 0 0 1-3.88 3.07L295 261v2h12v-3l-6-1 2.5-2.19c2.7-2.53 2.7-2.53 2.94-5.5-.25-2.5-.25-2.5-2.44-4.31-4.2-.46-4.2-.46-7.87 1.31M315 248v2l2 1v5l-6 1-1-2v3l7 1 1 4h2v-5l3-1h-3v-10c-2.93-.22-2.93-.22-5 1m-2 3-1 2h2zm-50 9v3h11v-3h-6v-2c-2.32-.18-2.32-.18-5 2"/><path fill="#e4eef4" d="m448 61 2.06.88A105 105 0 0 0 460 65v10l6 1q.15 32 .2 64l.1 29.72q.06 12.96.08 25.93 0 6.86.04 13.7.04 6.48.03 12.95l.03 4.71c.12 13.29-1.61 26.53-6.48 38.99l-2 1a78 78 0 0 0-2 5c-6.69-3.4-6.69-3.4-7.9-5.7-.15-3.47 1.27-6.25 2.65-9.36A118 118 0 0 0 457 238h1l2-19h1l.38 2.44.62 2.56 2 1V77l-5-1V66l-3.25-.25c-4.02-.8-5.23-1.63-7.75-4.75"/><path fill="#dd6251" d="M335 128h21l1 37h-2l-1 5h-2v-2l-2.06-.12c-4.23-1.27-6.77-3.9-9.94-6.88l-2.37-2c-2.1-2.58-2.33-4.73-2.63-8h4l2-2c-2.56-3.39-2.56-3.39-5.66-6.25-2.9-3.8-.82-10.39-.34-14.75"/><path fill="#98332d" d="M252.8 196.9h6.87l17.97.03 18.38.02L332 197v1h-84l3 6c.33 2.52.33 2.52.25 4.81l-.05 2.33C251 213 251 213 250 214q-3 .06-6 0v-2h-2v-3l-.56 2.38C240 214 240 214 236.38 215.3l-3.38.7-5-7 1.06 1.81C230 213 230 213 229 216l-1.56 1.25c-2.24 2.73-1.63 5.35-1.44 8.75l-3.31 1.19c-3.6 1.51-5.04 3.2-6.69 6.81l-1-2q1.53-2.62 3.11-5.2c2.08-3.47 4.01-6.82 4.89-10.8-1.12-4.11-2.71-6.79-5.19-10.23-2-3.05-1.98-4.24-1.81-7.77 12.25-1.31 24.5-1.13 36.8-1.1M244 206v6h1v-6zm-5 5 1 2Z"/><path fill="#e1948a" d="m335.4 125.89 3.17.01 3.4.01 3.6.03 3.6.01 8.83.05-.05 3.25q-.06 6.03-.02 12.06.01 2.6-.04 5.2c-.39 10.29-.39 10.29 3.11 19.65 2.78 2.81 5.46 5.07 9 6.84v2l1.81.81c2.27 1.23 3.7 2.08 5.19 4.19-.08 3.24-.83 4.77-2.75 7.37C372 189 372 189 369.69 189.2c-3.5-1.55-5.57-3.81-8.14-6.6-1.48-1.7-1.48-1.7-3.55-2.59l-1 17h14c-.84 4.2-1.5 6.28-3.56 9.81l-1.38 2.4L365 211l-1-2 5-10-37-1v-1h24l-.13-10.56.01-3.29c-.18-6.2-1.16-9.6-5.6-14.02L349 168h3v2h2l.44-2.31C355 165 355 165 356 162a224 224 0 0 0 .38-10.29l.31-12.42L357 127h-23v7q-.42 2.52-1 5l-4-2 1-2 2 1-.04-1.93-.02-2.5-.04-2.5c.14-3.02.49-3.04 3.5-3.18"/><path fill="#e5b2ac" d="M312 155h6c.83 3.55 1.07 6.66.88 10.3l-.15 2.96-.17 3.05-.16 3.11-.4 7.58-2.87.31c-3.42.38-3.42.38-5.13 3.69l-1-21c-1.26 2.52-1.1 4.31-1.06 7.13l.02 2.75.04 2.12-5 1q-.08-2.7-.12-5.37l-.08-3.03c.2-2.6.2-2.6 2.2-4.6l-4-1v15h7v6l-5 1v-2h-3v2l7 2v1c-5.75.13-5.75.13-8-1v-5h5v2h2v-3l-2.37.13C301 182 301 182 299 180l-1 2h-6v-15h-2v15h-5l-.06-9.44-.03-2.72v-2.59c-.02-1.18-.02-1.18-.02-2.4C285 163 285 163 286 162q2.9-.12 5.79-.1l3.54.01 3.73.03 3.75.01 9.19.05zm2 3v2h3v-2zm-28 6v17h3l1-15zm5 0-1 2h3l1 15h2v-17zm23 0v17h3v-17z"/><path fill="#933f3d" d="M254 205h6l.38 2.44.62 2.56 2 1 1-6h7l-1 2h-3v2h4l1 3 1-7h7c2 6.63 2 6.63 2 10l-2.44.94c-2.45.82-2.45.82-3.56 2.06 3.73-.5 5.81-.87 9-3v3h4v4l1.25-1.5C292 219 292 219 296 219c1.5 3.37 2 5.2 2 9h-2v-2h-4v2h-3v-3h-2v3h-4v-3h-2v3h-3l-1-4h-3v4l-6-2v2h-2a60 60 0 0 1 3-12l-7-1v-2l-8 1zm21 1 4 1Zm10 17 1 2Z"/><path fill="#edad7e" d="M280 349h26c1.33 3.98-.02 6.22-1.62 9.88l-1.54 3.67A25 25 0 0 1 296 371c-3.87.07-6.04-.2-9.04-2.7-2.23-2.62-3.4-5.05-4.71-8.24l-1.3-3.09C280 354 280 354 280 349"/><path fill="#e17927" d="M426 55c4.55.72 9.04 1.62 13.54 2.6 2.5.48 2.5.48 5.17.32L447 58c1.5 2.19 1.5 2.19 3 5q2.44 2.56 5 5l2 2c-.14 4.24-3.3 6.86-6.06 9.75l-1.43 1.54L446 85c-3.8-.54-5.2-2-7.56-4.94-2.12-2.59-3.62-4.18-6.44-6.06.52-5.87 3.97-8.97 8-13l-11-2-1-3z"/><path fill="#eb9a8e" d="M292 99a22 22 0 0 1 7.12 4.89l1.75 1.76 1.86 1.89 1.94 1.94 6.08 6.14 4.14 4.17L325 130c-3 0-3 0-4.96-1.7-1.1-1.16-1.1-1.16-2.2-2.35l-2.47-2.56-5.06-5.37c-4.86-5.03-8.5-8.22-15.31-10.02v-4h-4q.42 2.22.88 4.44l.49 2.5.63 2.06 2 1-2.25 1.25c-2.8 1.61-2.8 1.61-4.75 3.94-2 1.81-2 1.81-4.75 2.06L281 121v-3c-2.87 2.72-2.87 2.72-5 6l-3-1-2.31 2.5C268 128 268 128 265 128l-.31 1.81c-.79 2.5-1.66 3.57-3.69 5.19h-2v2l-2.44.94c-4.27 2.09-7.2 5.57-10.41 9-2 1.92-3.62 3-6.15 4.06l1-3h2l1-3c1.7-1.75 1.7-1.75 3.81-3.56l2.08-1.82A29 29 0 0 1 256 136v-2c1.57-1.52 1.57-1.52 3.69-3.25a50 50 0 0 0 7.19-7.19L269 121h2l.76-1.76c1.4-2.53 2.96-4.1 5.08-6.06l2.28-2.12 2.38-2.19 4.66-4.32 2.08-1.92q1.92-1.78 3.76-3.63"/><path fill="#e77824" d="M140 58c3.8 1.58 6.33 4 9.25 6.88l2.7 2.61C154 70 154 70 154 74h-2l-.81 1.88C150 78 150 78 147 80l-.87 2.06C145 84 145 84 142.76 84.91c-2.76.09-2.76.09-5.4-1.86l-2.61-2.74-2.64-2.7c-2.98-3.69-2.98-3.69-3.11-6.61 1.94-2.75 1.94-2.75 4-5l-3-2 1.68-.8 2.2-1.08 2.17-1.05c2.1-1.04 2.1-1.04 3.95-3.07"/><path fill="#bbe0f2" d="m151 289 1.75 1.88c2.04 2.16 2.04 2.16 4.27 3 3.01 1.7 3.58 4.15 4.85 7.25 1.4 2.32 2.71 2.75 5.13 3.87a60 60 0 0 1 5.13 8.2c2.74 4.1 6.22 7.36 9.75 10.8l10.71 10.6a300 300 0 0 0 25.1 22.5A76 76 0 0 1 224 363l-1 3c-4.38-.5-6.8-1.98-10-5v-2l-1.78-.82c-7.62-4.06-13.8-11.58-19.84-17.61l-4.34-4.3c-6.44-6.44-12.72-12.9-17.14-20.93-2.09-3.67-4.5-6.62-7.28-9.78l-4.32-5.03c-7.3-8.61-7.3-8.61-7.3-11.53"/><path fill="#dd6150" d="M334 135q3.06 1.91 6 4v2l1.65.65c3.16 1.81 5.48 4.3 7.98 6.91 3.33 3.67 3.33 3.67 7.37 6.44v10h-2l-1 5h-2v-2l-2.06-.12c-4.23-1.27-6.77-3.9-9.94-6.88l-2.37-2c-2.1-2.58-2.33-4.73-2.63-8h4l2-2c-2.64-3.44-2.64-3.44-5.75-6.44-1.92-2.4-1.45-4.6-1.25-7.56"/><path fill="#df7d2f" d="m314 39-1.75 1.5c-4.31 3.68-4.31 3.68-6.78 8.59-.01 2.1-.01 2.1.53 4.91l4 2h-2l3 10c-5.44-1.09-6.94-2.45-11-6-3.35-2.54-3.35-2.54-7.37-2.75-2.86.81-4.76 1.93-7.2 3.63l-2.25 1.55a124 124 0 0 0-4.33 3.27C277 67 277 67 275 67l1.46-6.84C277 58 277 58 278 56l-2-1 4-1v5h5v-5h3v-4l4 1v2h5l.75-1.94C299 49 299 49 301.13 48.25L303 48v-4h4v-5c4.75-1.12 4.75-1.12 7 0m-22 9 2 1-2 2z"/><path fill="#ecb5ae" d="M305 246c1.94 1.31 1.94 1.31 3 3v4l1.88-.56C312 252 312 252 314 253l1-3 3 1q.06 2.5 0 5l-1 1h-6l-1 1h7l1 5h2v-16l-5 1 1-2h5v10h3v3h-3v5h-5v-4l-7 1-1 3h-14c1.08-5.38 2.08-6.48 6-10l-6 1c-.48-6.38-.48-6.38 1.56-9 3.5-1.43 5.82-.92 9.44 0m-8.87 2.31c-1.4 1.77-1.4 1.77-1.13 4.69l3-1 1-3 4 1c-.09 2.9-.54 4.55-2.62 6.6a139 139 0 0 1-3.88 3.07L295 261v2h12v-3l-6-1 2.5-2.19c2.7-2.53 2.7-2.53 2.94-5.5-.25-2.5-.25-2.5-2.44-4.31-4.2-.46-4.2-.46-7.87 1.31"/><path fill="#dc6150" d="M279 118h2l1 2 3 1a241 241 0 0 1-14.75 15.94l-2.32 2.36-2.23 2.23-2 2.02C262 145 262 145 260 145l-1-3h-2l-2-4 4-1v-2l2.44-1.94c2.8-1.87 2.8-1.87 3.56-5.06q1.99-1.02 4-2a90 90 0 0 0 4-4l1 2h2l.94-2.44C278 119 278 119 279 118"/><path fill="#8d2825" d="m338.88 197.81 3.37-.03 3.24-.01 2.98-.01C351 198 351 198 354 200v2c-3.44 2.29-4.99 2.18-9 2v10l-1-3-7 1 1-5 4 1-1-2h-6l-2 8h-1v-10l-4-2-2-3c2.53-2.53 9.48-1.19 12.88-1.19"/><path fill="#e59d94" d="M278 156h2l1.5 8.5.43 2.4A75 75 0 0 1 283 182h-6v-4h-2l-.25 3.38c-.75 3.62-.75 3.62-2.5 5.06-4.04 1-6.32 1.06-10.06-.94L260 184c.03-7.72.03-7.72 2.26-10.68 2.66-2.26 5.24-3.92 8.74-4.32v2l-6 2-1 8 5 2c2.28-2.82 2.28-2.82 2-6l-2 4-4-1 1-5h2v-2c6.3-.36 6.3-.36 9.38 1.25 1.8 1.95 2.1 3.19 2.62 5.75l2 1-.93-3.44a98 98 0 0 1-2.2-13.56z"/><path fill="#e49e92" d="m232 157 2 1-2.37 2.19c-2.47 2.64-3.56 4.41-4.63 7.81h-3v2l-1.87 1.75c-2.53 2.68-3.38 4.66-4.13 8.25.9 2.16.9 2.16 2 4l1.46-1.53 1.91-1.97 1.9-1.97C227 177 227 177 229 177v21h-13l-1 2-1-3c4.72-1.57 9.08-.52 14 0l-1-17-6 6h-2l-1 3c-3.57-.3-5.03-1.02-7.87-3.31-2.13-2.69-2.13-2.69-2.25-4.75 1.57-2.72 3.55-4.18 6.12-5.94h2v-2l2.06-1.62c3.18-2.57 5.65-5.38 8.3-8.47A88 88 0 0 1 232 157"/><path fill="#e8a198" d="m358 163 5.1 4.4a132 132 0 0 0 4.84 3.85L370 173v2l1.81.81c2.27 1.23 3.7 2.08 5.19 4.19-.08 3.24-.83 4.77-2.75 7.38-2.25 1.62-2.25 1.62-4.56 1.8-4.08-1.8-6.73-4.9-9.69-8.18l2-7h2c-1.17-3.81-1.17-3.81-4.12-6.31L358 167z"/><path fill="#eab1a6" d="M271 245c2.76 1.96 3.82 3.11 4.5 6.44-.67 3.4-2.1 5.09-4.5 7.56l-3 1v-2l-5 2v3h11l.81-5.19c.83-4.61 1.78-8.4 5.19-11.81 2.67-.14 5.32-.04 8 0l1 2-3.31-.12c-3.78-.2-3.78-.2-6.69 2.12-.44 2.33-.44 2.33-.31 4.94v2.65c.16 2.67.16 2.67 2.31 5.41h-3l-1 2-6.87.06-3.87.04C263 265 263 265 261 264c-.62-3.06-.62-3.06-1-6l4 1v-4h-2c-.36-6.38-.36-6.38 1.13-8.94 2.8-1.59 4.7-1.51 7.87-1.06m-8 4v4h2l2-4 3 1v6l4-3c-.57-2.87-.86-3.86-3-6-3.73-.38-4.78-.15-8 2"/><path fill="#dc6c5d" d="m282.06 235.94 2.94.06c-.6 3.36-1.85 5.38-4 8l3.31-.25c3.69.25 3.69.25 5.44 2.19L291 248l3 1v6l6-1c-1.37 3.16-1.99 4-5 6-1.2 2.05-1.2 2.05-2 4l-1-3-1.56 1.5c-3.25 2-5.7 1.72-9.44 1.5v-1l8-2c1.23-7.19 1.23-7.19-1-14-4.03-.33-4.03-.33-8 0-3.28 3.5-3.46 7.36-4 12-1 1-1 1-4.06 1.06L269 260l2.56-2.5c1.72-2.01 2.42-3.01 2.55-5.68A69 69 0 0 0 273 246l2.5-1.12L278 243c.33-3.08.33-3.08 0-6 1-1 1-1 4.06-1.06"/><path fill="#166491" d="m134 66-2.06 2.19c-2.26 2.63-2.26 2.63-1.69 5.62L131 76h-2v143h-1V66c2.5-1.25 3.41-.78 6 0"/><path fill="#1f89c4" d="m151 76 2 1c-.49 7.34-.49 7.34-2.94 10.5C148 89 148 89 146 89v102h-1q-.1-21-.16-41.99-.01-9.75-.07-19.49-.05-9.4-.05-18.81l-.04-7.18q-.03-5.03-.02-10.05l-.03-3c.04-8.54.04-8.54 3.37-12.48z"/><path fill="#8c2d2d" d="M293 218c5.75-.12 5.75-.12 8 1v7h-2v3h-4v2c-3.72.7-7.21 1.11-11 1v-2l-2.25 1.19c-5.62 1.21-10.33-.56-15.75-2.19l-1 2v-5l1 2h2v-2h4v2h2v-4h3l1 4h3v-3h2v3h4v-3h2v3h3v-2h4v2h2q-.38-2.22-.81-4.44l-.46-2.5L296 219z"/><path fill="#efba96" d="M280 349h26c1.35 4.06-.19 6.37-1.87 10.06l-.86 1.93A171 171 0 0 1 300 368h-2l-1-4h2l-1-12-17-1 3 6.31c3 6.31 3 6.31 3 9.69-3-1.5-3.36-3.7-4.62-6.75l-1.36-3.17C280 354 280 354 280 349"/><path fill="#972c26" d="M334 135q3.06 1.91 6 4v2l1.65.65c3.16 1.81 5.48 4.3 7.98 6.91 3.33 3.67 3.33 3.67 7.37 6.44v7h-2v-2l-1.75-.69c-2.85-1.66-4.19-3.73-6.25-6.31q-1.94-1.78-3.94-3.5l-2.09-1.8q-2.48-2.14-4.97-4.26c-2-2.44-2-2.44-2.31-5.75z"/><path fill="#8d2e2a" d="M265 198h9v4h2v2h5l-1 2-7-1v9l-1-2h-5l4-1v-2h-4v-2h4v-2h-7v9l-1-3h-2l-1-5-6-1v-2c2.91-.81 4.46-1.22 7.31-.06L263 204z"/><path fill="#166b98" d="m452 65 6 1v86h-1V77h-2v2h-2v2h-2v2c-2.3 2.22-3.52 2.97-6.75 3.19L442 86l-2-5 2 1v2c4.8-.43 6.72-2.28 9.88-5.81l2.42-2.65c1.94-2.34 1.94-2.34 1.56-4.72A27 27 0 0 0 452 65"/><path fill="#df9d92" d="M312 155h6c.83 3.55 1.07 6.66.88 10.3l-.15 2.96-.17 3.05-.16 3.11-.4 7.58-7 1v-20l-5 1-1-2h7zm2 3v2h3v-2zm0 6v17h3v-17z"/><path fill="#cf9593" d="M329 205h3l1 7 2-6 6-1 1 3h-2v-2h-2l-1 6 7-1 1-6h7l-1 2-5-1 1 3h4a88 88 0 0 1 1 5c-1 1-1 1-2.77 1.11l-2.27-.01-2.45-.01-2.57-.03L333 215l-1 2v-2h-3z"/><path fill="#924a49" d="M290 205h15l-4 2v2h4l1 6q-3.12.33-6.25.63l-3.52.35c-3.17.02-4.61-.28-7.23-1.98v-2l2-1-2-1z"/><path fill="#e3f1f7" d="m151 289 1.75 1.88c2.04 2.16 2.04 2.16 4.27 3 3.01 1.7 3.58 4.15 4.85 7.25 1.4 2.32 2.71 2.75 5.13 3.87a89 89 0 0 1 5.5 8.63c1.42 2.46 1.42 2.46 3.63 4.37 2.18 2.33 2.52 3.87 2.87 7h2v3h2a36 36 0 0 1 9 12c-8.42-6.7-17.77-14.96-21.96-25.05-1.93-3.63-4.93-6.44-7.72-9.43-4.68-5.08-8.95-9.97-11.32-16.52"/><path fill="#da6a5a" d="M229 183h2l1 13 3.4-.04 48.04-.6a9059 9059 0 0 1 30.18-.38l2.49-.04c5.37-.05 10.55.38 15.89 1.06v1H229z"/><path fill="#8d3c3c" d="M308 205h13l2 3 1-3h3l-3 9-4-1-3 2c-3.02.26-5.96.09-9 0zm1 1v8h1v-7l3-1z"/><path fill="#917a61" d="M140 58c3.81 1.59 6.37 4 9.31 6.88l2.74 2.61C154 70 154 70 153.8 72.32L153 74l-1.06-2.06c-2.76-4.18-6.23-9.08-11.16-10.64L139 61l-.69 2.25c-1.55 3.26-3.4 4.68-6.31 6.75.15 5 2.9 7.28 6.3 10.55A9 9 0 0 0 142 83v-3h3v-3l7-2-2.37 2.25c-2.66 2.47-2.66 2.47-3.63 5-1 1.75-1 1.75-3.23 2.65-2.77.1-2.77.1-5.41-1.85l-2.61-2.74-2.64-2.7c-2.98-3.69-2.98-3.69-3.11-6.61 1.94-2.75 1.94-2.75 4-5l-3-2 1.68-.8 2.2-1.08 2.17-1.05c2.1-1.04 2.1-1.04 3.95-3.07"/><path fill="#298dc6" d="m336 340 2 1-2.37 1.75c-2.43 2.08-3.49 3.34-4.63 6.25h-4l-.81 2.25c-2 4.64-2 4.64-4.19 6.75-2 .68-4 1.14-6.06 1.58-2.27.5-4.04 1.06-5.94 2.42-.8 2.05-.8 2.05-1 4h-8a291 291 0 0 1 13.9-10.56q7.85-5.73 15.8-11.35c2.77-1.9 2.77-1.9 5.3-4.09"/><path fill="#eaa062" d="m292 48 2 1-2 2zm-4 2 4 1v2h5l.38 2.44L298 58l2 1-1.69-.44L296 58l-2.3-.77c-3.85-.33-5.23 1.2-8.2 3.58-3.42 2.72-6.35 4.77-10.5 6.19l1.46-6.84C277 58 277 58 278 56l-2-1 4-1v5h5v-5h3z"/><path fill="#4ba4d3" d="M403 275c.65 1.75.65 1.75 1 4-1 1.96-1 1.96-2.44 3.94-2.14 3.16-3.17 5.13-2.56 9.06l-3.02.56c-5 1.43-8.07 4.83-11.67 8.44q-1.93 1.91-3.88 3.81l-1.71 1.71A22 22 0 0 1 373 310c11.65-13.8 11.65-13.8 17.98-19.91a93 93 0 0 0 7.27-8.84z"/><path fill="#924a46" d="m284 215 1 3h4v4l1.25-1.5C292 219 292 219 296 219c1.5 3.37 2 5.2 2 9h-2v-2h-4v2h-3v-3h-2l-1 3-3-9c-2.33.96-2.33.96-4 4l-.37-1.94L278 219l-2-1 2.88-.37c3.2-.35 3.2-.35 5.12-2.63"/><path fill="#8b312f" d="M245 198h3c3.09 5.02 3.63 9.24 3 15-1 1-1 1-4.06 1.06L244 214c-1.35-2.7-1.07-5-1-8l-2-1c2.88-5.87 2.88-5.87 4-7m-1 8v6h1v-6z"/><path fill="#e6eff3" d="M192 340a60 60 0 0 1 14.45 9.7c1.53 1.39 1.53 1.39 3.55 2.3v4l5 1v2h3c2.19 2 2.19 2 4 4l-1 3c-6.87-3.62-6.87-3.62-8-7a70 70 0 0 0-4-2c-6.12-4.73-11.75-10.33-17-16z"/><path fill="#67b1d7" d="m222 76-2.63.96-22 8.06a292 292 0 0 0-10.09 3.9c-3.33 1.1-4.12 1.08-7.28.08l4-1v-2l5-1v-2l7 1 1-3h4v-2l7 1v-3c2.24-1.12 3.96-1.34 6.44-1.62l2.37-.3C219 75 219 75 222 76"/><path fill="#dc6354" d="M306 236h9l-3 1 1 7-3 1v3h4v-3h7v1l-2.31.19c-2.91.55-2.91.55-4.19 3.31-1.5 2.5-1.5 2.5-4.19 3.31L308 253l-.81-2.37c-1.04-2.91-1.04-2.91-4.19-4.63a75 75 0 0 0-5-1v-1h6l1-3 3 4c1.97-1.97 1.66-5.35 2-8l-4 1z"/><path fill="#df624f" d="m366 175 1 2 2.88.44c3.23.58 4.15 1.04 6.12 3.56a19 19 0 0 1-5 7c-3.13-1.08-3.99-1.98-5.75-4.87C364 180 364 180 364 176z"/><path fill="#dd8c82" d="m269 121 2 1c-.75 2.44-.75 2.44-2 5-2.12.81-2.12.81-4 1l-.31 1.81c-.79 2.5-1.66 3.57-3.69 5.19h-2v2l-2.44.94c-4.27 2.09-7.2 5.57-10.41 9-2 1.92-3.62 3-6.15 4.06l1-3h2l1-3c1.7-1.75 1.7-1.75 3.81-3.56l2.08-1.82A29 29 0 0 1 256 136v-2c1.57-1.52 1.57-1.52 3.69-3.25A64 64 0 0 0 269 121"/><path fill="#e1948b" d="M287 249c1.11 2.23 1.16 3.53 1.19 6l.04 2.13C288 259 288 259 286 261c-4.56-.56-4.56-.56-6-2-.23-2.86-.41-5.2 0-8 2.6-2.96 3.2-3.27 7-2"/><path fill="#f5d9d2" d="M268 173c6.4-.37 6.4-.37 9.44 1.5L279 176l-1 3-3-3-1.37 3.38C272 183 272 183 270 185c-2.62.13-2.62.13-5 0l-2-4 6 2c2.28-2.82 2.28-2.82 2-6l-2 4-4-1 1-5h2z"/><path fill="#eba9a2" d="m289 248 5 1v6l6-1c-1.37 3.16-1.99 4-5 6-1.2 2.05-1.2 2.05-2 4l-1-3-1.56 1.5c-3.25 2-5.7 1.72-9.44 1.5v-1l8-2q.3-2.12.56-4.25l.32-2.4c.12-2.36-.18-4.1-.88-6.35"/><path fill="#448aac" d="m301 366 2 1-2.37 1.63c-3 2.7-3.55 4.56-4.63 8.37l-2 2c-2.62-.37-2.62-.37-5-1v-6h-2l1-4 3 2c3.64.57 4.75.17 7.81-2z"/><path fill="#8d2824" d="M340 198q2.66-.08 5.31-.12l3-.08c2.69.2 2.69.2 5.69 2.2v2c-3.44 2.29-4.99 2.18-9 2l-1 2-2-1v-2h-2z"/><path fill="#edbab0" d="m232 157 2 1-2.37 2.19c-2.47 2.64-3.56 4.41-4.63 7.81h-3v2c-3.98 4.45-8.28 8.1-14 10l1.5 2.31C213 185 213 185 213 188c-2.56-2.25-2.56-2.25-5-5-.12-2.06-.12-2.06 1-4 4.33-4 4.33-4 7-4v-2l2.06-1.62c3.18-2.57 5.65-5.38 8.3-8.47A88 88 0 0 1 232 157"/><path fill="#9c4e4c" d="M240 205v2l-3 1 4 2-1 4-7 2-3-4c2.34-5.23 4.02-7.49 10-7m-1 6 1 2Z"/><path fill="#7aaecb" d="M342 27c5.87.4 10.54 2.39 15.91 4.72 4.27 1.77 8.63 3.07 13.09 4.28-3.74 2.13-5.79 1.96-10 1v-2l-8 1-1-2.31c-2.83-3.8-5.53-4.3-10-5.69z"/><path fill="#79bcdc" d="m371 310 2 1-2 7-1.75.19c-2.48.66-2.48.66-4.06 3.19-2.72 3.26-5.2 4.24-9.19 5.62h-3l2.88-3 1.61-1.69C359 321 359 321 361 321v-2c1.68-1.66 1.68-1.66 3.88-3.5A98 98 0 0 0 371 310"/><path fill="#893837" d="m336 203 6.15 1.46C344 205 344 205 345 206c.14 2.67.04 5.32 0 8l-1-3-7 1 1-5 4 1-1-2h-6l-2 8h-1v-9h4z"/><path fill="#d6935d" d="M426 55c4.55.72 9.04 1.62 13.54 2.6 2.5.48 2.5.48 5.17.32L447 58c1.5 2.19 1.5 2.19 3 5q2.44 2.56 5 5c-2 1-2 1-4 .44-2.8-2.01-3.15-4.18-4-7.44l-2.81.13c-5.16.02-10.15-1.11-15.19-2.13l-1-3z"/><path fill="#d1766c" d="m284 160 5 1-3 2c-.49 2-.49 2-.48 4.32l-.09 2.56-.06 2.68-.16 5.26-.05 2.35C285 182 285 182 284 183q-2.5.06-5 0l4-1-.44-2.89-.56-3.8-.56-3.76A55 55 0 0 1 281 163l3-1z"/><path fill="#8f3938" d="M274 224h3l1 4h3v-3h2v3l3 1-2.37.38c-2.77.41-2.77.41-4.63 2.62-2.02-.2-2.02-.2-4.37-.81-1.16-.3-1.16-.3-2.34-.58L270 230l-4-1-1 2v-5l1 2h2v-2h4v2h2z"/><path fill="#4da2cf" d="M340 64c4.32 2.04 8.29 2.52 13 3l2 5a59 59 0 0 1-10.3-2.85l-2.96-1.08-3.05-1.13-3.11-1.15L328 63v-1c4.98-1.21 7.54-.23 12 2"/><path fill="#f9dbd7" d="M300 164c1.44 2.88 1.1 5.42 1.06 8.63l-.02 3.6L301 179h7v6l-5 1v-2h-3v2l7 2v1c-5.75.13-5.75.13-8-1v-5h5v2h2v-3l-2.37.13C301 182 301 182 299 180c-.17-2.56-.23-5-.19-7.56v-2.12c.05-5.18.05-5.18 1.19-6.32"/><path fill="#c3e2f3" d="M367 358c.63 1.88.63 1.88 1 4-2 2-2 2-4.31 2.69-2.9 1.4-3.45 2.2-5.13 4.81-1.83 2.77-2.5 3.47-5.62 5-2.88.49-4.22.3-6.94-.5l1.71-1.25 7.67-5.62 2.69-1.98 2.58-1.9 2.38-1.74c2.05-1.5 2.05-1.5 3.97-3.51"/><path fill="#326a89" d="m452 65 6 1v12l-3-1v2h-2v2h-2v2c-2.3 2.22-3.52 2.97-6.75 3.19L442 86l-2-5 2 1v2c4.8-.43 6.72-2.28 9.88-5.81l2.42-2.65c1.94-2.34 1.94-2.34 1.56-4.72A27 27 0 0 0 452 65"/><path fill="#fbf4e6" d="M280 349h26c1 3 1 3-.44 6.19L304 358c-1-3-1-3 0-7l-23-1 3.95 8.94c1.24 2.87 2.05 4.9 2.05 8.06-3-1.5-3.36-3.7-4.62-6.75l-1.36-3.17C280 354 280 354 280 349"/><path fill="#196592" d="m134 66-2.06 2.19c-2.26 2.63-2.26 2.63-1.69 5.62L131 76h-2v36h-1V66c2.5-1.25 3.41-.78 6 0"/><path fill="#ba807f" d="M221 210c2.9 2.4 3.63 4.28 4 8l-1 3h2v5l-3.31 1.19c-3.6 1.51-5.04 3.2-6.69 6.81l-1-2a184 184 0 0 1 5.28-9.88c2.46-4.54 2.46-4.54 1.97-9.64z"/><path fill="#95c1d8" d="m151 289 1.75 1.88c2.04 2.16 2.04 2.16 4.27 3 3.01 1.7 3.58 4.15 4.85 7.25 1.4 2.32 2.73 2.7 5.13 3.87 1.63 2.22 2.73 4.54 4 7-3.17-.29-4.1-1.1-6.37-3.44q-1.26-1.54-2.5-3.12l-1.33-1.64-3.8-4.8-1.98-2.5c-4.02-5.2-4.02-5.2-4.02-7.5"/><path fill="#a77d56" d="M292 17h2l1 6-3 2c-.73 2.56-.73 2.56-1 5h-2l-1 5h-17l1 3-3-1v-3l18-1 1.94-6.31c1-3.24 1.99-6.48 3.06-9.69"/><path fill="#f9dfd8" d="M316 246h5v10h3v3h-3v5h-5v-4h-7v-5l1 3h7l1 5h2v-16l-5 1z"/><path fill="#ad7d55" d="M295 23c1.8 3.33 2.76 6.3 4 10l18 1-1 4h-2v-2l-3.21.07-4.17.05-2.11.06A92 92 0 0 1 299 36l-2-2v-3h-2z"/><path fill="#5395b9" d="m129 237 1 4 5-1-.22 1.76c-.53 4.44-.9 8.76-.78 13.24h2v6a39 39 0 0 1-4.06-7.94l-1.04-2.59c-1.7-4.66-2-8.48-1.9-13.47"/><path fill="#56a5ce" d="M247 66c-2.89 2.89-6.46 3.75-10.25 5.06l-2.28.82A60 60 0 0 1 222 75l2-1 1-3c2.07-.88 2.07-.88 4.69-1.56 2.92-.8 5.72-1.59 8.56-2.63 3.03-.9 5.6-.96 8.75-.81"/><path fill="#e8cbc8" d="M301 219h7a27 27 0 0 1 1 9l-3-1v-2h-3v3h-2z"/><path fill="#bb8051" d="M140 58c3.81 1.59 6.37 4 9.31 6.88l2.74 2.61C154 70 154 70 153.8 72.32L153 74l-1.06-2.06c-2.76-4.18-6.23-9.08-11.16-10.64L139 61l-.81 2.44L137 66l-3 1v-2l-4-1 1.68-.8 2.2-1.08 2.17-1.05c2.1-1.04 2.1-1.04 3.95-3.07"/><path fill="#fcded5" d="M271 245c2.76 1.96 3.82 3.11 4.5 6.44-.67 3.4-2.1 5.09-4.5 7.56l-3 1c1.02-2.27 1.8-3.83 3.69-5.5L273 253c-.25-2.14-.46-3.46-2-5q-3.5.43-7 1l-1 4h2l1-3v4h-4c-.36-5.4-.36-5.4 1.13-7.87 2.8-1.68 4.67-1.59 7.87-1.13"/><path fill="#2c89bd" d="M270 38h2v2l1.69.13c3.47 1.3 5.64 3.62 7.31 6.87-.19 3.88-.19 3.88-1 7-2-1-2-1-3-4l-2 2c-1-1-1-1-1.1-3.29l.04-2.77.02-2.79L274 41h-3z"/><path fill="#c69595" d="M312 219c2.88-.12 2.88-.12 6 0 2 2 2 2 2.25 4.5C320 226 320 226 318 228c-3.12.13-3.12.13-6 0zm6 3 1 2Z"/><path fill="#8fcae2" d="M364 75h9v2l3.5.19c5 .59 8.49 2.92 12.5 5.81-3.94 1.31-5.32.31-9.12-1.25A238 238 0 0 0 364 76z"/><path fill="#6fa7c6" d="M199 43c-5.6 2.32-11.13 4.47-17 6v2c-3.83 1.8-6.78 2.2-11 2v-2a2957 2957 0 0 1 16.58-5.89l3.54-1.24 3.27-1.16C197 42 197 42 199 43"/><path fill="#b78051" d="M272 38c4.3 1.4 8.44 3.16 11 7a61 61 0 0 1 1 12l-5 2 .4-2.41c.94-5.96.94-5.96-.34-11.69A13.6 13.6 0 0 0 272 40z"/><path fill="#bcdef1" d="m329 386 2 1c-1.43 3.61-2.94 4.83-6.37 6.56a41 41 0 0 0-6.75 4.08c-2.4 1.74-3.98 1.6-6.88 1.36 3.61-2.98 7.34-5.62 11.25-8.19 3.55-2.18 3.55-2.18 6.75-4.81"/><path fill="#d56e62" d="M324 256h1c-.49 6.05-.49 6.05-1 8-3.09 2.06-3.7 2.24-7.19 2.13L313 266l2-5c-3.93.57-3.93.57-7 3l1-4h7v4h5v-5h3z"/><path fill="#944343" d="m307 215 1 2 4-1v2l3.38-.12C319 218 319 218 321 220c-3.11 0-5.94-.46-9-1v9l4 1h-5l-1-9-9-1v-1h5z"/><path fill="#d8b8b6" d="M308 205h7a27 27 0 0 1 1 9h-3v-3h-2l-1 3 .06-3.44c.36-3.38.36-3.38-1.06-4.56v8h-1z"/><path fill="#c5e2f3" d="M266 393c12.43 6.76 12.43 6.76 17 10v1l-8 1 .06-2.25c-.78-2.87-.78-2.87-3.13-3.97q-3.42-1.5-6.93-2.78z"/><path fill="#eed3d2" d="M276 219h2l1 2 4-2c3 5.63 3 5.63 3 9h-3v-3h-2v3h-3z"/><path fill="#eacbc8" d="M274 205h6c2 6.75 2 6.75 2 9h-3v-2l-3-1v3h-2zm1 1 4 1Z"/><path fill="#852e30" d="M216 198h13v1l-3.37.88c-3.63.81-3.63.81-5.63 3.12l2 3-2 4c-4-6.37-4-6.37-4-12"/><path fill="#95cee9" d="m205 82-9.12 3.44-2.6.98c-4.42 1.65-8.56 3.03-13.28 3.58l4-2v-2l5-1v-2l3.13.13c4.73-.16 8.4-2.62 12.87-1.13"/><path fill="#df945d" d="m306 54 4 2h-2l3 10c-5.02-1-5.86-1.4-9-5h2z"/><path fill="#f3dad6" d="M292 219h4c1.5 3.37 2 5.2 2 9h-2v-2h-4v2l-3-1z"/><path fill="#d77d36" d="M288 34v3h-4v3l-3 1v-4l-9 1-1-3z"/><path fill="#eac6c1" d="M264 205h7l-1 2h-3v2h4v5h-7z"/><path fill="#76aac5" d="m160 56-2.94 1.31c-3.34 1.4-3.34 1.4-4.06 4.69h-2v2l-3-1v-3l-4 1-2-3 2.01-.15c5.16-.44 11.37-3.39 15.99-1.85"/><path fill="#9fd5eb" d="m391 291 1 3q-3.61 3.45-7.25 6.88l-2.07 1.97-2 1.9-1.85 1.74A24 24 0 0 1 373 310q5.52-6.53 11.25-12.87l2.58-2.87C389 292 389 292 391 291"/><path fill="#f8e1dc" d="M268 219c1.88.25 1.88.25 4 1 2.03 2.94 2 4.28 2 8l-6-2v2h-2c.49-3.12 1-6 2-9"/><path fill="#efcecc" d="M290 205h5l1 3h-4l4 2-1 4h-6v-2l2-1-2-1z"/><path fill="#e8c9c6" d="M275 159h2c.87 3 1.1 5.64 1.06 8.75l-.02 2.42L278 172l-4-1q-.05-2.71-.06-5.44l-.04-3.06c.1-2.5.1-2.5 1.1-3.5"/><path fill="#a97e58" d="m432 70 1 3a33 33 0 0 0 7 3c3 4.33 3 4.33 3 7 3.06-1.74 5.63-3.38 8-6l2 1q-1.6 1.8-3.25 3.56-.9 1-1.83 2C446 85 446 85 444 84.97c-2.53-1.22-3.79-2.72-5.55-4.9-2.12-2.59-3.62-4.18-6.44-6.06z"/><path fill="#c9918e" d="M329 205h3l1 7 2-4 1 6-3 1-1 2v-2h-3z"/><path fill="#e6be98" d="m280 54-.06 2.19c.06 2.73.45 5.15 1.06 7.81-3.75 3-3.75 3-6 3l1.46-6.84C277 58 277 58 278 56l-2-1c2-1 2-1 4-1"/><path fill="#bee2f6" d="M224 363a86 86 0 0 1 16 11v1c-4.56.37-4.56.37-6.62-1.37L232 372l-3-2v-2l-5-2z"/><path fill="#7fbedf" d="M423 227c2.71 4.07 2.77 7.22 2 12a58 58 0 0 1-5 9c-1.25-3.74-.47-4.45 1-8q.64-3.39 1.13-6.81l.5-3.52z"/><path fill="#efcfc7" d="M243 205h3v7h3v-7h2c.1 6.15.1 6.15 0 8-1 1-1 1-4.06 1.06L244 214c-1.48-2.96-1.06-5.74-1-9m1 1v6h1v-6z"/><path fill="#2173a2" d="M372 349h5c-1.26 3.78-2.94 4.77-6.06 7.19l-2.79 2.17L366 360l-1-4 5-1-1-4h3z"/><path fill="#cee4ee" d="m241.79 375.7 1.84 1.11 1.85 1.08C247 379 247 379 248 381l-5 2a159 159 0 0 1-6-5v-2c3-1 3-1 4.79-.3"/><path fill="#eacbc3" d="m315 250 3 1q.06 2.5 0 5c-1 1-1 1-4.06 1.06L311 257l-1-4 2-1 2 1z"/><path fill="#8c3738" d="M293 218c5.75-.12 5.75-.12 8 1v7h-2v3l-3-1h2q-.38-2.22-.81-4.44l-.46-2.5L296 219z"/><path fill="#fde0da" d="M301 163h10v23h-1l-1-21-2 2-3-1 1-1z"/><path fill="#65b1da" d="M164 239c2.46 2.46 2.77 4.27 3.63 7.63l.78 3.03.59 2.34-3-1v-2h-2l-1 2c-.56-1.94-.56-1.94-1-4l1-1q.55-3.5 1-7"/><path fill="#8b3c3a" d="M262 203v2h2v9l-1-3h-2l-1-5-6-1v-2c3.29-1.1 4.71-.8 8 0"/><path fill="#d46d5e" d="M292 101c3.21 1.38 5.05 2.92 7.25 5.63l1.58 1.9L302 110l-6-1-1-5h-4v2l-3-1z"/><path fill="#7bb0cc" d="M380 40c6 .65 11.4 2.86 17 5-2.65 1.46-3.9 2-7 2v-2l-6-1v-2z"/><path fill="#c9e5f4" d="M211 353a42 42 0 0 1 8.75 5.63l2.42 1.9q.9.74 1.83 1.47l-1 4-2-1v-2l-3-2v-2h-3v-2l-5-1z"/><path fill="#efcfcd" d="M318 205h3l2 3 1-3h3l-3 9-4-1z"/><path fill="#bbdaea" d="M178 321a74 74 0 0 1 12 12l-2 2a141 141 0 0 1-5-5v-2h-2v-3h-2z"/><path fill="#dd6d60" d="M294 264h14l-4 1 .56 1.94.44 2.06c-1 1-1 1-4.06 1.06L298 270l2-4-6-1z"/><path fill="#4d8fb6" d="M141 262c1.04 3.13.93 3.99 0 7l2 1-1 2 4 1-1 4c-3.46-1.15-3.71-1.65-5.31-4.75-1.44-3.03-1.79-3.83-1-7.19C140 263 140 263 141 262"/><path fill="#6ba1c0" d="m294.63 11.31 2.35.24C299 12 299 12 301 14l-3.37.44c-3.45.34-3.45.34-5.63 1.56l-1-2h-7c3.23-3.23 6.22-3.18 10.63-2.69"/><path fill="#c2e2f2" d="m310 399 3 2c-2.44 3.67-3.82 3.93-8 5-2.87.13-2.87.13-5 0 2.78-3.27 6.28-4.96 10-7"/><path fill="#0f76b2" d="m390 316 2 1-3 2zm-2 3v3l-4 2v2c-1.53 1.5-1.53 1.5-3.5 3.13l-1.97 1.63L377 332l-2-1a194 194 0 0 1 13-12"/><path fill="#f5d9d5" d="M299 205h6l-4 2v2h4v5h-6z"/><path fill="#f4d8d4" d="M235 205h5v2l-3 1 4 2-1 4h-6v-2l4 1v-3h-4zm4 6 1 2Z"/><path fill="#9c8262" d="m314 39-1.75 1.54c-4.78 4.18-4.78 4.18-6.75 9.96l.5 2.5h-2c-.12-3.37-.12-3.37 0-7l2-2c.65-2.57.65-2.57 1-5 4.75-1.12 4.75-1.12 7 0"/><path fill="#f4d8d6" d="M342 206v2h-2v-2h-2l-1 6h5v2q-3 .06-6 0c-1-1-1-1-1.06-4.56L335 206c2.67-1.33 4.17-.67 7 0"/><path fill="#efcecd" d="M254 205h6l1 2-2 2v-3l-2 1v3l2 1h-2v3h-3z"/><path fill="#d66a5f" d="m372 178 4 3a19 19 0 0 1-5 7l-4-2 1.94-1.19c2.5-2.2 2.71-3.57 3.06-6.81"/><path fill="#88c5e3" d="M390 84c8.2-.63 8.2-.63 11.38 1.88L403 88l3 2c-5.76-.6-10.72-2.76-16-5z"/><path fill="#6bb3da" d="M264 60c-2.5 2.5-4.66 3.08-8 4.19l-3.25 1.1C250 66 250 66 248 65l1-2h3v-2c4.06-.77 7.86-1.1 12-1"/><path fill="#a3c5d7" d="M426 55a324 324 0 0 1 13.83 2.5C442 58 442 58 444 59l-1 2-14-2-1-3z"/><path fill="#5999ba" d="m283 15-3.44.81L276 17l-1 3c-2.37 1.25-2.37 1.25-5 2l-3-1v-2l6.88-2.56 1.97-.75c4.92-1.8 4.92-1.8 7.15-.69"/><path fill="#e7f2f7" d="m227 371 2.88 1c2.9 1.1 2.9 1.1 5.12 1v2h5l-3 1 3 5a43 43 0 0 1-8.75-5.56l-2.42-1.88L227 372z"/><path fill="#852924" d="m282 208 2 1c1 3.34 1.1 5.69 0 9h-8v-2l-2-1 1.75.56c2.46.48 3.9.2 6.25-.56z"/><path fill="#65afd7" d="m278 54-2 1v2c-3.83 2.4-7.6 2.56-12 3v-2c9.41-4.6 9.41-4.6 14-4"/><path fill="#9bd1ea" d="M418 249c1.37 2.73.85 4.1 0 7l-3 3v4l-1.94.38-2.06.62-1 2c.7-3.97 2.63-7.27 4.56-10.75l1-1.82z"/><path fill="#93332c" d="m352 153 5 2v7h-2v-2l-3-1z"/><path fill="#fbddd6" d="m254 136 2 1-5.75 5.88-1.63 1.68c-5 5.05-5 5.05-8.62 6.44l1-3h2l1-3c1.78-1.75 1.78-1.75 3.94-3.56A96 96 0 0 0 254 136"/><path fill="#2a74a0" d="M231 367c3.69.7 6.78 2.07 10 4 .88 2.19.88 2.19 1 4h2l-1 2-5.44-3.87-3.06-2.18C232 369 232 369 231 367"/><path fill="#61afd8" d="m311 358 2 1-1.44 2.38A72 72 0 0 0 309 366h-8z"/><path fill="#863333" d="M362 198h8l-4 9h-1l-.59-6.15L364 199z"/><path fill="#9ed0ea" d="m324 349 2 1-1.94.75c-2.55 1.22-2.55 1.22-3.06 5.25l-8 2a54 54 0 0 1 11-9"/><path fill="#95cde8" d="M169 252c2.95 3.46 5.26 6.78 7 11l-1 3-2-2h-1l-1-5-2 1z"/><path fill="#92cbe4" d="m251 342 5 2v2l1.88.31C260 347 260 347 262 350l-4.37-1.37-2.47-.78C253 347 253 347 251 345z"/><path fill="#2c8dc5" d="M209 307c7.48 6.15 7.48 6.15 10 10l-2.31-.62c-2.9-.71-2.9-.71-5.69 1.62l1-6-3-2z"/><path fill="#c0e3f4" d="M429 296c1 3 1 3-.12 5.44-2.02 2.75-4.14 4.56-6.88 6.56l-2-1z"/><path fill="#cf6f67" d="M275 249c2 3 2 3 1.69 6.63C276 259 276 259 275 260q-3 .06-6 0l2.44-2.69c2.26-2.7 3.24-4.73 3.56-8.31"/><path fill="#f5cbc6" d="m270 169 1 2-2.87.5c-3.21 1.12-3.21 1.12-3.97 3.41A79 79 0 0 0 263 181h-2c-.37-2.69-.37-2.69 0-6 2.9-2.9 5.1-4.7 9-6"/><path fill="#8ec6e4" d="M238 70q-2.87 1.3-5.75 2.56L229.02 74c-3 1-4.15 1.16-7.02 0h2l1-3 5.38-1.06 3.02-.6C236 69 236 69 238 70"/><path fill="#286d96" d="m434 59 6 1v3h-2l-.87 1.94C436 67 436 67 434 68c-.2-3.72-.15-4.77 2-8z"/><path fill="#2675a4" d="M263 386q2.3 2.28 4.56 4.63c1.41 1.48 1.41 1.48 3.44 2.37l-1 3q-2.25-1.39-4.5-2.81l-2.53-1.58L261 390v-3z"/><path fill="#98cde6" d="m347 331 2 1c-2.18 4.48-4.35 6.22-9 8l-2-1 4-2v-2q2.45-2.08 5-4"/><path fill="#e1857b" d="M314 245h7v1l-2.31.19c-3.53 1.06-4 2.66-5.69 5.81h-2l-2-2c.38-2.12.38-2.12 1-4v2h4z"/><path fill="#b87876" d="M285 219h3l1 3h2l-1 5-1-2h-2l-1 3z"/><path fill="#994b4b" d="M251 205h1l.25 3.31c.39 3.72.39 3.72 2.81 5.63L257 215c-4.32.76-7.74 1.16-12 0v-1l5-1z"/><path fill="#deb793" d="M140 58c0 3.62-.92 5.08-3 8l-3 1v-2l-4-1 1.68-.8 2.2-1.08 2.17-1.05c2.1-1.04 2.1-1.04 3.95-3.07"/><path fill="#2a75a0" d="M274 396h4l1 3c1.63 1.22 1.63 1.22 3.56 2.19L286 403v2a34 34 0 0 1-12-7z"/><path fill="#848478" d="m290 370 6 1-1 5-4-1z"/><path fill="#c2e2f5" d="M379 348c0 4-1.29 5.14-4 8-2.75 1.31-2.75 1.31-5 2 2.32-4.5 5.06-6.94 9-10"/><path fill="#933f3f" d="M303 225h3l1 2h3v2h-3l-1 3v-2l-5-1 2-1z"/><path fill="#188dd1" d="M150 80c.13 2.38.13 2.38 0 5l-2 2h-3c.38-2.94.38-2.94 1-6 2-1 2-1 4-1"/><path fill="#ead4bd" d="M302 358c1.4 4.18-.18 6.13-2 10h-2l-1-4h2v-5l2 1z"/><path fill="#9ad2ea" d="m336 340 2 1-2.37 1.75c-2.43 2.08-3.49 3.34-4.63 6.25h-5a93 93 0 0 1 10-9"/><path fill="#cde5f1" d="M189 333c6.7 4.11 6.7 4.11 7.94 7.81L197 343c-3.5-1.9-5.94-3.54-8-7z"/><path fill="#985452" d="M257 207c2 0 2 0 4.06 1.75 1.91 2.22 2.53 3.4 2.94 6.25h-2v-2l-5 1z"/><path fill="#7d3837" d="M272 205h1v9l-1-2h-5l4-1v-2h-4v-2h5z"/><path fill="#376e8c" d="M145 60h3l1 3 2 1v-2l2 1v6l-3.44-2.81-1.93-1.58C146 63 146 63 145 60"/><path fill="#476c7e" d="M292 16h3a30.4 30.4 0 0 1 4 17h-1c-2.86-9.09-2.86-9.09-3.56-13.56L294 17z"/><path fill="#9dd0e8" d="M237 331c2.5 1.2 4.68 2.45 7 4v2h3v2c-3.31-.62-3.31-.62-7-2-1.94-3.12-1.94-3.12-3-6"/><path fill="#5f99bb" d="M164 304c4.4 1.46 4.88 3.98 7 8-2.75-.38-3.82-.8-5.75-2.87C164 307 164 307 164 304"/><path fill="#dc7163" d="m260 246 3 2-1 7h2l-1 4c-2.12-2.12-2.12-2.12-4-5 .75-3.31.75-3.31 2-6l-2-1z"/><path fill="#6ab4de" d="m353 67 2 5a70 70 0 0 1-11-3c3.13-1.86 5.37-2.2 9-2"/><path fill="#bedff2" d="m283 404 12 5v1q-2.16-.14-4.31-.31l-2.43-.18c-2.65-.6-3.63-1.37-5.26-3.51z"/><path fill="#2473a3" d="M345 371h5c-2.8 2.96-5.18 5.44-9 7v-3h3z"/><path fill="#7bbcdc" d="M403 275c.75 1.63.75 1.63 1 4-1.94 3.25-1.94 3.25-4 6l-2-4z"/><path fill="#79aac8" d="m131 248 3 1v6h2v6c-2.7-4.06-5-8.05-5-13"/><path fill="#2977a8" d="M452 240h2c1.76 3.33 2.1 4.6 1.13 8.31L454 251h-1z"/><path fill="#196d9d" d="M129 76c3.26.35 4.02 1.02 6.25 3.56L137 82h-4v-3l-4 3z"/><path fill="#446c80" d="m134 66-2 2.31c-2.3 2.53-2.3 2.53-2 5.69h-2v-8c2.5-1.25 3.41-.78 6 0"/><path fill="#90c9e3" d="M409 266c.81 1.69.81 1.69 1 4-2.44 2.75-2.44 2.75-5 5l-1-3h2l.94-2.44C408 267 408 267 409 266"/><path fill="#d46857" d="M293 254h7c-1.05 2.62-1.65 3.8-4.12 5.25L294 260z"/><path fill="#bf8048" d="m150 75 2 1-3.87 3.5-2.18 1.97C144 83 144 83 142 83v-3h3v-3c2.38-1.06 2.38-1.06 5-2"/><path fill="#88c2e3" d="M318 56v3q-3.51-.4-7-1l-1-2c2.86-1.43 4.93-.6 8 0"/><path fill="#b3d8ec" d="M447 266c1.07 4.3.8 5.2-1 9h-2v2l-2-1z"/><path fill="#90cae3" d="M176 266h2l2 6h2v3h-3a53 53 0 0 1-3-9"/><path fill="#b2daef" d="M453 251c1.6 4.01.45 7.07-1 11l-3 2 1.44-4.81.8-2.71q.84-2.75 1.76-5.48"/><path fill="#ecc2bc" d="m267 248 4 2c-.25 2.88-.25 2.88-1 6-2.06 1.38-2.06 1.38-4 2l2-3v-4l-2-2z"/><path fill="#e8c0bc" d="M308 205h7l1 4h-2l-1-2c-2.02-.65-2.02-.65-4-1v8h-1z"/><path fill="#9f3128" d="M290 116c0 3.59-.66 4.1-3 6.69l-1.69 1.88L284 126l-3-1z"/><path fill="#70b3d7" d="M377 78c4.75.58 7.97 2.55 12 5-3 1-3 1-5.26 0l-2.43-1.44-2.45-1.43L377 79z"/><path fill="#486b7e" d="m452 65 6 1v8l-2-1-.44-1.81c-.67-2.6-1.87-4.13-3.56-6.19"/><path fill="#136d9f" d="M403 49q2.51.43 5 1l1 3 2 2-3 1-6-6z"/><path fill="#0e71ac" d="m361 35-1 3-7 1-1-2c3.13-1.86 5.37-2.2 9-2"/><path fill="#3489b8" d="M287 368c3.88 2.59 3.82 4.6 5 9l2 2-5-1v-6h-2z"/><path fill="#7cbadd" d="m391 291 1 3a91 91 0 0 1-4 4h-2c.4-2.89.79-3.82 3.06-5.75z"/><path fill="#c48d8c" d="m216 200 1 2 3 1 2 3-2 4c-4-6.62-4-6.62-4-10"/><path fill="#dba19d" d="M266 175h3v6l-4-1z"/><path fill="#dd7c2c" d="m150 70 3 1c-.25 1.88-.25 1.88-1 4-2.06 1.25-2.06 1.25-4 2 .88-4.75.88-4.75 2-7"/><path fill="#e87822" d="M450 69h5v4l-7-1 2-1z"/><path fill="#62add6" d="m336 62 2 4-10-3v-1c3.29-.8 4.71-1.1 8 0"/><path fill="#1d74a1" d="M262 34h6l2 4h-2v-2l-3 2h-3z"/><path fill="#367ba3" d="M220 359a41 41 0 0 1 11 6v2c-4-1.76-7.6-4.26-11-7z"/><path fill="#238cc6" d="m357 325 1 2 2 1-4 3-4-2z"/><path fill="#28709b" d="M415 310h2c-1.58 4.27-4.5 6.27-8 9a34 34 0 0 1 6-9"/><path fill="#298dc7" d="m197 295 6 5c-3 1-3 1-7 1v-2h2z"/><path fill="#eef4f8" d="M458 266c1 3 1 3 .22 5.04l-1.16 2.15-1.15 2.17L455 277h-1v-5h2z"/><path fill="#d6695a" d="M304 241a14 14 0 0 1 3 3c-.31 2.19-.31 2.19-1 4l-3-2a75 75 0 0 0-5-1v-1h6z"/><path fill="#fbe6e3" d="M312 219h6l1 3-5-1v6h-1z"/><path fill="#882623" d="M308 215h9v3a27 27 0 0 1-9-1z"/><path fill="#98494a" d="M276 211h3v3l3 1-5 2v-2l-3-1h2z"/><path fill="#f3b8ae" d="M299 183h5l-4 1v2l7 2v1c-5.75.13-5.75.13-8-1z"/><path fill="#d26c5f" d="m215 176 1 2c-.94 2.13-.94 2.13-2 4h-2l-1 2-1-4z"/><path fill="#e7a7a0" d="m269 121 2 1c-.69 2.44-.69 2.44-2 5-2.62.81-2.62.81-5 1z"/><path fill="#d6766d" d="M285 108v3l-1.94.75c-2.25 1.07-2.25 1.07-2.81 3.38L280 117l-3-2z"/><path fill="#eae6da" d="m306 54 4 2h-2l3 10-3-1z"/><path fill="#3987b0" d="M316 36h2c-.19 1.81-.19 1.81-1 4-2.44 1.81-2.44 1.81-5 3l-2-1a91 91 0 0 1 4-4h2z"/><path fill="#206f9d" d="m328 24 10 2v1l-10 1z"/><path fill="#2a76a1" d="m340 380-9 5 1-4c3.3-1.82 4.36-2.21 8-1"/><path fill="#1077b5" d="m338 360 2 1c-3.17 3.54-5.17 5.59-10 6a91 91 0 0 1 4-4h2v-2z"/><path fill="#3c99ca" d="m233 328 7 6-3 1c-4-4.75-4-4.75-4-7m1 6 2 1Z"/><path fill="#1f71a2" d="m434 289-3 5-4-4c2.46-1.23 4.28-1.07 7-1"/><path fill="#d26957" d="m292 260 1 3c-2.55 2.35-3.71 2.98-7.25 3.19L283 266z"/><path fill="#d9beb8" d="M292 219h4l-1 6h-2c-1.06-1.87-1.06-1.87-2-4z"/><path fill="#db7a6f" d="m309 186 1 2-2 3c-3.12.19-3.12.19-6 0l-1-2 3.44-.94c3.35-.69 3.35-.69 4.56-2.06"/><path fill="#9b3c35" d="m229 175 2 3h3c-.81 1.94-.81 1.94-2 4l-3 1z"/><path fill="#d87f74" d="M276 116c0 3 0 3-1 6-3.06 1.19-3.06 1.19-6 2l2.94-3.44 1.65-1.93q1.16-1.36 2.41-2.63"/><path fill="#86c4e1" d="m186 85 3 1c-1.97 2.52-2.97 3-6.19 3.69L180 90l4-2v-2z"/><path fill="#cee8f3" d="m331 22 11 4c-4.06 1.02-4.67 1.05-8.25-.44l-2.14-.87L330 24z"/><path fill="#3477a3" d="m261 22-1 3-10 1 4-2 2.06-1.12C258 22 258 22 261 22"/><path fill="#1d6f9b" d="m291 14-3.37 1.44q-2.86 1.2-5.63 2.56c-2.12-.94-2.12-.94-4-2q2.4-.8 4.81-1.56l2.71-.88C288 13 288 13 291 14"/><path fill="#df7166" d="m278 262 8 2c-3.13 1.86-5.37 2.2-9 2z"/><path fill="#e29388" d="M287 251h1v8l-5 1 2-4h1z"/><path fill="#d26c60" d="m266 250 3 1c-.37 2.44-.37 2.44-1 5l-2 1c-1.04-3.13-.93-3.99 0-7"/><path fill="#c89b9a" d="M366 225c4 4.63 4 4.63 4 8l-3 1z"/><path fill="#ddc1c5" d="M269 222h4l1 6c-2-1-2-1-5-3z"/><path fill="#8c2521" d="M285 215h8l-2 3c-3.12.19-3.12.19-6 0z"/><path fill="#994646" d="m324 212 4 1-2 3-5-1-1 2v-4l4 1z"/><path fill="#cb695d" d="m298 178 1.19 1.44c2.22 1.91 3.94 2.17 6.81 2.56v3h-2v-2h-5z"/><path fill="#6ca4c5" d="M304 15c5.75.75 5.75.75 8 3l-5 1-1-3zm1 4 2 1Z"/><path fill="#28719e" d="m307 401-8 5v-3c4.28-3.24 4.28-3.24 8-2"/><path fill="#64add6" d="M243 338q3.53.9 7 2l1 2-8-1z"/><path fill="#a8d4e7" d="m222 318 3 1v2l4 2-1 2c-3-1.1-3.85-1.68-5.25-4.62z"/><path fill="#d17369" d="m292 101 4 2v1h-5v2l-3-1z"/><path fill="#c38148" d="m455 69 2 1c-.4 2.89-.79 3.82-3.06 5.75L452 77v-4h3z"/><path fill="#e49658" d="M285 57h2c-1.05 2.62-1.65 3.8-4.12 5.25L281 63v-4h4z"/></svg>