<svg xmlns="http://www.w3.org/2000/svg" width="513" height="487"><path fill="#1270a8" d="M279.87 3.58a68 68 0 0 0 9.15 3.31c8.02 2.4 15.94 5.08 23.87 7.75a760 760 0 0 0 20.18 6.46 450 450 0 0 1 11.12 3.59l2.2.74q12.1 4.07 24.14 8.32 9.57 3.33 19.27 6.26A613 613 0 0 1 405 45c7.5 2.52 15 4.99 22.6 7.21 2.4.79 2.4.79 4.6 1.91 1.77 1.08 1.77 1.08 3.8.57 2.01-.66 2.01-.66 3.94-1.57L442 53a63 63 0 0 1 5 5c3.31 2.23 6.22 3.49 10 5l1 11 2.94.37L464 75c1.5 2.98 1.13 5.69 1.13 9.02l.01 2.21v7.39l.02 5.28.01 23.4.02 31.51q0 14.63.02 29.25a15322 15322 0 0 1 .03 40.18 3937 3937 0 0 1 .01 19.32c.03 9.08-.26 18.05-1.12 27.1l-.23 2.45c-3.24 30.8-22.8 59.45-41.61 83-2.32 2.85-2.32 2.85-4.29 5.89h-2l-.78 1.73a34 34 0 0 1-4.72 6.52l-1.84 2.14C407 373 407 373 405 373l-.75 1.87c-1.49 2.53-2.69 2.85-5.25 4.13l-.86 1.81c-1.42 2.72-3.13 4.19-5.45 6.19a428 428 0 0 0-10.48 9.46C364.52 413 364.52 413 361 413l-1 3c-2.56 1.19-2.56 1.19-5 2v2c-1.53 1.42-1.53 1.42-3.65 3.04l-2.3 1.76-2.43 1.82-2.4 1.86C338.26 433 338.26 433 336 433v2a159 159 0 0 1-7.38 5.19l-4.44 3-2.19 1.47a391 391 0 0 0-7.24 5.03 343 343 0 0 1-24.11 15.72 153 153 0 0 0-5.87 3.74c-9.62 6.37-9.62 6.37-14.02 6.72-5.14-1.2-8.54-3.79-12.75-6.87l-5.13-2.88c-3.25-1.95-6.3-4.2-9.4-6.4a132 132 0 0 0-6.35-4.16 250 250 0 0 1-19.93-13.42 250 250 0 0 0-8.69-6.28l-2.25-1.56-4.6-3.15-2.21-1.54q-1-.67-2-1.38L196 427v-2l-2-.56c-3.52-1.69-5.9-3.85-8.77-6.46-2.3-2.04-4.68-3.95-7.1-5.86a230 230 0 0 1-12.8-11.04c-2.35-2.15-2.35-2.15-5.12-4.22L158 395v-2l-1.75-.8a31 31 0 0 1-6.19-4.51l-1.96-1.74c-5.1-4.74-9.48-9.8-13.82-15.23-2.23-2.76-2.23-2.76-4.8-5.15-2.72-2.82-4.67-5.85-6.67-9.2a97 97 0 0 0-12.44-15.84c-9.72-10.4-9.72-10.4-11.37-17.53h-2c-1.41-2.06-1.41-2.06-3.06-5l-1.86-3.29-1-1.8-5.88-10.28-1.2-2.03a58 58 0 0 1-5-11.6l-1.46-3.23c-2-4.56-3.05-9.31-4.17-14.15l-.65-2.7c-2.25-9.55-2.87-18.8-2.93-28.59l-.03-3.44-.14-19.14-.25-33.48-.01-2.08-.04-4.13c-.63-80.24-.63-80.24.18-101.25l.14-4.14L70 63l2.26-.98 2.98-1.31 2.94-1.3c3.9-1.95 6.68-4.4 9.82-7.41l2 3c3.5-.62 6.68-1.54 10-2.81 4-1.49 7.99-2.83 12.06-4.07 7.54-2.28 15-4.78 22.47-7.29l12.97-4.33 19.69-6.56 1.94-.65 11.01-3.67q15.07-5 30.09-10.17 3.7-1.28 7.4-2.53a1151 1151 0 0 0 21.64-7.54c14.26-5.12 26.18-8.8 40.6-1.8m-41.43 49.73a114 114 0 0 1-13.76 4.89c-8.98 2.69-17.73 6.16-26.45 9.59A305 305 0 0 1 186 72a788 788 0 0 0-29.75 10.32 903 903 0 0 1-17.38 6.24l-2.49.88A838 838 0 0 1 124 93.67l-2.4.8q-2.24.76-4.49 1.49-2.6.91-5.11 2.04c-1.1 3.3-1.12 5.68-1.1 9.15v3.9l.05 8.81.09 19.97.13 24.08q.09 13.86.13 27.73l.1 21.46q.05 6.4.07 12.8 0 6.04.07 12.08l.01 4.4c0 12.96 1.67 25.08 7.26 36.87l1.07 2.32c2.68 5.72 5.6 11.18 9.12 16.43l2.12 3.2c3.85 5.73 7.82 11.19 12.57 16.21C145 319 145 319 146 322l2.12 1.69a41 41 0 0 1 5.94 5.81c4.55 5.33 9.55 10.2 14.53 15.1l4.02 4.04a124 124 0 0 0 6.45 5.92A150 150 0 0 1 187 362q2.18 1.85 4.4 3.67a219 219 0 0 1 4.6 3.95A430 430 0 0 0 222 390l2.71 2c7.53 6.53 7.53 6.53 16.29 10v2l2.69 1.25A50 50 0 0 1 252 411h2c-.47-4.7-1.9-8.1-4.16-12.17C249 397 249 397 249 394h29c-.9 4.51-2 7.15-4.16 11.04-1.1 2.22-1.1 2.22-.84 5.96 4.29-1.49 7.77-3.75 11.44-6.38 3.15-2.22 6.3-4.45 9.52-6.58 3.48-2.34 6.86-4.8 10.23-7.29l3.96-2.92 1.97-1.45 5.2-3.77 2.93-2.11 2.58-1.84A45 45 0 0 0 326 374q1.58-1.39 3.19-2.75a977 977 0 0 0 30.43-27.18q2.2-2.02 4.38-4.07l1.88-1.73c1.34-1.24 1.34-1.24 1.12-3.27l1.72-.7c2.86-1.63 4.6-3.63 6.78-6.11l2.28-2.58c4.31-4.29 4.31-4.29 6.22-9.61h2a94 94 0 0 0 2.66-3.96c2.32-3.53 4.9-6.88 7.44-10.26 3.56-4.99 3.56-4.99 4.9-10.78h2c6.9-14.75 13.13-29.04 13.12-45.65v-12.71l-.02-12.24v-12.81l-.03-24.24-.02-27.6L416 99l-4.3-1.92-2.4-1.08a126 126 0 0 0-8.8-3.38l-3.63-1.27-1.9-.66-6.12-2.17a909 909 0 0 0-24.48-8.34c-3.54-1.24-6.93-2.7-10.37-4.18q-2.64-.95-5.31-1.81l-3.17-1.04L342 72c-15.97-5.2-31.75-10.9-47.53-16.65L290.75 54l-3.08-1.13c-3.02-1.04-3.02-1.04-7.67-1.87l3 12c-5.48-2.86-9.92-6.32-14.57-10.4-2.83-1.87-4.1-2.2-7.43-1.6-2.07 1.32-2.07 1.32-3.88 3.19-8.52 7.94-8.52 7.94-14.12 9.81l.87-2.34 1.13-3.04 1.12-3.02c.99-2.46.99-2.46.88-4.6-3.48 0-5.39.9-8.56 2.31"/><path fill="#1b8ecf" d="M234 28c13 8.5 13 8.5 16 13 .55 6.21.55 6.21-1.08 8.53-2.74 2.1-5.79 3.25-8.98 4.47l-2.05.8a152 152 0 0 1-13.31 4.43c-8.95 2.67-17.67 6.14-26.35 9.56A305 305 0 0 1 186 73a788 788 0 0 0-29.75 10.32 998 998 0 0 1-21.88 7.8l-14.2 5q-1.19.4-2.39.84L112 99q.09 30.35.24 60.69.06 14.08.1 28.18l.1 24.57.06 13q0 6.14.05 12.27l.02 4.47c-.02 13.01 1.62 25.23 7.24 37.07l1.07 2.32c2.68 5.72 5.6 11.18 9.12 16.43l2.13 3.2c3.86 5.75 7.84 11.21 12.66 16.21C146 319 146 319 146 322l1.68.66c3.06 1.77 5.14 4.2 7.44 6.84 4.52 5.06 9.2 9.84 14.08 14.54C171 346 171 346 171 348l1.7.75c2.7 1.46 4.76 3.22 7.05 5.25l2.42 2.13C184 358 184 358 184 360l2.25.75c3 1.36 4.51 2.87 6.75 5.25l2.25 1.63L197 369v2l2 .56c3.5 1.68 5.83 3.84 8.68 6.43 3.45 2.99 7.17 5.58 10.9 8.21a22 22 0 0 1 3.93 3.35c1.96 1.9 4.12 3.08 6.49 4.45l9.55 6.16L241 402v2l2 .13c4.39 1.28 7.49 4.02 11 6.87l-1.06-2.45q-.67-1.6-1.38-3.24l-1.37-3.2A34 34 0 0 1 248 394c1-1 1-1 3.78-1.11l3.66.01 3.96.01 8.34.04L278 393c1.12 4.71 1.12 4.71.04 7.32l-1.42 2.24c-1.75 2.83-2.98 5.16-3.62 8.44l6.69-4.25 1.9-1.2c3.65-2.33 7.02-4.83 10.41-7.55l5-3c2.45-1.7 4.85-3.48 7.25-5.25l2-1.47a349 349 0 0 0 13.11-10.14C321 377 321 377 323 377l1-3 4-2a279 279 0 0 0 5-5q1.83-1.65 3.69-3.25a964 964 0 0 0 21.12-19l1.64-1.5c8.08-7.47 16.32-15.33 22.55-24.44l2-2.81h2l.75-2.19c1.37-3.09 3.13-5.18 5.25-7.81q1.85-2.76 3.63-5.56l1.78-2.82A74 74 0 0 0 401 291h2l.52-1.65a92 92 0 0 1 4.42-11.54 78 78 0 0 0 7.18-32.46v-12.71l-.02-12.24v-12.81l-.03-24.24-.02-27.6L415 99l-1.75-.61-7.9-2.76-2.74-.96a1074 1074 0 0 1-15.79-5.65 879 879 0 0 0-8.97-3.18 536 536 0 0 1-17.66-6.47A342 342 0 0 0 342 73c-13.5-4.4-26.86-9.15-40.2-13.99q-3.64-1.31-7.3-2.6l-3.69-1.28-3.04-1.06A64 64 0 0 1 279 50c-.87-2.69-.87-2.69-1-5h-2c-.31-2.31-.31-2.31 0-5 2.31-1.69 2.31-1.69 5-3l3-2h3v-2c2.9-2 5.5-3.48 9-4q2.81 1.36 5.55 2.83c3.82 1.83 7.82 2.9 11.87 4.1a337 337 0 0 1 24.55 8.32c4.63 1.71 9.34 3.2 14.03 4.75l10.07 3.37c8.94 3 17.9 5.92 26.93 8.63v2l1.9.18 2.48.26 2.46.24A9 9 0 0 1 400 65v2l2.38-.25c4.12.28 6.94 1.48 10.7 3.13 4.4 1.69 9 2.57 13.62 3.5 4.93 2.42 7.15 5.6 9.3 10.62.86 5.52.8 10.99.73 16.56l.02 5q.01 6.78-.04 13.56-.03 7.11-.02 14.24 0 11.96-.07 23.93-.07 13.78-.06 27.55a9801 9801 0 0 1-.06 37.89q0 6.66-.05 13.32l-.01 4.86c0 14.65-1.67 28.37-7.56 41.97l-1.1 2.62c-1.2 2.87-2.39 5.72-3.78 8.5h-2l.25 2.19c-.33 3.72-1.8 5.03-4.25 7.81-3.36 4.62-3.36 4.62-5 10h-2l-.76 1.66a63 63 0 0 1-5.12 7.78l-2.05 2.8L401 329l-2.13 2.85L397 334h-2l-.75 1.75A22 22 0 0 1 389 342h-2l-.27 1.75c-.92 2.83-2.25 4.11-4.37 6.18l-2.25 2.22-2.36 2.29-2.32 2.27-4.45 4.36a412 412 0 0 0-4.83 4.79C358.97 373 358.97 373 356 373l-1 3a24 24 0 0 1-6.33 5.34c-2.91 1.8-5.14 3.85-7.6 6.22-5.73 5.29-11.83 9.73-18.23 14.15a275 275 0 0 0-7.56 5.5q-1.8 1.31-3.57 2.66c-3.25 2.36-5.76 3.52-9.71 4.13-1.05 1.85-1.05 1.85-2 4-3.82 3.7-8.44 5.88-13.1 8.36-4.52 2.56-8.67 5.62-12.9 8.64-8.21 5.83-8.21 5.83-14 5l-2-1v-2l-2.87-.94C252 435 252 435 250 434v-2l-2.19-.81A43 43 0 0 1 240 427v-2l-2.66-.8c-6.62-2.38-19.08-8.68-22.34-15.2-1.65-1.12-1.65-1.12-3.56-2.12L208 405v-2l-2.31-.87C203 401 203 401 200 399v-2l-2.31-.81c-2.69-1.19-3.7-2.12-5.69-4.19-3.52-3.24-7.02-6.34-11-9a67 67 0 0 1-11-9v-2l-5-2v-2l-1.94-.81C161 366 161 366 160 363c-2.02-.73-2.02-.73-4-1v-2l-1.75-.69c-2.81-1.64-4.28-3.75-6.25-6.31l-2-1v-3l-3-1a28 28 0 0 1-7-9l-3-1q-1.02-1.99-2-4l-2.12-2.12L127 330v-2l-3-1-1-3-4-4q-1.82-2.68-3.5-5.44a68 68 0 0 0-5.64-8.14c-2.61-3.4-3.01-6.26-3.86-10.42h-2l-1-5h-2l-1-9h-2q-1.21-2.84-2.37-5.69l-1.34-3.2c-3.85-11.05-3.6-22.94-3.6-34.5l-.02-5.12a3817 3817 0 0 1-.05-22.45q-.04-15.08-.05-30.14 0-14.04-.07-28.08-.05-12.08-.05-24.16 0-7.2-.04-14.41-.04-6.75-.01-13.52 0-2.49-.02-4.96-.02-3.39 0-6.77v-3.83C91 82 91 82 93.45 79.67L96 78l1.44-1.63c2.27-2 4.6-2.45 7.5-3.25 4.48-1.3 8.72-2.75 13-4.62 5.39-2.32 10.82-3.92 16.48-5.47 5.96-1.72 11.76-3.88 17.58-6.03l5.81-2.12 2.65-.97q4.75-1.68 9.57-3.2c2-.66 2-.66 3.8-1.73 2.93-1.32 5.75-1.66 8.92-2.1l3.55-.51L189 46v-2c16.77-6.01 16.77-6.01 24.87-8.36 3.44-1.04 6.78-2.34 10.13-3.64l4.38-1.62c3.4-1.22 3.4-1.22 5.62-2.38"/><path fill="#2a6085" d="m158.94 169.6 2.74-.02 9.06-.02q3.26 0 6.5-.03l17.66-.03q7.38 0 14.74-.03l34.77-.03q17.94 0 35.88-.07 15.4-.06 30.8-.06 9.2.01 18.4-.04 8.64-.04 17.3 0 3.17 0 6.34-.03 4.34-.02 8.67.02l2.54-.05c5.48.1 8.31 1.47 12.31 5.21 3.55 4.16 3.6 8.9 3.6 14.13l.03 3.89v8.46l-.02 9v11.5a2116 2116 0 0 1 .01 13.11l-.01 5.94v3.4c-.47 5.74-2.17 10.06-6.26 14.15-5 2.17-9.5 2.29-14.84 2.26l-2.66.01h-8.8l-6.33.02-17.16.01-14.33.01h-33.8q-17.44 0-34.88.03-14.97.03-29.94.02-8.95 0-17.89.02h-31.41l-2.46.02A26.5 26.5 0 0 1 146 257c-4.31-4.65-5.13-7.28-5.18-13.54l-.06-8.72-.01-2.31-.05-12.1q-.01-6.24-.08-12.48-.03-4.8-.04-9.61 0-2.3-.03-4.6c-.18-15.2-.18-15.2 4.45-20.64 4.5-3.54 8.47-3.43 13.94-3.4M146 177c-1.5 3.3-1.13 7.05-1.15 10.63v2l-.03 11.02v9.48q0 6.07-.04 12.15l-.02 13.83v9.86c.24 3.02.46 4.6 2.24 7.03 3.93 3.1 6.98 3.37 11.9 3.34h2.08q3.3 0 6.6-.05h4.1q7.56-.03 15.13-.1L221 256v-82l-34.69-.19-10.93-.08-6.5-.02-4.32-.03q-3.28-.03-6.57-.02l-3.73-.02c-3.6.4-5.47 1.09-8.26 3.36m95 23 3 2v-2zm49 0v10l2-1-1-4h6v-1h-6l1-4zm11 0v10l2-1v-9zm14 0v10h1v-10zm16 0v10l2-1-1-4h6v-1h-6l1-4zm11 0v10l3-1h-2l1-9zm-91 2v6h1v-6zm13 1 1 4Zm87 0v5h1v-5zm-112 2 1 3Zm6 0 1 4 1-2zm33 0 4 2 2-2zm-40 16v11h7v-1h-6v-4h6v-1h-6v-5zm13 0v8h1v-8zm25 0v11h1v-11zm6 0v11h1v-8l2-1zm14 0v11h7v-1h-6v-4h6v-1h-6v-5zm-50 1 1 2Zm19 0 1 4Zm53 0 1 3Zm-12 1 1 3v-3zm7 4v2l2-1zm-67 1 1 3Zm42 0 2 4 1-4zm37 0 1 2Zm-72 3v1h5v-1zm13 0v1h5v-1zm42 0 4 1Zm11 0v1h5v-1z"/><path fill="#1471a8" d="M279.87 3.58a68 68 0 0 0 9.15 3.31c8.02 2.4 15.94 5.08 23.87 7.75a760 760 0 0 0 20.18 6.46 450 450 0 0 1 11.12 3.59l2.2.74q12.1 4.07 24.14 8.32 9.57 3.33 19.27 6.26A613 613 0 0 1 405 45c7.5 2.52 15 4.99 22.6 7.21 2.4.79 2.4.79 4.6 1.91 1.77 1.08 1.77 1.08 3.8.57 2.01-.66 2.01-.66 3.94-1.57C442 53 442 53 444.37 54.94c4.31 4.79 8.68 9.83 10.63 16.06-2.42 2.56-4.55 4.74-7.63 6.5-2.58 1.37-2.58 1.37-3.87 4.19C442 84 442 84 439.69 84.62c-3.85-.89-5.9-2.89-8.69-5.62l-1-3c-1.94-.94-1.94-.94-4.33-1.54L423 73.7l-2.81-.76-5.46-1.54-2.46-.67C410 70 410 70 407.91 68.95c-2.56-1.28-5.1-1.57-7.91-1.95v-2l-11-2v-2l-2.13-.33c-5.13-.86-9.88-1.86-14.7-3.81-4.65-1.84-9.43-3.3-14.17-4.86l-3-1q-2.93-.98-5.86-1.93A194 194 0 0 1 335.06 44a159 159 0 0 0-14.54-4.93 550 550 0 0 1-15.11-4.82C302 33 302 33 298.7 31.34c-2.54-1.55-2.54-1.55-4.95-1.15-1.95.78-1.95.78-3.75 2.81h-3v2l-2.88 1.37C281 37.8 281 37.8 279 40h-3v5h2q1.55 3.9 3.06 7.81l.9 2.24c2.15 5.61 2.15 5.61 1.04 8.95-5.48-2.86-9.92-6.32-14.57-10.4-2.83-1.87-4.1-2.2-7.43-1.6-2.07 1.32-2.07 1.32-3.88 3.19C247.65 64 247.65 64 243 64c.63-5.05 2.13-9.3 4-14h2c.65-6.24.65-6.24-2-11.69L244 36l-2.04-1.6c-3.81-2.96-3.81-2.96-7.96-5.4q-2.46 1.01-4.88 2.1c-3.12 1.32-6.34 2.2-9.58 3.15A160 160 0 0 0 203 40.06c-4.61 1.89-9.11 3-14 3.94v2l-3.07.77-4.06 1.04-2.01.5A57 57 0 0 0 168 53q-3.3 1.01-6.63 1.87a97 97 0 0 0-13.5 4.7 81 81 0 0 1-14.51 4.55A154 154 0 0 0 121.12 68l-2.16.76a75 75 0 0 0-9.14 3.87c-3.53 1.72-6.79 2.14-10.65 2.65-2.33.5-2.33.5-3.3 2.64L95 80c-4.92 4.04-4.92 4.04-8.37 3.9-3.5-1.2-5.3-3.08-7.88-5.71l-2.64-2.65C73.13 71.95 73.13 71.95 73 69q1.93-2.55 4-5v-3c2.12-1.88 2.12-1.88 5-4l3.31-2.75L88 52l2 3c3.5-.62 6.68-1.54 10-2.81 4-1.49 7.99-2.83 12.06-4.07 7.54-2.28 15-4.78 22.47-7.29l12.97-4.33 19.69-6.56 1.94-.65 11.01-3.67q15.07-5 30.09-10.17 3.7-1.28 7.4-2.53a1151 1151 0 0 0 21.64-7.54c14.26-5.12 26.18-8.8 40.6-1.8"/><path fill="#d5e6ee" d="M458 74c3 .31 3 .31 6 1 1.5 2.98 1.13 5.69 1.13 9.02l.01 2.21v7.39l.02 5.28.01 23.4.02 31.51q0 14.63.02 29.25a15322 15322 0 0 1 .03 40.18 3937 3937 0 0 1 .01 19.32c.03 9.08-.26 18.05-1.12 27.1l-.23 2.45c-3.24 30.8-22.8 59.45-41.61 83-2.32 2.85-2.32 2.85-4.29 5.89h-2l-.78 1.73a34 34 0 0 1-4.72 6.52l-1.84 2.14C407 373 407 373 405 373l-.75 1.88c-1.49 2.52-2.69 2.84-5.25 4.12l-.86 1.81c-1.42 2.72-3.13 4.19-5.45 6.19a428 428 0 0 0-10.48 9.46C364.52 413 364.52 413 361 413l-1 3c-2.56 1.19-2.56 1.19-5 2v2c-1.53 1.42-1.53 1.42-3.65 3.04l-2.3 1.76-2.43 1.82-2.4 1.86C338.26 433 338.26 433 336 433v2a159 159 0 0 1-7.37 5.19l-4.45 3-2.19 1.47a391 391 0 0 0-7.24 5.03 343 343 0 0 1-24.11 15.72 153 153 0 0 0-5.87 3.74c-9.62 6.37-9.62 6.37-14.02 6.73-5.14-1.2-8.54-3.8-12.75-6.88l-5.12-2.87c-3.26-1.96-6.32-4.21-9.42-6.41a132 132 0 0 0-6.34-4.16 250 250 0 0 1-19.93-13.42 250 250 0 0 0-10.94-7.84l-4.6-3.15-2.21-1.54q-1-.67-2-1.38L196 427v-2l-2-.56c-3.52-1.69-5.9-3.85-8.77-6.46-2.3-2.04-4.68-3.95-7.1-5.86a230 230 0 0 1-12.8-11.04c-2.35-2.15-2.35-2.15-5.12-4.22L158 395v-2l-1.75-.8a31 31 0 0 1-6.19-4.51l-1.96-1.74c-5.1-4.74-9.48-9.8-13.82-15.23-2.25-2.77-2.25-2.77-4.88-5.3a36 36 0 0 1-5.28-6.6l-1.3-2.05L122 355l1-2a130 130 0 0 1 15.19 14.69c7.14 7.95 14.53 15.28 22.88 21.95q4.84 3.92 9.56 7.99 6.46 5.53 13.21 10.7a330 330 0 0 1 6.85 5.48c14.66 11.74 30.5 22.42 46.42 32.37q3.59 2.25 7.12 4.58l2.29 1.5 4.47 2.92c5.77 3.86 5.77 3.86 12.01 6.82 3.4-1.1 6.38-2.7 9.44-4.54l2.5-1.5 2.62-1.58q1.34-.83 2.73-1.65 10.04-6.1 19.71-12.73l4.5-3.03a433 433 0 0 0 25.8-18.64q2.85-2.21 5.75-4.38a422 422 0 0 0 26.42-21.6q2.9-2.55 5.84-5.1a502 502 0 0 0 23.75-22.12l2.66-2.66a179 179 0 0 0 14.56-16.25 98 98 0 0 1 5.1-5.97c7.86-8.9 14.9-18.85 20.62-29.25l1.09-1.92a202 202 0 0 0 13.35-28.02l.96-2.44c7.56-20.97 6.06-44.03 6.07-65.95q.01-7.27.05-14.55.06-13.73.08-27.45.06-24.65.16-49.3a8726 8726 0 0 0 .08-28l.02-11.74.01-3.83C457 75 457 75 458 74"/><path fill="#1371a8" d="M293 9a152 152 0 0 1 19.25 5.38l5.6 1.89 2.7.91q4.55 1.5 9.14 2.88c13.74 4.17 27.29 8.94 40.84 13.7q9.57 3.32 19.27 6.25A613 613 0 0 1 405 45c7.5 2.52 15 4.99 22.6 7.21 2.4.79 2.4.79 4.6 1.91 1.77 1.08 1.77 1.08 3.8.57 2.01-.66 2.01-.66 3.94-1.56 2.06-.13 2.06-.13 4.44 1.8 4.3 4.8 8.67 9.84 10.62 16.07-2.42 2.56-4.55 4.74-7.62 6.5-2.59 1.37-2.59 1.37-3.88 4.19C442 84 442 84 439.69 84.63c-3.85-.9-5.9-2.9-8.69-5.63l-1-3c-1.94-.94-1.94-.94-4.33-1.54L423 73.7l-2.81-.76-5.46-1.54-2.46-.67C410 70 410 70 407.91 68.95c-2.56-1.28-5.1-1.57-7.91-1.95v-2l-11-2v-2l-2.12-.33c-5.14-.86-9.9-1.86-14.71-3.81-4.65-1.84-9.43-3.3-14.17-4.86l-3-1q-2.93-.98-5.86-1.93A194 194 0 0 1 335.06 44a159 159 0 0 0-14.56-4.93C311.12 36.2 301.88 33.2 293 29l1-6-3-2 3-1-2-6h6v-2l-4 1z"/><path fill="#477493" d="M182 177h3l.66 2.25c1.69 3.46 3.58 4.64 6.78 6.75 3.96 2.62 6.51 4.66 8.56 9 .12 6.38-2.9 11.3-7 16q-2 1.02-4 2-.59 2.48-1 5l-3 4 13 1 1 5h-8l-.37 2.44L191 233l-2 1q2.91 0 5.81-.1l3.19-.09 3.19-.1c2.81.29 2.81.29 4.68 1.63 1.7 2.5 1.25 4.67 1.13 7.66l.69 3.19c.31 2.81.31 2.81-.94 4.62-3.22 2.19-6.04 2.33-9.81 2.31l-2.66.01C192 253 192 253 190 252l-3 1q-2.85.1-5.69.06l-3-.02L176 253l-1-2-1.64 1c-4.27 1.82-8.78 1.1-13.36 1v-19c9.96-.2 9.96-.2 13 0 2 2 2 2 2 9l1-15h-8l1-5 13-1-2.5-2.37C177 217 177 217 177 215l-1.94-.37L173 214c-1.5-3.02-1.18-5.67-1-9l2-3h2c1-3.58 1-3.58 0-7-.67-7.95 1.62-11.43 6-18m-3 22v3a33 33 0 0 0 5 4.19l2.81 2.17L189 210l1-4zm-14 40 4 1Zm16 0 4 1Zm16 0 4 1Zm-7 1 1 3Zm-25 6v1h6v-1zm16 0v1h5v-1zm16 0v1h5v-1z"/><path fill="#91aabc" d="M159 169.64h2.74q4.56-.01 9.11.02h6.54q8.87 0 17.74.04l18.55.02q17.55 0 35.11.06 19.98.05 39.98.07 41.1.05 82.23.15l1 4-3-1q-2.93-.13-5.87-.12h-12.07l-11.64.02h-12.17l-23.05.03-26.23.02L224 173l1 3-1 1c-.12 2.5-.19 4.96-.2 7.46l-.04 2.4-.13 12.5-.2 17.7L223 257l145 1v2q-41.87.1-83.73.16-19.44.01-38.88.07-16.95.05-33.89.05-8.97 0-17.94.04-8.44.02-16.9.02l-6.19.02H162l-2.47.03A26.4 26.4 0 0 1 146 257c-4.31-4.65-5.13-7.28-5.18-13.54l-.02-2.04-.05-8.99-.05-12.1q-.01-6.24-.08-12.48-.03-4.8-.04-9.61 0-2.3-.03-4.6c-.18-15.2-.18-15.2 4.45-20.64 4.5-3.56 8.5-3.42 14-3.36M146 177c-1.5 3.3-1.13 7.05-1.15 10.63v2l-.03 11.02v9.48q0 6.07-.04 12.15l-.02 13.83v9.86c.24 3.02.46 4.6 2.24 7.03 3.93 3.1 6.98 3.37 11.9 3.34h2.08q3.3 0 6.6-.05h4.1q7.56-.03 15.13-.1L221 256v-82l-34.69-.19-10.93-.08-6.5-.02-4.32-.03q-3.28-.03-6.57-.02l-3.73-.02c-3.6.4-5.47 1.09-8.26 3.36"/><path fill="#e77823" d="M263 7c3.85 2.56 4.36 5.35 5.63 9.56 1.08 4.58 1.08 4.58 3.37 8.44q2.01.23 4.04.32l2.45.12 2.57.12 2.59.13L290 26v4h-2v2h-2l-.69 1.75c-1.67 2.87-3.58 4.39-6.31 6.25h-3v5h2q1.55 3.9 3.06 7.81l.9 2.24c2.15 5.61 2.15 5.61 1.04 8.95-5.48-2.86-9.92-6.32-14.57-10.4-2.83-1.87-4.1-2.2-7.43-1.6-2.07 1.32-2.07 1.32-3.87 3.19C247.65 64 247.65 64 243 64c.63-5.05 2.13-9.3 4-14h2c.65-6.24.65-6.24-2-11.69q-2.52-1.96-5.11-3.8l-2.2-1.57-2.12-1.41L236 30v-4h20l2-7q.74-2.38 1.5-4.75l.72-2.23C261 10 261 10 263 7"/><path fill="#2a5d80" d="M285 194h7l-1 3 5 1v1h-7v12l3-1-1-4h8l1 5 10-1v2l3 1 1-2h2v-12l1 2h6l1 12h-2l2 7c-4.75 1.13-4.75 1.13-7 0v6l-9-1v-3h5c-1.65-1.65-3.85-2.16-6-3l-2-1-3 1v-2h-2v4l-5-1v12l-3-1-1-10-1 7-1-2h-3l-.25-1.87c-.66-2.66-.66-2.66-4.75-4.13v12l-3-2c-.3-2.38-.3-2.38-.19-5.12l.08-2.76.11-2.12-2 1c-.47 2.82-.47 2.82-.62 6.06l-.23 3.35L275 233c-2.76-2.76-2.58-5.2-3-9l-4-1 2-1 2 1v-2l-7 1-2 6h-2v-7h-2v8l-3 1c-1.5-1.12-1.5-1.12-3-3-.19-3.19-.19-3.19 0-6h-2l-1 9h-3c-1.12-1.56-1.12-1.56-2-4 .88-3.75.88-3.75 2-7h-9l1-2v-3l-3-1c1.13-2 1.13-2 3-4 4.08-.51 5.53-.31 9 2l-1-3 3-1 1 6 1-2c2-.45 2-.45 4.44-.69l2.43-.26C261 210 261 210 263 211c2.08-.1 2.08-.1 4.38-.44 4.12-.54 7.6-.9 11.62.44v-4h3v5l5-2c-.88-2.88-.88-2.88-2-5q.41-2.52 1-5l-2-1z"/><path fill="#1470a5" d="M280.2 3.69C284.31 5.62 288.6 6.8 293 8l1 5 4-1v2h-6l2 3v3l-2 1 3 2c-1.94 7.92-1.94 7.92-5 10h-3v2l-2-1 1-2h2v-2l2-1v-2l-3.83-.04-4.98-.15-2.53-.02A31 31 0 0 1 272 26c-3.54-3.93-4.52-9.46-6.04-14.45-.69-2.7-.69-2.7-2.96-3.55l-2 2-2.19-2.44C255.4 4.44 255.4 4.44 251 4a83 83 0 0 0-6 2.3c-2.7.95-5.16.91-8 .7V6l2.63-.8 3.5-1.08 3.44-1.05q3.24-1 6.41-2.18C262.4-1.9 271.5-.46 280.2 3.7"/><path fill="#7e95a6" d="M150 170a59 59 0 0 1 8.75-.48l2.74-.01q4.58 0 9.14.04h6.53q8.88 0 17.77.04l18.56.04q17.58.01 35.16.08 20 .07 40.01.09 41.18.06 82.34.2l1 4-3-1q-2.93-.13-5.87-.12h-12.07l-11.64.02h-12.17l-23.05.03-26.23.02L224 173l1 3-1 1q-.18 3.68-.2 7.37l-.04 2.33-.14 12.99-.15 14-.16 14.28L223 256h-1v-83l-75 1z"/><path fill="#eeac7d" d="M249 393h29c1.12 5.6 1.12 5.6-1.25 9.38a60 60 0 0 0-4.37 8.37A60 60 0 0 1 268 419q-1.53 3-3 6h-4l-1.27-6.05c-.65-2.32-.65-2.32-3.73-3.95v-2h-3l-.25-3.5c-.48-4.12-1.89-7.1-4-10.64C248 397 248 397 249 393"/><path fill="#2d6185" d="M182 177h3l.66 2.25c1.69 3.46 3.58 4.64 6.78 6.75 3.96 2.62 6.51 4.66 8.56 9 .12 6.38-2.9 11.3-7 16q-1.98 1.04-4 2c-.8 2.05-.8 2.05-1 4l-2.37-.56c-2.6-.7-2.6-.7-4.63.56a37 37 0 0 1 4-8h3l1-3-1.69-.81c-7.3-3.76-7.3-3.76-9.31-8.19l-3-2c-.93-7.86 1.7-11.55 6-18"/><path fill="#e47826" d="M439 53c3.05.1 4.19 1.16 6.5 3.19A68 68 0 0 1 452 65l1.81 2.19L455 69c-1.08 3.24-1.75 3.87-4.31 5.94-5.02 3.96-5.02 3.96-8.69 9.06-3.76.55-4.94.04-8.12-2.19-2.58-2.32-4.2-4.77-5.88-7.81-1.58-1.75-1.58-1.75-3-3 1.42-5.2 4.92-8.66 9-12h2l.38-1.87C437 55 437 55 439 53"/><path fill="#e27a2a" d="M87 52a41 41 0 0 1 6.38 7.44 25 25 0 0 0 5.93 6.25L102 68v4c-3.21 3-3.21 3-6 3l-.69 1.69A24 24 0 0 1 89 84c-4.79-.13-7.01-2.5-10.25-5.81l-2.64-2.65C73.13 71.95 73.13 71.95 73 69q1.93-2.55 4-5v-3q2.44-2.08 5-4a279 279 0 0 0 5-5"/><path fill="#8b9fac" d="M151 257q70.88-.1 141.77.45l24.73.18 50.5.37v2a188161 188161 0 0 1-123 .08 49896 49896 0 0 1-68.9.03l-14.7.01h-2.51c-5.66 0-5.66 0-7.89-1.12z"/><path fill="#51a2d5" d="M127 89h2v2l5-1c-5.6 5.6-14.52 6.38-22 9v154l-2-1c-1-31.06-1.16-62.1-1.13-93.17v-17.89a12672 12672 0 0 1 0-34.92v-8.21C109 96 109 96 110 95c2.22-.28 4.44-.45 6.68-.62 2.35-.26 2.35-.26 4.36-1.42C123 92 123 92 127 92z"/><path fill="#4988ae" d="M449 61c5.75.88 5.75.88 8 2 1.86 9.5 1.11 19.72 1.05 29.38l-.02 5.16-.06 13.92q-.04 5.8-.06 11.63l-.15 27.42q-.09 14.14-.14 28.3a14476 14476 0 0 1-.2 38.83 3673 3673 0 0 1-.1 18.62 1013 1013 0 0 1-.06 10.67C457 250 457 250 455 253l-1-178-3 4h-2l-1 3c-3 2-3 2-6 2 1.37-4.94 3.74-6.36 8-9a88 88 0 0 0 4-4c-1.2-3.43-2.38-5.5-5-8z"/><path fill="#cde8f7" d="M457 76h2c1.07 3.5 1.13 6.73 1.13 10.37v33.36c-.03 41.1-.54 82.18-1.13 123.27l-2 1z"/><path fill="#e4f0f7" d="M464 77h1a132127 132127 0 0 1 .08 103.41 35119 35119 0 0 1 .03 57.98v5.22c.03 8.84-.05 17.6-1.11 26.39h-1l.04-3.47.02-4.6.03-2.27v-2.26l.02-2.04c-.08-2.51-.08-2.51-.61-5.56a79 79 0 0 1-.59-10.97l.08-13.85.08-13.35.08-13.96.15-23.44.16-27.12a28496 28496 0 0 1 .33-55.04l.07-10.24C463 79 463 79 464 77"/><path fill="#4c7490" d="m300 217 3 1 3-1 2 2q2.97 1.07 6 2l-1 2-5-1v3l9 1v-6c6.75-.12 6.75-.12 9 1v2l-6-1v3l6 1 .38 1.94.62 2.06 2 1c-4.08 1.94-7.33 2.23-11.83 2.2l-3.92-.02-4.06-.06-4.13-.02L295 233v-13l4-1zm-4 4v11h7v-1h-6v-4h6v-1h-6v-5zm22 1 1 3Zm-5 5v2l2-1zm12 1 1 2Zm-17 3 4 1Zm11 0v1h5v-1z"/><path fill="#8ba9c1" d="M160 234c9.96-.2 9.96-.2 13 0 2 2 2 2 2.13 5.63L175 243l1-9h1v18h10v1h-11l-1-2-1.64 1c-4.27 1.82-8.78 1.1-13.36 1zm5 5 4 1Zm0 7v1h6v-1z"/><path fill="#305c7b" d="m341 198 4.88.94 2.74.52C351 200 351 200 353 201q.06 3.5 0 7l-1 1-1 4-21-2-1-3-2-1-2 5h-2v-11l4 2 2-1 1-3h9v2h-6v2l7-1zm-10 2v10l2-1-1-4h6v-1h-6l1-4zm11 0v10l3-1h-2l1-9z"/><path fill="#396a8f" d="m177 196 4 2-2 4 1.69.69c2.94 1.67 5 3.86 7.31 6.31l-5 6 3 1 3 2-3 4 13 1v1h-30v-1l13-1-2.5-2.37C177 217 177 217 177 215l-1.94-.37L173 214c-1.5-3.02-1.18-5.67-1-9l2-3h2z"/><path fill="#60a9d6" d="M415 98h2v164h-2l-.31 3.56A33 33 0 0 1 411 277l-2 1 .55-2.13q1.25-4.94 2.45-9.87l.8-3.18c2.13-8.93 2.61-17.4 2.54-26.55v-4.55q0-6.12-.04-12.24l-.02-12.83q0-12.13-.06-24.25-.05-13.8-.07-27.63-.04-28.38-.15-56.77"/><path fill="#2e5d7e" d="M192 234c11.4-.37 11.4-.37 13.88 1.16 1.57 2.58 1.41 4.52 1.3 7.53l-.07 3L207 248h-4l1-3-2-2v2h-5v4l5 1v1h-10zm5 5 4 1Z"/><path fill="#3a6585" d="M289 199h8l1 2 2-2c3.5-.32 6.14-.33 9.44.94 2.53 3.34 1.87 7.01 1.56 11.06l2-1c.47-2.59.47-2.59.63-5.56l.22-3.07.15-2.37 2 1v11h-2l-1 4c-1.5-1.37-1.5-1.37-3-3v-2l-2 1c-2.67.13-5.32.04-8 0l-1-4-8-1 .06-2.44c.24-2.5.24-2.5-1.06-3.56v10h7v1h-8zm12 1v10l2-1v-9z"/><path fill="#4f82a0" d="m250 220 3 1q1.11 3.47 2 7l1 1c2.57-2.57 2.54-4.48 3-8h2v7h2l.19-2.87c.81-3.13.81-3.13 3.19-4.57C269 220 269 220 272 221v2h-3l3 1 1 7-9 1v2q-2.18 1.04-4.37 2.06l-2.47 1.16-2.16.78-2-1v-4l-1.49-1.43c-1.51-1.57-1.51-1.57-1.8-4.05l.1-2.7.08-2.74zm15 2 1 4Zm-12 9v1h5v-1z"/><path fill="#89a4b2" d="M392 243c3 2.63 3 2.63 5 6 0 3.38-.66 5.33-2.19 8.31-2.54 2.37-4.37 2.55-7.81 2.69-3.85-1.05-4.74-1.6-7-5-.34-3.02-.56-5.1 0-8 3.46-4.2 6.71-4.94 12-4m-8 4-2 5 3 3v-8zm9 2-1 4h2zm-6 4v2l-2 1c2.4.68 2.4.68 5 1l2-2h-3v-2z"/><path fill="#2379ad" d="M239 9c-.12 2.81-.12 2.81-1 6-3.06 1.88-3.06 1.88-6 3h2v2h4v2l-3 1-2 3v-2l-2.81.63C227 25 227 25 224 23c.59-3.03 1.25-6 2-9h-9c3.26-2.17 6.32-3.35 10-4.69l3.75-1.38c3.68-1.05 4.92-.6 8.25 1.07"/><path fill="#b17d51" d="M263 7c3.85 2.56 4.36 5.35 5.63 9.56 1.08 4.58 1.08 4.58 3.37 8.44q2.01.23 4.04.32l2.45.12 2.57.12 2.59.13L290 26v4h-2v2h-2l-.69 1.75c-1.67 2.87-3.58 4.39-6.31 6.25h-3v5h2l-1 4c-2.48-3.71-2.55-5.6-2-10 2.44-1.75 2.44-1.75 5-3l1-3h2l1-3h-2.48c-8.85-.33-8.85-.33-12.08-3.56-1.59-3.8-3.1-7.55-4.44-11.44l-5 3c-.33-4.67.3-7.17 3-11"/><path fill="#3e6c8b" d="m259 197 6 1v2l2 1-.06 2.31c-.07 2.8-.07 2.8 1.06 5.69l4-3 4 2c-3.02 2.6-5.1 3.44-9.06 3.75l-2.6.23C262 212 262 212 259 211q-3.5-.06-7 0l-1 3h-1v-12h1l1 6 7-1-.62-2.87L258 201l2-2zm5 6 1 4Z"/><path fill="#749fba" d="M70 63c2 2 2 2 2.16 4.64l-.1 3.17c-.13 4.3-.13 4.3.47 8.54.51 2.88.37 5.2.05 8.1-.65 6.8-.8 13.57-.9 20.4l-.06 3.86-.15 10-.16 10.26L71 152h-1c-1.81-29.65-1.14-59.34 0-89"/><path fill="#e9c9af" d="M249 393h29c1.12 5.62 1.12 5.62-1.31 9.56l-1.37 2.26L274 407q-1.02 2-2 4c-.16-8.3-.16-8.3 1-12l3-2v-2l-23 1c.6 3.55 1.14 6.77 2.06 10.19.94 3.81.94 3.81.94 6.81h-3l-.25-3.5c-.48-4.12-1.89-7.1-4-10.64C248 397 248 397 249 393"/><path fill="#2e5c7b" d="M161 234h8v4h-4v3h5v4h-5v3h5v4h-9z"/><path fill="#7299b0" d="M317 220c6.75-.12 6.75-.12 9 1v2l-6-1v3l6 1 .38 1.94.62 2.06 2 1c-4.63 2.36-8.76 2.24-13.81 2.13l-2.4-.03-5.79-.1v-3l5 2c1.01-3.05 1.01-3.05 0-6h5zm1 2 1 3Zm7 6 1 2Zm-6 3v1h5v-1z"/><path fill="#3b6684" d="M168 224h31l1 4c-3.37.13-3.37.13-7 0l-2-2c-3.58-.17-3.58-.17-7 0l-2 5h-6v-3h-8z"/><path fill="#5492b8" d="M71 228h1c.74 4 1.15 7.85 1.25 11.92l.1 3.36.17 6.9c.19 6.12.67 11.77 2.26 17.7.27 2.63-.43 3.9-1.78 6.12l-1.44-5.94-.8-3.34c-1.52-7.49-1.92-14.84-1.89-22.47v-2.5c0-4.05.12-7.8 1.13-11.75"/><path fill="#8aa6bb" d="M147 171c2 1 2 1 3 2q3.36.14 6.72.11h2.13l11.84-.02 12.76-.02 13-.02L222 173v1l-2.66.02a10426 10426 0 0 0-37.63.4 3171 3171 0 0 0-17.03.18 971 971 0 0 0-10.38.12c-3.22.27-5.46.78-8.3 2.28-.89 2.04-.89 2.04-1 4v-3l-1 2h-2c.57-3.87 2.49-6.08 5-9"/><path fill="#3b89b5" d="m263.75-.25 3.98-.02C271 0 271 0 273 2l-5-1 1 6h-3l-1-4h-4v6c-3.16-1.37-4-1.99-6-5-3.38.4-6.4.75-9.56 2.06C242.5 7.2 240.1 7.14 237 7V6l2.63-.8 3.5-1.08 3.44-1.05q3.21-1 6.38-2.19c3.7-1.07 6.95-1.15 10.8-1.13"/><path fill="#e47927" d="m258 50 3 1a41 41 0 0 1-9.56 9.31l-2.88 2.12C246 64 246 64 243 64a40 40 0 0 1 3-11l3 1 1-3h4v3h3z"/><path fill="#718faa" d="M191 235h1v16l9-1-4-1v-4c2.65-1.46 3.9-2 7-2l1 3h-2v2h4l1-3c-.19 2.88-.19 2.88-1 6-3.68 2.6-8.36 2.47-12.75 2.38-2.25-.38-2.25-.38-4.37-2.57-.88-2.8-1.13-4.9-.88-7.81h2z"/><path fill="#759fb7" d="M289 199h8l1 2 2-2c3.63-.12 3.63-.12 7 0l-2 2-4-1v10l2.38-.62c1.3-.2 1.3-.2 2.62-.38l2 2h-8l-1-4-8-1 .06-2.44c.24-2.5.24-2.5-1.06-3.56v10h7v1h-8z"/><path fill="#8bb0c4" d="M277 199c6.75-.12 6.75-.12 9 1v6l2 1-1 4-5 1v-5h-3v4h-2zm1 6 4 2 2-2z"/><path fill="#2d5c7a" d="M186 235c1.94.81 1.94.81 4 2 .98 2.94 1.04 4.05.63 7l-.28 2.06C190 248 190 248 189 251h-2v-2h-5v-1h5v-3h-8l-1-3 8-1v-3l-3-1z"/><path fill="#2e6082" d="M192 234q2.9-.12 5.81-.19l3.27-.1c2.92.29 2.92.29 4.8 1.54 2 3.12 1.3 6.12 1.12 9.75l-2-1v-6h-2l-1 3c-3.37.63-3.37.63-7 1-2.57-2.57-2.54-4.48-3-8m5 5 4 1Z"/><path fill="#52717e" d="M449 61c5.88.88 5.88.88 7 2 .54 4.1.92 8.25-1.05 12-1.32 1.63-1.32 1.63-3.95 4h-2l-1 3c-3 2-3 2-6 2 1.37-4.94 3.74-6.36 8-9a88 88 0 0 0 4-4c-1.2-3.43-2.38-5.5-5-8z"/><path fill="#9aafbc" d="M396 247c1.12 3.92 1.2 5.56-.56 9.31C393 259 393 259 390.06 260c-3.34 0-5.2-.25-8.06-2-1.31-2.62-1.31-2.62-2-5l3-1 1.81 2c2.07 2.34 2.07 2.34 5.19 2l-1-3 1-2h2v-3c2-1 2-1 4-1m-3 2-1 4h2z"/><path fill="#4b7694" d="m185.85 224.9 6.15.1c1 3 1 3-1 8l-14 1v-3h5l.44-2.44c.77-3.52.77-3.52 3.4-3.66"/><path fill="#527a96" d="M237 218h10c0 3.11-.17 5.1-1 8h-7l-1 6h7v1h-8v-12l-2-1h2z"/><path fill="#a77e59" d="M259 18c1.6 3.22.07 5.72-1 9-2.12 2.12-6.62 1.42-9.56 1.56l-2.45.13L240 29c1.52 3.37 2.52 4.6 6 6-4.08 0-5.8-1.55-9-4-1.37-2.25-1.37-2.25-2-4 1-1 1-1 2.95-1.11l2.52.01 2.73.01 2.86.03 2.88.01L256 26l.94-3.44C258 19 258 19 259 18"/><path fill="#6c91ae" d="M330 199h9v2c-5.75.13-5.75.13-8-1v10l3-1c2.69.44 2.69.44 5 1v1h-9l-1-3-2-1-2 5h-2v-11l4 2 2-1z"/><path fill="#b7daee" d="M420 333c1 3 1 3 .38 5.38-2.03 3.86-4.82 6.58-8.44 9-2.88 2.41-4.19 5.3-5.94 8.62l-4-1a458 458 0 0 1 14.59-17.34c1.6-1.82 1.6-1.82 3.41-4.66"/><path fill="#759fb8" d="m300 217 3 1 3-1 2 2q2.97 1.07 6 2l-1 2-5-1-1 2h-3v-2h-7l-1 10h-1v-12l4-1z"/><path fill="#c37a43" d="M439 53c3.18.11 4.31 1.27 6.75 3.38C448 59 448 59 448 62l-4-1v-2l-5-1-1.19 2.38c-2.08 3.01-3.33 3.66-6.81 4.62h-3l2.88-3 1.61-1.69C434 59 434 59 436 59l.38-1.87C437 55 437 55 439 53"/><path fill="#1a6d9d" d="M358 32c6.9-.69 12.12 1.24 18.54 3.71A121 121 0 0 0 387 39v1c-4.16.08-7.95-.02-12-1v-2l-3.62.13c-3.8 0-6.83-.71-10.38-2.13v-2z"/><path fill="#d67d31" d="m246 33 2 4 2.38-1.56L253 34l2 1-1 2.19c-1.14 2.7-1.14 2.7-1 5.31 0 2.91-.8 4.87-2 7.5h2v2h-3l-1 2h-2v-4h2c.5-7.08.5-7.08-3-13z"/><path fill="#dde8ef" d="m228 444 2 1-2 1zm-1 2 1 2 3.31-.56C235 447 235 447 238 448v3h2v5c-6.12-.38-10.83-4.83-15-9z"/><path fill="#84a1b4" d="m184 215 5 2-3 5 13 1v1h-30v-1l13-1-1-4c1.44-1.75 1.44-1.75 3-3"/><path fill="#6098bb" d="M395 43c7.95 1.35 15.47 3.6 23.13 6.13l3.47 1.12L430 53v1h-8v-2l-9-1v-2l-14-2v-2z"/><path fill="#67b0d5" d="m305 389 2 1-2.12 1.69L302 394l-3.06 2.44c-2.97 2.43-2.97 2.43-5.06 5.25-3.02 3.72-6.2 4.7-10.88 5.31l-2-1 5.19-3.81 2.92-2.15A122 122 0 0 1 297 395q2.18-1.56 4.31-3.19l2.12-1.6z"/><path fill="#2d6184" d="M169 234c4.7.7 4.7.7 6 2 .3 3.62-.15 5.88-2 9h-3l-1-3c-2-1.2-2-1.2-4-2v-2h4l-1-3z"/><path fill="#295d80" d="m175 203 2 3 3-3 4 4-1 3h-2l-1 2c-2.06 1.13-2.06 1.13-4 2-2.3-3.46-2.26-4.95-2-9z"/><path fill="#55a8d5" d="M244 51c-3.46 3-7.27 4.35-11.56 5.75l-2.04.7c-5.03 1.67-5.03 1.67-8.4.55l3-2c1.2-2.05 1.2-2.05 2-4l1.9.04 2.47.02 2.47.04c3.51-.16 6.43-1.18 10.16-1.1"/><path fill="#5e829c" d="M190 185c8.48 4.64 8.48 4.64 10 7 1.56 6.88 1.56 6.88 0 10h-2l-.37-2.94L197 196l-2-1q-1.1-2.97-2-6h-3z"/><path fill="#df9863" d="M278 49c3.06 2.51 3.75 4.9 4.69 8.69l.76 3L284 63l-2 1-11-8 2-1c2.63.94 2.63.94 5 2z"/><path fill="#276187" d="m262 211 3 1v3c-2.5 1.69-2.5 1.69-5 3l-1-5zm-7 2 4 1c-.25 1.88-.25 1.88-1 4-2 1.13-2 1.13-4 2l-1 2-2-2c.38-2.62.38-2.62 1-5l3-1z"/><path fill="#5f99ba" d="M70 63c2 2 2 2 2.16 4.64l-.1 3.17c-.08 3.02-.16 5.72.46 8.69.58 3.03.42 5.68.17 8.75l-.24 3.2L72 94l-2 1z"/><path fill="#2b5a7b" d="M340 197a88 88 0 0 1 1 5c-1 1-1 1-4.56 1.06L333 203v-2h6v-2h-9v7l-2-3-4 4v-6h5v-3c7.63-1 7.63-1 11-1"/><path fill="#63acd3" d="M190 71c-8.83 3.84-17.52 7.2-27 9l1-3c1.74-.66 1.74-.66 3.88-1.06 3.1-.6 4.36-1.1 7.12-2.94q2.98-.93 6-1.69l3.19-.82C187 70 187 70 190 71"/><path fill="#7596ac" d="m177 196 4 2-2 4 4 2-1.87.25c-2.31.56-2.31.56-3.38 2.81L177 209l-2-4-2 7h-1c-.25-6.62-.25-6.62 2-10h2z"/><path fill="#cae4f4" d="m183 408 1.5 1.14q6.68 5.03 13.5 9.86c-2.47.88-3.64 1.13-6.14.22l-2.11-1.16-2.14-1.15L186 416v-3c-.93.3-.93.3-1.87.63L182 414l-2-2h4z"/><path fill="#5292b8" d="M91 305h2v2l2 1h-2l2 3c.54 2.66.73 5.3 1 8l3 1v3h-2c-1.7-2.48-1.7-2.48-3.56-5.75l-1.88-3.23A23 23 0 0 1 89 307h2z"/><path fill="#2d5977" d="m262 218 4 2-3 8h-2v-7h-2v8l-3 1-3-3 5-1v-6h4z"/><path fill="#4294c2" d="M279 39c1.43 2.86.6 4.93 0 8h2v2l2.25-.19c3.2.22 4.39 1.1 6.75 3.19-3.36 1.09-4.86 1.05-8.25-.12C279 50 279 50 278.13 47.3L278 45h-2v-5z"/><path fill="#7a9cb8" d="M343 201h1l1 5 5 1v-5l3-1v7l-2 1-2 2c-3.62.13-3.62.13-7 0l1-2q.1-2.06.06-4.12z"/><path fill="#2f5c7a" d="m324 220 4 1v7h8v2h-9l-1-3c-3-1.23-3-1.23-6-2v-3l6 1v-2z"/><path fill="#809fb3" d="m269.69 220.38 2.31.62v2h-3l3 1-1 4h-8c.31-2.87.31-2.87 1-6 3-2 3-2 5.69-1.62M265 222l1 4Z"/><path fill="#6990ac" d="m314 199 2 1v11h-2l-1 4c-1.5-1.37-1.5-1.37-3-3v-2h-2v-10l3 2c.3 2.16.3 2.16.19 4.63l-.08 2.47-.11 1.9 2-1c.47-2.59.47-2.59.63-5.56l.22-3.07z"/><path fill="#80867b" d="M260 417h8l-2 7-5 1c-1.35-2.7-1.07-5-1-8"/><path fill="#3681aa" d="M107 335c2.44.38 2.44.38 5 1l1 2h4l-1 5h2l-1 4c-3.6-3.5-6.88-7.07-10-11z"/><path fill="#98b6c8" d="m240 200 3 1v3l3 1v3l2 1v2l-9-2z"/><path fill="#658da9" d="M342 199c3.38-.12 3.38-.12 7 0l2 2c-.37 3.13-.37 3.13-1 6q-2.5.06-5 0c-1-1-1-1-1.06-4.06L344 200z"/><path fill="#5ba9cf" d="M125 291a183 183 0 0 1 7.19 10.25l2.17 3.27L136 307l-3 1-1.24-1.93-1.63-2.5-1.62-2.5c-1.35-2.18-1.35-2.18-3.51-3.07z"/><path fill="#c8e1f1" d="M226 440a85 85 0 0 1 12 7l-2 2c-2.44-.37-2.44-.37-5-1h-3v-4l-4-2zm-3 3 2 1-2 1z"/><path fill="#2373a4" d="M389 365h2c-1.59 3.9-4.13 6.34-7.12 9.25l-2.76 2.7L379 379l-2-3h3l1-4h3l1-5h4z"/><path fill="#6fa5c5" d="m77 282 .88 1.94c.95 2.21.95 2.21 3.12 3.06v3h2c1.5 3.37 2 5.2 2 9l2 1a39 39 0 0 1 1 5c-3.46-3.2-5.04-6.78-7-11l-1.14-2.42C77 285.4 77 285.4 77 282"/><path fill="#7898aa" d="m201 234 5 1c.75 3.66 1.24 6.42 0 10-1-1-1-1-1.06-4.06L205 238h-2l-1 3h-5v-3l5-1z"/><path fill="#bf783f" d="M75 69c1.94.31 1.94.31 4 1 1 3 1 3 1 6 1.3 1.67 1.3 1.67 3 3.19l1.69 1.6L86 82l-1 2a492 492 0 0 1-5.56-5.25l-1.62-1.49C76.31 75.8 76.31 75.8 74 73c.16-2.36.16-2.36 1-4"/><path fill="#4587a9" d="M240 33c8.22 4.35 8.22 4.35 10 8 .64 6.06.64 6.06-1.31 8.94C247 51 247 51 244 51v-2h3c.63-5.97.63-5.97-2.37-10.94-2.43-2.04-2.43-2.04-4.63-3.06z"/><path fill="#b8dcf1" d="M382 375c0 4.87-3.34 7.32-6.62 10.69L373 388l-2 2h-3c1.6-4.25 4.81-6.82 8.13-9.75l1.7-1.54z"/><path fill="#6e91a8" d="m250 220 3 1q1.11 3.47 2 7l1 1 2-2 2 4c-2.96 1.48-5.74 1.06-9 1-1.26-2.52-1.1-4.31-1.06-7.12l.02-2.76z"/><path fill="#557b95" d="M182 177h3l.81 2.31A14 14 0 0 0 190 185h-8v-3h-2z"/><path fill="#527481" d="M77.25 61.38 79 62l-1.94 2.75C75.4 67.39 74.46 68.99 74 72h-2l-1-9c4-2 4-2 6.25-1.62"/><path fill="#75b4d8" d="M312 62q2.97.17 5.94.38l3.34.2L324 63l1 2c2.3.6 4.62.96 6.97 1.34L334 67l1 3c-4.95-.8-9.58-2.45-14.31-4.06l-2.54-.86L312 63z"/><path fill="#c57d42" d="m263 7 3 2c.19 3.13.19 3.13 0 6l-6 3c-.33-4.67.3-7.17 3-11"/><path fill="#b7dcf0" d="m289 447 2 1c-1.37 1.5-1.37 1.5-3 3h-2l-1 3c-2.9 1.45-4.74 2-8 2l-1 3-3-2q3.93-2.54 7.88-5.06l2.26-1.47 2.16-1.38 2-1.29z"/><path fill="#336384" d="M188 238h3l-.44 4.81-.24 2.71C190 248 190 248 189 251h-2v-2h-5v-1h5l-.62-2.19c-.44-3.26.2-4.9 1.62-7.81"/><path fill="#668ca5" d="m320 225 6 1 .38 1.94.62 2.06 2 1c-4.05 1.16-6.22.84-10-1zm5 3 1 2Z"/><path fill="#5fadd3" d="M140 315c2.47 1.15 4.05 2.05 6 4v3l1.94.88C150 324 150 324 151 326l-4 1v-3h-2c-2.62-2.25-2.62-2.25-5-5z"/><path fill="#3a99d2" d="M132 308h5l4 7c-3 1-3 1-5.06.44-2.73-2.03-3.1-4.23-3.94-7.44"/><path fill="#afd6ed" d="M455 256h1q-.04 4.84-.19 9.69l-.02 2.76c-.24 7.6-.24 7.6-3.34 10.7L450 281l.59-1.91c2.21-7.63 3.43-15.22 4.41-23.09"/><path fill="#638298" d="M385 247h6l1 4h-2v2h-3v2h-2z"/><path fill="#366a8c" d="M377 243c2.33 3.5 2.5 4.9 2 9-2 2.38-2 2.38-4 4l-2-7 1.44-1.31c1.8-1.71 1.8-1.71 2.56-4.69"/><path fill="#2b5a7a" d="M308 198c2.44.38 2.44.38 5 1 1.2 2.4 1.1 3.95 1.06 6.63l-.02 2.47-.04 1.9-3 1-.15-1.83-.23-2.42-.2-2.4c-.44-2.44-1.2-4.2-2.42-6.35"/><path fill="#66acd5" d="M232 397a76 76 0 0 1 9 5v2l2.38.31C246 405 246 405 248 408l-2.12-.94A41 41 0 0 0 237 405l-.25-1.87c-.56-2.31-.56-2.31-2.81-3.38L232 399z"/><path fill="#c6e0f1" d="M246 221a37 37 0 0 1 1 4c-1 1-1 1-4.56 1.06L239 226v-5c3.13-1.04 3.99-.93 7 0"/><path fill="#5d819c" d="M297 222c3.31-.19 3.31-.19 7 0 1.63 1.5 1.63 1.5 3 3 2.63.25 2.63.25 5 0-3.76 2.5-4.7 1.84-9 1q-3-.07-6 0z"/><path fill="#dca275" d="M246 53h1v6l6-1-2.37 1.88c-2.6 2.02-2.6 2.02-4.63 4.12h-3a40 40 0 0 1 3-11"/><path fill="#84a0b5" d="M147 171c2 1 2 1 3 2q2 .54 4 1c-5.75 3-5.75 3-8 3l-1 4v-3l-1 2h-2c.57-3.87 2.49-6.08 5-9"/><path fill="#6ba1c1" d="m273 2 7.1 2.13L283 5l8.16 2.45L293 8c-3.68 1.23-5.88.7-9.69.06l-3.57-.59L277 7V4l-3 1z"/><path fill="#bcdff0" d="m171 399 4.31 2.81 2.43 1.58A33 33 0 0 1 183 408h-8l-.87-2.44c-.86-2.7-.86-2.7-3.13-3.56z"/><path fill="#70b6d9" d="M414 259h1c.33 6.1-.21 11.47-3 17l-3 2a429 429 0 0 1 5-19"/><path fill="#2e6388" d="m181.06 224.94 2.94.06-2 6h-6c1.07-5.98 1.07-5.98 5.06-6.06"/><path fill="#65aed3" d="M391 89c6-.63 10.63 1.62 16 4v2c-5.97-.5-10.64-2.39-16-5z"/><path fill="#d2915c" d="M87 52c3.67 3.28 5.7 6.72 8 11-1.87-.31-1.87-.31-4-1-2-3-2-3-2-6l-6 1z"/><path fill="#2d5d7e" d="M186 209h2c1.35 2.7 1.07 5 1 8l-2.37-.56c-2.6-.7-2.6-.7-4.63.56a37 37 0 0 1 4-8"/><path fill="#2389c6" d="M97 76h2c-1.15 2.47-2.05 4.05-4 6a25 25 0 0 0 0 5l-3 1-1 2c-.44-5.27-.44-5.27 0-8 2.44-2.37 2.44-2.37 5-4z"/><path fill="#90816c" d="M427 66c1 2 1 2 1.28 3.8 1.04 3.17 3.01 5.02 5.28 7.45l2.5 2.7L438 82l-1 2c-3.99-3.1-6.53-5.54-9-10-1.58-1.75-1.58-1.75-3-3z"/><path fill="#3681ac" d="m209 18-1 4-2.62-.62c-3.74-.42-5.93.22-9.38 1.62l-2-2q2.9-1.04 5.81-2.06l3.27-1.16C206 17 206 17 209 18"/><path fill="#2f7ca5" d="M254 457q2.16.42 4.31.88l2.43.49C263 459 263 459 266 461l1-3 3 2c-2.12 1.63-2.12 1.63-5 3-4.14-.86-7.5-2.64-11-5z"/><path fill="#2e5c7c" d="m290 219 3 1v2h2v10l-3-1-.18-2.12-.26-2.75-.24-2.75c-.19-2.4-.19-2.4-1.32-4.38"/><path fill="#597d95" d="m173 209 4 4 1-2 3 1v7l-4-2v-2l-4-1z"/><path fill="#3b6b86" d="m96 55 1 2h-2v3h2v2h2l2 5c-7.77-5.2-7.77-5.2-10-9v-2z"/><path fill="#bddeee" d="M160 389c3.8 3.2 7.55 6.4 11 10-2.67 1.33-4.17.67-7 0v-5l-3-1c-.69-2.06-.69-2.06-1-4"/><path fill="#69b3da" d="M367 335h2c-.31 1.88-.31 1.88-1 4l-3 2-.87 1.94c-1.52 2.78-3.3 3.72-6.13 5.06l-2-1 2.15-2.12 2.79-2.75 2.77-2.75c2.3-2.16 2.3-2.16 3.29-4.38"/><path fill="#2574a1" d="m431 313 3 1-7 11c-.96-3.84-.92-5.32 0-9l4-1z"/><path fill="#84abc1" d="M189 234v3h-4l1 4h-6l.56-1.87c.68-2.17.68-2.17-.56-4.13a27 27 0 0 1 9-1m-8 5 4 1Z"/><path fill="#337ba6" d="M205 424c5.8 2.22 10.79 4.3 15 9l-1 2-4.75-3.25-2.67-1.83A50 50 0 0 1 205 424"/><path fill="#65afd6" d="M127 89h2v2l5-1c-2.48 2.48-4.62 3.07-7.94 4.19l-3.21 1.1C120 96 120 96 117 95c3.73-2.03 5.67-3 10-3z"/><path fill="#bfddee" d="m305 438-2 7h-3l1-1-7 1c2.78-3.1 6.69-7 11-7"/><path fill="#ebbe9e" d="m275 398 3 1-6 12c-.16-8.06-.16-8.06 1-12z"/><path fill="#c6e4f4" d="M147 378a466 466 0 0 1 5.96 4.3A27 27 0 0 1 158 388l-5-1v-2l-1.81-.87C149 383 149 383 146 381z"/><path fill="#c0ddee" d="m131 361 5 5 1.88 1.56L139 369c-.31 2.19-.31 2.19-1 4l-1-4h-4v-4h-2z"/><path fill="#90b5c7" d="M169 234c4.7.7 4.7.7 6 2q.06 2.5 0 5l-1-4h-3l-1 4h-5v-3h4l-1-3z"/><path fill="#8aa5b7" d="m193.13 206.88 2.87.12c-1.4 3.52-2.66 4.39-6 6l-1 3c-.62-3.37-.62-3.37-1-7 2-2 2-2 5.13-2.12"/><path fill="#366e88" d="m80 79 2.13 2.06c2.75 2.3 2.75 2.3 6.18 1.69L91 82l-2 5h-4v-2l-4-1z"/><path fill="#e0a873" d="M439 53c4.25.47 6.3 2.85 9 6v3c-1.87-.12-1.87-.12-4-1-1.25-3.06-1.25-3.06-2-6l-6 2z"/><path fill="#447b95" d="m280 25 8.5-.1c2.5.1 2.5.1 3.5 1.1.19 2.44.19 2.44 0 5l-2 2h-3v2l-2-1 1-2h2v-2l2-1v-2l-10-1z"/><path fill="#4186b0" d="M193 24c-3.27 2.97-5.38 3.34-9.75 3.19l-2.98-.08L178 27a19 19 0 0 1 6.94-3.19l2.02-.54c2.29-.3 3.86.04 6.04.73"/><path fill="#59acd5" d="M209 380c3.6 2.06 6.8 4.35 10 7h-4l-1 2-4-1 3-4h-3z"/><path fill="#4c94ba" d="M101 326h3v3l5 1-2 5c-5.57-5.14-5.57-5.14-6-9"/><path fill="#459ccd" d="M113.56 94.94 117 95v2l-2.37.69c-2.85 1.1-2.85 1.1-3.94 3.94L110 104h-1c-.1-6.15-.1-6.15 0-8 1-1 1-1 4.56-1.06"/><path fill="#bf7e48" d="m248 39 3 1v10h2v2h-3l-1 2h-2v-4h2l.06-4.37.04-2.47c.04-2.2.04-2.2-1.1-4.16"/><path fill="#337faa" d="M150 380h4v3l4 1 1-2 1 7q-1.95-1.4-3.87-2.81l-2.18-1.58C152 383 152 383 150 380"/><path fill="#6db4d9" d="M356 348c-1 3-1 3-3 4l-1.31 2.5c-1.69 2.5-1.69 2.5-4.38 3.31L345 358l2.81-3.31 1.58-1.87c4.25-4.82 4.25-4.82 6.61-4.82"/><path fill="#62abd4" d="m377 325 1 4-1.94.75c-2.25 1.07-2.25 1.07-2.81 3.38L373 335l-4-1z"/><path fill="#65899a" d="M239 227h7v5l-7-1z"/><path fill="#749db3" d="M250 202h1l1 6h3v2l3-1 1 2h-7l-1 3h-1z"/><path fill="#2b5a7a" d="M347 194h3v5l3 1c-2 1-2 1-4.16.44l-2.46-.88-2.48-.87-1.9-.69 1-2 3 2z"/><path fill="#54a9d8" d="m212 58 10 1c-2.28 2.28-3.94 3.05-7 4-2.31-.37-2.31-.37-4-1z"/><path fill="#86aac0" d="M191 235h1v17c-3.37-4.5-3.37-4.5-3-9h2z"/><path fill="#2a6c92" d="M71 71c3.26 1.8 4.89 2.83 7 6-4.75 1.13-4.75 1.13-7 0z"/><path fill="#bbdef2" d="M316 431c-1.37 3.16-1.99 4-5 6-2.69.13-2.69.13-5 0 5.85-6 5.85-6 10-6"/><path fill="#3389b7" d="m252 411 1 2h3a15 15 0 0 1 4 4c-.25 2.25-.25 2.25-1 4l-1.75-2.5L255 416h-4z"/><path fill="#6ab8de" d="M394 303c1 2 1 2 .31 5-1.31 3-1.31 3-3.37 4.25L389 313l-1 2-2-1 1.24-1.64 1.63-2.17 1.62-2.15q1.82-2.48 3.51-5.04"/><path fill="#37637d" d="m304 226 8 1v4l-8-2z"/><path fill="#698fa7" d="m332 201 1 2 8-1v4h-8l-1 3z"/><path fill="#315979" d="M317 201h6v8l-1-3c-2.02-.73-2.02-.73-4-1z"/><path fill="#c17e42" d="m452 66 3 3c-1.38 4.14-3.6 5.32-7 8l2-8h2z"/><path fill="#5292b6" d="M293 9q2.13.42 4.25.88l2.4.49C302 11 302 11 306 13h-12z"/><path fill="#698fa5" d="m272 227 1 4-9 1 1-4z"/><path fill="#557a99" d="M241 199h4c2 2 2 2 2 5h2l1 3h-4c-2-3-2-3-3-5l1-2z"/><path fill="#7cb9de" d="M205 66q-2.34 1.02-4.69 2l-2.63 1.13A19 19 0 0 1 190 70l2-1v-2q2.4-.54 4.81-1.06l2.71-.6C202 65 202 65 205 66"/><path fill="#469aca" d="M244 51c-1.96 2.05-3.43 2.95-6.27 3.2A127 127 0 0 1 231 54v2h-2l1-3a37 37 0 0 1 14-2"/><path fill="#e39859" d="m258 50 3 1c-2.39 3.24-4.2 5.5-8 7l-1-2c.94-2.12.94-2.12 2-4v2h3z"/><path fill="#bfdeed" d="M122 353c3.26 1.8 4.89 2.83 7 6l-1 2c-1.87-.62-1.87-.62-4-2-1.25-3.12-1.25-3.12-2-6"/><path fill="#a8d1e8" d="M449 281c1.3 4.2.43 6.86-1 11l-2 3c-1.26-3.78-.48-5.03.94-8.69l1.15-3z"/><path fill="#5d7c90" d="M145 249a40 40 0 0 1 5 8c-2.37-.25-2.37-.25-5-1-1.31-2.06-1.31-2.06-2-4z"/><path fill="#3b5e80" d="M291 206h8l-2 1v3h-5z"/><path fill="#69b0d5" d="m342 72 12 1-1 3-4.37-.87-2.47-.5C344 74 344 74 342 72"/><path fill="#4c8db5" d="m160 34-3 1v2c-3.67 1.18-7.17 1.07-11 1a75 75 0 0 1 8.13-3.69l2.07-.82C158 33 158 33 160 34"/><path fill="#3d91bd" d="M265 0c2.88-.12 2.88-.12 6 0l2 2-5-1 1 6h-3c-.69-2.5-1-4.38-1-7"/><path fill="#bedeef" d="m183 408 8 6-3 1v-2l-2.87.63-3.13.37-2-2h4z"/><path fill="#2073a1" d="M166 386v2l-2 1v2l3 1-2 2a141 141 0 0 1-5-5v-2c3-1 3-1 6-1"/><path fill="#b3d7ea" d="M444 294h1l1 6h-2l-1 3-3 1a57 57 0 0 1 4-10"/><path fill="#70b0d6" d="M114 267a49 49 0 0 1 4.13 7.56l1.07 2.38c.8 2.06.8 2.06.8 4.06h-2c-2.98-4.48-4-8.64-4-14"/><path fill="#416d8d" d="m197 199 2 3c-.87 2.69-.87 2.69-2 5l-3-1c-.75-1.94-.75-1.94-1-4 1-2 1-2 4-3"/><path fill="#2d5c7e" d="M177 188c2 3 2 3 3 5.13.86 2.04.86 2.04 3 2.87v3l-6-3z"/><path fill="#38708d" d="M423 67h3l.38 2.31c.5 2.9.5 2.9 2.62 5.69l-6-1z"/><path fill="#356f8c" d="M261 3h4l1 6-3-1-2 2z"/><path fill="#5dabd0" d="m316 381 1 2c-1.9 3.34-2.94 3.98-6.69 5.25L307 389a64 64 0 0 1 9-8"/><path fill="#66b2e1" d="M192 366a53 53 0 0 1 5 3v2l2 1h-2l-1 3h-4v-2l4-1-2-1.87c-2-2.13-2-2.13-2-4.13"/><path fill="#6cb4d5" d="m176 352 8 6-4 1v-2h-4z"/><path fill="#2e5b7a" d="M235 221h2v11c-3-3-3-3-3.25-6.62C234 222 234 222 235 221"/><path fill="#c07b45" d="m99 66 3 2v4c-2.5 1.75-2.5 1.75-5 3v-4h2z"/><path fill="#417897" d="M428 54c5.75.88 5.75.88 8 2v3l-4 2v-4l-4-1z"/><path fill="#e4a675" d="m261 49 8 1 2 5-1.62-.87A66 66 0 0 0 261 51z"/><path fill="#4e869e" d="M279 39c1.2 2.4 1.1 3.95 1.06 6.63l-.02 2.47L280 50l-2-1v-4h-2v-5z"/><path fill="#649bba" d="M374 36q2.69.42 5.38.88l3.02.49C385 38 385 38 387 40c-4.16.08-7.95-.02-12-1z"/><path fill="#2e79a4" d="M285 447h3v2c-1.68 1.29-1.68 1.29-3.87 2.63l-2.18 1.35C280 454 280 454 278 454l1-3 5-1z"/><path fill="#2a75a0" d="m318 425 2 2-9 6-1-2h2l2-4h4z"/><path fill="#6fb5d9" d="m164 340 7 6-2 2v-2l-6-2z"/><path fill="#65b0d6" d="m125 291 6 8-1 2c-2.5-1.06-2.5-1.06-5-3-.31-3.69-.31-3.69 0-7"/><path fill="#2d5b7a" d="m344 201 1 4 2-3h3v5q-2.5.06-5 0c-1-1-1-1-1.06-3.56z"/><path fill="#6fb5d8" d="M379 85c4.88-.35 7.77.58 12 3v1c-4.32-.5-8.03-1.2-12-3z"/><path fill="#246c95" d="M452 75v3l-3 1-1 3c-2.56 1.19-2.56 1.19-5 2 2.22-4.43 4.78-6.47 9-9"/><path fill="#5392b7" d="M111 50v3c-3.28 1.64-6.43.52-10 0 3.12-3.12 5.79-3.11 10-3"/><path fill="#6099bc" d="m145 38-1 3c-1.78.8-1.78.8-3.94 1.31l-2.15.55L136 43l-2-2 3.81-1.5 2.15-.84C142 38 142 38 145 38"/><path fill="#83afcd" d="M325 19c4.6.72 8.67 2.31 13 4-4.25 1.42-6.72.2-11-1v-2z"/><path fill="#2e7aa7" d="m238 445 8 4v3l-10-5z"/><path fill="#acd4e9" d="M366 391v2h-2l-.62 1.88c-1.93 2.97-4.05 3.25-7.38 4.12l5-5 1.69-1.81C364 391 364 391 366 391"/><path fill="#2b77a4" d="m370 384 2 1-7 6v-5c2.38-1.06 2.38-1.06 5-2"/><path fill="#5391b5" d="M107 335c2.38.19 2.38.19 5 1a18 18 0 0 1 2 5h-3c-4-4.46-4-4.46-4-6"/><path fill="#2774a2" d="M444 290h2a70 70 0 0 1-5 12c-1.21-3.64-.67-4.33.94-7.69l1.15-2.45z"/><path fill="#aabdca" d="m382 252 5 5-1 2c-1.87-.19-1.87-.19-4-1-1.25-2.56-1.25-2.56-2-5z"/><path fill="#325d7d" d="M372 251h2l1 5-6 2 1-3h2z"/><path fill="#7da2bc" d="m202 242 3 3-2 1v2h-6v-3l1.94-.94c2-.9 2-.9 3.06-2.06"/><path fill="#275e85" d="m195 195 3 1-1 4h-3l-1 2c0-3.1.54-4.35 2-7"/><path fill="#ea761b" d="M89 57a22 22 0 0 1 3 5l-1 3-1-3a90 90 0 0 0-4-2l-1-2c2-1 2-1 4-1"/><path fill="#117ab7" d="m284 427 2 1c-6.14 5.57-6.14 5.57-11 6 2.74-2.95 5.38-5.2 9-7"/><path fill="#d6e3e9" d="M148 381q2.55 1.93 5 4v2l2 1h-4c-2.25-3-2.25-3-4-6z"/><path fill="#3c6e8e" d="M273 231c-.31 2.38-.31 2.38-1 5l-3 2-1-3 1-1-3-2c4.75-1 4.75-1 7-1"/><path fill="#6993b5" d="m272 206 4 2c-2.36 2.1-3.55 2.97-6.75 3.19L267 211z"/><path fill="#4c6b82" d="M279 201h5v4h-5z"/><path fill="#76aac7" d="m419 50 11 3v1h-8v-2h-3z"/><path fill="#e0edf5" d="M244 457h3v3h3l-1 3-7-4z"/><path fill="#f1c3a4" d="m248 394 1 2 4-1v6c-1.94-.69-1.94-.69-4-2-.75-2.62-.75-2.62-1-5"/><path fill="#3078a5" d="m402 352 2 1-6 7-1-4h3z"/><path fill="#618399" d="M377 243c2.29 3.44 2.18 4.99 2 9l-3 1z"/><path fill="#2f5d79" d="M279 207h3v5h-4z"/><path fill="#cdeaf7" d="m308 200 3 2c.38 3 .38 3 0 6l-3 2z"/><path fill="#6d94b4" d="m267 199 7 1-1 4-3-1v-2l-3-1z"/><path fill="#658097" d="m179 182 1 3-2 3q-.6 3.49-1 7h-1c-.27-5.4-.36-8.52 3-13"/><path fill="#6da4c3" d="M363 32q2.19.42 4.38.88l2.46.49C372 34 372 34 374 36l-4.37-.44-2.47-.24C365 35 365 35 363 34z"/><path fill="#3b80a6" d="M317 17c4.22.48 6.8 1.17 10 4-5.75.13-5.75.13-8-1v-2z"/><path fill="#1c6e9d" d="M310 16c6.75.88 6.75.88 9 2v2h-5l-1-3z"/><path fill="#6da4c6" d="M306 13q2.19.42 4.38.88l2.46.49C315 15 315 15 317 17l-4.37-.44-2.47-.24C308 16 308 16 306 15z"/><path fill="#cee1ea" d="m219 435 3 2-3 1-1 2-4-1v-2c2.31-1.12 2.31-1.12 5-2"/><path fill="#b3d7ec" d="M329 419c2.31.19 2.31.19 4 1-1.97 2.52-2.97 3-6.19 3.69L324 424c2.25-2.56 2.25-2.56 5-5"/><path fill="#456885" d="M239 222h6v3h-6z"/><path fill="#236088" d="m306 213 2 1v2h2l-2 4c-1.56-1.81-1.56-1.81-3-4z"/><path fill="#8badbd" d="m265 200 2 1-.06 2.31c-.07 2.8-.07 2.8 1.06 5.69h-4c-.1-6.15-.1-6.15 0-8z"/><path fill="#b0cad9" d="M285 200h1v8l-4 1z"/><path fill="#1f6c98" d="m268 1 6 2-1 3-5-1z"/><path fill="#b4daf2" d="M206 426c3.44 1.53 6.12 3.6 9 6-3.79-.53-6.17-1.38-9-4z"/><path fill="#82bcda" d="M232 397c3.51 1.64 6.46 3.03 9 6-3.48-.65-6.1-1.98-9-4z"/><path fill="#228cc8" d="M358 347c0 3 0 3-1.31 4.39L352 355c.35-3.26 1.02-4.02 3.56-6.25z"/><path fill="#208dc5" d="M410 277h1c.2 3.63-.14 5.87-2 9h-2z"/><path fill="#81acc0" d="m204 238-2 3c-2.62.19-2.62.19-5 0v-3c3.13-1.04 3.99-.93 7 0"/><path fill="#396787" d="m252 197 3 1c-1.31 2-1.31 2-3 4h-3c.38-1.94.38-1.94 1-4z"/><path fill="#83c1e1" d="m360 78 3.88.31 2.17.18C368 79 368 79 370 82l-4.44-.87-2.5-.5L361 80z"/><path fill="#4a9ac7" d="m333 68 9 1v3l-9-3z"/><path fill="#7bbcdc" d="m327 66 7 1 1 3a60 60 0 0 1-8-2z"/><path fill="#cd8c54" d="M278 49c2.52 1.97 3 2.97 3.69 6.19L282 58l-3-2c-.69-3.62-.69-3.62-1-7"/><path fill="#1784bf" d="M271 22h6l1 3-7-1z"/><path fill="#629dc0" d="m202 19-1 3c-2.37.63-2.37.63-5 1l-2-2c2.9-1.26 4.8-2 8-2"/><path fill="#b87a43" d="m261 10 .38 1.94L262 14l2 1-4 3c-.12-5.75-.12-5.75 1-8"/></svg>