<svg xmlns="http://www.w3.org/2000/svg" width="448" height="557"><path fill="#e87923" d="M235.27 28.87a73 73 0 0 0 9.17 2.94c10 2.76 19.77 6.38 29.36 10.35 2.14.82 4.14 1.3 6.39 1.72 4.26.9 8.06 2.37 12.08 4.05A115 115 0 0 0 301.5 51c4.03 1.2 7.93 2.51 11.81 4.13a65 65 0 0 0 10.4 3.3c3.07.76 6.08 1.66 9.1 2.57l3.33 1c2.86 1 2.86 1 5.86 3q2.82.97 5.69 1.81l3.49 1.05L355 69l8.31 2.56 1.96.6c6 1.86 11.84 4.1 17.7 6.38l5.94 2.3a67 67 0 0 0 10.46 3.13c5.06 1.05 9.84 2.72 14.7 4.47l2.56.9A822 822 0 0 1 432 95l1 11 8 3q.15 42.78.2 85.56l.1 39.74q.06 17.33.08 34.64 0 9.17.04 18.33.04 8.65.03 17.3l.03 6.3c.12 18.04-2.91 33.3-9.48 50.13l-1.15 3.04c-3.19 8.11-7.41 15.5-11.85 22.96l-1.53 2.69c-3.43 5.94-7.4 11.34-11.61 16.74-2 2.5-2 2.5-2.86 5.57h-2l-.77 1.7c-5.48 10.23-15 19.01-22.86 27.49l-1.66 1.8a218 218 0 0 1-14.77 14.57 122 122 0 0 0-7.12 6.72C352 466 352 466 350 466v2h-2v2c-1.69 1.48-1.69 1.48-4 3.19-3.98 3-7.7 6.15-11.37 9.52C331 484 331 484 329 484v2a102 102 0 0 1-5.75 4.5l-1.63 1.22A46 46 0 0 1 313 497v2c-7.43 4.29-7.43 4.29-11 6v2a105 105 0 0 1-5.75 3.94c-4.34 2.79-4.34 2.79-8.52 5.81C286 518 286 518 284 518v2a91 91 0 0 1-5.5 3.44 276 276 0 0 0-17.85 11.7c-4.1 2.87-8.27 5.42-12.65 7.86l-5.12 3.06-2.45 1.48q-2.55 1.53-5.09 3.14C233 552 233 552 230.69 552.06c-3.37-1.33-5.83-3.3-8.67-5.52a55 55 0 0 0-6.91-4.35 309 309 0 0 1-21.83-13.68c-3.67-2.43-7.43-4.7-11.19-7L180 520v-2l-2-.66c-4.02-1.8-7.46-4.2-11.06-6.72l-2.15-1.46c-3.6-2.49-6.73-5-9.79-8.16q-1.93-1.34-3.94-2.56c-5.9-3.85-11.12-8.48-16.45-13.07q-3.61-3.05-7.3-6a296 296 0 0 1-12.72-11.01 498 498 0 0 0-4.79-4.3 475 475 0 0 1-19.5-18.46l-3.51-3.46-5.16-5.09-1.58-1.52C76.37 431.83 73 427.45 73 422h-2v-2h-2a197 197 0 0 1-3-5l-1.69-1.69L63 412v-2l-3-1v-2h-2c-1.5-1.9-1.5-1.9-3.12-4.37l-1.64-2.47C52 398 52 398 52 396h-2v-2h-2c-1.12-1.59-1.12-1.59-2.44-3.94q-2.98-5.19-6.26-10.2l-1.46-2.2q-1.42-2.18-2.88-4.33A93 93 0 0 1 27 358l-3.06-6.56C20.38 343.72 17.6 336.35 16 328l-.74-3.67c-2.32-12.1-2.67-23.82-2.6-36.11v-6.36q0-8.55.04-17.1l.02-17.93q0-16.95.06-33.88.05-19.3.07-38.6.04-39.68.15-79.35l10.44-3.81 2.95-1.08c15.24-5.56 15.24-5.56 21.24-6.95 6.64-1.6 12.99-4.26 19.37-6.66 15.24-5.73 15.24-5.73 23-7.5a303 303 0 0 0 7-2.25l1.92-.64a380 380 0 0 0 14.45-5.3c4.7-1.8 9.24-3.27 14.18-4.2 4.21-1.05 8.23-2.72 12.28-4.29a204 204 0 0 1 16.5-5.46c2.61-.76 2.61-.76 4.69-1.89 2.44-1.2 4.82-1.7 7.48-2.28a93 93 0 0 0 15.37-5.36 156 156 0 0 1 26.5-8.65c2.66-.62 2.66-.62 5.18-1.74 6.9-2.64 13.23-.96 19.72 1.93M222 49l-3.5 9.88-1.01 2.83-1.85 5.23c-.74 2.02-.74 2.02-.64 4.06h-23l5 5h2l1 3c3.22 2.33 3.22 2.33 7 3v2h3l-1.06 3.44-1.38 4.56-.7 2.25A76 76 0 0 0 204 109c4.51-2.53 7.98-5.62 11.72-9.16A19 19 0 0 1 223 96c2.74.91 3.7 1.4 5 4h3l1 3q2.46 1.56 5 3a100 100 0 0 1 3 3h1a76 76 0 0 0-2.5-12.5A76 76 0 0 1 236 84h2v-2l2.13-.75A44 44 0 0 0 249 76v-2l4-2v-1h-24l-2-11c-1.37-4.1-2.6-7.41-5-11m65 147v29h-27v8h27v28h9l1-27 28-1v-8l-28-1-1-28zm-160 11c-2.52 4.2-2.82 8.2-2 13 1.73 2.8 1.73 2.8 5 4 3.36.3 6.63.24 10 0 4-5.45 4.3-8.89 3.46-15.55-.43-2.57-.43-2.57-1.46-5.45 11.83.2 11.83.2 16.25 3.25 2.97 4.67 2.88 8.83 2.5 14.25l-.2 3.34c-.6 3.44-1.44 5.4-3.55 8.16-2.96 2.03-5.71 2.35-9.25 2.63l-2.7.22-2.05.15v7l2.41.15c12.37.87 12.37.87 15.59 2.85 3.06 5.45 3.93 11.86 3 18-1.54 5.34-3.31 10.7-8 14-5.21 2.48-10.36 2.2-16 2l.29-2.63.34-3.5.35-3.44c.02-3.64-.54-6.1-1.98-9.43-2.86-2.45-4.76-2.97-8.5-3.5-3.57.27-3.57.27-6.44 2.31-3 4.66-3.05 8.8-2.06 14.19 4.81 7.06 13.86 9.7 21.86 11.52 9.4 1.43 17.52-.91 26.14-4.52l2.07-.75c4.29-1.63 6.92-3.82 9.93-7.25l1.59-1.8c3.26-5.08 2.93-12.76 1.91-18.57-1.96-4.73-4.04-7.13-8.5-9.63a125 125 0 0 0-13-4 37 37 0 0 1 8-4v-2l1.8-.29c2.67-.86 3.62-1.93 5.39-4.09l1.54-1.83c2.68-3.77 2.64-7.3 2.27-11.79a61 61 0 0 0-4-8h-2v-2l-7.52-3.8c-12.86-6.19-32.53-3.4-42.48 6.8m73-7c-1.3 2.61-1.23 4.7-1.37 7.63a324 324 0 0 1-2.7 24.28l-.4 3.04-.38 2.73c-.3 2.48-.3 2.48.85 5.32l5-1v-2c4.52-1.74 8.3-2.27 13.13-2.25l3.63-.02c3.08.26 4.74.5 7.24 2.27 4.52 5.86 5.38 13.14 4.82 20.32-1.1 6.46-4.1 13-9.52 16.91-4.09 1.96-7.87 1.85-12.3 1.77l.4-3.32.41-4.37.27-2.18c.36-4.06.17-5.8-2.32-9.09-3.97-2.94-5.84-3.04-10.76-3.04a14 14 0 0 0-6.37 4.69c-.98 3.59-.67 6.8.37 10.31 5.14 7.87 12.14 10.53 20.95 12.52 10.63 1.67 21.46-2.21 30.26-8.1 5.1-4.04 8.1-8.1 9.79-14.42.81-9.18.8-16.46-5.25-23.69A52 52 0 0 0 236 232l-1.95-1.1c-3.58-1.58-7.26-1.28-11.11-1.28h-2.57c-6.7.11-12.34 1.34-18.37 4.38l.44-2.63.56-3.5.56-3.44c.57-3.85.57-3.85.44-9.43h45v-15zm-22 110v18h2v-9h8v-1h-8v-7h10v-1zm23 0-1 4 3-1 1 2-1-5zm12 0v18h1v-9l8 1 1-2h-9v-7h8v-1zm23 0v1h5v-1zm31 0v1h7v-1zm18 0v18h1v-9h8v-1h-8v-7h10v-1zm-123 2 1 2Zm102 0-1 2h2zm-32 1 1 3Zm-62 1 1 2Zm29 0 1 2Zm-32 4v10h1v-10zm38 0 1 2Zm-8 3v3h10l-1-3v2h-8zm47 1 1 3Zm33 1 1 2Zm-70 1 2 4-1-4zm29 4 4 1Zm32 0v1h5v-1zm-120 16 1 2 10-1v-1zm17 0 2 2v-2zm18 0v18h2v-8h7v-1h-7v-8h6v-1zm16 0v18h2v-8h8v-1h-8v-8h11v-1zm18 0v18h1v-8l7 1 1-2h-8v-8h7v-1zm23 0v18h1v-8h9v-1h-9v-8h11v-1zm18 0v18h1v-14h2l-2-4zm24 0v1h5v-1zm15 0 1 2 11-1v-1zm-103 2 1 2Zm95 0v2l2-1zm-94 2-1 4 2-1zm33 0 1 3Zm48 1v8h1l1-8zm-128 4v1h10v-1zm149 0v1h9v-1zm-20 4 1 2Zm-7 1-2 2 1 2h2zm13 4 4 1Z"/><path fill="#e87923" d="M200 79c4.75 1.88 4.75 1.88 7 3v2h3a138 138 0 0 1-3.06 14.25c-1.39 4.81-1.39 4.81-1.94 9.75l1.43-1.32c4.9-4.41 10-8.16 15.57-11.68l6 3v2h3a91 91 0 0 1 4 4l3 2v2h2a77 77 0 0 0-2.56-11.44A35 35 0 0 1 236 84l2 1 .19 3.38L239 92a25 25 0 0 0 7 3l2.34.7q2.36.7 4.74 1.36c5.94 1.91 11.67 4.42 17.43 6.8a428 428 0 0 0 31.36 11.44A149 149 0 0 1 317 121c9.88 4.1 19.82 7.74 30 11v2l7 1 17 6v133c-62.87.38-62.87.38-82.75.48l-11.73.08-7.85.04-11.88.08h-3.55l-3.22.04-2.8.02c-2.43.05-2.43.05-4.22 2.26 1.67 1.67 3.69 1.14 5.98 1.16l3.27.03 3.61.02 3.79.03 10.3.06 10.75.08 20.38.14 23.2.16L372 279q.07 6.15.1 12.3l.04 3.47c.14 29.7-12.06 52.15-29.73 75.34q-2.14 2.9-4.16 5.89l-2.25 3h-2l-.69 1.69c-1.68 2.97-3.84 4.96-6.31 7.31-2.76 2.69-5.36 5.4-7.81 8.38-3.78 4.45-8.1 9.09-13.38 11.7-1.97.77-1.97.77-2.69 2.8-1.64 3.1-4.2 4.23-7.12 6.12l-3.44 3.5c-3.3 3.16-6.96 5.9-10.56 8.69l-2.4 1.9-2.35 1.83-2.1 1.65A31 31 0 0 1 268 438v2l-4 1v2a154 154 0 0 1-7.62 5.25l-2.4 1.57-5.2 3.37q-4.34 2.84-8.66 5.75l-5.87 3.87-2.81 1.9c-6.62 4.32-6.62 4.32-11.08 4.18L218 468v-2l-2.87-.94C212 464 212 464 210 463v-2l-2.64-.75c-3.58-1.33-6.03-3-9.05-5.31-3.87-3-3.87-3-8.31-4.94v-2l-2.44-.81L185 446l-1-3q-2.5-1.03-5-2c-2.42-1.51-4.7-3.2-7-4.87l-1.83-1.32c-7.22-5.23-7.22-5.23-10.17-7.81v-2l-2.2-.74c-3.14-1.41-5.06-3.08-7.55-5.45a138 138 0 0 0-12.63-10.4L136 407v-2l-3-1-1.69-2.12a42 42 0 0 0-6.12-6.2A71 71 0 0 1 114 384v-2l-1.94-.75C110 380 110 380 109.25 377.88L109 376h-2a104 104 0 0 1-4.37-5.69c-3.3-4.52-3.3-4.52-6.76-8.93a45 45 0 0 1-4.37-6.75q-2.19-4.07-4.5-8.07C74.27 324.24 73 305.47 73 279h52l-1-4-51-1V141l11-3c4.58-1.6 9.03-3.43 13.5-5.31q14.99-6.28 30.44-11.31c4.67-1.54 9.13-3.21 13.58-5.29 5.34-2.35 10.87-4.27 16.34-6.3l6.38-2.4c11.5-4.39 11.5-4.39 17.26-6.01a53 53 0 0 0 10.67-4.46A48 48 0 0 1 200 94v-8h2a85 85 0 0 0-2-7m87 117v29h-27v8h27v28h9l1-27 28-1v-8l-28-1-1-28zm-160 11c-2.52 4.2-2.82 8.2-2 13 1.73 2.8 1.73 2.8 5 4 3.36.3 6.63.24 10 0 4-5.45 4.3-8.89 3.46-15.55-.43-2.57-.43-2.57-1.46-5.45 11.83.2 11.83.2 16.25 3.25 2.97 4.67 2.88 8.83 2.5 14.25l-.2 3.34c-.6 3.44-1.44 5.4-3.55 8.16-2.96 2.03-5.71 2.35-9.25 2.63l-2.7.22-2.05.15v7l2.41.15c12.37.87 12.37.87 15.59 2.85 3.06 5.45 3.93 11.86 3 18-1.54 5.34-3.31 10.7-8 14-5.21 2.48-10.36 2.2-16 2l.29-2.63.34-3.5.35-3.44c.02-3.64-.54-6.1-1.98-9.43-2.86-2.45-4.76-2.97-8.5-3.5-3.57.27-3.57.27-6.44 2.31-3 4.66-3.05 8.8-2.06 14.19 4.81 7.06 13.86 9.7 21.86 11.52 9.4 1.43 17.52-.91 26.14-4.52l2.07-.75c4.29-1.63 6.92-3.82 9.93-7.25l1.59-1.8c3.26-5.08 2.93-12.76 1.91-18.57-1.96-4.73-4.04-7.13-8.5-9.63a125 125 0 0 0-13-4 37 37 0 0 1 8-4v-2l1.8-.29c2.67-.86 3.62-1.93 5.39-4.09l1.54-1.83c2.68-3.77 2.64-7.3 2.27-11.79a61 61 0 0 0-4-8h-2v-2l-4.81-2.44-2.71-1.37c-12.86-6.18-32.53-3.4-42.48 6.81m73-7c-1.3 2.61-1.23 4.7-1.37 7.63a324 324 0 0 1-2.7 24.28l-.4 3.04-.38 2.73c-.3 2.48-.3 2.48.85 5.32l5-1v-2c4.52-1.74 8.3-2.27 13.13-2.25l3.63-.02c3.08.26 4.74.5 7.24 2.27 4.52 5.86 5.38 13.14 4.82 20.32-1.1 6.46-4.1 13-9.52 16.91-4.09 1.96-7.87 1.85-12.3 1.77l.4-3.32.41-4.37.27-2.18c.36-4.06.17-5.8-2.32-9.09-3.97-2.94-5.84-3.04-10.76-3.04a14 14 0 0 0-6.37 4.69c-.98 3.59-.67 6.8.37 10.31 5.14 7.87 12.14 10.53 20.95 12.52 10.63 1.67 21.46-2.21 30.26-8.1 5.1-4.04 8.1-8.1 9.79-14.42.81-9.18.8-16.46-5.25-23.69A52 52 0 0 0 236 232l-1.95-1.1c-3.58-1.58-7.26-1.28-11.11-1.28h-2.57c-6.7.11-12.34 1.34-18.37 4.38l.44-2.63.56-3.5.56-3.44c.57-3.85.57-3.85.44-9.43h45v-15zm-22 110v18h2v-9h8v-1h-8v-7h10v-1zm23 0-1 4 3-1 1 2-1-5zm12 0v18h1v-9l8 1 1-2h-9v-7h8v-1zm23 0v1h5v-1zm31 0v1h7v-1zm18 0v18h1v-9h8v-1h-8v-7h10v-1zm-123 2 1 2Zm102 0-1 2h2zm-32 1 1 3Zm-62 1 1 2Zm29 0 1 2Zm-32 4v10h1v-10zm38 0 1 2Zm-8 3v3h10l-1-3v2h-8zm47 1 1 3Zm33 1 1 2Zm-70 1 2 4-1-4zm29 4 4 1Zm32 0v1h5v-1zm-120 16 1 2 10-1v-1zm17 0 2 2v-2zm18 0v18h2v-8h7v-1h-7v-8h6v-1zm16 0v18h2v-8h8v-1h-8v-8h11v-1zm18 0v18h1v-8l7 1 1-2h-8v-8h7v-1zm23 0v18h1v-8h9v-1h-9v-8h11v-1zm18 0v18h1v-14h2l-2-4zm24 0v1h5v-1zm15 0 1 2 11-1v-1zm-103 2 1 2Zm95 0v2l2-1zm-94 2-1 4 2-1zm33 0 1 3Zm48 1v8h1l1-8zm-128 4v1h10v-1zm149 0v1h9v-1zm-20 4 1 2Zm-7 1-2 2 1 2h2zm13 4 4 1Z"/><path fill="#ca661e" d="M235.27 28.87a73 73 0 0 0 9.17 2.94c10 2.76 19.77 6.38 29.36 10.35 2.14.82 4.14 1.3 6.39 1.72 4.26.9 8.06 2.37 12.08 4.05A115 115 0 0 0 301.5 51c4.03 1.2 7.93 2.51 11.81 4.13a65 65 0 0 0 10.4 3.3c3.07.76 6.08 1.66 9.1 2.57l3.33 1c2.86 1 2.86 1 5.86 3q2.82.97 5.69 1.81l3.49 1.05L355 69l8.31 2.56 1.96.6c6 1.86 11.84 4.1 17.7 6.38l5.94 2.3a67 67 0 0 0 10.46 3.13c5.06 1.05 9.84 2.72 14.7 4.47l2.56.9A822 822 0 0 1 432 95l1 11 8 3q.15 42.78.2 85.56l.1 39.74q.06 17.33.08 34.64 0 9.17.04 18.33.04 8.65.03 17.3l.03 6.3c.12 18.04-2.91 33.3-9.48 50.13l-1.15 3.04c-3.19 8.11-7.41 15.5-11.85 22.96l-1.53 2.69c-3.43 5.94-7.4 11.34-11.61 16.74-2 2.5-2 2.5-2.86 5.57h-2l-.77 1.7c-5.48 10.23-15 19.01-22.86 27.49l-1.66 1.8a218 218 0 0 1-14.77 14.57 122 122 0 0 0-7.12 6.72C352 466 352 466 350 466v2h-2v2c-1.69 1.48-1.69 1.48-4 3.19-3.98 3-7.7 6.15-11.37 9.52C331 484 331 484 329 484v2a102 102 0 0 1-5.75 4.5l-1.63 1.22A46 46 0 0 1 313 497v2c-7.43 4.29-7.43 4.29-11 6v2a105 105 0 0 1-5.75 3.94c-4.34 2.79-4.34 2.79-8.52 5.81C286 518 286 518 284 518v2a91 91 0 0 1-5.5 3.44 276 276 0 0 0-17.85 11.7c-4.1 2.87-8.27 5.42-12.65 7.86l-5.12 3.06-2.45 1.48q-2.55 1.53-5.09 3.14C233 552 233 552 230.69 552.06c-3.37-1.33-5.83-3.3-8.67-5.52a55 55 0 0 0-6.91-4.35 309 309 0 0 1-21.83-13.68c-3.67-2.43-7.43-4.7-11.19-7L180 520v-2l-2-.66c-4.02-1.8-7.46-4.2-11.06-6.72l-2.15-1.46c-3.6-2.49-6.73-5-9.79-8.16q-1.93-1.34-3.94-2.56c-5.9-3.85-11.12-8.48-16.45-13.07q-3.61-3.05-7.3-6a296 296 0 0 1-12.72-11.01 498 498 0 0 0-4.79-4.3 475 475 0 0 1-19.5-18.46l-3.51-3.46-5.16-5.09-1.58-1.52C76.37 431.83 73 427.45 73 422h-2v-2h-2a197 197 0 0 1-3-5l-1.69-1.69L63 412v-2l-3-1v-2h-2c-1.5-1.9-1.5-1.9-3.12-4.37l-1.64-2.47C52 398 52 398 52 396h-2v-2h-2c-1.12-1.59-1.12-1.59-2.44-3.94q-2.98-5.19-6.26-10.2l-1.46-2.2q-1.42-2.18-2.88-4.33A93 93 0 0 1 27 358l-3.06-6.56C20.38 343.72 17.6 336.35 16 328l-.74-3.67c-2.32-12.1-2.67-23.82-2.6-36.11v-6.36q0-8.55.04-17.1l.02-17.93q0-16.95.06-33.88.05-19.3.07-38.6.04-39.68.15-79.35l10.44-3.81 2.95-1.08c15.24-5.56 15.24-5.56 21.24-6.95 6.64-1.6 12.99-4.26 19.37-6.66 15.24-5.73 15.24-5.73 23-7.5a303 303 0 0 0 7-2.25l1.92-.64a380 380 0 0 0 14.45-5.3c4.7-1.8 9.24-3.27 14.18-4.2 4.21-1.05 8.23-2.72 12.28-4.29a204 204 0 0 1 16.5-5.46c2.61-.76 2.61-.76 4.69-1.89 2.44-1.2 4.82-1.7 7.48-2.28a93 93 0 0 0 15.37-5.36 156 156 0 0 1 26.5-8.65c2.66-.62 2.66-.62 5.18-1.74 6.9-2.64 13.23-.96 19.72 1.93M211 43l-2.15.66c-6.38 2.04-12.62 4.47-18.89 6.84l-1.98.75-3.98 1.51a331 331 0 0 1-13.81 4.87l-4.7 1.55L160 61l-17.6 5.84A426 426 0 0 0 125 73q-4.12 1.5-8.25 2.94l-2.25.79a844 844 0 0 1-15.59 5.29 431 431 0 0 0-9.16 3.23c-7.6 2.73-15.26 5.26-22.92 7.8a726 726 0 0 0-19.5 6.79 350 350 0 0 1-14.27 4.55c-3.3.8-3.3.8-6.06 2.61q-.15 3.7-.13 7.41v16.08l.01 25.4a18725 18725 0 0 0 .47 114.76q.03 8.36.11 16.7l.04 6.13c.08 23.34 4.48 44.08 15.55 64.73q1.27 2.42 2.52 4.85c3.07 5.9 6.64 11.2 10.63 16.52q1.98 2.68 3.8 5.48c2.5 3.69 5.29 7.11 8.1 10.57a92 92 0 0 1 3.52 4.67L73 402h2l.64 1.6c1.88 3.32 4.44 5.91 7.05 8.65q1.64 1.74 3.27 3.5a177 177 0 0 1 6.79 7.63 80 80 0 0 0 8.95 8.64q4.21 3.66 8.3 7.48c5.26 4.84 5.26 4.84 10.56 9.63l1.82 1.63c1.72 1.45 1.72 1.45 4.62 2.24l1 3c2.64 2.41 2.64 2.41 6 3v2l1.88.25 2.12.75.88 1.94c1 2.4 1 2.4 4.12 3.06 3 1 3 1 4.06 2.94L148 472a29 29 0 0 0 8 4v2q2.95 2.09 6 4l3.25 2.25c2.49 1.93 2.49 1.93 4.75 1.75v2c1.72 1.37 1.72 1.37 3.88 2.63l2.17 1.35c1.88 1.18 1.88 1.18 3.95 1.02v2c2.18 1.6 2.18 1.6 4.88 3.13l2.74 1.63c2.23 1.4 2.23 1.4 4.38 1.24v2a40 40 0 0 0 5.38 3.25q7.41 4.2 14.66 8.68c1.88 1.23 1.88 1.23 3.96 1.07v2c2.9 2.04 4.4 3 8 3v-2l2.5-.69a45 45 0 0 0 9.27-4.88c3.36-2.16 6.85-4.11 10.32-6.1L248 506v-2l2.68-.77a30 30 0 0 0 8.44-4.86c6.69-5 13.6-9.63 20.64-14.14l2.49-1.6 2.2-1.4L286 480v-2l4-1v-2l2.31-.87c2.84-1.1 2.84-1.1 5.69-3.13v-2l5-2v-2l2.17-.75c3.14-1.39 5.47-3.1 8.14-5.25l2.68-2.12L318 455v-2l4-1v-2l4-2v-2l2.44-.81L331 444l1-3c1.88-1.06 1.88-1.06 4-2l3-2v-2h2v-2l3-1c1.59-1.6 1.59-1.6 3.06-3.5 2.74-3.4 2.74-3.4 4.94-4.5v-2l3-1c1.85-1.75 1.85-1.75 3.63-3.87l1.85-2.12c1.7-2.03 1.7-2.03 2.52-5.01h2v-2h2c1.54-1.68 1.54-1.68 3.13-3.87a354 354 0 0 1 7.8-10c20.7-25.9 39.32-56.84 39.19-90.91v-17.13l-.02-16.5v-17.26l-.03-32.65-.02-37.2L417 106l-3.79-.91c-3.95-.95-7.47-2.48-11.21-4.09-2.42-.78-4.85-1.48-7.29-2.2a317 317 0 0 1-22.21-7.61 576 576 0 0 0-38.62-13.3A215 215 0 0 1 322.76 74q-4.48-1.6-9.01-3.06a105 105 0 0 1-9.19-3.44c-6.38-2.69-13.09-4.48-19.73-6.43a322 322 0 0 1-22.18-7.7 231 231 0 0 0-15.76-5.3c-5.08-1.51-10.02-3.02-14.83-5.26-7.88-3.6-13-2.37-21.06.19"/><path fill="#c96318" d="M269.38 79.25a301 301 0 0 0 24.8 8.48 91 91 0 0 1 9.19 3.55c7.09 3 14.35 5.38 21.66 7.77q6 1.96 12 3.95l2.37.79a739 739 0 0 1 23.66 8.4 712 712 0 0 0 18.42 6.47l2.33.8 2.02.68c2.82 1.12 5.47 2.5 8.17 3.86a70695 70695 0 0 1 .15 106.92 18784 18784 0 0 1 .06 45.2 4357 4357 0 0 1 .03 20.14c.07 17.42.07 17.42-2.24 25.74l-.6 2.23a167 167 0 0 1-1.77 5.9l-.66 2.08A81 81 0 0 1 383 346q-.55 1.99-1 4h-2l-.78 2.6a57 57 0 0 1-4.72 9.77l-1.84 3.22L371 368h-2l-.75 2.06c-1.97 4.64-4.17 9.79-8.25 12.94h-2l-.77 2.27c-1.3 2.9-2.59 4.34-4.92 6.48a83 83 0 0 0-9.86 11.56L341 405h-2v2c-1.4 1.38-1.4 1.38-3.37 3-3.4 2.88-6.57 5.89-9.7 9.06A134 134 0 0 1 314 430h-2v2c-5.48 5-5.48 5-8 5v2a197 197 0 0 1-5 3l-1.44 1.44c-2.27 2.27-4.83 3.88-7.56 5.56h-2v2h-2v2c-1.9 1.65-3.8 3.18-5.81 4.69l-1.78 1.35a179 179 0 0 1-14.07 9.49c-2.37 1.43-2.37 1.43-4.52 3.16C258 473 258 473 256 473v2c-2.45 1.67-4.9 3.23-7.44 4.75l-4.41 2.7-2.17 1.32a216 216 0 0 0-9.28 6.17C231 491 231 491 228 492c-.95 1.96-.95 1.96-1.56 4.31A44 44 0 0 1 223 505c-2.93-1.46-3.06-3.4-4.12-6.44l-1.08-3C217 493 217 493 217 491l-1.68-.3c-2.86-.86-4.95-2.24-7.44-3.89-4.61-3.01-9.3-5.83-14.08-8.55L192 477v-2l-5-1v-2l-2-.62c-3.22-1.48-5.65-3.26-8.44-5.42q-3.91-2.98-7.92-5.86A382 382 0 0 1 148 444l-5.5-4.5-2.7-2.22q-2.95-2.4-5.94-4.78l-3.05-2.44-2.79-2.21L126 426v-2l-1.79-.83c-5.6-2.96-9.8-7.69-13.8-12.5-2.8-3.32-5.8-6.2-9.22-8.86L99 400v-2h-2a93 93 0 0 1-3.94-5.12 400 400 0 0 0-12.6-16.33C77 372.22 77 372.22 77 370h-2l-1.56-2.81c-2.44-4.3-5.14-8.41-7.85-12.54-2.16-3.6-3.59-6.42-3.59-10.65h-2q-2.24-6.33-4.44-12.69l-1.27-3.57-1.22-3.56-1.13-3.23c-3.08-11.11-2.08-23.59-2.05-35.04v-19.78l.02-15.11q0-14.29.02-28.57l.02-32.55L50 123l7.56-2.31 2.14-.65c4.58-1.41 8.91-3.1 13.3-5.04a287 287 0 0 1 5.95-2.12l3.32-1.15 3.42-1.17 3.35-1.16q9.63-3.3 19.3-6.48c3.49-1.2 6.89-2.59 10.3-3.99 2.96-1.17 5.96-2.16 9-3.14 3.64-1.22 7.2-2.62 10.78-4.02 2.67-.8 4.82-.91 7.58-.77v-2l3.75-1 2.1-.56C154 87 154 87 158 87v-2l15.59-5.2q2.43-.8 4.84-1.64c3.89-1.35 7.5-2.52 11.63-2.85L194 75l1 2 2.94 1.44C201 80 201 80 203 83c-.37 2.19-.37 2.19-1 4h-1l-1 6 2 1c-14.6 5.94-14.6 5.94-19.56 7.5-3.81 1.21-7.4 2.77-11.06 4.38a207 207 0 0 1-19.04 7.03 135 135 0 0 0-15.26 5.9c-6.92 3.1-14.13 5.35-21.31 7.75a162 162 0 0 0-18.31 7.35 72 72 0 0 1-10.17 3.4 46 46 0 0 0-6.1 2.38C78 141 78 141 73 141v133h48l3 1 1 4H73c1.14 28.4 2.59 52.37 19.87 75.4C94 356 94 356 95.75 359.26c2.51 4.6 6.03 8.43 9.42 12.4C107 374 107 374 107 376h2l3 5q2.48 2.51 5 5 3.87 4.26 7.7 8.57c2.25 2.56 2.25 2.56 5.3 4.43v2l3 1q2.02 2.49 4 5 2.56 2.25 5.25 4.38c4.12 3.29 8.1 6.66 12 10.21A29 29 0 0 0 160 425l3.33 3.45c5.68 5.28 12.4 9.45 19.02 13.46A31 31 0 0 1 188 447l2 1v2l1.79.37c3.5 1 6.33 3.13 9.34 5.13A88 88 0 0 0 210 461v2l2.88.94A28 28 0 0 1 218 466v2c4.54.28 7.03-.18 10.84-2.68l2.7-1.74 2.84-1.9 2.92-1.9q10.11-6.6 19.95-13.58c4.54-3.2 4.54-3.2 6.75-3.2v-2l4-1v-2a116 116 0 0 1 4.12-2.76c4.45-2.94 8.58-6.36 12.78-9.64l2.2-1.7 1.98-1.54C291 421 291 421 293.18 420c2.17-.94 2.17-.94 2.82-4.01 1.45-1.21 1.45-1.21 3.25-2.37 3.35-2.18 5.95-4.79 8.75-7.63q4.17-3.77 8.38-7.5c2.68-2.44 2.68-2.44 4.83-5.31L323 391h2l.81-1.94C327 387 327 387 330 386c1.1-1.88 1.1-1.88 2-4l2-3h2l.69-1.62c1.73-3.13 4.02-5.64 6.31-8.38l3-5q1.54-2.2 3.13-4.37c15.21-21.75 21.58-41.7 22.44-68.23l.13-3.63.3-8.77h-2a32875 32875 0 0 1-71.16.15 8823 8823 0 0 1-30.92.06l-11.94.02-3.6.02h-6.13C244 279 244 279 242 277c1.71-2.14 2.58-2.93 5.34-3.37h6.02l3.55.03h3.78q5.07 0 10.15.04l9.51.02q13.92.02 27.84.1L371 274V141l-9-2a85 85 0 0 1-5.25-2.06A41 41 0 0 0 347 134v-2l-3.87-.77c-5.28-1.17-10.18-3-15.2-4.98l-5.57-2.16-2.75-1.07a1076 1076 0 0 0-10.99-4.2l-1.94-.74a351 351 0 0 0-13.37-4.64A317 317 0 0 1 266 103a154 154 0 0 0-13.84-5.23l-2.02-.64-5.82-1.79c-3.39-1.37-5.13-2.44-7.32-5.34-.4-4.98-.4-4.98 1-8 10.67-9.95 18.9-7.6 31.38-2.75"/><path fill="#f4e0d4" d="M420 92c4.49.53 7.74 1.3 12 3l1 11 8 3q.15 42.78.2 85.56l.1 39.74q.06 17.33.08 34.64 0 9.17.04 18.33.04 8.65.03 17.3l.03 6.3c.12 18.04-2.91 33.3-9.48 50.13l-1.15 3.04c-3.19 8.11-7.41 15.5-11.85 22.96l-1.53 2.69c-3.43 5.94-7.4 11.34-11.61 16.74-2 2.5-2 2.5-2.86 5.57h-2l-.77 1.7c-5.48 10.23-15 19.01-22.86 27.49l-1.66 1.8a218 218 0 0 1-14.77 14.57 122 122 0 0 0-7.12 6.72C352 466 352 466 350 466v2h-2v2c-1.69 1.48-1.69 1.48-4 3.19-3.98 3-7.7 6.15-11.37 9.52C331 484 331 484 329 484v2a102 102 0 0 1-5.75 4.5l-1.63 1.22A46 46 0 0 1 313 497v2c-7.43 4.29-7.43 4.29-11 6v2a105 105 0 0 1-5.75 3.94c-4.34 2.79-4.34 2.79-8.52 5.81C286 518 286 518 284 518v2a91 91 0 0 1-5.5 3.44 276 276 0 0 0-17.85 11.7c-4.1 2.87-8.27 5.42-12.65 7.86l-5.12 3.06-2.45 1.48q-2.55 1.53-5.09 3.14C233 552 233 552 230.69 552.06c-3.37-1.33-5.83-3.3-8.67-5.52a55 55 0 0 0-6.91-4.35 309 309 0 0 1-21.83-13.68c-3.67-2.43-7.43-4.7-11.19-7L180 520v-2l-2-.66c-4.02-1.8-7.46-4.2-11.06-6.72l-2.15-1.46c-3.6-2.49-6.73-5-9.79-8.16q-1.93-1.34-3.94-2.56c-5.9-3.85-11.12-8.48-16.45-13.07q-3.61-3.05-7.3-6a296 296 0 0 1-12.72-11.01 498 498 0 0 0-4.79-4.3 475 475 0 0 1-19.5-18.46l-3.51-3.46-5.16-5.09-1.58-1.52A27 27 0 0 1 73 424l1-2 1.98 2 10.59 10.65A305 305 0 0 0 105 452q2.67 2.43 5.31 4.88a497 497 0 0 0 62.35 47.94q4.1 2.69 8.18 5.42A872 872 0 0 0 213 531l2.8 1.8q1.19.7 2.39 1.45l1.92 1.2c2.79.81 4.27-.27 6.89-1.45q2.52-1.4 5-2.9l2.85-1.75 3.03-1.85 3.12-1.91A518 518 0 0 0 265 510l1.97-1.36c26.27-18.25 52.24-37.27 75.53-59.24 2.39-2.23 4.82-4.4 7.25-6.59 11.52-10.57 22.64-21.46 32.25-33.81l4.31-5.12a238 238 0 0 0 30.57-47.75l1.11-2.35c3.74-8.02 6.26-16.34 8.63-24.84l.66-2.28.63-2.26.57-1.98c1.4-6.51 1.67-12.95 1.68-19.58l.01-2.7.04-8.88q0-3.19.03-6.38l.06-17.3.08-18.1.14-34.26.16-39L431 96l-4 1v-2h-6z"/><path fill="#c8641c" d="M428 96h3q.1 41.83.16 83.66.01 19.43.07 38.85.05 16.94.05 33.87 0 8.97.04 17.93.02 8.44.02 16.9l.02 6.17c.06 11.94-.64 22.97-3.36 34.62l-.62 2.78c-2.55 11.27-6.83 21.14-12.38 31.22l-2.13 4a245 245 0 0 1-35.6 49.52 260 260 0 0 0-5.41 6.14c-4.38 5.02-9.08 9.7-13.8 14.4l-2.59 2.6a249 249 0 0 1-13.7 12.8c-2.53 2.2-4.95 4.5-7.4 6.79a260 260 0 0 1-18.42 15.24l-6.2 4.86a735 735 0 0 1-23.56 17.84l-2.27 1.64-4.14 2.93q-2.16 1.5-4.27 3.1c-3.57 1.63-6.98 1.46-10.82 1.33l-2.25-.04L257 505l-1-4c4.88-4.49 9.92-8.49 15.4-12.22 3.57-2.44 7.06-4.97 10.57-7.5C284 480 284 480 286 480v-2l4-1v-2c5.41-4 5.41-4 8-4v-2l5-2v-2a92 92 0 0 1 5.13-3.81c3.25-2.3 6.43-4.58 9.43-7.19 2.44-2 2.44-2 4.44-2v-2c1.25-1.26 1.25-1.26 3-2.69a289 289 0 0 0 10.3-8.99C337 437 337 437 339 437v-2h2v-2c1.46-1.4 1.46-1.4 3.38-2.94A24 24 0 0 0 350 424h2v-2c4.3-4.77 4.3-4.77 8-6 1.17-1.92 1.17-1.92 2-4l1-2h2v-2h2l.75-1.7c1.47-2.7 3.25-4.83 5.25-7.18 23.16-27.9 43.25-60.55 43.11-97.77v-9.86q0-9 .04-17.98.04-11.43.03-22.86a2358 2358 0 0 1 .04-18.5v-7.05q-.03-4.92.02-9.84l-.04-2.94c.11-6.39.11-6.39 2.01-8.96a28 28 0 0 1 7.63-4.57c2.3-1.54 2.3-1.54 2.6-3.66.18-2.6.18-5.14.13-7.74v-2.99q-.01-4.89-.08-9.79l-.02-6.78q-.03-8.92-.13-17.86-.06-9.1-.1-18.21-.07-17.88-.24-35.76"/><path fill="#e27b2d" d="M160 308h4l2 8c3.43-3.18 3.43-3.18 6-7q4.94-.05 9.88-.06l2.83-.03h2.72c1.24-.02 1.24-.02 2.5-.02C192 309 192 309 194 310q2.32-.14 4.63-.44l2.47-.3 1.9-.26-2 1v3h2v2h-2l-2 7h6l2-4-1 5-3.94-.06q-2.02-.04-4.06.06l-1 1 2.12-.07 2.75-.06 2.75-.07c2.38.2 2.38.2 4.38 2.2l1 2h2l-.04-3.9-.02-5.04-.03-2.57v-2.45l-.02-2.27C212 310 212 310 213 309q2.94-.18 5.88-.19l3.24-.04C225 309 225 309 228 311a266 266 0 0 1-2 14l1.75-1.06c2.25-.94 2.25-.94 4.44-.69C234 324 234 324 235 326l7-1v-3l-1.9-.33-2.47-.48-2.47-.46C233 320 233 320 231 317c-.37-2.5-.37-2.5 0-5 1.44-1.81 1.44-1.81 4-3 3.77-.37 7.55-.72 11 1v6h2l1-4h3c-.41 2.88-.83 3.85-3.06 5.81-2.32 2.17-2.32 2.17-2.19 5.94L247 327l-3 1v2c-3.67 1.84-7.97 1.12-12 1l-2.26-.02c-2.85-.15-5.1-.4-7.28-2.35A82 82 0 0 1 219 324l-2-1 .06 3.44C217 330 217 330 216 331q-3.54-.14-7.06-.44l-3.91-.3L202 330l-1-3-2-1-1 5c-4.84.56-9.56 1.07-14.44.88-3.5-.25-3.5-.25-5.37 1.62L177 335h-3v3h-2l-.44-2.81c-.48-3.2-.48-3.2-1.56-6.19h-4l-.11-2.08-.2-2.73-.18-2.71c-.59-2.85-1.4-3.58-3.51-5.48l-1-3q-.98-2.01-2-4zm18 2v18h2v-9h8v-1h-8v-7h10v-1zm35 0v18h1v-9l8 1 1-2h-9v-7h8v-1zm23 0v1h5v-1zm-4 3 1 3Zm-62 1 1 2Zm29 0 1 2Zm-32 4v10h1v-10zm77 4 1 3Zm-8 6 4 1Z"/><path fill="#f1bb88" d="M268 343h5l1 18 .38-5.44c.2-3.06.2-3.06.62-5.56l2-1 1-2c1.5-2.12 1.5-2.12 4-4 3.03-.34 5.97-.23 9 0l2 6-7 1 1-3c-2.92 1.07-4.78 1.78-7 4v3l2-1-1 6 14-1v-14l3 1q2.85.1 5.69.06l3-.02L309 345v2h-7l-1 4h7v3l3-1 1 3c-4.05.98-7.84 1.08-12 1l-1 3h11v5h-10v3h-2v-2l-3.87-.15-5-.23-2.56-.09-2.44-.12-2.25-.1C280 365 280 365 278 363v2h-22v-21h2l1 4 4-1 5 9zm14 1v1h5v-1zm7 2v2l2-1zm8 7v1h9v-1zm-20 4 1 2Zm-7 1-2 2 1 2h2zm13 4 4 1Z"/><path fill="#e69f66" d="m218.88 308.81 3.24-.04C225 309 225 309 228 311a266 266 0 0 1-2 14l1.75-1.06c2.25-.94 2.25-.94 4.44-.69C234 324 234 324 235 326l7-1v-3l-1.9-.33-2.47-.48-2.47-.46C233 320 233 320 231 317c-.37-2.5-.37-2.5 0-5 1.44-1.81 1.44-1.81 4-3 3.77-.37 7.55-.72 11 1v6h2l1-4h3c-.41 2.88-.83 3.85-3.06 5.81-2.32 2.17-2.32 2.17-2.19 5.94L247 327l-3 1v2c-3.67 1.84-7.97 1.12-12 1l-2.26-.02c-2.85-.15-5.1-.4-7.28-2.35A82 82 0 0 1 219 324l-2-1 .06 3.44C217 330 217 330 216 331q-3.54-.14-7.06-.44l-3.91-.3L202 330l-1-3-2-1v3h-5c.77-4.77 1.86-9.65 4-14 2.69-1.56 2.69-1.56 5-2v2h-2l-2 7h6l2-4-1 5-3.94-.06q-2.02-.04-4.06.06l-1 1 2.12-.07 2.75-.06 2.75-.07c2.38.2 2.38.2 4.38 2.2l1 2h2l-.04-3.9-.02-5.04-.03-2.57v-2.45c-.02-1.13-.02-1.13-.02-2.27.26-4.03 3.71-2.94 6.99-2.96M213 310v18h1v-9l8 1 1-2h-9v-7h8v-1zm23 0v1h5v-1zm-4 3 1 3Zm12 9 1 3Zm-8 6 4 1Z"/><path fill="#e17b2b" d="m147 343 10.13-.12 3.15-.06c4.98-.03 9.06.19 13.72 2.18v-2h5l1 13h-2v7c-2.5-.83-4.67-1.8-7-3l-1 4c-6.9 2.8-13.72 1.93-21 1l-2-1zm1 1 1 2 10-1v-1zm17 0 2 2v-2zm-17 9v1h10v-1z"/><path fill="#ea8b40" d="M142 203c11.83-.78 11.83-.78 16.19 2.13 4.5 7.14 4.24 13.77 2.81 21.87a13.4 13.4 0 0 1-5.8 7.14c-2.63 1.03-4.64 1.06-7.45.99l-2.7-.06L143 235v7l2.41-.1c10.53-.27 10.53-.27 15.59 3.1l-1 2-2.75-1.44c-5.17-2.26-10.68-2.3-16.25-2.56a89 89 0 0 1 1-16v-4l-2 1 .96-1.73c2.8-6.1 2.1-12.82 1.04-19.27"/><path fill="#eba76f" d="M233 343h21v4h-11v5h8v3h-9v6h11v2h-14v-9h-2v10l-10 1v-2l-2 1h-10l1-20h1l1 10h7l-7-1v-8c9.41-1.52 9.41-1.52 14 1zm7 1v18h1v-8h9v-1h-9v-8h11v-1zm-12 4 1 3Z"/><path fill="#ee8f49" d="M33 179c3.76 1.7 5.49 3.73 8 7l2 1v2h2v2l3 1v2h2v3h-2l-1 3c-1.7 1.68-1.7 1.68-3.81 3.44-2.86 2.42-5.6 4.86-8.19 7.56-3.44-1.48-5.73-3-8-6-.65-3.11-.65-6.14-.62-9.31l-.1-2.52c-.01-5.85 1.33-8.8 5.43-12.98z"/><path fill="#ef904a" d="M409 180h3v2l1.94.38 2.06.62c1.94 3.88 1.32 8.61 1.38 12.88l.1 3.05c.1 7.41.1 7.41-2.86 10.78C412 211 412 211 409.7 210.75L408 210v-2l-3-1v-2h-2l-4-5c-2.13-1.76-2.13-1.76-4-3 1.5-4.73 1.5-4.73 4-6.06l2-.94q1.05-1.98 2-4c2-2.25 2-2.25 4-4h2z"/><path fill="#f6d2b3" d="M286 195h11c1 1 1 1 1.11 3.6l-.01 3.4-.01 3.69-.03 3.87-.01 3.9L298 223h26l1 2-15.96.08-5.82.02-3.54.01C297 225 297 225 296 224q-.12-3.11-.1-6.22l.01-3.82.04-8.06.05-9.9h-9v29h-27v8h27v28h9l-.02-2.46-.04-10.98-.03-3.87V240l-.02-3.4c.11-2.6.11-2.6 1.11-3.6q3.11-.12 6.22-.1l3.82.01 8.06.04 9.9.05v1h-27v28h-12v-28h-27c0-10 0-10 1-11q2.9-.12 5.79-.1l3.19.01 4.08.03L286 223z"/><path fill="#e09256" d="M195 340h4v3h14v4h-11v5h8v3h-8v5h11v4q-3.46.05-6.94.06l-3.9.04C199 364 199 364 198 363a145 145 0 0 1-.56-6.06l-.26-3.35L197 351l-1 4-9 1v8h-6l1-21h13zm-12 4v18h2v-8h7v-1h-7v-8h6v-1zm16 0v18h2v-8h8v-1h-8v-8h11v-1zm-5 2 1 2Zm1 2-1 4 2-1z"/><path fill="#e1833b" d="M268 343h5l1 18 1-11h1l1 7 3 1v2c5.58.12 5.58.12 11-1v3c-3.45 2.3-4.23 2.14-8.19 1.63l-2.73-.34L278 363v2h-22v-21h2l1 4 4-1 5 9zm2 15-2 2 1 2h2zm13 4 4 1Z"/><path fill="#f1b786" d="m280 311 1 3 1.08-2.48c1.92-2.52 1.92-2.52 5.06-3l3.55.17 3.57.13c1.36.1 1.36.1 2.74.18v3h-11l-1-2 1 9 9-1v3h-8l1 9h-8v-2l-5 1v2a241 241 0 0 1-4.37-.81l-2.47-.46C266 329 266 329 264 326c1.89-1.89 4.57-1.35 7.09-1.52 2.31-.35 2.31-.35 3.91-3.48q.59-2.99 1-6h-2v-3c-4.65.48-4.65.48-9 2l-1-3c5.61-3.74 10.39-3.74 16 0m-13-1v1h7v-1zm10 13 1 2Zm-9 5v1h5v-1z"/><path fill="#fef6f1" d="m432 106 9 3q.1 42.86.16 85.72.01 19.9.07 39.8.05 17.36.05 34.7 0 9.2.04 18.37l.02 17.31q0 3.17.02 6.33c.06 11.35-.27 21.77-3.36 32.77h-1c-1.02-4.36-1.2-6.99.46-11.17 1.69-4.83 1.97-9.1 1.94-14.19l.02-2.72q.02-4.47.01-8.95l.03-6.45q.04-8.73.05-17.45 0-9.13.06-18.26l.1-34.55q.03-19.68.1-39.35.15-40.45.23-80.91l-8-2z"/><path fill="#f0b78e" d="M420 92c4.34.51 7.98 1.3 12 3a97620 97620 0 0 1 .15 125.28 25887 25887 0 0 1 .06 52.95 5990 5990 0 0 1 .03 23.59v8.63l.02 2.56c-.03 5.76-.03 5.76-2.26 7.99l1-220-4 1v-2h-6z"/><path fill="#fee1ca" d="M432 108h1a85872 85872 0 0 1 .15 117.8 22812 22812 0 0 1 .06 49.8 5290 5290 0 0 1 .03 22.2c.09 24.62.09 24.62-3.81 28.95L428 328c.76-7.39.76-7.39 2-10.61 1.19-4.03 1.29-7.78 1.28-11.93l.02-2.57.02-8.48.03-6.1q.04-8.25.05-16.52l.07-17.27.12-32.7.14-37.23z"/><path fill="#f7d8b9" d="M200 198h50v18l-45 1v14l8-1c-3.42 3.15-6.44 3.56-11 4l.68-9.57c.3-3.16.8-6.3 1.32-9.43h45v-15h-49z"/><path fill="#e27e32" d="M174 343h5l1 13h-2v7c-2.5-.83-4.67-1.8-7-3l-1 4h-7c1.37-3.16 1.99-4 5-6 1.19-2.77 1.19-2.77 1-6-1.44-2.35-3.06-4-5-6l1-2c3.04 0 6 .55 9 1z"/><path fill="#f4bd8f" d="M160 308h4l2 8c3.43-3.18 3.43-3.18 6-7h20v3q-2.94.08-5.87.13l-3.31.07C180 312 180 312 178 310v18h2v-9l9-1v3h-8v5h11v3h-15v-18c-5.14 2.35-5.14 2.35-6 6l-1 2q-.1 2.56-.06 5.13l.02 2.75.04 2.12h-4l-.11-2.08-.2-2.73-.18-2.71c-.59-2.85-1.4-3.58-3.51-5.48l-1-3q-.98-2.01-2-4zm7 10v10h1v-10z"/><path fill="#e47a29" d="M254 344h2v20h-16v-1h13v-2h-11v-6h9v-3h-8v-5h11z"/><path fill="#df7e34" d="m244 309 2 1v6h2l1-4h3c-.41 2.88-.83 3.85-3.06 5.81-2.32 2.17-2.32 2.17-2.19 5.94L247 327h-3l1-1q.06-2.5 0-5l-3.12.13A27 27 0 0 1 232 319l-1-7c3.72-3.88 7.98-3.5 13-3m-8 1v1h5v-1zm-4 3 1 3Z"/><path fill="#f0c49d" d="M286 195h11c1 1 1 1 1.11 3.6l-.01 3.4-.01 3.69-.03 3.87-.01 3.9L298 223h26l1 2-15.96.08-5.82.02-3.54.01C297 225 297 225 296 224q-.12-3.11-.1-6.22l.01-3.82.04-8.06.05-9.9h-9v28h-27v-1h26z"/><path fill="#e9b07c" d="M231 227v2l2.06.38c8.43 1.79 12.57 4.06 17.56 11.14 3.03 4.94 3.06 9.31 2.88 14.98v2.72c-.08 5.88-.94 10.46-3.5 15.78-3.27 1.63-5.37 2-9 2l1.46-1.54 1.91-2.08 1.9-2.04c4.87-6.59 4.35-14.52 3.73-22.34a29 29 0 0 0-3-7l-1-3c-1.84-1.09-1.84-1.09-4-2l-1.95-1.25c-8.19-4.92-16.76-4.64-26.05-4.75 5.29-2.9 11.06-3.19 17-3"/><path fill="#e27e31" d="M274 312v3h2c.37 6.48.37 6.48-1.19 8.69-2.36 1.71-4.1 1.8-7 2l-2.73.2-2.08.11c-2.71-4.07-2.3-6.16-2-11 3.74-3.74 7.9-3.1 13-3"/><path fill="#f1bc8c" d="M237 343h17v4h-11v5h8v3h-9v6h11v2h-14v-9h-2zm3 1v18h1v-8h9v-1h-9v-8h11v-1z"/><path fill="#eeba8c" d="M224 43c1.97 5.82 3.4 10.83 3 17-2.61-1.3-2.68-2.36-3.62-5.06l-.8-2.23L222 51l-.53 1.62-2.4 7.26-.85 2.55-.81 2.44-.75 2.25C216 69 216 69 215 71l-22 1 1 2c-4.87-1.75-4.87-1.75-6-4l26-1v-3h2l1-14h2l.38-3.94c.2-2.21.2-2.21.62-4.06 2-1 2-1 4-1"/><path fill="#e28640" d="M203 310h-2a183 183 0 0 0-5 14h-1l1-10h-2v2l-4 1-1 4v-3h-9v-6h12l1-2c3.64-.9 6.43-1.24 10 0"/><path fill="#f7dbbc" d="M163 251c2.74 4.1 2.6 7.18 2 12-1.67 6.08-3.88 11.1-9 15-4.75 2.22-8.86 2.26-14 2l-2-1 .07-2.63.06-3.5.07-3.44c-.2-3.52-.86-6.19-2.2-9.43-3.19-2.48-7.08-2.55-11-3v-1c8.67-.44 8.67-.44 13 3 2.58 3.87 2.01 6.77 1.63 11.19l-.18 2.27L141 278c9.28-.25 9.28-.25 17-5 2.14-4.48 2.42-9.13 3-14l1-1q.55-3.5 1-7"/><path fill="#efbe92" d="m185 250 1 4h5v2h10v1l-1.9.52-2.47.73-2.47.7c-2.27.89-2.27.89-3.46 2.9-1.39 4.27-.36 8.6 1.36 12.65l.94 1.5-6-1 1-8h-2l-1 6-5 1 1.94-2.25c4.1-6.1 3.1-14.69 3.06-21.75"/><path fill="#de7b2e" d="M204 309h3l1 5c2.33-.96 2.33-.96 4-4v18h-2c-2.47-2.47-2.98-3.7-3.19-7.25L207 318h-2v4h-6l2-7h3l-.56-2.44L203 310z"/><path fill="#f1b891" d="M420 92c4.49.53 7.74 1.3 12 3v91h-1V96l-4 1v-2h-6z"/><path fill="#f5e6dc" d="m208 531 9 3v5l5-1-.69 1.81L221 542c1.4 1.65 1.4 1.65 3 3v2c-7.27-3.49-14.1-7.84-21-12l1.94-.31L207 534z"/><path fill="#df9154" d="M269.75 309.63c3.82.05 5.06.25 8.38 2.37 2.57 4.12 2.4 6.18 1.87 11-.87 3-1.48 3.7-4.19 5.25a26 26 0 0 1-9.81.75l-2-3c1.89-1.89 4.57-1.35 7.09-1.52 2.31-.35 2.31-.35 3.91-3.48q.59-2.99 1-6h-2v-3c-4.65.48-4.65.48-9 2l-1-3c1.64-1.64 3.5-1.29 5.75-1.37M277 323l1 2Z"/><path fill="#f3c9a0" d="m212 344 1 3h-11v5h8v3h-8v5h11v4h-14v-2h2v-17z"/><path fill="#fee6c4" d="m147 344 2 1q3.06-.14 6.13-.44l3.32-.3L161 344v3h-11v5h8v3h-9v6h11v2h-13z"/><path fill="#e17b2f" d="M215 344h1v13l-2-3-1 2h-10v3l2 1h-3v-5h8v-3h-8v-5h11v2h2z"/><path fill="#e67a28" d="M417 186c7 6 7 6 8 9h2v2h-2l-1 3-7 5z"/><path fill="#efb786" d="M177 344c0 4.25-1.82 6.39-4 10l1.1 1.46 1.4 1.92 1.4 1.9C178 361 178 361 178 363c-2.5-.83-4.67-1.8-7-3l-1 4h-7c1.37-3.16 1.99-4 5-6 .92-3.26 1.32-5.2.06-8.37L167 348h3l1 2 2.44-2.44z"/><path fill="#f6cda4" d="m195 346-.06 2.25c-.04 3-.04 3 1.06 6.75h-11v-10c4.08-.93 6.42-1.34 10 1"/><path fill="#de8038" d="M240 308v1l-3.44.94c-3.35.69-3.35.69-4.56 2.06q.43 3.5 1 7l9 2 1 4c-3.2 2.14-4.28 2.48-8 2l-2-3-3-1v-14c3.47-1.16 6.36-1.07 10-1"/><path fill="#df8846" d="M254 344h2v20h-16v-1h13v-2h-11v-6h1v5h12v-12l-4.37.56c-4.38.56-4.38.56-6.63-.56v3h9l-2 4v-3h-8v-5h11z"/><path fill="#f6d4b1" d="M198 207h1c.18 7.28-.53 14.23-1.5 21.44l-.84 6.43-.38 2.84c-.32 2.24-.32 2.24-.28 4.29 3.88.43 3.88.43 5.75-1.5L203 239l2 1-3 1-1 5-7-1q-.05-2.56-.06-5.12l-.04-2.89c.1-3.09.6-5.94 1.1-8.99.25-2.96.4-5.91.56-8.87l.13-2.38.31-5.75h2z"/><path fill="#e08f51" d="m168 351 2 1c-1.3 5.42-2.89 8.1-7 12h5c-3.83 2.55-6.68 2.08-11.06 1.75l-2.22-.12c-5.46-.37-5.46-.37-7.72-2.63h13v-2h-11v-6h1v5q3.18.12 6.38.19l3.58.1L163 360l2-3h2v-3h-2v-2z"/><path fill="#de8a4b" d="M298 347h4l-1 4h7v3l3-1 1 3c-4.05.98-7.84 1.08-12 1l-1 3h11v4h-14v-1h13v-2h-11v-6h9v-3h-9z"/><path fill="#eaa86f" d="m130.13 201.88 2.87.12-1.28 1.46-1.66 1.91-1.65 1.9c-2.26 2.77-2.61 4.66-2.72 8.17l-.12 2.37c.25 2.32.25 2.32 2.12 3.93 2.65 1.44 4.57 1.75 7.56 1.95l2.7.2 2.05.11v1q-3.12.2-6.25.31l-3.52.18c-3.23-.49-3.23-.49-5.65-3.01L123 220l-3 1v-3h3l-.12-3.62c0-5.65.55-12.24 7.25-12.5"/><path fill="#ca651d" d="M186 267h2v7l5 2v3h-16l2-1c.65-2.02.65-2.02 1-4l1.88-.12L184 273c1.3-3 1.3-3 2-6"/><path fill="#eebe93" d="M201 257c5.63-.25 5.63-.25 9 2 2.6 6.4.63 13.6-1 20 6.04-1.58 11.01-3.2 16-7-1.74 4.22-3.8 5.38-7.83 7.25-3.13 1.08-5.9 1.08-9.17.75l-1-1q.36-5.02.95-10.01c.31-3.56.45-5.46-1.74-8.38A147 147 0 0 0 201 257"/><path fill="#e57826" d="M27 187v17c-6.7-5.36-6.7-5.36-7.93-7.97C19 194 19 194 20.4 192.08l1.98-1.83 1.96-1.86C26 187 26 187 27 187"/><path fill="#f1ddcf" d="M140 485c1.88.31 1.88.31 4 1l2 3h5l2 3h-3l-1 4h6l3 6c-8.02-2.5-13.7-8-18-15z"/><path fill="#f6ebe3" d="m111 464 5 1 1 3 2.38.44C122 469 122 469 124 470v3h4c2.3 3.08 3.67 6.41 5 10-8.56-3.86-16.62-11.35-22-19"/><path fill="#edb88c" d="m239 277 2 1-4.25 2.5-2.4 1.4C232 283 232 283 228 283v2c-6.76 2.08-12.96 2.21-20 2l-1-2h-4l-1-3 3.38.44 2.23.26q2.35.3 4.7.73c8.57 1.38 16.34-1.16 23.96-5.13z"/><path fill="#e79d64" d="m286.69 342.81 2.45.08 1.86.11 2 6-7 1 1-3c-3.33 1.17-5.86 2.12-8 5-.72 2.6-.72 2.6-1 5h-1v-10l2-1 1.33-1.55c2.21-1.92 3.48-1.76 6.36-1.64M282 344v1h5v-1zm7 2v2l2-1z"/><path fill="#e7bd98" d="M207 84h3a138 138 0 0 1-3.06 14.25c-1.39 4.81-1.39 4.81-1.94 9.75l2 1c-1.31 2-1.31 2-3 4h-3c-.36-5.76.79-9.72 3-15 1.77-4.71 2.48-9.02 3-14"/><path fill="#de7c30" d="M264 342h4c1.1 3.29 1.1 5.74 1.06 9.19l-.02 3.29L269 357a41 41 0 0 1-6-7v-3l-1.87-.87C259 345 259 345 257 343c4.88.88 4.88.88 6 2z"/><path fill="#eebb90" d="M142 203q3.13-.12 6.25-.19l3.52-.1c3.46.31 4.82.83 7.23 3.29v2l-1.8-.4-2.39-.54-2.35-.52A385 385 0 0 0 145 205l.1 2.67.09 3.52.1 3.48c-.32 3.63-1.1 5.44-3.29 8.33l-2 1 .96-1.73c2.8-6.1 2.1-12.82 1.04-19.27"/><path fill="#f2cba5" d="M172 200c-3 1-3 1-5.06.08-4.3-1.58-8.4-1.37-12.94-1.33l-2.7-.02c-4.6.01-8.08.26-12.3 2.27-2.31-.37-2.31-.37-4-1h2v-3c11.59-1.91 24.64-3.26 35 3"/><path fill="#e8924d" d="M275 350h1l1 7 3 1v2c5.58.12 5.58.12 11-1v3c-3.45 2.3-4.23 2.14-8.19 1.63l-2.73-.34L278 363v2l-5-1 1-3q.32-2.84.56-5.69l.26-3zm8 12 4 1Z"/><path fill="#e87923" d="M194 314h2q-.17 2.48-.37 4.94l-.22 2.77L195 324c-2.64 1.32-4.68 1.1-7.62 1.06l-3.04-.02L182 325v-3l7-1 1-4 4-1z"/><path fill="#e1b48f" d="M277 44c5.64.42 10.02 1.67 15.2 3.89 4.28 1.7 8.69 2.92 13.11 4.18C308 53 308 53 310 55a529 529 0 0 1-17.12-4l-2.03-.5L285 49l-2.01-.46c-1.92-.48-1.92-.48-4.99-1.54z"/><path fill="#feecd7" d="M269 344h3v19h-4c-4-6.62-4-6.62-4-10 3 1 3 1 4 3zm1 14-2 2 1 2h2z"/><path fill="#dfad86" d="M144 53c-3.23 2.15-4.28 2.2-8 2v2h-3v2h-1.88c-7.05.32-12.64 2.11-19 5-3.55 1.58-5.42 2.18-9.12 1q4.2-1.7 8.44-3.37l2.37-.97a83 83 0 0 1 14.19-4.2c3.45-.79 6.54-2.3 9.74-3.75 2.54-.8 3.78-.6 6.26.29"/><path fill="#f7d9c1" d="m325 465 2 2-4.31 4-2.43 2.25C318 475 318 475 315 475l-.19 1.81c-1.14 3.08-2.99 3.64-5.81 5.19-1.75 1.58-1.75 1.58-3 3l-2-3q10.43-8.58 21-17"/><path fill="#f5cca4" d="M174 202h6c6.98 16.79 6.98 16.79 4.16 24.2-1.62 2.52-3.5 3.5-6.16 4.8h-3l1.28-1.43 1.66-1.88 1.65-1.87c2.87-3.7 2.71-7.3 2.41-11.82a39 39 0 0 0-3-7l-2-1v-2l-3-1z"/><path fill="#fcf7f0" d="M73 422c3 2 3 2 3.38 3.81.94 3.3 3.15 4.83 5.62 7.19q1.7 1.92 3.38 3.88c3.37 3.89 6.94 7.52 10.62 11.12l4 4-1 2q-4.84-4.7-9.66-9.44l-3.29-3.2-4.73-4.65-1.47-1.41c-3.53-3.52-5.2-6.68-6.85-11.3z"/><path fill="#ea7922" d="m160 348 3 1 1 4 3 1v3h-2l-2 4-12-3v-1h10l-2-1z"/><path fill="#f2c092" d="M249 243c3.88 3.82 3.65 8.12 3.88 13.25l.17 2.49c.3 5.83-.49 9.99-3.05 15.26-3.27 1.63-5.37 2-9 2l1.46-1.54 1.91-2.08 1.9-2.04c3.58-4.84 3.99-9.52 3.92-15.4l-.02-3.6c-.15-2.9-.5-5.52-1.17-8.34"/><path fill="#eb7821" d="m289 349 1 2c2.02 1.13 2.02 1.13 4 2v4l-3.81.06-2.15.04C286 357 286 357 283 356l1-6z"/><path fill="#e48136" d="M286 312h11v5c-1 1-1 1-3.29 1.1l-2.77-.04-2.79-.02L286 318z"/><path fill="#f9d6ab" d="m188 318 1 3h-8v5h11v3h-14l2-1v-9z"/><path fill="#fadeb8" d="M203 313v2h-2l-2 7h6l2-4-1 5-3.94-.06q-2.02-.04-4.06.06l-1 1h10l-1 2h-9l1 3h-4a71 71 0 0 1 2.38-9.69l.7-2.32c1.28-2.77 2.82-3.99 5.92-3.99"/><path fill="#eba872" d="M204 309h3v9h-2v4h-6l2-7h3l-.56-2.44L203 310z"/><path fill="#e8b285" d="M204 216h12v1h-11v14l8-1c-3.42 3.15-6.44 3.56-11 4l.44-6.19.24-3.48C203 221 203 221 204 216"/><path fill="#e29050" d="M295 344h1v19l-1-4-4 2v-2l-1.56 1.06c-3.46 1.33-5.88.8-9.44-.06-2.15-3.23-2.2-4.28-2-8l2 2 2-1-1 6 14-1z"/><path fill="#e28f4e" d="m280 311 1 3 2-4h1v18h-1l-1-10-2 4-.33-1.9-.48-2.48-.46-2.46c-.6-2.52-.6-2.52-3.73-4.16-2.05-.45-2.05-.45-4.19-.62L267 310v-1c5.24-1.35 8.47-1.02 13 2"/><path fill="#e3b796" d="M18 330h2c1.51 4.82 2.97 9.61 4 14.56.97 4.61 2.43 9 4 13.44-3.34-1.67-3.81-5.45-5-8.81l-2.3-6.4c-.7-1.9-.7-1.9-1.88-4.07-1.34-2.82-.94-5.66-.82-8.72"/><path fill="#da8949" d="M172 232h3v3l-3 2 5 5-6.37-1.37-3.6-.78C164 239 164 239 162 237l10-3z"/><path fill="#dc8b4a" d="M215 320c2.75.13 2.75.13 6 1 4 4.95 4 4.95 4 8l3 1h-4a112 112 0 0 1-5-6l-2-1 .06 3.44C217 330 217 330 216 331q-2.5.06-5 0v-2l4-1z"/><path fill="#fadab8" d="m240 309 1 3-6 1v6l3.38-.62L242 318l2 2c-4.69 1.12-7.54.8-12-1l-1-7c3.07-2.73 4.9-3.34 9-3m-8 4 1 3Z"/><path fill="#eeac77" d="m236 84 2 1 .19 3.38c.37 3.59.37 3.59 2.43 4.75 2.16.93 2.16.93 5.38 1.87v3h-5v6c-3.76-3.76-4.76-10.08-5.2-15.28q.03-2.37.2-4.72"/><path fill="#f7dcca" d="m233 530 2 1c-2 3-2 3-4.94 4.38-3.4 1.8-4.4 3.22-6.06 6.62l-3-1 1-3-5 1v-5l2.94 1.38c2.84.86 3.8.74 6.53-.58A99 99 0 0 0 233 530"/><path fill="#d77f3c" d="M187 254h4v2h10v1l-1.9.52-2.47.73-2.47.7c-2.62 1.27-3.15 2.37-4.16 5.05l-3-1z"/><path fill="#c9793d" d="M200 79c4.75 1.88 4.75 1.88 7 3v10l-2 1 1-7c-2.5 2.17-3.44 3.73-4 7h-2v-7h2a85 85 0 0 0-2-7"/><path fill="#de8542" d="M215 312h8l1 5c-2.96 1.48-5.74 1.06-9 1z"/><path fill="#edb17e" d="M163 251c2.71 4.07 2.53 7.22 2 12-.8 2.8-1.83 5.31-3 8h-2l.44-5.94.24-3.34C161 259 161 259 162 258q.55-3.5 1-7"/><path fill="#f6d5bc" d="M134 477c5.27 3.4 10.27 6.88 15 11l-4 2-1-4-9-2z"/><path fill="#f7dab5" d="m257 344 2 4 4-1 2 6h-3l-1-2-1 12h-3z"/><path fill="#fbd8be" d="M364 429c0 3.14-.35 4.4-2 7l-3 1-2 3.06-2 2.94h-3l-1 3-3-1z"/><path fill="#fde2bf" d="M177 344c0 3.71-1.25 5.25-3.22 8.28-1.1 1.9-1.1 1.9.22 4.72h-3l-2 2v-4l-1-4v-3h2l1 2 2.44-2.44z"/><path fill="#e5995c" d="M174 343h5l-1 3v-2l-2.37 2.38L171 351l-1-3-5-1v-3c3.04 0 6 .55 9 1z"/><path fill="#fce4c8" d="M269.75 309.63c3.82.05 5.06.25 8.38 2.37 2.55 4.09 2.42 6.24 1.87 11l-2 2-1-3 1-1q-.43-3.5-1-7c-3.95-1.32-8.18-1.91-12 0l-1-3c1.64-1.64 3.5-1.29 5.75-1.37"/><path fill="#c27339" d="m160 496 7 1 1 4h3l3 3q2.96 1.58 6 3l-1 3c-14.16-9.37-14.16-9.37-19-13z"/><path fill="#c26c31" d="m410 365 2 3-10 16-1-4h2v-3h2l.31-3.37.69-3.63 3-2z"/><path fill="#feecd0" d="M225 312h1c.25 5.63.25 5.63-2 9l-1 3-2-1v-2l-6-1 1 9-3-1 1-9h8v-2h2z"/><path fill="#f1c19a" d="M228 246c3.3 3.3 2.95 7.5 3 12-.6 5.27-1.9 9.62-5 14l-1-4h2a86 86 0 0 0 1.06-14.94l-.01-2.07z"/><path fill="#e6b999" d="M168 44c-3.88 2.94-6.91 5.17-11.75 6.06l-2.66.5q-4.79.81-9.59 1.44c2.6-2.6 4.86-2.99 8.38-4 14.13-4.08 14.13-4.08 15.62-4"/><path fill="#c36f34" d="M261 509h4c-1.36 4.1-3.35 4.62-7.06 6.69l-3.35 1.88L252 519l-2-5 2.69.31c4.34-.4 5.38-2.23 8.31-5.31"/><path fill="#f8d8bf" d="M377 415c0 4.27-1.66 6.48-4 10v2l-8 2z"/><path fill="#e89d62" d="m240 309 6 1v6h-6v-3h-5v-1l6-1z"/><path fill="#f8d6bd" d="M413 364c1.14 3.99 1.03 6.94 0 11-2.42 1.92-3.88 3-7 3 1.76-4.97 4.4-9.43 7-14"/><path fill="#e9b687" d="m213.81 236.69 3.71-.05c3.7.38 5.56 1.1 8.48 3.36a22 22 0 0 1 2 5c-1.87-.19-1.87-.19-4-1-1.25-2.56-1.25-2.56-2-5l-3 1v-2l-14 1c2.84-2.84 4.85-2.3 8.81-2.31"/><path fill="#dc7b31" d="M185 347h8l-1 5h-7z"/><path fill="#dca479" d="m222.94 25.75 2.59-.08C228 26 228 26 232 29h-19c3.04-3.04 5.81-3.18 9.94-3.25"/><path fill="#f8d5b8" d="M271 507c-1 3-1 3-3.31 4.38-3 1.81-4.64 3.8-6.69 6.62l-5-1c2.44-2.62 5.13-4.63 8.06-6.69l2.66-1.88C269 507 269 507 271 507"/><path fill="#e0ad85" d="M39 378c2.36.17 2.36.17 5 1 1.3 2.36 1.3 2.36 2.19 5.31A53 53 0 0 0 50 394h-2c-1.4-2.05-1.4-2.05-2.94-4.75a64 64 0 0 0-4.75-7.45C39 380 39 380 39 378"/><path fill="#ecb788" d="M194 234h1l1 8c3.88.43 3.88.43 5.75-1.5L203 239l2 1-3 1-1 5-7-1z"/><path fill="#e2955d" d="M244 235c4.01 1.74 5.8 3.73 8.03 7.43 1.89 5 1.33 10.3.97 15.57h-1l-.08-2.2c-.36-6.14-1-9.85-4.92-14.8a198 198 0 0 1-3-6"/><path fill="#f6d7be" d="M115 462c4.95 2.63 8.88 6.27 13 10l-4 1v-3l-7-1-1-3 1-2h-2z"/><path fill="#f8f0ea" d="m143 491 6 3v2h6l3 6a28.2 28.2 0 0 1-15-11"/><path fill="#f9d7bc" d="M339 453c0 4.33-2.12 5.91-5 9l-3 1c-1.67 1.5-1.67 1.5-3 3l-2-2 2.34-1.9 3.04-2.48q1.49-1.2 3.02-2.46c2.56-2.06 2.56-2.06 4.6-4.16"/><path fill="#ee893d" d="m409 180 3 1h-2l-.68 1.7c-1.7 2.97-3.87 4.8-6.44 7.05l-2.76 2.42L398 194l-2-1c1.38-1.5 1.38-1.5 3-3h2l.75-1.75A22 22 0 0 1 407 182h2z"/><path fill="#daa882" d="M232 29c5.53.73 10.7 2.33 16 4v1c-6.33.35-11.1-.7-17-3z"/><path fill="#de813a" d="M240 279v2h-2l-1 3c-3 2-3 2-6.19 1.63L228 285v-2l4.88-2 2.74-1.12C238 279 238 279 240 279"/><path fill="#e1b18b" d="M368 74a63 63 0 0 1 19 6v1l-6.74-.68C378 80 378 80 375 79v-2l-7-2z"/><path fill="#e18644" d="M147 343h21l-4 1 3 5c-2.44-.81-2.44-.81-5-2l-1-3h-14z"/><path fill="#c9844f" d="M24 93c-5.62 4-5.62 4-9 4v15h-1q-.15-3.9-.25-7.81l-.1-2.24c-.1-5.47-.1-5.47 2.18-7.9 4.62-2.23 4.62-2.23 8.17-1.05"/><path fill="#f6dac6" d="m383.69 409.75 2.31.25c0 2.62-.31 4.5-1 7h-2l-1-2c-2.02-.65-2.02-.65-4-1 2.34-3.94 2.34-3.94 5.69-4.25"/><path fill="#c26b2c" d="m387 398 2 1c-.6 3.4-1.77 5.21-4.06 7.75l-1.66 1.86L382 410l-1-4h3v-5l3-1z"/><path fill="#f8cdae" d="M421 347c.88 2.46 1.1 3.7.3 6.22l-1.11 2.28-1.08 2.28L416 364h-2c1.76-5.92 4.4-11.42 7-17"/><path fill="#fcd8b7" d="M269 344h1v15l-3 1-4-5 1-2c3 1 3 1 4 3z"/><path fill="#f9d5bb" d="M432 304h1c.62 18.04.62 18.04-3.57 22.78L428 328c.75-7.3.75-7.3 2-10.87 1.38-4.32 1.66-8.63 2-13.13"/><path fill="#e9ab76" d="M184 219h1c-.1 2.92-.18 5.23-1 8-3.15 2.74-4.8 4-9 4l1.28-1.43 1.66-1.88 1.65-1.87c1.61-1.87 1.61-1.87 2.41-4.82h2z"/><path fill="#e8a268" d="M203 101h1l.38 3.44.62 3.56 2 1c-1.31 2-1.31 2-3 4h-3c-.18-4.55 0-7.88 2-12"/><path fill="#d9a177" d="M406 87c5.05.63 9.3 2.13 14 4v1c-5.65.35-9.03-.57-14-3z"/><path fill="#da9560" d="M186 70q4.7 1.78 9.25 3.94l2.08.96C199 76 199 76 200 79l-2 1v-2l-4-1v-2l-2.31.19C189 75 189 75 187.19 73.63 186 72 186 72 186 70"/><path fill="#d7996b" d="M103 66v3c-3.24.92-6.4 1.28-9.75 1.56l-2.98.26L88 71c3.88-3.88 9.57-5.51 15-5"/><path fill="#dca67f" d="m54 399 4 1 .25 1.88c.56 2.3.56 2.3 2.81 3.37L63 406v4l-3-1v-2h-2z"/><path fill="#e68942" d="M211 313v7h-2v5l-2-1c-.37-7.49-.37-7.49 1.44-10 1.56-1 1.56-1 2.56-1"/><path fill="#d49c71" d="m247 76 2 1a34 34 0 0 1-5 7c-3.31.44-3.31.44-6 0v-2c1.97-1.5 1.97-1.5 4.5-3.12l2.53-1.64z"/><path fill="#d79f75" d="m355 70 4.81.88 2.71.49C365 72 365 72 368 74l-8 2v-3l-5-1z"/><path fill="#dbac89" d="M63 410c1.94.31 1.94.31 4 1l1 3 2 1q1.58 3.46 3 7h-2v-2h-2a197 197 0 0 1-3-5l-1.69-1.69L63 412z"/><path fill="#f4cda5" d="M161 344v3h-11v5h-1v-7l4.88-.5 2.74-.28C159 344 159 344 161 344"/><path fill="#e97920" d="M271 313h3v2h2v7l-1.31-1.44c-1.71-1.8-1.71-1.8-4.69-2.56z"/><path fill="#deab84" d="M190 37c-4.5 4.64-8.87 4.76-15 5 1.46-2.91 3.36-3.1 6.38-4.19l2.96-1.1C187 36 187 36 190 37"/><path fill="#c26e32" d="m312 471 3 3-3.37 3-1.9 1.69C308 480 308 480 306 480l-1-5h7z"/><path fill="#f9d3b6" d="m325 465 2 2q-1.86 1.8-3.75 3.56l-2.1 2L319 474l-4-1z"/><path fill="#e7b991" d="m31 364 3 4 2-2 3 12a37 37 0 0 1-5.69-7L32 368.94C31 367 31 367 31 364"/><path fill="#fadebb" d="M291 359v3c-3.47 2.31-4.92 2.42-9 2-1.87-1.5-1.87-1.5-3-3 3.9-1.3 7.88-2 12-2m-8 3 4 1Z"/><path fill="#e67822" d="M181 313h9l-2 1v3h-7z"/><path fill="#c77133" d="m128 472 8 1 .31 1.94.69 2.06 3 1h-2l-1 2-4.5-3.44-2.53-1.93L128 473z"/><path fill="#da823f" d="m219 273 4 1c-4.75 3.68-8 4.59-14 5v-2l2.94-.37L215 276l1-2 3 1z"/><path fill="#f0c299" d="m232 230 6 1 2.69.19c2.31.81 2.31.81 4.12 3.87L246 238l-14-7z"/><path fill="#e0843d" d="M165 319h1v10h4v3l-5 1z"/><path fill="#feebd1" d="m262 313 3 2-1 1c-.15 3.37-.07 5.78 1 9h-3c-1.12-2.25-1.13-3.51-1.12-6l-.01-2.12C261 315 261 315 262 313"/><path fill="#d98747" d="M201 315h2l2 7h-6z"/><path fill="#da823e" d="M223.75 97.31 226 98v1l-2.94.38-3.06.62-1 2h-2v2l-5 1c7.9-8.12 7.9-8.12 11.75-7.69"/><path fill="#fad4b8" d="M153 492a65 65 0 0 1 8.75 5.13l2.42 1.63L166 500c-3 1-3 1-5.19.06L159 499v-2l-2.44-.81L154 495z"/><path fill="#f8d5ba" d="M76 425c7.48 6.15 7.48 6.15 10 10h-4c-3-3.21-3-3.21-3-6l-3-1z"/><path fill="#e7ab79" d="M148 197q-2.12 1.05-4.25 2.06l-2.4 1.16c-2.61.87-3.8.71-6.35-.22h2v-3c4.02-.7 7.08-1.17 11 0"/><path fill="#efb787" d="M228 100c3 0 3 0 5 1.88l2 2.12 3 2-1 2c-2.81-.62-2.81-.62-6-2-1.87-3.12-1.87-3.12-3-6"/><path fill="#d08b59" d="M268 41c3.38.25 3.38.25 7 1 1.44 2.06 1.44 2.06 2 4h-7z"/><path fill="#eac7a9" d="M205 32c-5.23 3.04-8.93 4.5-15 4 2.4-1.6 4.3-2.65 6.94-3.69l2.02-.82c2.37-.57 3.76-.25 6.04.51"/><path fill="#fce1c7" d="M280 344c2.16-.3 2.16-.3 4.63-.19l2.47.08 1.9.11 1 2-2 2v-2c-3.8 1-6.72 1.81-10 4 0-3 0-3 2-6"/><path fill="#daa175" d="m15 318 1 4h2v-2h2v3h-2v7c-2.5-2.5-2.36-3.67-2.62-7.12l-.23-2.76z"/><path fill="#f6cba3" d="M167 280h3l-1 3-3.44.44c-3.37.17-3.37.17-4.56 1.56-2.67.14-5.32.04-8 0v-1l2.8-.62 3.64-.82 3.62-.8c2.81-.46 2.81-.46 3.94-1.76"/><path fill="#c76521" d="m187 275 6 1v3h-10l4-1z"/><path fill="#ecbd96" d="M121 262h1l.18 2.34.26 3.04.24 3.02c.17 2.58.17 2.58 1.32 4.6l-4-1-.1-7.62c.1-2.38.1-2.38 1.1-4.38"/><path fill="#eeb786" d="M201 256v1l-1.86.52c-5.11 1.45-5.11 1.45-9.2 4.67L189 264l-1-7c4.39-.7 8.56-1.1 13-1"/><path fill="#bf6d34" d="M79 427c2.94.75 2.94.75 6 2 .69 2.06.69 2.06 1 4l3 1-2 2-4-3.94-2.25-2.21C79 428 79 428 79 427"/><path fill="#fde9cd" d="m265 325 5.92.8c2.52.24 4.65-.12 7.08-.8v2c-4.1 2-7.45 2.43-12 2l-2-3z"/><path fill="#e57826" d="m281 317 2 1v11c-3-3-3-3-3.07-5.26l.38-2.43.37-2.45z"/><path fill="#f5eee9" d="M133 483c3.31.63 3.31.63 7 2 1.94 3.13 1.94 3.13 3 6-3.95-1.67-6.82-4.18-10-7z"/><path fill="#e8ac7d" d="M188 264h1l.62 2.12.82 2.75.8 2.75c.69 2.36.69 2.36 1.76 4.38l-6-1z"/><path fill="#e37e31" d="M202 241h2v2l4-1v2h-2v3l-5-1z"/><path fill="#c07139" d="M94 442c3.67.3 4.78.76 7.31 3.56L103 448c-4.41 0-5.78-2.07-9-5z"/><path fill="#f8e2c6" d="M166 236v2l2.15.37 2.79.5 2.77.5 2.29.63 1 2-6.37-1.37-3.6-.78C164 239 164 239 162 237c2-1 2-1 4-1"/><path fill="#d29161" d="M420 92c6.52.62 6.52.62 8.94 2.56L430 96l-3 1v-2h-6z"/><path fill="#c2763f" d="M230 533c-2.62 2.13-2.62 2.13-6 4-3.37-.75-3.37-.75-6-2 3.75-1.12 3.75-1.12 6 0v-2c2.5-1.25 3.41-.78 6 0"/><path fill="#fad2b5" d="m233 530 2 1c-2.34 3.52-4.14 4.42-8 6l-3-1z"/><path fill="#fdf8f2" d="M100 454c4.93 2 8.1 5.64 11 10a23 23 0 0 1-7.75-5.56l-1.86-1.88C100 455 100 455 100 454"/><path fill="#fbf5f1" d="m377 438 2 1-3.31 4-1.87 2.25C372 447 372 447 369 447c1.26-3.79 2.65-4.04 6-6z"/><path fill="#f9d1b2" d="M364 429c0 3.22-.16 4.41-2 7-3.12 1.25-3.12 1.25-6 2l2.88-3.37 1.61-1.9A76 76 0 0 1 364 429"/><path fill="#f7ceb2" d="m405 378 1 2c-.64 1.91-.64 1.91-1.69 4.06l-1 2.16C402 388 402 388 398 389z"/><path fill="#e77824" d="M235 313h5v3l3 1h-7z"/><path fill="#c16b2e" d="m283 494 3 2-7 5-1-4h4z"/><path fill="#f6ccad" d="M346 446h2c-.62 2.38-.62 2.38-2 5-3.12 1.31-3.12 1.31-6 2l2.88-3.5 1.61-1.97z"/><path fill="#f6d1b7" d="m390 399 1 4-2 3-2-1-1 3-2-1z"/><path fill="#f7cfb3" d="m254 517 2 1c-2.25 2.56-2.25 2.56-5 5l-4-1z"/><path fill="#bf692a" d="M250 514h8l-5 5c-1.5-1.37-1.5-1.37-3-3z"/><path fill="#f7cfb4" d="m294 489 2 1c-2 3-2 3-5 4-1.67 1.5-1.67 1.5-3 3l-2-2z"/><path fill="#ffecd3" d="m225 311-2 2c-2.73-.03-5.3-.56-8-1v6h-1v-7c7.63-1.12 7.63-1.12 11 0"/><path fill="#c66421" d="M245 274c2.69.31 2.69.31 5 1v3l-2.31-.5c-2.73-.6-2.73-.6-5.69-.5 1.19-1.56 1.19-1.56 3-3"/><path fill="#db8e53" d="M157 226h2l-2 7-8 1c2-2 2-2 4.63-2.12l2.37.12-.06-2.44C156 227 156 227 157 226"/><path fill="#cc6113" d="M204 86h2l-1 7h-3c.88-5.87.88-5.87 2-7"/><path fill="#ebad78" d="m276 357 4 1v5h-4z"/><path fill="#db803c" d="m260 350 3 3-1 2q-.32 2.3-.56 4.63l-.26 2.47-.18 1.9h-1z"/><path fill="#df8745" d="m168 351 2 1a17 17 0 0 1-3 7v-5h-2v-2z"/><path fill="#e0843c" d="M219 322c1.88.69 1.88.69 4 2q1.04 2.49 2 5l3 1h-4c-5-5.23-5-5.23-5-8"/><path fill="#f2b37c" d="M160 308h4v4l-3 1-2-4z"/><path fill="#f1c7a0" d="M135 282c4.03.55 8.02 1.16 12 2v1h-10v-2z"/><path fill="#e87821" d="M186 267h2v7l-4-1z"/><path fill="#edb68a" d="M201 257c5.75-.12 5.75-.12 8 1v5l-2.31-1.87C204 258.94 204 258.94 201 257"/><path fill="#edcbab" d="M86 72c-4.1 2.99-6.98 3.3-12 3 7.18-4.79 7.18-4.79 12-3"/><path fill="#e6b892" d="M144 53c-3.04 2.02-4.2 2.32-7.69 2.63l-2.45.22L132 56c7.18-4.79 7.18-4.79 12-3"/><path fill="#f6e7dd" d="m184 516 3 1-.06 2.38c-.13 2.6-.13 2.6 1.06 4.62-1.94-.75-1.94-.75-4-2-.81-2-.81-2-1-4z"/><path fill="#f9f1e7" d="m340 473 2 1-2.87 3-1.62 1.69C336 480 336 480 334 480v-2l2-1 1-3z"/><path fill="#e48b49" d="M257 343c3.12.34 4.62.62 6.88 2.88L265 348l-1 3-.25-1.87c-.55-2.3-.55-2.3-2.69-3.25L259 345z"/><path fill="#fce1c1" d="m172 310 2 1-1 3h-2l-1 4-2-1c1.07-2.92 1.78-4.78 4-7"/><path fill="#e3b694" d="M344 66a70 70 0 0 1 11 3v1l-6 1-1-3c-2-1.2-2-1.2-4-2"/><path fill="#bf7036" d="m111 457 7 2-1 4q-3.03-2.46-6-5z"/><path fill="#e38e4c" d="M193 344h5l-1 7c-2-3-2-3-2-6z"/><path fill="#fee2bd" d="M224 323a91 91 0 0 1 4 4v2h-3l-2-5z"/><path fill="#ef7719" d="m265 317 3 1c.69 2.06.69 2.06 1 4h-4z"/><path fill="#e28034" d="m173 279 2 1c-1.31 2-1.31 2-3 4h-3c.31-1.94.31-1.94 1-4z"/><path fill="#ecb386" d="M172 232h3v3c-2.7 1.35-5 1.07-8 1 3-2 3-2 5-2z"/><path fill="#e8a979" d="M174 202h6l1 4h-4v-2l-3-1z"/><path fill="#eaa976" d="M127 202h6a283 283 0 0 1-5 5h-1z"/><path fill="#c16b2f" d="M43 87v2h-5l-1 3-3-3c6.75-2 6.75-2 9-2"/></svg>