<svg xmlns="http://www.w3.org/2000/svg" width="527" height="197" fill="none" viewBox="0 0 527 197"><path fill="#fcf8f2" d="m0 59.97 1.26.68c.18.59.24 1.26.7 1.4 1.96.6 5.08.21 7.2.28l289.7.9 88.82-.22 27.6-.27c3.36 0 9.29-.17 12.41.12 11.4.18 22.23.53 33.7.25q10.7-.3 21.39-.46c4.9-.1 11.29-.36 16.15.02 5.7-.1 13.01.01 18.67.4-9.94 4.13-19.9 8.3-29.62 12.9l-1.26.58c-2.94 1.88-7.25 3.62-10.44 5.28-7.11 3.7-13.89 7.8-20.61 12.16-1.83 1.18-5.89 3.68-7.3 5.03 7.17 5.64 24.45 14.27 33.07 18.05 6.38 2.79 12.24 5.68 18.84 8.37 4.43 1.8 13.63 5.23 17.4 7.28-2.95.2-6.07.3-9.04.32-9.68.07-19.48.72-29.14.63-3.16.27-9.74.1-13.12.12l-30.72.02-99.82.01q-26.88.33-53.76.14c-23.57-.21-47-.83-70.6-.78q-104.85 1.03-209.67-1.05c-.22.46-.45.9-.59 1.38l-1.22.6z"/><path fill="#e5d0b0" d="m9.15 62.33 289.72.9 88.81-.22 27.6-.27c3.36 0 9.29-.17 12.41.12 11.4.18 22.23.54 33.7.25q10.7-.3 21.39-.46c4.9-.1 11.29-.36 16.15.02 5.7-.1 13.01.01 18.67.4a669 669 0 0 0-29.62 12.9q-.63.31-1.26.58c-2.94 1.88-7.25 3.62-10.44 5.28-7.11 3.7-13.89 7.8-20.61 12.16-1.83 1.18-5.89 3.68-7.29 5.04 7.16 5.63 24.45 14.26 33.06 18.04 6.38 2.8 12.24 5.68 18.84 8.37 4.43 1.8 13.63 5.23 17.4 7.28-2.95.21-6.07.3-9.04.32-9.68.08-19.48.72-29.14.63-3.16.27-9.74.1-13.12.12l-30.72.02-99.82.01q-26.88.33-53.76.14c-23.57-.21-47-.82-70.6-.77Q106.63 134.2 1.8 132.13c-.4-.5-.18-1.28.04-1.8l.7-.2c.68.02 1.59.07 2.23.03-.63-.55-.95-.37-1.64-1.2-.19-.74.14-1.65.35-2.4.96-.19 9.9.1 11.24.14l25.26.55q34.92.57 69.86.78l234.5.52 72.1.16c23.8.1 47.81.69 71.6-.34q1.96-.1 3.96-.16c-9.98-5.17-21.31-9.44-31.36-14.83-8.32-4.45-15.23-8.94-22.95-14.22 11.26-7.66 20.43-13.82 32.6-20.5 7.73-4.23 15.03-7.09 22.55-10.95-4.93.17-10.59-.18-15.65-.2l-31 .03-72.96.17-232.83.2-95.85-.1-25.65.04c-5.32 0-10.5-.24-15.83.16-.62 2.31-.7 4.44-1.54 6.87-.08-2.26.09-4.56.25-6.8 1-.28 2.11-.5 3.14-.7-.2-.08-.63-.19-.72-.33-2.8-4.84 5.55-1.2 7.48-2.64-.93 0-1.16.16-1.84-.28-2.25 0-5.95-.1-8.14-.52l-.07-.62c.98-.92 5.43-.15 7.44-.64z"/><path fill="#fcf8f2" d="M2.56 130.14c.67.01 1.58.06 2.22.02 7.78.4 16.22.19 24.04.3l40.77.64 143.79.1 233.69.89 28.75-.11c1.63-.01 11.37-.49 12.03.11l-.16.68c-1.9.9-6.76 0-8.19.9-3.16.27-9.74.1-13.12.12l-30.72.02-99.82.01q-26.88.33-53.76.14c-23.57-.21-47-.82-70.6-.78q-104.85 1.03-209.67-1.05c-.4-.5-.18-1.28.04-1.8zm6.59-67.81 289.72.9 88.81-.22 27.6-.27c3.36 0 9.29-.17 12.41.12 1.51.37 2.15.41 3.71.5l-.18-.05.4.2c-1.56.06-3.68-.11-4.95.34l-173.2.72h-54.7l-17.02-.06c-2.54-.02-6.58-.18-9 .01l-1.71-.02c-5.48-.56-12.4-.08-17.96-.03-23.33.19-46.9-.6-70.21-.19-8.3-.03-17.15-.16-25.4.06-1.55-.17-5.6-.07-7.3-.07l-14.13.02-16.15-.08c-3.4-.05-6.64-.23-10.04-.08-2.25 0-5.95-.1-8.14-.52l-.07-.62c.98-.92 5.43-.15 7.44-.64zm434.82 36.7c3.06-2.6 7.46-5.05 10.9-7.22 8.7-5.46 17.53-10.64 26.8-15.08 1.37-.65 6.44-3.6 7.49-3 .03 1.4-1.8 1.4-2.44 2.82-2.94 1.88-7.25 3.62-10.44 5.28-7.11 3.7-13.89 7.8-20.61 12.16-1.83 1.18-5.89 3.68-7.3 5.04 7.17 5.63 24.46 14.26 33.07 18.04-.09.4-.15.42-.48.71-4.21.92-31.92-15.5-37-18.75"/><path fill="#e7d8cf" d="M427.69 62.86c11.4.18 22.23.54 33.7.25q10.7-.3 21.39-.46c4.9-.1 11.29-.36 16.15.02-3.71.14-10.15.23-13.57.67l.62.08c-4.96.42-8.95-.06-13.73.02l-33.96.46c-2.97.02-9.06.76-11.62-.05 1.27-.45 3.4-.28 4.95-.35l-.4-.2.18.06a17 17 0 0 1-3.71-.5M57.46 64.34c8.26-.22 17.11-.1 25.41-.06-2.22.9-22.94.81-25.4.06"/><path fill="#ddc9b4" d="m171.04 64.5 1.71.02.56.95c-.4 1.33-2.08 1.49-3.15.65-.04-.88.14-.78.88-1.62m319.37-.59c2.52-.1 13.14-.07 15.16.71l-.03.43-.95.78.17-.87c-.38-.17-12.8-.59-14.55-.8zm-388.01.69 1.39.04.17.23c-.2 1.1-.07 1.33.4 2.38l-.08.25-.4-.15c-.7-1.01-1.13-1.56-1.47-2.76m390.81 66.71c1.26-.09 4.04-.37 5.11-.03l.04.35-.47.39a43 43 0 0 1-4.68-.7m-10.82-2.36.51.28v.38c-.64.57-1.21 1.03-1.89 1.56l-.22.24-.13-.56c.4-1.08.79-1.26 1.74-1.9"/><path fill="#e7d8cf" d="m0 59.97 1.26.68c.18.59.24 1.26.7 1.4 1.96.6 5.08.21 7.2.28l-.08.02c-2.01.5-6.46-.28-7.44.64l.07.61c2.19.43 5.89.53 8.14.53.68.43.91.28 1.84.27-1.93 1.44-10.29-2.19-7.48 2.65.09.14.52.25.72.32-1.03.22-2.13.43-3.14.7-.16 2.25-.33 4.55-.25 6.8v28.42c.01 4.35.2 10.1-.01 14.25.2 2 .5 7.65 1.96 9.01-.2.76-.54 1.67-.35 2.4.7.84 1.01.66 1.64 1.21-.64.04-1.55 0-2.22-.03l-.71.2c-.22.52-.44 1.3-.04 1.8-.22.46-.45.9-.59 1.38l-1.22.6z"/><path fill="#ddc9b4" d="M1.26 60.66c.18.58.24 1.25.7 1.4 1.96.6 5.08.2 7.2.27l-.08.02c-2.01.5-6.46-.28-7.44.64l.07.61c2.19.43 5.89.53 8.14.53.68.44.91.28 1.84.28-1.93 1.43-10.29-2.2-7.48 2.64.09.14.52.25.72.32-1.03.22-2.13.43-3.14.7-.16 2.25-.33 4.55-.25 6.8v28.42c.01 4.35.2 10.1-.01 14.25l-.24.23-.14-.18c.17-12.95-.18-26.16 0-39.15.1-6.57-.6-10.9.1-17.78"/><path fill="#c3a483" d="M1.22 133.5c-.04-1.22-.5-6.64.26-7.28.66.27.46.18.91.83-.04.99.22 2.8.17 3.08l-.71.2c-.22.52-.44 1.3-.04 1.8-.22.46-.45.9-.59 1.38"/></svg>