<svg xmlns="http://www.w3.org/2000/svg" width="181" height="226" fill="none" viewBox="0 0 181 226"><path fill="#f57824" d="M88.85 0c3.85-.3 82.04 33.43 91.22 37.63.81 12.07.16 29.77.24 42.53.08 12.14.62 32.8-.6 44.51-.64 6.3-2 12.5-4.05 18.48-12.89 38.18-50.14 64.93-84.76 82.18-2.5-.46-6.82-2.7-9.14-3.95C45.4 201.82 6.67 170.58.9 127.02c-1.43-10.8-.75-25.54-.74-36.67Q.04 63.87.49 37.4C29.68 24.67 59.47 12.36 88.85 0M26.89 158.6q31.74-.3 63.5-.18h63.12c12.61-23.66 13.43-31.39 13.24-57.85-.12-16.3-.88-36.73-.04-52.85A2258 2258 0 0 1 90.48 15.6L13.75 47.7c1.07 16.76.3 36.64.27 53.52-.05 24.77-.1 35.1 12.87 57.38m31.5 32.14c4.75 3.89 10.03 7.31 15.13 10.76 11 .14 23.05.4 33.98 0l7.84-5.54 7.95-5.16zm67.99-21.44-90.92.14 9.05 10.18h11.76c26.37 0 53.63.35 79.93-.04 2.9-3.18 6.5-6.91 9.2-10.16z"/><path fill="#f57824" d="m85.92 46.8 8.94.03-.08 13.49 8.37-7.95c1.66 1.34 4.44 4.74 5.93 6.47-3.86 4.16-9.8 9.34-14.1 13.28-.21 6.25-.15 12.8-.18 19.06a783 783 0 0 0 16.85-9.64c1.52-5.71 1.78-12.63 3.93-17.83 2.2-1.59 6.01-1.22 7.85 1.08.64 2.9-.83 7.8-1.54 10.89 3.6-2.14 7.4-4.15 11.08-6.15l4.49 7.44-11.23 6.58q5.18 2.43 10.32 4.93c-.9 2.48-2 5.15-2.98 7.62l-17.9-6.5c-5.35 2.57-11.73 6.44-16.97 9.43 5.5 2.66 11.66 6.4 17.04 9.5a336 336 0 0 1 17.53-6c1.21 2.11 2.43 5.03 3.45 7.29l-10 4.6 10.58 6.36-3.8 7.9-11.58-6.3c.79 3.43 2.5 8.22 1.05 11.15-1.77 1.9-4.5 1.85-7.16 2.15-1.51-6.81-2.75-12.37-3.66-19.3l-17.37-9.96-.05 19.12c4.93 4.4 9.85 8.18 14.44 13.03-1.5 2.14-3.75 4.43-5.56 6.38l-8.67-7.41c.03 2.74.45 7.4-1.06 9.2-2.42.1-5.26.59-7.16-.77-1.24-2-.71-6-.61-8.53l-8.86 7.34-5.43-6.1c4.31-4.87 9.36-8.88 14.33-13.07-.37-4.8-.09-14.13-.06-19.22a561 561 0 0 0-16.74 9.81c-.94 5.44-2.04 13.35-3.87 18.35-3.24 2.08-5.86 1.24-8-1.73-.6-2.94 1.03-7.51 1.9-10.62-3.62 1.78-8.02 4.47-11.59 6.52-1.53-2.52-2.7-5.35-3.91-8.05l10.86-6.15c-3.77-1.47-8.1-2.27-9.56-6.16.53-2.17.77-2.38 2.39-3.91 4.4-1.81 12.4 2.28 17.7 3.98a1703 1703 0 0 1 16.46-9.36c-5-3.28-10.9-6.54-16.1-9.56-6 1.91-12.15 4.2-18.1 6.33-1.1-2.37-2.18-5.13-3.2-7.57 3.2-1.54 7.03-3.1 10.33-4.56l-10.73-6.64c1.16-2.53 2.58-5.2 3.86-7.7 3.67 1.8 7.82 4.19 11.46 6.17-1-4.25-3.6-10.19.4-12.88 2.62-.07 3.05.03 5.57.74 1.7 2.96 3.52 14.54 4.24 18.5 5.57 2.7 10.62 6.27 16.72 9.13-.3-6.27-.3-12.82-.38-19.12-3.43-3.54-10.03-9.16-14.05-13l5.02-6.12c2.95 1.85 6.52 4.94 9.29 7.21.05-4.29-.09-8.88-.14-13.2"/></svg>