<svg xmlns="http://www.w3.org/2000/svg" width="186" height="222" fill="none" viewBox="0 0 186 222"><path fill="#f57824" d="m85.9.33 1.39.18c1.52 4.86.5 92.01.37 103.19-16.94-12.4-13.3-22.57-13.25-41.9l.17-40.17c-5.1 1.9-15 7.03-20.35 9.57L13.7 50.43c-.03 21.37-2.6 69.24 3.83 87.78 8.36 24.1 34.67 48.61 57.6 59.72.96-16.56.14-45.04.05-62.38l-3.02-1.8c-11.04-6.78-14.94-12.9-17.9-25.24-13.24 20.78-12.87 37.6 1.91 57.44-3.3-1.69-5.8-3.28-8.93-5.27L45 158.77c-20.5-17.98-15.3-40.42-2.1-61.17 5.97-9.35 12.32-15.62 19.6-23.8-1.07 22.38 4.97 32.87 25.19 42.45 1.1 32.9.11 71.72.09 104.91-1.56-1-3.35-1.95-5.04-2.88-35.1-19.32-75.1-46.85-81.7-89.58C-.65 117.82.2 102.84.3 91.75l.14-51.06c3.08-1.56 6.45-3.08 9.6-4.53C35.39 24.56 60.36 11.36 85.92.33M98.54 0l85.97 41c.39 20.07 2.1 79.7-2.26 96.14-9.79 36.83-42.55 60.06-73.74 78.03-3.26 1.87-6.65 3.55-9.99 5.25q-.05-7.68.01-15.38c30.58-17.67 66.81-41.38 72.13-79.7 1.27-9.1.62-20.95.59-30.35l-.02-44.78c-7.04-2.67-18.5-8.47-25.61-11.83L98.49 15.9c-.22-4.94 0-10.9.05-15.91"/><path fill="#f57824" d="m99.13 44.17 8.5-.17-.07 21.5c3.63-3.04 16.54-15.86 16.79-3.42-2.68 3.64-12.71 10.7-16.78 13.75q.2 13.03-.2 26.05c6.99-4.94 14.6-9.06 22.05-13.27q1-11.25 2.14-22.48c2.28-.13 5.8-.07 8.17-.1-.57 6.24-1.11 11.7-2.04 17.91 4.54-3.05 12.16-7.5 17.2-9.41l4 6.38c-3.91 2.81-12.03 7.44-16.39 10.06l14.66 7.65c-.8 1.98-2.44 5-3.45 7-6.86-3.35-13.5-6.76-20.7-9.33a287 287 0 0 0-21.62 12.6c6 4.15 15.06 9.15 21.58 13.12 3.82-1.77 18.46-9.38 21.7-8.35 4.63 9.23-5.53 10.3-13 13.44 5.21 2.8 12.38 6.67 16.95 10.18l-3.68 6.74c-5.63-3.2-11.15-6.4-16.94-9.33.43 3.63 2.44 14.48.08 17.02-2.35.37-3.68.74-5.97.18-1.67-4.05-2.32-17.29-2.73-22.34q-10.83-6.51-21.8-12.78.04 12.66-.1 25.32c5.86 4.77 12.04 8.92 17.96 13.93l-4.56 6.37-13.37-9.93c-.06 6.4 1.77 15.14-1.22 19.87-2.05 1.6-4.23 2.48-6.35.67-2.15-6-.65-113.78-.8-128.83"/></svg>