<svg xmlns="http://www.w3.org/2000/svg" width="229" height="216" fill="none" viewBox="0 0 229 216"><path fill="#fd6610" d="M113.54 0c2.92.28 5.17 2.13 7.2 4.11C133.18 16.28 148 28.12 159.8 40.87c-.2-4.74-1.35-18.38.51-21.9 3.48-2.72 26.85-2.65 30.57-.03 2.1 3.43 1.09 44.63.74 51.07 4.97 5.39 35.9 31.14 36.44 34.71a5 5 0 0 1-1.02 3.82 5.7 5.7 0 0 1-3.99 2.2c-2.9.18-17.36-14.22-20.49-16.89-.26 6.71.12 14.47.07 21.35l-.06 66.43c-.01 9.32.18 18.63.02 27.93-.07 4.2-2.42 5.53-6.34 5.8-6.4.43-12.98.17-19.42.14q-18-.15-36.02 0c-34.57-.34-69.37-.02-103.96.06-1.86-.03-8.82-.19-9.92-1.8-2.7-4-1.81-14.69-1.8-19.57l.05-25.54c0-24.66-.41-50.55.36-75.13-3.6 4.2-15.52 15.5-20.38 17.7-8.41-5.2-5.27-7.27.3-12.63 10.5-10.1 21.27-19.83 32.02-29.66l41.58-38.46C89.23 21 99.3 11.1 109.6 1.72c1.03-.94 2.6-1.35 3.93-1.72m-.09 205.32h53.85c7.5-.01 18.08-.4 25.3-.08l-.06-120.28c-9.38-8.07-75.98-71.98-78.89-72.8C88.32 36.67 61.4 60.86 35.53 84.9c.87 18.09.08 42.72.07 61.21l-.03 38.77c0 6.2.22 14.34-.07 20.33 25.86.33 52.06.12 77.95.1m55.73-155.95c4.49 3.65 8.57 8.46 12.65 11.63.7-1 .24-6.22.24-7.86-.03-8.51-.26-17.07 0-25.58-4.2-.25-7.8-.3-12.01-.28l-.7.72c-.25 6.24.33 15.46-.18 21.37"/><path fill="#fd6610" d="M114.56 104.33c5.99-5.63 12.33-9.24 20.76-9.28a25.2 25.2 0 0 1 18.31 7.67c5.62 5.76 8.1 13.14 8.13 21.14.04 17.16-16.94 28.77-28.7 40-6.01 4.55-12.14 12.04-18.49 15.35-9.4-4.52-21.74-19.9-30.54-26.55-3.2-2.41-9.38-9.2-11.54-12.48a30 30 0 0 1-4.94-14.4c-1.17-15.36 8.39-29.42 24.4-30.53 8.77-1.43 16.73 2.94 22.6 9.08m-.04 63.3q6.11-5.86 12.37-11.55c2.18-1.94 5.55-4.6 7.4-6.56 3.68-3.6 7.39-7.24 11.1-10.82 11.93-11.45 7.92-33.1-10.36-34.33-10.68-.73-15.23 12.33-20.66 13.3-5.75-1.1-5.81-13.56-22.34-13.03-3.4.9-6.05 1.62-8.72 3.96-7.73 6.75-7.77 20.51-1.5 28.18 3.5 4.28 8.2 8.27 12.23 11.99z"/></svg>