<svg xmlns="http://www.w3.org/2000/svg" width="205" height="249" fill="none" viewBox="0 0 205 249"><path fill="#fd6610" d="M100.98.04c7.16-.5 9.52 4.24 15.06 8.21a152 152 0 0 0 65.74 26.8c6.58 1 14.04 1.53 20.35 3.42 1.82.47 2.56 3.67 2.62 5.43.32 9 .08 18.17.06 27.18l.01 32.92c-.03 28.1-1.58 44.03-15.44 69.8-15.6 29-39.39 48.86-67.47 65.3-3.77 2.2-13.8 8.24-17.38 9.3-5.87-.3-13.03-5.22-18.13-8.04-25.1-13.9-44.58-30.16-61.67-53.04C0 154.22-.77 118.65.28 79.1.43 67.64-.2 54.35.85 42.85c.6-6.52 9.32-6 14.78-6.62 23.7-2.7 47-10.23 67.25-22.97C89.2 9.28 94.9 4.36 100.98.04m-82.23 154c1.53 6.43 4.82 12.1 8.06 17.8 17.66 31.13 45.62 49.27 76.27 65.78 2.4-.55 10.93-5.76 13.38-7.17 22.05-12.75 45.13-31.26 58.76-53.03a125 125 0 0 0 11.47-23.28l-60.9-56.12-16.24-15.1c-1.5-1.38-4.97-5.26-6.74-5.69-20.6 19.6-42.62 38.5-63.33 58.01-6.43 6.05-14.67 12.77-20.73 18.8M11.2 47.33c.36 15.46 0 31.39.09 46.88.12 18.62-.83 31.42 3.97 49.47 4.2-4.31 8.8-8.1 13.2-12.21q16.8-15.65 33.77-31.11l22.53-20.78c4.92-4.61 9.88-9.46 15.07-13.79 1.28-1.06 2.93-1.1 4.56-1.2 4.03 1.96 18.3 16.46 22.53 20.4l41.94 38.94c7.1 6.49 14.2 13.59 21.76 19.49 1.17-6.4 2.98-13.88 3.3-20.35 1.23-25.1-.6-50.7.57-75.76-23.93-3.08-42.28-7.13-63.88-17.9a131 131 0 0 1-13.46-7.73c-2.23-1.5-12.92-9.66-14.29-9.8-5.49 4.05-11.27 8.3-17.09 11.82-20.65 12.45-50.4 22.23-74.57 23.64"/><path fill="#fd6610" d="M79.7 166.04c1.78-.02 4.59-.03 6.1-.07 10.75-.28 12.86-.6 12.51 11-.09 3 .3 7.2-1.05 10.22-.5 1.13-1.6 1.25-2.63 1.6-3.25.08-17.18 1.4-17.86-2.15-.96-5.12-1.19-13.66.28-18.8.3-1.03 1.75-1.52 2.66-1.8m30.59-31.72c4.05-.09 12-.42 15.64.04 5.34.67 3.81 16.43 3.1 20.15-.25 1.26-1.5 1.84-2.57 2.31-2.95.01-16.69 1.25-17.9-1.61-1.9-4.51-1.21-13.22-.72-18.2.14-1.5 1.36-2.02 2.46-2.69m1.14 31.71c2.63-.02 14.27-.4 15.92.75 3.33 2.34 2.46 16.3 1.42 20.11-.32 1.18-1.8 1.63-2.86 1.95-1.42.02-4.14.02-5.33.06-13.17.5-13.61-.54-13.19-13.55.14-4.02-.52-8.07 4.04-9.32m-32.2-31.8c4-.06 15.3-1.04 17.8 1.65 1.74 3.89 1.36 13.77.71 18.19-.23 1.57-1.1 2-2.22 2.7-3.38.24-16.23.9-18.31-1.1-1.83-3.65-1.17-13.84-.63-18.13.23-1.84 1.17-2.4 2.65-3.31"/></svg>