<svg xmlns="http://www.w3.org/2000/svg" width="188" height="227" fill="none" viewBox="0 0 188 227"><path fill="#f57824" d="M93.15 0c3.79.1 83.39 36.57 94.04 41.24q.27 22.14.21 44.27c.02 9.77-.2 19.82.03 29.56 1.28 55.93-48.15 89.99-93.11 111.67-20.32-8.03-51.52-28.3-66.48-44.57C4.52 156.77-.62 138.9.18 106.07l13.41-.13q-.55 11 .51 21.94c5.43-.06 28.43 1.16 31.29-1.04 1.17-1.85 1.19-1.25.9-3.02-1.17-1.98-3.83-3.11-5.93-4.26q-.14-3.15-.2-6.3c-.2-11.86.33-25.08 9.11-34.07a25 25 0 0 1 12.37-6.96c6.3-1.48 55.93-.8 65.58-.87l.06 21.48-35.87-.04c-10-.01-28.62-3.2-29.28 10.43-1.76 13.1 2.57 31.7-6.4 41.17-7.36 7.78-23.55 6.43-33.86 6.5 17.24 30.3 42.58 45.03 72.3 60.88 31.42-16.28 66.82-40.5 77.11-76.07 3.45-11.93 2.57-26.63 2.56-39.11l-.05-46.01L94 14.33A6867 6867 0 0 0 13.56 51c-.63 14.66-.15 32.98-.25 48l-13.27.18Q-.08 70.34.18 41.5C9.02 36.83 22.76 31.2 32.17 27q30.4-13.68 60.98-27"/><path fill="#f57824" d="M101.22 107.87c5.1 1.9 21.65 32.46 22.87 39.26a23 23 0 0 1-3.74 17.27c-3.76 5.28-9.67 7.8-15.85 8.9-5.87.12-11.66-.61-16.47-4.13-21.73-15.88 3.81-47.74 13.2-61.3m39.75-42.41a34 34 0 0 1 6.38.06c1.3 2.48.62 28.82.58 33.43l-8.93.1-7.03.08c-.91-8.83-.38-24.48-.24-33.53zm11.71 6.14 12.12-.15c.55 5.6.26 15.7.2 21.56q-6.15-.03-12.28.18c-.16-7.1-.06-14.46-.04-21.58"/></svg>