<svg xmlns="http://www.w3.org/2000/svg" width="253" height="213" fill="none" viewBox="0 0 253 213"><path fill="#fd6610" d="M148.86.3c9.7-.8 20.54.35 30.42-.19 11.33-.61 16.78 12.49 9.42 20.42-4.27 4.59-12.16 3.61-17.98 3.5.25 4.22.15 8.9.14 13.16 14.22.52 29.33 5.54 41.23 13.3A88 88 0 0 1 250.82 107c10.05 48.53-22.53 94.23-70.47 104.04-2.2.64-10.57 1.32-13.03 1.36a84.8 84.8 0 0 1-60.56-23.83 89.4 89.4 0 0 1-27.4-62.98c-.5-42.95 31.1-82.18 74.2-87.99 2.58-.35 4.9-.48 7.5-.5-.2-3.37-.25-9.58.16-12.83-3.88.08-10.44.27-13.85-1.26-10.43-4.7-8.72-18.75 1.49-22.72m21.7 201.28a77.27 77.27 0 0 0-8.64-154.3 77.27 77.27 0 1 0 8.64 154.3m7.76-186.18c2.74.07 4.36-.39 4.98-3.44-1.05-4.2-10-3.05-13.6-3.09-5.06-.05-10.36.04-15.42.2-1.61.04-3.05-.12-4.37.7-.67.87-1.03 1.4-.91 2.58.09 1 .6 1.89 1.42 2.46 1.77 1.25 24.04.6 27.9.6"/><path fill="#fd6610" d="M165.23 75.05c1.5.12 3.46.77 4.44 1.97 2.3 2.84 1.35 32.59.9 37.85 2.81-2.82 23.98-24.96 26.8-24.66 12.13 1.3.25 11.54-3.37 14.96-6.29 5.88-14.28 12.99-19.88 19.52-.56.64-1.55 3.48-1.87 4.43-2.18 1.84-3.66 2.47-6.27 3.51-2.6-.9-4.93-1.78-6.54-4.38-2.93-4.75 1.34-7.42 1.45-11.06.4-12.66-1.08-26.67.62-39.15.18-1.3 2.55-2.38 3.72-2.99M3.51 117.25c5.96-.32 50.98-.78 54 .15 1.46.44 2.97 1.28 3.68 2.7.54 1.08.48 2.64.03 3.76-.64 1.59-2.25 2.2-3.71 2.84l-34.24.11-13.65.13c-3.78.03-10.48.13-9.53-5.44.4-2.34 1.6-3.09 3.42-4.25m14.47 39.1c7.91-.19 47.82-1.12 52.52.83.85.35 1.41 1.2 1.73 2.04a5.5 5.5 0 0 1-.26 4.55c-.87 1.52-2.47 1.81-4.04 2.18-6.12.31-47.6.82-51.34-.42a5 5 0 0 1-2.87-2.7c-.51-1.2-.5-2.54.08-3.72.84-1.7 2.52-2.17 4.18-2.76M63.2 77c9.59-1.11 14.33 8.54 3.83 10-3.49.5-9.45.16-13.18.15q-12.79-.05-25.58.04c-3.98.03-9.82.03-10.07-5.11-.32-6.2 10.4-4.93 13.86-4.98 10.4-.15 20.8.27 31.14-.1"/></svg>