<svg xmlns="http://www.w3.org/2000/svg" width="520" height="480"><path fill="#ef7521" d="M258 38c1.32 37.7.95 75.38.63 113.09q-.12 12.94-.2 25.88L258 230c-4.18.14-6-.26-9.31-2.87l-2.12-1.62L245 224v-2l-1.75-.69c-6.86-4-8.68-11.98-10.8-19.16a33 33 0 0 1-.57-7.15v-9.9l.03-19.5q0-9.45.02-18.89l.02-21.5L232 81l-9.86 4.7-2.77 1.31q-8.27 3.94-16.53 7.9a1667 1667 0 0 1-42.49 19.61l-2.7 1.2-4.97 2.2c-3.7 1.65-7.29 3.38-10.8 5.4a165 165 0 0 1-12.68 6.35l-2.1.97L122 133a61056 61056 0 0 0-.08 70.54l-.03 29.83v11.57l-.01 3.39c.01 11.06.36 22.13 2.93 32.92l.54 2.33c2.61 10.8 7.41 20.06 12.74 29.74q1.11 2.07 2.19 4.15c5.33 10.16 12.43 19.56 20.32 27.86C162 347 162 347 162 349h2c1.34 1.4 1.34 1.4 2.94 3.38A100 100 0 0 0 186.19 370l2.81 2v2l1.88.94L195 377v2l2.13.75A44 44 0 0 1 206 385v2c2.65 1.08 5.28 2.1 8 3l4 4q2.74 1.88 5.56 3.63l2.88 1.78L229 401l3 2c.72-3.25 1.14-6.3 1.19-9.62l.05-2.73.03-2.94.05-3.14q.2-14.26.28-28.52.06-9.58.2-19.16.16-9.26.19-18.53.02-3.53.1-7.06.09-4.94.06-9.88l.1-2.94c-.04-2.82-.19-4.86-1.25-7.48-3.05-2.66-6.37-4.27-10-6a84 84 0 0 1-7-5v-2l-1.73-.73c-11.36-6.36-16.73-20.46-20.27-32.27-11.75 17.7-17.17 37.89-13.38 59.07 3.18 13.07 8.77 26.5 17.13 37.08C199 343 199 343 199 346c-4.68.47-7.33-1-11.31-3.37l-3.24-1.9L182 339v-2l-1.75-.8c-6.1-3.26-11.15-8.7-15.25-14.2v-2h-2c-5.07-8.82-9.15-16.88-11-27l-.55-2.39c-4.46-25.72 7.88-51.94 22.24-72.52q2.63-3.69 5.3-7.32c1.97-2.56 1.97-2.56 3.01-4.77h2l.6-2.02c1.96-4.16 4.84-7.2 7.9-10.6l5.11-5.74c1.58-1.8 1.58-1.8 3.39-4.64h2v-2h2v-2h2v-2l3-1 2 1 .01 1.95c.26 23.33 3.94 41.23 20.58 58.84 7.41 6.8 16.46 10.73 25.41 15.21v196c-5.66-.94-8.73-2.4-13.31-5.44l-4.28-2.75-2.21-1.42c-3.47-2.2-7.02-4.26-10.57-6.33-18.01-10.53-35.74-21.3-51.84-34.63-1.74-1.5-1.74-1.5-3.79-2.43v-2l-2.06-.6c-4-1.9-6.77-4.66-9.94-7.71l-1.83-1.73q-5.16-4.9-10.17-9.96l-2.68-2.6-2.63-2.59-2.68-2.6C138 364 138 364 138 362h-2c-1.26-1.3-1.26-1.3-2.69-3.16l-1.6-2.07-1.71-2.27-1.76-2.32c-21.46-28.72-34.66-61.03-34.47-97.18v-4.65q0-6.23.03-12.47l.01-13.1q.01-12.35.05-24.71l.04-28.18q.03-28.95.1-57.89l3.3-1.9 1.85-1.05a208 208 0 0 1 8.47-4.49l3.3-1.68c3.13-1.51 6.32-2.71 9.6-3.9 10.53-4 20.52-9.23 30.6-14.23l12.2-6.02 3-1.47Q177 74 187.78 68.94a479 479 0 0 0 13.77-6.75c3.7-1.87 7.38-3.63 11.25-5.13 9.4-3.62 18.52-8.04 27.37-12.84l2.6-1.4q2.49-1.36 4.98-2.76l2.3-1.25 2.01-1.13c2.38-.84 3.56-.36 5.93.32M276 38a38 38 0 0 1 10.18 3.22l2.98 1.37 3.15 1.47 3.26 1.5q10.01 4.65 19.84 9.66a270 270 0 0 0 15.37 7.06 668 668 0 0 1 40.08 19.18c9.61 4.9 19.4 9.4 29.2 13.92 5.4 2.5 10.8 5.02 16.12 7.72 4 1.98 8.15 3.68 12.26 5.43A52 52 0 0 1 437 113c1.09 3.26 1.13 5.63 1.13 9.05l.03 12.5.01 19.66.02 26.45.02 24.56a10807 10807 0 0 1 .03 33.74 2774 2774 0 0 1 .01 16.22c.05 13-.36 26.65-4.56 39.07l-.67 1.98q-.98 2.9-2.02 5.77l-1.16 3.33c-9.22 25.3-24.33 47.3-42.84 66.67l-2.62 2.75c-4.52 4.63-4.52 4.63-6.38 6.25h-2v2c-1.5 1.52-1.5 1.52-3.56 3.25l-2.2 1.86L368 390l-2.02 1.8-1.86 1.64-1.67 1.5C361 396 361 396 359 396v2c-1.35 1.24-1.35 1.24-3.21 2.6l-2.02 1.49-2.14 1.54-2.12 1.56C344.26 409 344.26 409 342 409v2l-6 2v2c-2.17 1.45-2.17 1.45-5.19 3.13-4.2 2.38-8.35 4.8-12.44 7.37a791 791 0 0 1-20.8 12.31l-3.46 2-3.3 1.9-2.95 1.7L285 445l-3.18 1.77C279 448 279 448 276 447a947 947 0 0 1-.31-13.75l-.13-3.95-.05-3.78-.08-3.5c.57-3.02.57-3.02 2.94-5.34a96 96 0 0 1 7.75-4.5 188 188 0 0 0 14.26-8.53 112 112 0 0 1 7.12-4.09c4.74-2.55 8.94-5.73 13.21-8.99C323 389 323 389 325 389v-2c5.41-4 5.41-4 8-4v-2c1.57-1.15 1.57-1.15 3.69-2.37a60 60 0 0 0 7.19-4.94C346 372 346 372 348 372v-2q2.47-2.17 5.06-4.19c5.96-4.78 11.4-9.44 15.75-15.75L371 347h2v-2h2l.75-1.7c1.46-2.7 3.23-4.87 5.19-7.24a57 57 0 0 0 5.69-7.88L388 326h2l.73-2.48c1.5-4.18 3.51-7.89 5.64-11.77 7.56-14.06 13.76-29.53 13.75-45.75v-11.55l-.02-11.13v-11.64l-.03-22.02-.02-25.08L410 133l-6.74-2.86-1.91-.82c-4.48-1.91-8.73-4-12.98-6.38a146 146 0 0 0-16.26-7.62 159 159 0 0 1-10.24-4.88 562 562 0 0 0-21.18-10.13q-15.71-7.22-31.24-14.79a356 356 0 0 0-22.12-9.86L284 74l-2.18-.98c-2.58-1.46-4.08-2.6-5.82-5.02-1-5.15-.76-10.17-.5-15.37q.07-2.13.1-4.26.15-5.18.4-10.37"/><path fill="#ec721f" d="m278 120 8.44-.06 2.43-.03q3.06 0 6.13.09c1.79 1.79 1.13 4.2 1.14 6.58l-.01 2.36-.01 2.4c-.06 8.57-.55 17.11-1.12 25.66l1.9-1.31 2.48-1.69 2.46-1.69C304 151 304 151 306 151v-2c1.68-1.5 1.68-1.5 3.88-3.12l2.17-1.64C314 143 314 143 316 143v-2h5l2 4h2c3.08 5.3 3.08 5.3 2.69 8.88L327 156h-2v2a185 185 0 0 1-5.32 4.02c-3.9 2.88-7.7 5.91-11.5 8.93l-1.72 1.37-1.5 1.2c-1.96 1.48-1.96 1.48-3.7 2.4-2.92 1.7-4.9 2.9-5.91 6.22a68 68 0 0 0-.25 7.97l-.04 2.94q-.04 4.63 0 9.26l-.05 6.3q-.06 7.7-.01 15.39c11.13-5.7 22.06-11.35 32.38-18.42C330 204 330 204 333 204l.15-2.22C335.9 162.1 335.9 162.1 338 160q4-.15 8-.12l2.27-.02c5.6.01 5.6.01 6.73 1.14.55 6.97-.37 13.77-1.5 20.63l-.43 2.75q-.52 3.3-1.07 6.62l11.73-6.6q3.82-2.13 7.6-4.37l2.86-1.66 2.48-1.47c2.85-1.1 4.44-.75 7.33.1v2h2c4 6.5 4 6.5 4 11-2.3 1.96-2.3 1.96-5.44 3.94l-3.31 2.1q-5.07 3.06-10.27 5.86A95 95 0 0 0 363 207c4.8 4.3 10.17 6.5 16.03 9l2.23 1 2.03.88c2.19 1.43 2.87 2.66 3.71 5.12-1.01 2.98-1.01 2.98-2.69 6.19l-1.63 3.23C381 235 381 235 378 236c-2.63-1.25-5.1-2.56-7.62-4-6.1-3.35-12.21-6.4-18.63-9.06l-2.13-.9c-3.66-1.5-6.68-2.72-10.62-2.04a90 90 0 0 0-7.37 3.94l-2.1 1.21L323 229l-2.13 1.26Q314.42 234.1 308 238l-5 3 1.77.93a348 348 0 0 1 20.68 12.11c8.05 5.64 8.05 5.64 17.2 7.84L345 261l2.66-.87c5.2-1.98 10.25-4.05 15.24-6.5l2.55-1.25q2.52-1.25 5.01-2.52c5.81-2.88 5.81-2.88 9.46-2.78 3.37 1.49 4.42 3.71 6.08 6.92.94 3.69.94 3.69 1 7-2.17 2.86-4.87 4.04-8.1 5.48l-2.98 1.34-3.1 1.37-3.15 1.4q-3.82 1.71-7.67 3.41c6.63 5.43 6.63 5.43 14.06 9.63 3.24 1.54 6.4 3.11 9.5 4.93l1.94 1.13c1.5 1.31 1.5 1.31 2.36 3.17.19 2.88-.7 4.3-2.17 6.76l-1.37 2.36C385 304 385 304 383 306c-4.9.86-8.18-1.58-12.12-4.12l-3.99-2.48-1.98-1.23c-4.2-2.57-8.56-4.86-12.91-7.17l.28 1.7 1.22 7.74.43 2.66A93 93 0 0 1 355 320c-5.56 2.4-11.04 2.44-17 2-2.03-2.03-1.65-5.97-1.94-8.76l-.26-2.38-.8-7.55-2-18.31-.2-3.28c-1.14-3.87-3-4.66-6.45-6.63l-1.74-1.01q-2.77-1.6-5.55-3.14l-3.63-2.1A309 309 0 0 0 295 258q.06 8.83.2 17.67.06 3 .07 6 .04 4.34.12 8.65v2.71c.1 4.15.26 6.4 2.5 10A17.5 17.5 0 0 0 304 307v2l2.21.78a31 31 0 0 1 7.42 4.72A101 101 0 0 0 321 320v2l1.81.81c2.24 1.21 3.69 2.14 5.19 4.19-.31 2.19-.31 2.19-1 4h-2l-.31 1.69A22 22 0 0 1 321 340c-1.75.88-1.75.88-4 1-2.8-1.58-2.8-1.58-5.75-3.81l-2.98-2.21L306 333v-2l-2.12-.75c-3.25-1.41-5.98-3.23-8.88-5.25l.22 1.95C298 354 298 354 294 362l-7.44.06-2.14.03q-2.7 0-5.42-.09c-1.94-1.94-1.12-4.86-1.13-7.44l.01-2.83v-12.97l.02-24.5v-20.23a59735 59735 0 0 1 .05-71.12V209.9z"/><path fill="#a24608" d="m278 120 8.44-.06 2.43-.03q3.06 0 6.13.09c1.79 1.79 1.13 4.2 1.14 6.58l-.01 2.36-.01 2.4c-.06 8.57-.55 17.11-1.12 25.66l1.9-1.31 2.48-1.69 2.46-1.69C304 151 304 151 306 151v-2h2v3l-1.93 1.02-2.5 1.35-2.5 1.34c-2.2 1.12-2.2 1.12-3.07 3.29h-6v-38h-12v239h13l-.02-2.87-.06-15.16-.02-6.58-.01-4c.09-2.7.3-4.84 1.11-7.39l3 1h-2l.22 1.95C298 354 298 354 294 362l-7.44.06-2.14.03q-2.7 0-5.42-.09c-1.94-1.94-1.12-4.86-1.13-7.44l.01-2.83v-12.97l.02-24.5v-20.23a59735 59735 0 0 1 .05-71.12V209.9z"/><path fill="#e76f1c" d="M320 271c6.17.32 11.72 2.55 16 7 1.7 5.38 1.9 10.7 2.13 16.31q.13 2.24.3 4.46c.46 7.08.68 14.14.57 21.23l12-2-.44-7.94-.12-2.28c.12-3.7.12-3.7-1.44-6.78q-.1-3.29-.06-6.56l.02-3.63.04-2.81c5.77-.19 5.77-.19 7.88 1.5L358 291l1.75-.94c2.1-.99 4-1.58 6.25-2.06v-2l2-1-2-1a129 129 0 0 1-2-7 37 37 0 0 1 9.13 4.8c3.3 2.11 6.8 3.84 10.28 5.64A29 29 0 0 1 390 293c-1.4 4.89-3.34 9.34-7 13-4.93.75-8.14-1.56-12.12-4.12l-3.99-2.48-1.98-1.23c-4.2-2.57-8.56-4.86-12.91-7.17l.28 1.7 1.22 7.74.43 2.66A93 93 0 0 1 355 320c-5.56 2.4-11.04 2.44-17 2-2.03-2.03-1.65-5.97-1.94-8.76l-.26-2.38-.8-7.55-2-18.31-.39-3.4c-.39-2.89-.39-2.89-3.33-4.68l-3.34-1.73q-2.99-1.57-5.94-3.19z"/><path fill="#ac4f11" d="M233 290h4c1.09 3.26 1.13 5.63 1.13 9.06v45.12c.02 6.9-.1 13.67-.9 20.53-.4 3.92-.46 7.85-.55 11.8l-.06 2.58-.31 13.54L236 406c-5.14.27-8-1.58-12.12-4.44-4.69-3.25-4.69-3.25-9.88-5.56v-2l-1.94-.87C210 392 210 392 209 390c-1.75-1.02-1.75-1.02-3.81-1.94-2.99-1.44-5.73-2.8-8.19-5.06v-2l-5-2v-2l-1.73-.32c-2.64-.8-4.33-1.96-6.52-3.62l-2.14-1.59L180 370v-2l-2.94-.75L174 366c-.62-2-.62-2-1-4l-1.66-.73c-3.4-1.84-5.63-4.66-8.15-7.52-3.23-3.6-6.33-7.05-10.19-10-3.25-2.63-4.4-5.47-5.9-9.31-1.67-3.7-4.03-6.82-6.42-10.08-5.12-7.19-5.12-7.19-4.68-12.36a22 22 0 0 1 5.06 6.81 126 126 0 0 0 19.54 26.52C162 347 162 347 162 349h2c1.34 1.4 1.34 1.4 2.94 3.38A100 100 0 0 0 186.19 370l2.81 2v2l1.88.94L195 377v2l2.13.75A44 44 0 0 1 206 385v2c2.65 1.08 5.28 2.1 8 3l4 4q2.74 1.88 5.56 3.63l2.88 1.78L229 401l3 2c.73-3.3 1.12-6.33 1.12-9.7v-8.98l-.03-17.68-.02-19.05-.02-19.44z"/><path fill="#9c4919" d="M419 105a86 86 0 0 1 12.31 4.94l3.18 1.52C437 113 437 113 438 116a132 132 0 0 1 .13 6.05l.02 3.84v8.67l.02 19.65.02 26.45.02 24.56a10807 10807 0 0 1 .03 33.74 2774 2774 0 0 1 .01 16.22c.05 13-.36 26.65-4.56 39.07l-.67 1.98q-.98 2.9-2.02 5.77l-1.16 3.33c-7.63 20.93-19.63 43.13-35.84 58.67v-4h2v-3l2-1a98 98 0 0 0 6-11h4l1-6h2l.55-2.12.76-2.75.74-2.75C414 329 414 329 417 327a118 118 0 0 0 3-7h2l.81-3.56a52 52 0 0 1 3.4-9.52c1.36-3.33 2.31-6.77 3.29-10.23l1.8-6.33q.66-2.23 1.47-4.41c2.83-7.93 2.63-15.84 2.57-24.14v-4.85q0-6.55-.04-13.09l-.02-13.7q0-12.98-.06-25.93-.05-14.77-.07-29.53-.04-30.35-.15-60.71l-2.3-.41c-3.44-.75-6.33-2.14-9.51-3.65l-3.52-1.66L417 107z"/><path fill="#95470f" d="M105 109v2l-2.94 1.38c-3.13 1.28-3.13 1.28-4.06 3.62q-.14 3.06-.13 6.13v85.75a22054 22054 0 0 0 0 47v14.07c.12 2.81.55 5.3 1.13 8.05a230 230 0 0 1 .05 10.56L99 293h-1l-1.44-7.62-.4-2.17-.4-2.12-.37-1.94L95 277l-.52-2.72c-.5-3.37-.6-6.55-.6-9.96v-13.06l.02-12.57v-13.15l.03-24.9.02-28.34L94 114c8.71-5 8.71-5 11-5"/><path fill="#6d3012" d="M145 121a35 35 0 0 1-10.94 6.56c-4.14 1.63-8.1 3.43-12.06 5.44a61056 61056 0 0 0-.08 70.54l-.03 29.83v11.57l-.01 3.39c.01 11.06.36 22.12 2.93 32.92l.54 2.31c2.1 8.75 5.52 16.46 9.7 24.4.95 2.04.95 2.04.95 4.04h-2c-2.83-3.68-4.15-6.5-5-11l-1.41-1.34c-12.4-12.96-9.54-41.67-9.33-58.5q.05-5.78.04-11.54.03-9.65.12-19.29.12-13.6.14-27.21l.1-21.21v-2.3a3747 3747 0 0 1 .14-18.77l.03-3.46.03-3.02C119 132 119 132 120 130q3.5-1.03 7-2l3-2h4v-2c3.28-3.28 6.51-3.12 11-3"/><path fill="#814113" d="m387 121 4.44.88 2.5.49 2.06.63 1 2a54 54 0 0 0 15 4v2h2c1.68 3.35 1.01 7.12.91 10.8l-.06 2.86-.14 6.29a3636 3636 0 0 0-.99 62.73l-.22 25.76-.13 15.95c-.18 34.42-.18 34.42-7.37 41.61l-.31 3.25c-.79 4.28-1.98 5.44-4.69 8.75-1.8 3.6-3.42 7.3-5 11h2c-1.4 2.82-3.48 4.16-6 6h-2c1.5-5.16 3.8-9.57 6.38-14.25 7.55-14.06 13.75-29.53 13.74-45.75v-11.55l-.02-11.13v-11.64l-.03-22.02-.02-25.08L410 133l-2.87-1.21-5.68-2.4A118 118 0 0 1 387 122z"/><path fill="#9c4918" d="M254 37c2.1.41 2.1.41 4 1 1.32 37.7.95 75.38.63 113.09q-.12 12.94-.2 25.88L258 230c-4.18.14-6-.26-9.31-2.87l-2.12-1.62L245 224v-2l-2-1 5-1 .63 2.38c1.4 3.4 1.4 3.4 7.37 4.62V40h-5c1.25-1.56 1.25-1.56 3-3"/><path fill="#934b20" d="m224 229 1.88 1.94 1.42 1.39a153 153 0 0 1 3.6 3.65c8.42 8.32 15.6 10.97 27.1 17.02v196c-5.7-.95-7.02-1.37-11-5 3.12.49 6 1 9 2l.06-38.69v-2.97c.03-34.83-.2-69.64-.56-104.46l-.04-3.43q-.21-20.72-.46-41.45l-3.4-1.6-4.41-2.15-2.24-1.05c-3.92-1.92-6.61-3.36-8.95-7.2-1.76-1.15-1.76-1.15-3.62-2-3.38-2-3.38-2-4.13-4.19L228 235l-3-1z"/><path fill="#6e2e07" d="M278 120h1v240h14l-.04-6.86-.06-17.75-.01-4c.09-2.7.3-4.84 1.11-7.39l3 1h-2l.22 1.95C298 354 298 354 294 362l-7.44.06-2.14.03q-2.7 0-5.42-.09c-1.94-1.94-1.12-4.86-1.13-7.44l.01-2.83v-12.97l.02-24.5v-20.23a59735 59735 0 0 1 .05-71.12V209.9z"/><path fill="#cb5e13" d="M280 121h1v238h10l1-37c6 0 6 0 8.31 1.81C302 326 302 326 303 329c-2.44-.81-2.44-.81-5-2l-1-3h-3l-1 36h-13z"/><path fill="#78330c" d="M136 312a22 22 0 0 1 5.06 6.81 126 126 0 0 0 19.54 26.52C162 347 162 347 162 349h2c1.34 1.4 1.34 1.4 2.94 3.38A100 100 0 0 0 186.19 370l2.81 2v2l1.88.94L195 377v2l2.13.75A44 44 0 0 1 206 385v2c2.65 1.08 5.28 2.1 8 3l4 4q2.74 1.85 5.56 3.56c3.16 1.93 5.95 3.68 8.44 6.44-5.43-.28-8.68-2.55-12.95-5.62-2.1-1.54-2.1-1.54-5.05-2.38v-2l-1.94-.87C210 392 210 392 209 390c-1.75-1.02-1.75-1.02-3.81-1.94-2.99-1.44-5.73-2.8-8.19-5.06v-2l-5-2v-2l-1.73-.32c-2.64-.8-4.33-1.96-6.52-3.62l-2.14-1.59L180 370v-2l-2.94-.75L174 366c-.62-2-.62-2-1-4l-1.66-.73c-3.4-1.84-5.63-4.66-8.15-7.52-3.23-3.6-6.33-7.05-10.19-10-3.25-2.63-4.4-5.47-5.9-9.31-1.67-3.7-4.03-6.82-6.42-10.08-5.12-7.19-5.12-7.19-4.68-12.36"/><path fill="#782f0e" d="M230 80h3a30 30 0 0 1 1.13 8.86l.01 2.95v3.23l.01 3.4.02 7.35q0 5.81.04 11.62.08 16.54.12 33.07.01 10.11.08 20.22l.01 7.7q0 5.4.05 10.79l-.02 3.19c.09 7.01 1.62 12.28 4.55 18.62l1 3h2l1 7c-7-6.22-10.54-14.25-11.18-23.63a334 334 0 0 1-.05-9.2v-3.52l.03-11.46.01-7.97q.01-9.4.05-18.8l.04-21.4q.04-22.02.1-44.02z"/><path fill="#934a10" d="M161 240h1v10h-2l-.37 2.55c-.67 3.64-1.66 7.08-2.7 10.64-3.28 12.35-4.15 28.04 1.02 40 .93 1.98.93 1.98 3.05 2.81 1.14 3.07 2.05 6.18 3 9.31.7 2.83.7 2.83 3 3.69v2h3v2h2l1.38 3.38c1.34 3.58 1.34 3.58 3.62 5.62 2.57.65 2.57.65 5 1v4c-6.95-3.16-12.5-8.94-17-15v-2h-2c-5.07-8.82-9.15-16.88-11-27l-.55-2.39c-3.04-17.52 2-34.94 9.55-50.61"/><path fill="#d5651a" d="M256 40v187l-6-1-1-2h5l1-183c-5.08 2.03-5.83 2.99-9 7q-2.94 0-5.87-.06c-2.86.05-5.36.4-8.13 1.06 3.22-2.61 6.57-4.4 10.31-6.19l3.3-1.6C249 40 249 40 256 40"/><path fill="#9e4612" d="M343.73 159.86h4.54c5.6.01 5.6.01 6.73 1.14.55 6.97-.37 13.77-1.5 20.63l-.43 2.75q-.52 3.3-1.07 6.62l6-2v2c-2.9 2.04-4.4 3-8 3-.12-10.4.17-20.64 1-31h-10v9h-1c-3.34 15.38-3.34 15.38-5 31h-2c3.07-43.12 3.07-43.12 10.73-43.14"/><path fill="#9e4811" d="M320 271c6.17.32 11.72 2.55 16 7 1.7 5.38 1.9 10.7 2.13 16.31q.13 2.24.3 4.46c.46 7.08.68 14.14.57 21.23l12-2v-28l3 1h-2l.28 1.7 1.22 7.74.43 2.66A93 93 0 0 1 355 320c-5.56 2.4-11.04 2.44-17 2-2.03-2.03-1.65-5.97-1.94-8.76l-.26-2.38-.8-7.55-2-18.31-.39-3.4c-.39-2.89-.39-2.89-3.33-4.68l-3.34-1.73q-2.99-1.57-5.94-3.19z"/><path fill="#823c0e" d="M178 275h2l-.06 2.06c-.63 23.43 2.84 45.15 17.81 64.1C199 343 199 343 199 346c-4.68.47-7.33-1-11.31-3.37l-3.24-1.9L182 339v-2c4.75.58 7.97 2.55 12 5l-1.17-1.9c-4.82-7.92-8.88-15-10.83-24.1h-2c-3.43-7.03-3.4-13.52-3.28-21.26q.04-3.1.05-6.2c.08-10.08.08-10.08 1.23-13.54"/><path fill="#c75e16" d="M276 38c3.44.64 6.2 1.43 9.31 3.06l2.12 1.1L289 43c-3.01.93-3.87 1.04-7 0v-2h-3l1 2.32c1.34 4.91 1.21 9.49 1.13 14.56l-.03 2.95L281 68l7 3v2l2.5.69c4.23 1.58 7.75 3.82 11.5 6.31l-2 1a112 112 0 0 1-7.62-3.06l-2.09-.88c-2.14-.94-4.21-1.98-6.29-3.06l-2.29-1.04c-2.56-1.44-4.01-2.55-5.71-4.96-.98-5.16-.76-10.17-.5-15.37q.07-2.13.1-4.26.15-5.18.4-10.37"/><path fill="#753816" d="M419 105a86 86 0 0 1 12.31 4.94l3.18 1.52C437 113 437 113 438 116q.14 3.08.12 6.17v12.74l-.02 12.29v12.84l-.03 24.32-.02 27.68L438 269h-1l-.01-2.37-.49-84.46a25350 25350 0 0 0-.28-48.66l-.06-10.38-.02-3.39c-.02-2.83-.02-2.83-1.14-5.74l-2.07-.3c-3.51-.84-6.49-2.22-9.74-3.76l-3.52-1.66L417 107z"/><path fill="#c15d1c" d="M435 116h1q.1 31.43.16 62.85.01 14.59.07 29.18.05 12.72.05 25.45 0 6.72.04 13.46.02 6.34.02 12.7l.02 4.63c.06 8.33-.25 15.89-3.36 23.73-.95-3.43-.98-6.13-.62-9.69l.27-2.95C433 273 433 273 434 272q.15-3.02.16-6.04l.03-3.98.05-9.03.06-12.55.08-13.11.14-24.84.16-28.27z"/><path fill="#b14e12" d="m224 229 1.88 1.94L229 234l1.96 2.02c5.89 5.73 12.11 9.45 19.41 13.06 5.54 2.75 5.54 2.75 6.63 4.92q.13 2.06.12 4.11v8.5l-.03 16.75-.02 18.06-.02 18.42L257 356h-1l-1-101-16-8-3-4c-1.76-1.15-1.76-1.15-3.62-2-3.38-2-3.38-2-4.13-4.19L228 235l-3-1z"/><path fill="#bf6018" d="m387 121 4.44.88 2.5.49 2.06.63 1 2a54 54 0 0 0 15 4v2h2c1.26 2.52 1.09 4.18 1.04 7l-.05 3.15-.29 14.32a3706 3706 0 0 0-.35 18.42l-.06 3.4c-.1 5-.24 9.8-1.29 14.71h-1v-60l-7-1c-2.34-.82-2.34-.82-4.37-1.78l-2.24-1.05-2.26-1.1-2.34-1.1c-5.66-2.7-5.66-2.7-6.79-4.97"/><path fill="#8c4010" d="m279 120 7.94-.06 2.28-.03q2.9 0 5.78.09c1.79 1.79 1.13 4.2 1.14 6.58l-.01 2.36-.01 2.4c-.06 8.57-.55 17.11-1.12 25.66l1.9-1.31 2.48-1.69 2.46-1.69C304 151 304 151 306 151v-2h2v3l-1.93 1.02-2.5 1.35-2.5 1.34c-2.2 1.12-2.2 1.12-3.07 3.29h-6v-38h-12l-1 2z"/><path fill="#9d4b14" d="m99 293 4 1 .19 3.81c.65 5.99 3.18 10.85 5.81 16.19q.8 1.83 1.56 3.69c2.83 6.5 5.8 12.1 10.27 17.65C122 337 122 337 122 339h2l2.83 5.37c1.16 1.95 1.16 1.95 4.17 2.63.98 1.74.98 1.74 1.75 3.88l.8 2.11C134 355 134 355 133 358c-12.48-15.5-22.48-31.83-29.81-50.37l-.92-2.31A50 50 0 0 1 99 293"/><path fill="#c65f11" d="M229 78q3-.06 6 0c1 1 1 1 1.1 3.03l-.02 2.72-.02 3.12-.04 3.44-.03 3.6-.1 9.83-.08 10.25-.18 19.42q-.12 11.06-.2 22.1L235 201h-1l-1-121h-3v2l-5 1 1-3h3z"/><path fill="#a64c14" d="M340 218q2.88-.08 5.75-.12l3.23-.08A13 13 0 0 1 356 220v2h2l1 2c6.05 1.15 6.05 1.15 12 0l-2 3 2.94.88C375 229 375 229 376 231c2.53.66 2.53.66 5 1v-3h2v-10l4 2c-3.12 10.16-3.12 10.16-6 14-3 1-3 1-6.41-.62q-2.12-1.18-4.21-2.38a195 195 0 0 0-22.87-10.59A76 76 0 0 1 340 218"/><path fill="#5b250b" d="m209 176 3 1 .01 1.95c.2 16.96 1.1 31.74 10.85 46.23C224 227 224 227 224 229c-4.71-1.57-5.94-5.24-8.28-9.45-6.26-12.94-6.25-25.5-5.72-39.55l-7 3v-2h2v-2h2v-2z"/><path fill="#96360c" d="m328 226-3.44 2.01-6.81 4A518 518 0 0 0 303 241l2.05 1.1c13.66 7.38 13.66 7.38 18.95 10.9v1c-5.4-.34-8.65-1.7-13.1-4.75-1.9-1.3-1.9-1.3-4.08-2.29C305 246 305 246 304 244c-2.02-1.13-2.02-1.13-4-2 .25-1.86.25-1.86 1-4 1.78-1.27 1.78-1.27 3.94-2.25l2.15-1.02C309 234 309 234 311 234v-2h3v-2h4l1-4c5.63-1.12 5.63-1.12 9 0"/><path fill="#954712" d="M410 272h1c.5 8.83-.17 15.95-4 24l-1 1-.31 3.25c-.79 4.28-1.98 5.44-4.69 8.75-1.8 3.6-3.42 7.3-5 11h2c-1.4 2.82-3.48 4.16-6 6h-2c1.5-5.16 3.8-9.57 6.38-14.25 6.8-12.66 11.45-25.47 13.62-39.75"/><path fill="#903a0c" d="m300 306 4 1v2l2.21.78a31 31 0 0 1 7.42 4.72A101 101 0 0 0 321 320v2l1.81.81c2.24 1.21 3.69 2.14 5.19 4.19-.31 2.19-.31 2.19-1 4h-2l-.31 1.69c-1.06 3.56-2.27 6.53-5.63 8.37-2.06-.06-2.06-.06-4.31-2L313 337l7 1c2.41-4.02 3-8.35 3-13l-2.19-.62c-3.62-1.78-5.33-4.24-7.81-7.38l-3-2v-2l-2.75-.12c-3.25-.88-3.25-.88-5.62-3.94z"/><path fill="#7c370d" d="M292 256h6l1 3-4-1q.06 8.8.2 17.61.06 3 .07 6 .04 4.3.12 8.62v2.69c.14 5.63 1.01 8.7 4.61 13.08-2.92-1.07-4.78-1.78-7-4-.28-1.99-.28-1.99-.32-4.45l-.06-2.79-.03-3.02-.06-3.08-.15-9.79-.12-6.62q-.14-8.12-.26-16.25"/><path fill="#ab5016" d="M379.63 246.94c3.54 1.58 4.6 3.65 6.37 7.06.94 3.69.94 3.69 1 7-1.7 2.6-4.1 3.91-7 5l-3-1 1.52-1.18c1.73-1.75 1.73-1.75 1.55-4.3l-.38-2.7-.37-2.74L379 252c-4.14-.1-7.94.23-12 1 3.8-3.07 7.6-5.94 12.63-6.06"/><path fill="#974113" d="M145 121a35 35 0 0 1-10.94 6.56c-4.92 1.96-4.92 1.96-9.69 4.25C122 133 122 133 120 133v51h-1l-.08-29.63-.02-10.8-.01-3.42V137l-.01-2.79C119 132 119 132 120 130q3.5-1.03 7-2l3-2h4v-2c3.28-3.28 6.51-3.12 11-3"/><path fill="#925117" d="m201 183 2 1-2 4h-2l-1 10c-4.75 1-4.75 1-7 1v2l-1.87.13-2.13.87q-1.02 3-2 6c-2.06 1.13-2.06 1.13-4 2-.8 2.05-.8 2.05-1 4h-2a37 37 0 0 1 4-8h2l.6-2.02c1.96-4.16 4.84-7.2 7.9-10.6l3.53-3.98 1.58-1.76c1.58-1.8 1.58-1.8 3.39-4.64"/><path fill="#9a5021" d="M257 380h1v69c-5.7-.95-7.02-1.37-11-5 3.12.49 6 1 9 2z"/><path fill="#ba5c1d" d="M208 180h2l.03 1.69c.25 12.06 1.3 22.8 4.97 34.31q.53 2 1 4l-3-1-1-8-4-1z"/><path fill="#b35c19" d="M175 217c.63 1.88.63 1.88 1 4l-2 2c-.53 2.03-.53 2.03-.87 4.31-.84 4.18-2.23 6.5-5.13 9.69l-1 3h-5a93 93 0 0 1 13-23"/><path fill="#c55d1b" d="M121 280c2.24 2.24 2.4 3.07 2.96 6.1l.5 2.43.95 5.08.5 2.43.41 2.23.68 1.73 3 1a48 48 0 0 1 2 6q.98 2.5 2 5h2l.75 2.5A90 90 0 0 0 142 326l-5 1-.44-3.69A101 101 0 0 0 135 314l-3-1a89 89 0 0 1-4-8l-1.3-2.88c-3.17-7.3-5.7-14.1-5.7-22.12"/><path fill="#6e2d0c" d="M382 288c3.8.54 5.47 2.2 8 5-1.4 4.89-3.34 9.34-7 13-4.32.48-6.69-.65-10.31-2.94l-2.68-1.65L368 300v-1h6v2l8 2 .94-2.37C384 298 384 298 385 296h2v-5l-5-1z"/><path fill="#703009" d="M283 415v2l-5 2 1 25h6c-2.38 2.88-4.3 3.61-8 4-2.78-2.78-1.33-11.07-1.37-14.81l-.12-3.93-.03-3.78-.06-3.47c.58-3.01.58-3.01 2.99-5.42C281 415 281 415 283 415"/><path fill="#8c3e0f" d="M193 241h3v6l-2-2a96 96 0 0 0-9.31 17.81l-.77 1.92A50 50 0 0 0 181 275h-1q-.12-2.85-.19-5.69l-.1-3.2c.34-3.61 1.26-5.12 3.29-8.11q1.13-1.97 2.23-3.95l1.18-2.13 2.45-4.39c3.03-5.42 3.03-5.42 4.14-6.53"/><path fill="#8d3f0f" d="M290 44c4.33 1.36 8.39 3.01 12.5 4.93l1.81.85 5.69 2.66 3.81 1.77A583 583 0 0 1 330 62v1c-6.7-.45-12.02-3.06-18-6l-2.48-1.22Q306.75 54.41 304 53v-2l-1.94-.31c-4.12-.93-8.07-2.3-12.06-3.69z"/><path fill="#a65214" d="M95 243h1l.06 2.26.31 10.24.1 3.55c.2 7.21.2 7.21 1.56 14.26 1.1 4.2 1.2 7.88 1.1 12.19l-.03 2.2-.1 5.3h-1c-2.6-11.47-3.39-22.26-3.19-34l.04-4.7z"/><path fill="#7f390e" d="M257 195h1v35c-5.03 0-5.68-.02-9.31-2.87l-2.12-1.62L245 224v-2l-2-1 5-1 .63 2.38c1.4 3.4 1.4 3.4 7.37 4.62z"/><path fill="#8f4012" d="M178 275h2l-.02 3.01-.06 15.94-.02 6.93-.01 2.14c0 4.44.39 8.61 1.11 12.98-4-4.87-4.13-8.62-4.13-14.85v-20.12C177 278 177 278 178 275"/><path fill="#86330d" d="m325 158-3.12 2.31a340 340 0 0 0-8.42 6.5l-1.88 1.5-3.74 3c-2.6 2.06-4.66 3.63-7.84 4.69v-4l2.44-.87c2.7-.86 2.7-.86 3.56-3.13l3-1q1.56-2.46 3-5c3.34-4.3 7.88-5.55 13-4"/><path fill="#72320a" d="m224 229 1.88 1.94L229 234l1.96 2.02c7.4 7.2 15.87 11.48 25.04 15.98-4.33 1.36-6.46.24-10.56-1.69l-3.44-1.57c-2.97-1.72-4.1-2.99-6-5.74-1.76-1.15-1.76-1.15-3.62-2-3.38-2-3.38-2-4.13-4.19L228 235l-3-1z"/><path fill="#7a350e" d="M123 277h1l.52 2.5a109 109 0 0 0 10.53 28.47C136 310 136 310 136 312h-2c-2.83-3.68-4.15-6.5-5-11l-1.42-1.3c-4.23-4.56-4.77-12.95-4.77-18.95z"/><path fill="#94360f" d="M208 92a425 425 0 0 1-26.53 12.62q-5.28 2.23-10.34 4.88L168 111l-2-1c4.63-3 4.63-3 8-3v-2l2.15-.55 2.79-.76 2.77-.74L184 102l1-3h6v-2l7-1v-2q1.93-.8 3.88-1.56l2.17-.88C206 91 206 91 208 92"/><path fill="#b25f1f" d="M388 326h2c-.83 5.38-4.27 9.27-8 13l-1 3h-2l-.37 1.88C378 346 378 346 376 348h-3l-1 3-3-1 2-3h2v-2h2l.75-1.7c1.46-2.7 3.23-4.87 5.19-7.24a57 57 0 0 0 5.69-7.88z"/><path fill="#b65b1a" d="m160 385 8 2v4h1.83c2.5.13 4.74.35 7.17 1 2.95 3.32 4.53 6.83 6 11a43 43 0 0 1-11-7v-2l-2.06-.62c-3.88-1.82-6.9-4.38-9.94-7.38z"/><path fill="#bf5817" d="M292 322c6 0 6 0 8.31 1.81C302 326 302 326 303 329c-2.44-.81-2.44-.81-5-2l-1-3h-3l-1 36h-1z"/><path fill="#6c300f" d="M136 312a22 22 0 0 1 5.06 6.81c3.66 6.83 8.37 12.96 12.94 19.19l-3 1v-2h-2a144 144 0 0 1-4.94-7.19l-1.34-2.04A561 561 0 0 1 139 322l-1.8-2.81c-1.41-2.58-1.45-4.3-1.2-7.19"/><path fill="#602a0d" d="M179 300c1.76 3.22 2.76 6.41 3.75 9.94 1.84 6.19 4.3 11.7 7.18 17.48L191 330l-1 2c-4.14-3.44-5.48-7.14-7.19-12.06l-.78-2.18c-3.16-8.79-3.16-8.79-3.1-13.45q.03-1.2.03-2.45z"/><path fill="#b54713" d="m350 401 3 1-4.37 3.5-2.47 1.97C344 409 344 409 342 409v2l-6 2v2l-6 2v-2h2l1-3q2.49-1.53 5-3l2-3c3.13-.19 3.13-.19 6 0v-2c1.81-1.69 1.81-1.69 4-3"/><path fill="#a95c1e" d="m314 395 2 1-2.31 1.69c-2.8 2.1-2.8 2.1-4 4.94-2.24 3.15-4.04 3.14-7.7 3.84-2.89.77-4.7 2.66-6.99 4.53-3.31.75-3.31.75-6 1a37 37 0 0 1 8.69-6.94l2.63-1.54q4.9-2.79 9.87-5.44c1.97-1.07 1.97-1.07 3.81-3.08"/><path fill="#703009" d="m276 38 5 1-3 1v29l-2-1z"/><path fill="#74300a" d="M337 161h1c.36 19 .36 19-1.49 28.27-.85 4.54-1.17 9.13-1.51 13.73h-2c1-14.05 2.02-28.05 4-42"/><path fill="#8d3e0c" d="M390 92c4.93.64 9.01 2.73 13.44 4.88l2.23 1.06q6.2 2.97 12.33 6.06v1c-10.23-.87-18.99-6.42-28-11z"/><path fill="#943a0d" d="m375 379 4 1-3 1v2c-1.5 1.52-1.5 1.52-3.56 3.25l-2.2 1.86L368 390l-2.02 1.8-1.86 1.64-1.67 1.5C361 396 361 396 359 396v2l-2-1 2-1.81c2.34-2.07 2.34-2.07 2-5.19h3v-2h4v-3c1.31-1.69 1.31-1.69 3-3h3z"/><path fill="#ac5718" d="m204 413 1 3c2.68 1.99 3.88 2.01 7.25 1.63L215 417l1 2h-3v4c-6.26-1.48-10.92-5.24-16-9 3.63-2.12 3.63-2.12 7-1"/><path fill="#ac571f" d="M179 74v2l-4 1v2c-6.08 3.9-10.76 5.66-18 6 3.7-3.07 7.84-5.07 12.13-7.19l2.2-1.11c5.42-2.7 5.42-2.7 7.67-2.7"/><path fill="#984716" d="M218 426c7.19.68 7.19.68 10 4 4.26 3.17 7.83 3.56 13 4l-2 2c.32 2.1.32 2.1 1 4-16.17-9.15-16.17-9.15-22-13z"/><path fill="#cf6015" d="M349 288c6 0 6 0 7.69 1.5L358 291h3l1 4a29 29 0 0 1-8-3v-2h-3v12l-2-1z"/><path fill="#974510" d="m365 79 9.69 4.31 2.76 1.23c8.96 4 8.96 4 12.55 6.46v1a25 25 0 0 1-12-4q-3.92-1.19-7.9-2.16L368 85l-1-3-2-1z"/><path fill="#9d3e10" d="M324 417h6c-3.36 3.76-7.13 6.06-11.44 8.56l-1.98 1.17-3.83 2.24q-2.32 1.38-4.6 2.8C306 433 306 433 304 433v-2c5.75-3 5.75-3 8-3v-2h3v-2h3v-2h3v-2h3z"/><path fill="#a45314" d="M366 354c.75 1.75.75 1.75 1 4-1.81 2.25-1.81 2.25-4 4h-2v4l-3.81 1.5-2.15.84C353 369 353 369 350 369l1.36-1.27 10.26-9.57 1.89-1.76q1.26-1.18 2.49-2.4"/><path fill="#a5440c" d="M359 206c2.74.4 4.03 1.02 6.19 2.81 3.2 2.5 6.47 4.19 10.12 5.94L382 218c-4.06 1.35-6.42-.15-10.12-1.81l-1.96-.83c-4.79-2.1-4.79-2.1-5.92-4.36q-2.97-1.1-6-2z"/><path fill="#73380a" d="M410 272h1c.5 8.7.08 16.16-4 24-1.64 1.8-1.64 1.8-3 3 .88-5.92 2.47-11.58 4.06-17.34A94 94 0 0 0 410 272"/><path fill="#a05520" d="M329 257c3.16.96 5.8 1.86 8.56 3.69 2.31 1.51 2.31 1.51 4.69 1.19q2.5-.8 5-1.66l2.44-.85 2.32-.85C354 258 354 258 356 259l-1 3c-6.41 1.62-12.49 2.74-19 1l-2-2c-2.57-.65-2.57-.65-5-1z"/><path fill="#ab4213" d="M166 111c-3.68 3.15-7.84 4.82-12.25 6.69l-2.26.97L146 121l-1-2 2-2h4v-4c4.99-1.34 9.83-2.15 15-2"/><path fill="#753009" d="M331 63c5.5 1.65 10.53 4.03 15.69 6.5l2.59 1.22A75 75 0 0 1 359 76c-4.78.32-7.41-.42-11.5-2.87-3.78-2.2-7.27-3.94-11.5-5.13l-2-1v-2l-3-1z"/><path fill="#b35a1b" d="M251 40c-1.17 3.32-2.15 5.83-5 8q-2.94 0-5.87-.06c-2.86.05-5.36.4-8.13 1.06 3.3-2.7 6.76-4.42 10.63-6.19l3.47-1.6C249 40 249 40 251 40"/><path fill="#954411" d="M304 242c4.62 1.64 8.64 4.03 12.81 6.56l2.1 1.25q2.57 1.55 5.09 3.19v1c-5.4-.34-8.65-1.7-13.1-4.75-1.9-1.31-1.9-1.31-4.1-2.28-1.8-.97-1.8-.97-2.55-3.1z"/><path fill="#813d0d" d="M233 200c2.8 1.4 2.96 3 4.06 5.88l1.04 2.67q1 2.71 1.9 5.45h2l1 7c-6.67-5.93-9.37-12.14-10-21"/><path fill="#9d5115" d="M154 295q1.8 3.57 3.5 7.19c1.2 2.9 1.2 2.9 3.5 3.81.63 1.85.63 1.85 1.13 4.06l.5 2.23.37 1.71c-2.43-.37-3.65-.56-5.2-2.53-2.34-4.97-4.19-9.97-4.8-15.47z"/><path fill="#e2751a" d="M154 272h1l.18 3.46.26 4.48.12 2.28c-.12 3.7-.12 3.7 1.44 6.78a92 92 0 0 1 .5 4.69c.34 3.8.8 7.54 1.5 11.31-2-1-2-1-3.06-3.06-2.18-6.83-2.07-13.85-2-20.94l.01-2.64z"/><path fill="#813b0c" d="M211 392c4.62.5 7.36 1.59 11.06 4.38 3.23 2.4 6.46 4.6 9.94 6.62-1.65.71-1.65.71-4 1-2.7-1.4-2.7-1.4-5.56-3.37-4-2.75-4-2.75-8.44-4.63v-2l-3-1z"/><path fill="#a94814" d="M404 345h2c.44 3.5.13 4.8-1.86 7.79l-2.45 2.83-2.43 2.86c-1.7 1.9-3.42 3.74-5.26 5.52v-4h2v-3l2-1a98 98 0 0 0 6-11"/><path fill="#853e10" d="m99 293 4 1 .25 3.94c.48 4.52 1.92 7.98 3.9 12.04A12.4 12.4 0 0 1 108 317c-2.2-3.29-3.6-6.67-5.06-10.31l-.82-1.98A46 46 0 0 1 99 293"/><path fill="#88390a" d="M320 271c5.59.42 9.63 2.65 14 6 1.44 2.88 1.1 5.42 1.06 8.63l-.02 3.6L335 292h-1l-.02-2.6c-.25-3.79-.66-6.83-1.98-10.4-3.68-3.13-7.63-5-12-7z"/><path fill="#99390d" d="m377 267-15 7 2 3-3 1-3-2v-3l3.44-1.37c3.6-1.2 3.6-1.2 4.56-3.63 1.74-.67 1.74-.67 3.88-1.19l2.11-.54C374 266 374 266 377 267"/><path fill="#7e330c" d="M384 177v2h2c4 6.5 4 6.5 4 11h-2l-1-5h-2l-3-6-9 1c4.22-3.23 5.73-4.25 11-3"/><path fill="#c75f1a" d="M136 95v2h-2v5c-2.64.91-4.13.98-6.94.5-3.07-.5-5.08-.29-8.06.5 1.59-3.17 4.8-3.83 7.94-5.12l1.96-.84C133.72 95 133.72 95 136 95"/><path fill="#b65412" d="M278 419h1l.44 8.69.12 2.47c.2 4.04.48 7.9 1.44 11.84l9-1c-3 3-3 3-12 4z"/><path fill="#a4470f" d="M351 174h1v17l6-2v2c-2.9 2.04-4.4 3-8 3q-.05-3.87-.06-7.75l-.03-2.21c-.01-3.53.14-6.65 1.09-10.04"/><path fill="#85350f" d="M430 298h2c-2.09 8.12-5.35 15.47-9 23-1.4-4.2.25-7 1.81-10.94l.83-2.17A87 87 0 0 1 430 298"/><path fill="#6d2a0a" d="m383 219 4 2c-3.12 10.16-3.12 10.16-6 14l-3 1c-2.69-1.44-2.69-1.44-5-3 2.46-1.23 4.28-1.07 7-1l1-3h2z"/><path fill="#c65b19" d="M179 269h1v6h-2l-1 28h-1q-.11-6.06-.16-12.12l-.07-4.11-.06-5.94-.05-3.6c.37-3.52 1.24-5.41 3.34-8.23"/><path fill="#e47722" d="m201 183 2 1-2 4h-2l-.15 2.15-.22 2.79-.22 2.77L198 198l-2 1-3-1c1.4-6.28 3.78-10.23 8-15"/><path fill="#5c2006" d="M353 303h1a102 102 0 0 1 1 17c-5.64 2.44-10.98 2.2-17 2v-1l2.8-.4 3.64-.54 3.62-.52c2.82-.23 2.82-.23 3.94-1.54q.36-3.78.56-7.56l.13-2.16z"/><path fill="#964a14" d="M201 260h2l1 4h2v2h2l.19 2.38.81 2.62c2.48 1.37 2.48 1.37 5 2l-1 4q-2.46-2.54-4.87-5.12l-2.75-2.89c-2.38-3-3.43-5.31-4.38-8.99"/><path fill="#77360e" d="m209 176 2 1v24h-1v-21l-7 3v-2h2v-2h2v-2z"/><path fill="#914112" d="m387 121 4.44.88 2.5.49 2.06.63 1 2c1.98.76 1.98.76 4.31 1.38 3.83 1.18 6.14 2.4 8.69 5.62-8.43-2-15.53-5.73-23-10z"/><path fill="#90420f" d="M419 105a78 78 0 0 1 11.31 4.38l2.62 1.2c2.07 1.42 2.07 1.42 2.86 3.58L436 116l-1-2-5-1q-3.44-1.46-6.81-3.06l-3.52-1.66L417 107z"/><path fill="#83370b" d="M281 71c5.37.5 9.17 1.83 13.88 4.44l3.42 1.87C301 79 301 79 302 81c-7.44-2.23-14.12-5.4-21-9z"/><path fill="#662707" d="M316 141h5l2 4h2c3.08 5.3 3.08 5.3 2.69 8.88L327 156h-2v-7h-2l-1.37-2.44c-1.36-2.71-1.36-2.71-3.82-3.37L316 143z"/><path fill="#9d4f19" d="m195 65 2 1c-7.12 7.67-7.12 7.67-12.16 8.25-1.95 0-3.9-.12-5.84-.25a56 56 0 0 1 10.13-6.25l3.19-1.64z"/><path fill="#5b2406" d="m300 306 4 1v2l2.2.77c2.96 1.3 5.1 2.83 7.61 4.86L318 318l-2 1a125 125 0 0 1-6-4v-2l-2.75-.12c-3.25-.88-3.25-.88-5.62-3.94z"/><path fill="#84360c" d="M368 299h6v2l8 2 1-3c1.25 2.5.78 3.41 0 6-4.35.37-6.65-.63-10.31-2.94l-2.68-1.65L368 300z"/><path fill="#ed7f2e" d="M113 107c0 2 0 2-1.12 3.5-2.43 1.94-4.93 2.56-7.88 3.5l-2 2h-4c1-3 1-3 4-5h3v-2c5.75-2 5.75-2 8-2"/><path fill="#883b0e" d="M337 98c7.2.63 14.87 2.5 20.13 7.75L359 108a132 132 0 0 1-14.37-5.62L337 99z"/><path fill="#87390c" d="M364 277c4.13 1.46 7.39 3.54 11 6q3.47 2.04 7 4l-4 1v-2q-1.08-.14-2.2-.32c-3.06-.74-5.01-1.86-7.61-3.62l-2.4-1.59L364 279z"/><path fill="#cc611b" d="m379 219 5 1-1 9h-2l-1 3z"/><path fill="#6b260b" d="M382 250c2.99 2.41 3.94 3.79 4.94 7.56.06 3.44.06 3.44-1.13 5.25A29 29 0 0 1 380 266l-3-1c4.63-3 4.63-3 8-3l-.94-2.62A58 58 0 0 1 382 250"/><path fill="#ac5713" d="M196 247c3.4 3.13 5.6 5.57 7 10l-3 3a742 742 0 0 1-3.12-7.52C196 250 196 250 196 247"/><path fill="#77350c" d="m214 213 1 2h2a62 62 0 0 1 3.63 5.88l1.9 3.3C224 227 224 227 224 229c-4.05-1.35-4.6-3.22-6.69-6.87l-1.88-3.25C214 216 214 216 214 213"/><path fill="#ba5f1f" d="M328 208c-1.1 3-1.68 3.85-4.62 5.25L321 214v1h-7c3.87-3.4 8.6-7 14-7"/><path fill="#ab571c" d="M126 345c2.31.5 2.31.5 5 2a26 26 0 0 1 3 8l-1 3q-1.76-2.11-3.5-4.25l-1.97-2.4C126 349 126 349 126 345"/><path fill="#904e19" d="M388 326h2c-.97 6.32-5.53 10.78-10 15l-2-1a1341 1341 0 0 1 6.27-9.02q1.81-2.53 3.73-4.98"/><path fill="#904810" d="M161 240h1v10h-3l-1 4h-2l1.38-4.75.77-2.67A40 40 0 0 1 161 240"/><path fill="#a6521d" d="M151 88v2h-3v3a27 27 0 0 1-12 2c3.8-3.3 9.84-7 15-7"/><path fill="#9a531b" d="M339 379v2h-3v2h-2l-1 3c-2.06.69-2.06.69-4 1v2h-4v-2c5.41-4 5.41-4 8-4v-2c3.75-2 3.75-2 6-2"/><path fill="#8a3c0f" d="M368 112c6.75 1.18 12.33 3.05 18 7l1 2a103 103 0 0 1-19-8z"/><path fill="#893511" d="M416 331c0 3.97-1.82 6.37-3.87 9.63l-1.11 1.8c-2.76 4.44-2.76 4.44-5.02 5.57v-3h2l1-6h2l.81-2.31A14 14 0 0 1 416 331"/><path fill="#6b2c0d" d="M128 296c3.14 1.57 3.7 4.3 5.13 7.44l1.63 3.56c1.24 3 1.24 3 1.24 5h-2c-3.9-5.11-6-9.55-6-16"/><path fill="#b95c19" d="M336 186h1c.11 6.11-.1 11.95-1 18h-2v3l-5-1 1-2c2.56-.62 2.56-.62 5-1l-.04-2.2c-.04-5.05-.03-9.83 1.04-14.8"/><path fill="#ae5a1b" d="m348 370 2 1v4l-2.94.81q-1.5.6-3.06 1.19l-1 3-1-2h-3l3.38-3 1.9-1.69C346 372 346 372 348 372z"/><path fill="#924412" d="M149 337h2v2l2.31.13c2.69.87 2.69.87 4.56 3.8L159 346l-1 2-3.94-3.25-2.21-1.83c-1.95-2.03-2.47-3.17-2.85-5.92"/><path fill="#f97d1e" d="m193 198 3 1a510 510 0 0 1-3.71 5.37C191 206 191 206 189 207l-2-2 2-4h2v-2z"/><path fill="#75290c" d="M323 332h2c-2.04 7.07-2.04 7.07-5 9-2.66-.17-3.76-.79-5.75-2.56L313 337l7 1 .94-1.87z"/><path fill="#873a0b" d="m224 229 10 10-1 3c-2.5-1.81-2.5-1.81-5-4v-3l-3-1z"/><path fill="#b54e12" d="m325 158-4.81 3-2.71 1.69C315 164 315 164 312 164c0-2 0-2 1.13-3.5 3.8-3.04 7.27-3.89 11.87-2.5"/><path fill="#a55520" d="m212 60-2.37 1.38c-2.67 1.5-2.67 1.5-4.63 3.62-3.62.13-3.62.13-7 0 1.32-2.64 2.65-2.98 5.31-4.19l2.37-1.1c2.58-.79 3.82-.6 6.32.29"/><path fill="#dc6116" d="M311 424h4v2h-3v2c-2.9 2.04-4.4 3-8 3v3h-2l1-4h3v-2h3z"/><path fill="#bf5c1c" d="M181 316a27 27 0 0 1 4.69 8.06l.76 2.04c.55 1.9.55 1.9.55 4.9-3.07-2.36-4.72-3.71-5.55-7.56q-.37-3.7-.45-7.44"/><path fill="#c96b1f" d="M159 250c1.63 4.06.3 7.2-.94 11.25l-1.15 3.83L156 268h-1c-.08-4.79-.14-9.32 1-14l2-1z"/><path fill="#a54513" d="M364 388h3c-.34 3.18-1.02 4.02-3.44 6.25C361 396 361 396 359 396v2l-2-1 2-1.81c2.34-2.07 2.34-2.07 2-5.19h3z"/><path fill="#bb5217" d="m379 371 5 2v-2l3 1-7 7c-1-4-1-4-1-8"/><path fill="#652c08" d="M247 444c3.12.49 6 1 9 2l1-2 1 5c-4.87-.45-7.39-1.7-11-5"/><path fill="#924a18" d="M302 404v2c-3.86 3.66-7.64 5.6-13 6 3.18-3.57 7.96-8 13-8"/><path fill="#5e260c" d="M145 327c3.9 3.47 6.37 7.55 9 12h-3v-2h-2c-2.84-3.67-4-5.27-4-10"/><path fill="#a14914" d="M296.94 322.25c2.39.87 3.47 1.78 5.06 3.75l1 3c-2.44-.81-2.44-.81-5-2l-1-3h-3l-1 4v-5c2-1 2-1 3.94-.75"/><path fill="#502005" d="M195 339c2 1.81 2 1.81 4 4v3c-4.55.37-4.55.37-6.81-1.5L191 343h4z"/><path fill="#d96f18" d="M189 334c2.8 2.53 4.46 4.2 5 8a29 29 0 0 1-9-5l3-1z"/><path fill="#ce6417" d="M320 333v5c-6.15-.59-6.15-.59-8-1l-1-2 3.94-1 2.21-.56C319 333 319 333 320 333"/><path fill="#f07c26" d="m375 253-2 3h-3v2h-2v-3l-2-1c3.43-1.62 5.38-2.34 9-1"/><path fill="#cb601a" d="M142 327c3.4 3.13 5.6 5.57 7 10l-3 1v-4h-2c-2-3-2-3-2-7"/><path fill="#94430f" d="m222 283 6 1v2l5 2v2a43 43 0 0 1-11-6z"/><path fill="#934212" d="M299 259c7.26.37 7.26.37 11 3.56l2 2.44-2 1c-2.1-.93-2.1-.93-4.5-2.31l-2.4-1.37C301 261 301 261 299 259"/><path fill="#b25c1c" d="m360 362 1 4-3.81 1.5-2.15.84C353 369 353 369 350 369a19.3 19.3 0 0 1 9-6z"/><path fill="#b55b1a" d="M393 319q2.51.43 5 1c-1.4 2.82-3.48 4.16-6 6h-2c1.88-5.87 1.88-5.87 3-7"/><path fill="#a14313" d="M433 289h1c-.87 6.75-.87 6.75-2 9h-2l-1 4-1-2c.74-2.1.74-2.1 1.88-4.5l1.11-2.4q.99-2.06 2.01-4.1"/><path fill="#974b17" d="M367 254c-2.12 2.56-2.12 2.56-5 5-3.31-.19-3.31-.19-6-1 7.23-5.89 7.23-5.89 11-4"/><path fill="#8e4614" d="M232 49c0 2 0 2-1.2 3.58-2.24 1.76-3.68 1.9-6.49 2.1l-2.45.2L220 55c3.4-2.75 7.48-6 12-6"/><path fill="#f67f28" d="m310 400 3 1c0 3.1-.54 4.35-2 7l-3-1z"/><path fill="#dd7015" d="m106 304 3 1v9c-2.49-2.92-3.59-5.17-4-9z"/><path fill="#6a2d0b" d="M384 177v2h2v2h-3l-1-2-9 1c4.22-3.23 5.73-4.25 11-3"/><path fill="#8f4010" d="M180 369c6.75 1.88 6.75 1.88 9 3l-1 4-4-2.94-2.25-1.65L180 370z"/><path fill="#cf6220" d="M135 316c3.34 3 5.15 5.93 7 10l-5 1-.68-5.96c-.3-2.23-.3-2.23-1.32-5.04"/><path fill="#bb5819" d="M211 205h1l2 6.38 1.13 3.58C216 218 216 218 216 220l-3-1a37 37 0 0 1-2-14"/><path fill="#913c10" d="M302 81c5.08-.62 7.83 1.38 12 4v2a70 70 0 0 1-12-5z"/><path fill="#b55618" d="M233 434h8l-2 2c.32 2.1.32 2.1 1 4l-7-4z"/><path fill="#eb812c" d="m283 415 4 1c-2.31 2.5-2.31 2.5-5 5h-3l2-4h2z"/><path fill="#bb6320" d="M293 412c-1.62 2.06-1.62 2.06-4 4-3.25-.25-3.25-.25-6-1 2.7-3.26 5.98-5.01 10-3"/><path fill="#e16e1b" d="m211 393 3 1v2l2.31.31C219 397 219 397 222 400l-10-2 1-3h-2z"/><path fill="#8e4616" d="m160 385 8 2v4h2l-1 2-4.5-3.44-2.53-1.93L160 386z"/><path fill="#824113" d="m161 314 3 1 1 3 2 1a39 39 0 0 1 1 5l-3-2v-2h-2c-2-3-2-3-2-6"/><path fill="#c3661c" d="m216 418-3 1v4l-4-1v-4c3.01-.93 3.87-1.04 7 0"/><path fill="#de701d" d="M162 240h4c-.31 2.38-.31 2.38-1 5l-3 2z"/><path fill="#a0420f" d="m302 435-3.87 2.56-2.18 1.44-1.95 1-2-1c.63-1.94.63-1.94 2-4 5.19-1.4 5.19-1.4 8 0"/><path fill="#ab4a1a" d="m335 411 3 1-2 1v2l-6 2v-2h2l1-3z"/><path fill="#7b3008" d="m300 306 4 1v2l4 1v3c-3.4-1.01-4.76-1.65-6.81-4.62z"/><path fill="#9e4811" d="M367 229c4.71.48 8.67.97 13 3v1q-2.4-.14-4.81-.31l-2.71-.18c-2.79-.57-3.72-1.33-5.48-3.51"/><path fill="#7d2c07" d="m384 190 4 1-9 6v-3l5-2z"/><path fill="#73350b" d="M316 141c2.31-.25 2.31-.25 5 0 1.88 1.75 1.88 1.75 3 4-.31 2.25-.31 2.25-1 4l-1.25-2.44c-1.48-2.7-1.48-2.7-3.94-3.37L316 143z"/><path fill="#8b4312" d="m323 389 2 1c-2.25 2.56-2.25 2.56-5 5l-4-1z"/><path fill="#964412" d="M329 257a25.4 25.4 0 0 1 11 6 70 70 0 0 1-11-3z"/><path fill="#d56c14" d="M194 240h3l1.56 3.81.88 2.15C200 248 200 248 199 251c-2.35-2.55-2.98-3.71-3.19-7.25L196 241z"/><path fill="#bb5215" d="M307 236v2c-2 1.63-2 1.63-4 3l1 2-4-1c.25-1.87.25-1.87 1-4 2.15-1.38 3.44-2 6-2"/><path fill="#df6a17" d="m387 185 1 5c-2.17-.5-4-1-6-2v-2c3-1 3-1 5-1"/><path fill="#9b4b17" d="M130 98v3l-11 2c1.29-2.58 2.27-2.67 4.94-3.62l2.15-.8C128 98 128 98 130 98"/><path fill="#862e0b" d="m350 401 3 1-8 6-1-2h2v-2c1.81-1.69 1.81-1.69 4-3"/><path fill="#b95914" d="m99 293 4 1v5h-3z"/><path fill="#ce621a" d="M234 242c1.94.81 1.94.81 4 2l1 3c2 1.2 2 1.2 4 2l-5-1v-2l-4-1z"/><path fill="#cf6523" d="M303 221v2h-2l-1 4h-3l-1-2h3v-3c2-1 2-1 4-1"/><path fill="#a44d12" d="m239 212 1 2h2l1 7c-2-1.12-2-1.12-4-3-.25-3.19-.25-3.19 0-6"/><path fill="#da691c" d="m208 201 1 4h2v6l-3-1z"/><path fill="#8b4514" d="m201 183 2 1-2 4h-2v3l-4-1z"/><path fill="#d26715" d="M340 69c3.91 1.16 6.87 2.36 10 5l-10-2z"/><path fill="#f87b1e" d="M296 50c5.75 1.75 5.75 1.75 8 4h-8z"/><path fill="#8a350e" d="M400 356c-1.44 3.37-3.33 5.51-6 8v-4h2v-3c2-1 2-1 4-1"/><path fill="#5c2504" d="M157 343q2.55 1.93 5 4v2h2l-1 2c-1.87-.62-1.87-.62-4-2-1.25-3.12-1.25-3.12-2-6"/><path fill="#884416" d="m303 329 5 1v2h2l1 3-5-2v-2l-3-1z"/><path fill="#dd6e1c" d="M400 309c1.2 4.77.34 5.88-2 10l-2-2z"/><path fill="#954612" d="M354 291h7l1 4c-3.36-.6-5.38-1.85-8-4"/><path fill="#e76b23" d="m362 268 4 2c-4.75 3-4.75 3-7 3l1-4 2 1z"/><path fill="#6a2b0c" d="M219 221c2.8 2.53 4.46 4.2 5 8-3-1-3-1-5-4z"/><path fill="#dc6116" d="M295 174h3v2l2 1-7 2c.88-3.87.88-3.87 2-5"/><path fill="#e36e21" d="M375 113a26 26 0 0 1 9 3v2c-3.78-1.1-6.47-1.9-9-5"/><path fill="#9a4912" d="M390 92c3.69.5 5.6 1.1 8 4l-2 1q-3.05-1.4-6-3z"/><path fill="#f87e1b" d="m327 88 5 1v3l-5-1z"/><path fill="#8f3f0c" d="M331 63c5.75 1.88 5.75 1.88 8 3v3l-5-2v-2l-3-1z"/><path fill="#883f16" d="M183 403c2.88.19 2.88.19 6 1 1.38 2.56 1.38 2.56 2 5-3.37-1.44-5.51-3.33-8-6"/><path fill="#8c3e0b" d="m197 382 6 1 1 4a19 19 0 0 1-7-5"/><path fill="#944814" d="m154 379 6 1v5q-3.03-2.46-6-5z"/><path fill="#964b1a" d="m134 358 5 1 1 6-2-1v-2h-2z"/><path fill="#a94c11" d="M292 256h6l1 3-6-2v5h-1z"/><path fill="#b44b13" d="M328 226c-3.44 2.3-5.94 2.54-10 3l1-3c5.63-1.12 5.63-1.12 9 0"/><path fill="#7b3408" d="M372 214c3.67.7 6.7 2.28 10 4-3 1-3 1-6.12-.31C373 216 373 216 372 214"/><path fill="#8f4713" d="m233 200 2 1q1.1 3.47 2 7h-3z"/><path fill="#843a09" d="M400 128c2.75-.25 2.75-.25 6 0 2.38 2 2.38 2 4 4l-10-3z"/><path fill="#cc661d" d="M328 63c2.17.5 4 1 6 2v2h-5z"/></svg>