<svg xmlns="http://www.w3.org/2000/svg" width="995" height="1580" fill="none" viewBox="0 0 995 1580"><path fill="#858282" d="M51.1 255.77c9.08-.72 18.48-.37 27.64-1.05 114.78-8.58 233.74-36.1 333.26-95.59 32.78-19.59 63.96-44.57 93.21-68.86 6.23 4.07 22.77 18.32 29.32 23.64a709 709 0 0 0 54.64 40.86c87.65 58.38 191.01 90 295.52 98.28 10.55.84 23.73.55 33.81 2.27l.78.13.49-.03q11.54-.14 23.06.3c.58 28.06.14 57.44.11 85.59l.1 148.38c.2 104.96.34 210.57-7.45 315.27-2.84 37.97-6.18 76.84-12 114.45a1025 1025 0 0 1-35.66 153.57c-3.44 10.99-18.45 55.69-23.64 64.68-6.25 19.46-23.04 51.78-32.38 69.81-62.62 120.84-155.38 222.47-266.27 300.78-17.1 12.08-45.89 32.81-64.21 42.6-8.43-2.99-22.66-11.01-30.92-15.78-44.45-25.65-87.52-56.27-126.9-89.18-2.38-1.99-14.98-12.76-15.92-14.16-11.26-9.18-27.86-24.36-37.72-35.17-4.63-3.09-22.77-22.35-27.18-27.07-57.47-61.34-114.4-148.67-143.72-227.72-3.01-5.54-11.64-29.55-13.1-35.02-3.4-8.57-7.15-21.74-10.11-30.82a1097 1097 0 0 1-9.5-34.9c.43-3.32 1.2-6.67 1.89-9.96-.22-1.77-1.5-6.44-1.97-8.35-1.23.21-1.5.69-2.35 1.63l-.3.34-1.44-.18c-5.65-19.59-15.1-71.66-16.87-91.96-.79-1.68-1.63-8.14-1.9-10.2-15.29-114.78-12.34-230.55-12.6-346.01-.06-20.4-.14-40.88.22-61.24-1.3-60.56.63-121.81-.13-182.46-.31-25.28-.4-51.65.18-76.87m66.66 64.07q-.82 144.48.2 288.95c0 29.83 1.8 67.18.77 96.08.95 18.27.75 36.93 1.18 55.24q1.07 38.4 3.56 76.73c1.11 16.24 3.13 32.44 4.91 48.6.4 3.62 2.8 20.6 2.62 23.24 3.17 19.52 5.4 39.47 9.01 58.7 8.96 47.73 21.21 97.52 38.3 142.86 41.85 111.1 114.31 212.67 206.08 288 1.74 1.43 4.7 3.67 6.11 5.19 6.75 4.01 24.73 19.29 32.87 24.97 23.57 16.46 49.6 33.83 75.27 46.55 53.69-32.98 96.84-64.18 141.5-109.17a754 754 0 0 0 182.24-302.72c7.47-23.99 12.46-46.83 17.96-71.33 29.95-133.68 32.91-268.7 32.94-404.95l-.11-264.56c-86.9-5.7-205.37-42.34-280.47-86.68a875 875 0 0 1-64.47-42.7c-9.6-6.95-19.06-14.7-28.68-21.44-9.48 8.15-28.68 20.88-39.18 27.97a656 656 0 0 1-99.47 55.55c-69.8 31.17-167.02 56.05-243.14 64.92M513.7 1505.93a10.7 10.7 0 0 0-2.83-5.21c-4.8-4.83-9.68-2-13.38 2.23 3 10.52 9.6 9.9 16.21 2.98m312.36-337.56c-1.08-3.97-2.15-7.46-6.53-8.36-2.19 1.37-1.49.87-2.78 3.53 1.2 2.33 1.6 3.82 3.9 4.93 2.38.21 3.02.2 5.4-.1"/><path fill="#b7b6b5" d="M51.1 255.77c9.08-.72 18.48-.37 27.64-1.05 114.78-8.58 233.74-36.1 333.26-95.59 32.78-19.59 63.96-44.57 93.21-68.86 6.23 4.07 22.77 18.32 29.32 23.64a709 709 0 0 0 54.64 40.86c87.65 58.38 191.01 90 295.52 98.28 10.55.84 23.73.55 33.81 2.27l.78.13.49-.03q11.54-.14 23.06.3c.58 28.06.14 57.44.11 85.59l.1 148.38c.2 104.96.34 210.57-7.45 315.27-2.84 37.97-6.18 76.84-12 114.45a1025 1025 0 0 1-35.66 153.57c-3.44 10.99-18.45 55.69-23.64 64.68l-1.02-.53c.39-2.25 6.03-15.72 7.32-19.24 4.74-12.85 10.29-26.39 14.38-39.42a1082 1082 0 0 0 35.18-146.8c2.74-16.13 5.95-37.53 7.44-54.12.34-3.74-5.78-3.23-6.11-12.28-.28-7.74 3.18-19.63-.91-25.4.04-3.09-.23-5.34-.57-8.39-1.04-.15-.78-.17-1.75-.76 1.92-29.03 5.19-58.3 6.3-87.4 6.02-156.96.78-314.21 1.2-471.03-5.13-.01-14-1.07-18.47-.33 6.3 3.39 13.37-.26 15.98 1.73 1.54 4.23 1.16 10.43.5 14.83l-2.5-2.89-2.24-.07c-4.73-5.03-6.77-4.21-12.4-1.5l-.34-2.9c-3.35-1.1-7.2 4.4-8.88 7.03-.66 5.67-1.1 6.46-5.05 10.71-2.64.36-7.71.91-10.09 1.53-7.07-1.84-15.12-2.13-22.43-3.13-35.05-4.8-68.95-12.17-103.17-20.96l.01 2.45c28.83 8.22 49.55 11.25 78.02 17.2-.55 3.35-.66 4.2-1.95 7.42-37.9-5.76-73.78-16.13-110.2-27.75-4.77-1.25-9.49-3.3-14.07-5.16-6.89-2.19-15.22-5.48-22.2-7.98q-7.15-3.06-14.26-6.2c-15.93-7.76-32.13-13.6-47.45-23.45l-4.4-2.45a644 644 0 0 1-51.01-30.95c-18.12-12.32-43.1-31.84-60.54-42.55-2.4-.13-1.74.04-4.23 2.23l-5.62 3.96c.13 1.89.37 6.73.79 8.29-9.48 8.15-28.68 20.88-39.18 27.97a656 656 0 0 1-99.47 55.55c-69.8 31.17-167.02 56.05-243.14 64.92-1.54-2.5-3.26-5.52-2.77-8.54 1.6-9.93 50.87-5.96 61.85-13.6-11.95.5-16.3 4.35-28.33 1.82.33-3.66-.2-2.52 1.6-5.16l.3-2.73c-7.06 1-15.7 2.46-22.7 3.02-2.84-.59-13.41-4.06-15-4.06-5.77-.01-5.32 2.96-13.31.95-.08-4.4-.4-4.8-2.14-8.96l.45-.76.32-.9.71 1.89c1.62-1.18 1.23-.59 1.82-2.76l.2-.78c1.6-5.86-2.95-6.76.28-10.73q3.4.05 6.77-.11l-.63-.88c-1.54.31-2.47.07-4.02-.14-14.68 1.28-21.11 2.84-36.45 2.52-.5 3.44-.47 6.84-.43 10.31a464 464 0 0 1-.9 37.12c-.73 3.2-.24 7.1-1.08 8.83l-1.12 8.27c.3 6.59.2 13.03.13 19.61l.05 3.76a839 839 0 0 0 .03 26.74q-.3 25.29.01 50.58c-.77 29.87-1.19 64.96-.7 94.65l.3 44.53c.02 5.47.34 19.73-.4 24.53-1.13-12.83-1.86-45.13-.32-57.04l-.9-.46c-7.48 7.36-5.12 26.32-5.06 36.26.8.34 1.55.57 2.38.8 2.33 10.08 1.08 20.5-.73 30.66l-.48.01c-3.57-28.37-.45-59.8-2.54-87.87-.5 7.28.37 14.3-.5 22.02-.29-.63-1.34-57.07-1.37-63.26-.4 5.27-.79 33.28-2.04 35.12-1.3-60.56.63-121.81-.13-182.46-.31-25.28-.4-51.65.18-76.87"/><path fill="#767574" d="M51.1 255.77c9.08-.72 18.48-.37 27.64-1.05 114.78-8.58 233.74-36.1 333.26-95.59 32.78-19.59 63.96-44.57 93.21-68.86 6.23 4.07 22.77 18.32 29.32 23.64a709 709 0 0 0 54.64 40.86c87.65 58.38 191.01 90 295.52 98.28 10.55.84 23.73.55 33.81 2.27l.78.13.49-.03q11.54-.14 23.06.3c.58 28.06.14 57.44.11 85.59l.1 148.38c.2 104.96.34 210.57-7.45 315.27-2.84 37.97-6.18 76.84-12 114.45a1025 1025 0 0 1-35.66 153.57c-3.44 10.99-18.45 55.69-23.64 64.68l-1.02-.53c.39-2.25 6.03-15.72 7.32-19.24 4.74-12.85 10.29-26.39 14.38-39.42a1082 1082 0 0 0 35.18-146.8c2.74-16.13 5.95-37.53 7.44-54.12.34-3.74-5.78-3.23-6.11-12.28-.28-7.74 3.18-19.63-.91-25.4.04-3.09-.23-5.34-.57-8.39-1.04-.15-.78-.17-1.75-.76 1.92-29.03 5.19-58.3 6.3-87.4 6.02-156.96.78-314.21 1.2-471.03-5.13-.01-14-1.07-18.47-.33-20.97-3.57-45.07-4.25-67.02-7.7-92-14.45-180.02-46.81-257.52-98.99a803 803 0 0 1-50.56-37.05c-7.91-6.26-16.73-14.56-24.72-20.03a5 5 0 0 0-2.42.22l-.85.25-1.27-1.13.53-1.59c2.77-1.6 4.24-1.17 6.94.98 24.29 19.33 49.9 42.04 76.13 58.47 35.05 21.97 89.7 55.46 130.8 60.18-18.06-9.1-37.55-16.37-57.07-26.43C601.84 169 555.83 136.68 505.5 95.16c-19.78 16.98-39.42 33.87-60 49.92-9.84 7.67-21.63 13.84-30.81 22 19.5-8.92 33.92-19.03 51.26-31.62 6.55-4.76 15.7-11.64 22.38-15.63l-.96 1.14c-8.75 10.27-28.52 23.72-40.04 31.93C352.21 220.67 219 258.3 103.16 267.41c-14.68 1.28-21.11 2.84-36.45 2.52-.5 3.44-.47 6.84-.43 10.31a464 464 0 0 1-.9 37.12c-.73 3.2-.24 7.1-1.08 8.83l-1.12 8.27c.3 6.59.2 13.03.13 19.61l.05 3.76a839 839 0 0 0 .03 26.74q-.3 25.29.01 50.58c-.77 29.87-1.19 64.96-.7 94.65l.3 44.53c.02 5.47.34 19.73-.4 24.53-1.13-12.83-1.86-45.13-.32-57.04l-.9-.46c-7.48 7.36-5.12 26.32-5.06 36.26.8.34 1.55.57 2.38.8 2.33 10.08 1.08 20.5-.73 30.66l-.48.01c-3.57-28.37-.45-59.8-2.54-87.87-.5 7.28.37 14.3-.5 22.02-.29-.63-1.34-57.07-1.37-63.26-.4 5.27-.79 33.28-2.04 35.12-1.3-60.56.63-121.81-.13-182.46-.31-25.28-.4-51.65.18-76.87"/><path fill="#949191" d="M920 831.48c-.03-17.02 2.83-39.41 4.05-56.8q2.9-44.25 4-88.59 2.91-151.81 1.38-303.62l-.05-62.62c-.04-11.35-1.75-43.91 4.6-52.07l1.59-.55c4.43 7.4-.3 163.7 1.73 185.45.28 3.07 2.58 29.88 2.53 32.8a9297 9297 0 0 0-2 167.26q-.27 39.86-1.54 79.71a1996 1996 0 0 1-6.45 105.63c-.73 8.25-1.11 23.13-2.86 30.38q-.45 1.9-1.15 3.7l-.93.19c-2.94-6.97-1.5-22.41-1.6-30.12-.02-.89-1.91-1.98-2.73-2.37.04-3.08-.23-5.33-.57-8.38M54.95 521.22l.29-188.3c.05-9.63-1.57-65.62.93-69.8 6.89 4.78 4.68 55.77 4.68 67.24l.2 104.08c.03 5.13-.2 24.86.72 28.88.78-2.66.56-18.4.63-22.66.46-25.47-.5-51.14-.25-76.58.07-7.21 0-23.5 1.03-29.62.3 6.59.2 13.03.13 19.61l.05 3.76q-.2 13.37.03 26.74-.3 25.29.01 50.58c-.77 29.87-1.19 64.96-.7 94.65l.3 44.53c.03 5.47.34 19.73-.4 24.53-1.13-12.83-1.86-45.13-.32-57.04l-.9-.46c-7.48 7.36-5.12 26.32-5.06 36.26.8.34 1.55.57 2.38.8 2.33 10.08 1.08 20.5-.73 30.66l-.48.01c-3.56-28.37-.45-59.8-2.54-87.87m864.82-265.79c4.73 2.94 12.13 1.88 17.78 2.57-.48 1.13-.58 1.23-1.7 1.85-10.72 6.05-125.17-8.35-141.93-13.62-2.62-.82-5.73-1.75-7.1-4.31 1.84-2.4 18.9 3.13 23.5 3.52 23.83 2.03 87.75 15.27 108.96 10.01zm-858.19 4.85c12.22-.36 47.73-5.53 57.76-2-9.38 3.5-45.25 5.54-55.86 6.1 1.08 1.56 2.9 3.81 3.24 5.55-.52 3.44-.48 6.84-.44 10.32a464 464 0 0 1-.9 37.1c-.73 3.2-.24 7.1-1.08 8.84-1.69-5.35-2.08-48.4-2.06-56.92z"/><path fill="#181817" d="M349.32 248.98c47.72-17.7 109.43-54.88 149.44-85.87.13 1.89.37 6.73.79 8.29-9.48 8.15-28.68 20.88-39.18 27.97a656 656 0 0 1-99.47 55.55c-69.8 31.17-167.02 56.05-243.14 64.92-1.54-2.5-3.26-5.52-2.77-8.54 1.6-9.93 50.87-5.96 61.85-13.6 60.03-13.18 115.18-23.99 172.48-48.72"/><path fill="#d5d5d5" d="M506.62 148.6c4.14 4.36 17.82 13.81 23.26 17.75a879 879 0 0 0 89.41 57.95c1.1 2.6 1.64 3.4.88 6.12a644 644 0 0 1-51.02-30.95c-18.12-12.32-43.1-31.84-60.54-42.55-2.4-.13-1.74.04-4.23 2.23l-5.62 3.96c-40 30.99-101.72 68.16-149.44 85.87-1.45-1.45-1.67-4.72-2.18-7.13 3.56-1.38 7.28-3.14 10.8-4.71 4.13-.62 20.56-8.51 24.98-10.7 40.1-19.81 90.14-48.5 123.7-77.84"/><path fill="#d5d5d5" d="M347.14 241.85c.51 2.41.73 5.68 2.18 7.13-57.3 24.73-112.45 35.54-172.48 48.73-11.95.5-16.3 4.34-28.33 1.81.33-3.66-.2-2.52 1.6-5.16l.3-2.73c5.81-.49 17.67-2.75 23.63-3.79a892 892 0 0 0 57.45-11.7c7.64-1.78 15.25-3.87 22.9-5.63 2.4-.55 1.93-.4 3.96.6 5.26.3 71.21-21.96 79.69-26.04q4.53-1.65 9.1-3.22"/><path fill="#767574" d="M150.42 291.63c5.8-.49 17.66-2.75 23.62-3.79a893 893 0 0 0 57.45-11.7c7.64-1.78 15.25-3.87 22.9-5.63 2.4-.55 1.93-.4 3.96.6-30.75 7.62-60.97 14.74-92.25 19.85-5.2.85-10.9 2.02-15.99 3.4zm606.25-12.84c-5.38-2.21-16.78-4.4-21.65-7.44 5.69.66 15.74 3.5 21.64 4.99z"/><path fill="#d5d5d5" d="M619.3 224.3c2.77 1.03 4.76 1.51 6.7 3.79.38 1.94.28 3.38-1.44 4.78l-4.4-2.45c.77-2.72.23-3.52-.87-6.11"/><path fill="#767574" d="M338.04 245.08c.33-.59 1.07-1.89 1.7-2.14 6.66-2.62 11.04-6.62 18.2-5.8-3.52 1.58-7.24 3.33-10.8 4.71a558 558 0 0 0-9.1 3.22"/><path fill="#181817" d="M495.86 121.4c5.27-3.18 11.34-6.3 16.26-1.23 4.73 4.45 5.02 5.3 6.46 11.7-2.75 4.95-4.63 9.17-10.56 10.83-11.22 3.13-20.8-8.94-14.13-18.88q.86-1.31 1.97-2.41"/><path fill="#5e5c5c" d="M495.86 121.4c5.27-3.18 11.34-6.3 16.26-1.23-9.36-2.2-7.44 6.27-13.52 6.37-2.09-2-2.01-1.82-2.74-5.14"/><path fill="#181817" d="M225.12 256.42c3.78-.65 8.23-.2 9.05 4.2-1.67 2.09-2.13 1.52-5.46 1.95 2.31.13 3.35-.02 5.3 1.06.75 3.24-2.6 7.27-5.6 8.37-9.22.48-13.48-14.35-3.29-15.58"/><path fill="#d5d5d5" d="M225.12 256.42c3.78-.65 8.23-.2 9.05 4.2-1.67 2.09-2.13 1.52-5.46 1.95-2.25-2.52-2.43-3.14-3.59-6.15"/><path fill="#181817" d="M682.6 233.04c2.58-1.85 1.37-1.4 4.64-1.62 3.21 1.13 4.65 2.88 5.44 6.16 2.54 7.56-8.52 11.58-12.2 7.54-2.76-3.04-2.6-10.42 1.26-13.13z"/><path fill="#d5d5d5" d="M682.6 233.04c2.58-1.85 1.37-1.4 4.64-1.62 3.21 1.13 4.65 2.88 5.44 6.16-2.07.36-3 .4-5.1.46-2.76-.95-3.34-2.5-4.99-5"/><path fill="#181817" d="M156 272.04c2.68-.63 3.65-1.08 6.2.1 2.18 2.12 2.4 3.08 3.47 5.82.22 8.4-12.32 10.83-15.82 1.93.13-3.66 2.13-7.53 6.15-7.85"/><path fill="#d5d5d5" d="M156 272.04c2.68-.63 3.65-1.08 6.2.1 2.18 2.12 2.4 3.08 3.47 5.82-2.65.33-3.02.37-5.58-.33-2.4-1.56-2.86-3.06-4.09-5.59"/><path fill="#181817" d="M350.19 218.3c1.12-2.55.4-1.77 2.64-3.1 5.1.32 6.45 2.43 6.44 7.29.37 8.74-11.24 10.27-14.16 3-1.15-2.84 1-8.1 4.53-8.76z"/><path fill="#d5d5d5" d="M350.19 218.3c1.12-2.55.4-1.77 2.64-3.1 5.1.32 6.45 2.43 6.44 7.29-5.69.13-5.49 0-9.08-4.18"/><path fill="#181817" d="M755.8 257.76c2.13-1.86 1.1-1.38 3.96-1.76 3.41 1.03 5.27 3.29 5.5 6.89l.63.53c.33 9.75-17.85 10.3-14.52-2.64a6.7 6.7 0 0 1 3.77-4.05z"/><path fill="#d5d5d5" d="M755.8 257.76c2.13-1.86 1.1-1.38 3.96-1.76 3.41 1.03 5.27 3.29 5.5 6.89-6.11-.4-6.16 0-9.46-5.13"/><path fill="#181817" d="M289.07 240.23c2.51-1.17 2.88-1.39 5.56-.8 2.63 1.78 3.2 3.4 3 6.53l.64.9c-1.36 6-8.81 8.32-13 4.29-3.18-3.08-.61-11.3 3.8-10.92"/><path fill="#d5d5d5" d="M289.07 240.23c2.51-1.17 2.88-1.39 5.56-.8 2.63 1.78 3.2 3.4 3 6.53-5.74-.3-5.64-.78-8.56-5.73"/><path fill="#181817" d="m836.02 277.21 1.3-2.13c4.23-.78 7.41 3.38 7.3 7.13-.37 2.94-.41 3.36-2.02 5.83-10.13 6.21-13.88-7.65-7.2-11.67z"/><path fill="#d5d5d5" d="m836.02 277.21 1.3-2.13c4.23-.78 7.41 3.38 7.3 7.13-4.65-.6-5.57-1.73-8.6-5"/><path fill="#181817" d="M616.16 202.6c5.08-1.1 7.4.04 9.12 5.1.44 2.38.45 2.67-.26 4.96-6.55 6.35-17.12-1.64-8.86-10.06"/><path fill="#d5d5d5" d="M616.16 202.6c5.08-1.1 7.4.04 9.12 5.1-5.33 1.52-6.77-.83-9.12-5.1"/><path fill="#181817" d="M439.27 169.55c.63.84 1.37 3.52 2.22 4.2 2.83 2.23 4.65 1.13 6.83 3.97-.61 2.44-1.98 3.32-3.84 5.07-10.6 1.35-13.22-6.32-5.22-13.24m142.54 9.95c.42.43.53.48.7.91 3.37 8.63 6.2 3.64 9.47 7.03-.27 2.64-1.16 3.37-2.8 5.47-10.09 2.12-13.71-5.45-7.37-13.42"/><path fill="#949191" d="M703.86 260.7c4.5.58 19.3 5.47 23.24 7.62-5.28.54-18.5-4.72-23.24-7.63m-28.56-10.58c4.8.13 14.32 3.93 18.37 6.86-4.75-.44-14.18-4.46-18.37-6.86"/><path fill="#a3a0a0" d="M66.72 269.93c15.33.32 21.76-1.24 36.45-2.52 1.54.21 2.47.45 4 .14l.64.88q-3.38.15-6.77.1c-3.23 3.98 1.33 4.88-.27 10.74l-.2.78c-.6 2.17-.21 1.58-1.83 2.76l-.7-1.89-.33.9-.45.76c1.74 4.16 2.06 4.55 2.14 8.96 8 2.01 7.54-.96 13.3-.95 1.6 0 12.17 3.47 15 4.06-7.13.86-22.13 1.7-26.86 6.38 1.07 28.28.26 59.38.33 87.9l.75 136.07c.19 35.09-1.03 71.12 1.23 106.05.84 13.11-2 42.77.9 53.69q.75 75.8 5.24 151.47c1.75 25.58 5.54 51.07 7.2 75.51-.08 7.99-2.83 15.67-3.4 23.94-.61 9.05 2.28 23.03 1.26 30.92l-.61.31c-3.37-1.62-2.96-1.6-7.28-.07q-2.7.98-5.35 2.01c-1.44-3.67-6.05-17.15-8.22-18.96l-1.2.16c-1.99.93-4.86 2.11-6.55 3.39a805 805 0 0 0 16.23 80.15c1.67 6.58 4.54 18.95 6.88 25.01l-.35.47c-4.76-4.97-8.37-18.74-9.6-25.47l-1.71-2.18-1.1.44c-.07 6.11 12.03 34.37 13.6 42.23.2.98 1.55 2.2 2.45 2.74l-.64.51c-6.17-3.5-20.66-61.36-24.16-71.2-.64-1.77-3.35-4.12-4.56-6.08l-.3-.48c1.08 7.62 2.85 15.57 4.4 23.16-1.23.21-1.5.69-2.35 1.63l-.3.34-1.44-.18c-5.65-19.59-15.1-71.66-16.87-91.96-.79-1.68-1.63-8.14-1.9-10.2-15.29-114.78-12.33-230.55-12.6-346.01-.06-20.4-.14-40.88.22-61.24 1.25-1.84 1.65-29.85 2.04-35.12.03 6.2 1.08 62.63 1.36 63.26.88-7.72.01-14.74.51-22.02 2.1 28.07-1.02 59.5 2.54 87.87h.48c1.81-10.18 3.06-20.6.73-30.68a17 17 0 0 1-2.38-.79c-.06-9.94-2.42-28.9 5.06-36.26l.9.46c-1.54 11.9-.81 44.2.31 57.04.75-4.8.44-19.06.42-24.53l-.3-44.53c-.5-29.69-.08-64.78.69-94.65q-.3-25.29-.01-50.58a839 839 0 0 1-.03-26.74l-.05-3.76c.06-6.58.17-13.02-.13-19.61l1.12-8.27c.84-1.73.35-5.64 1.09-8.83a471 471 0 0 0 .9-37.12c-.05-3.47-.09-6.87.43-10.31"/><path fill="#787676" d="M51.04 515.1c1.25-1.84 1.65-29.85 2.04-35.12.03 6.2 1.08 62.63 1.36 63.26.88-7.72.01-14.74.51-22.02 2.1 28.07-1.02 59.5 2.54 87.87h.48c1.81-10.18 3.06-20.6.73-30.68a17 17 0 0 1-2.38-.79c-.06-9.93-2.42-28.9 5.06-36.26l.9.46c-1.54 11.9-.81 44.2.31 57.04.3 22.81 1.96 56.87.8 78.9.34 3.45.47 6.89.48 10.35.06 26.52 1.42 53 1.8 79.52-.44 8.44.36 17.5.43 26.05.06 7.62-.78 13.8-1.18 21.19.71 19.34 2.8 48.26 5.46 67.22-1.96 10.69 1.24 13.54 2.21 22.97.38 3.63 3.96 28 3.62 29.59-.97 5.14.19 17.33-.42 23.37 1.67 11.4 1.21 17.02 3.93 29.07.66 3.53 1.85 9.05 2.16 12.47 1.08 7.62 2.85 15.57 4.4 23.16-1.23.21-1.5.69-2.35 1.63l-.3.34-1.44-.18c-5.65-19.59-15.1-71.66-16.87-91.96-.79-1.68-1.63-8.14-1.9-10.2-15.29-114.77-12.33-230.54-12.6-346.01-.06-20.4-.14-40.88.22-61.24"/><path fill="#949191" d="M63.4 677.77q.48 5.16.47 10.34c.06 26.52 1.42 53 1.8 79.52-.44 8.44.36 17.5.43 26.05.06 7.62-.78 13.8-1.18 21.19-.9-2.73-2.9-11-3.1-13.29-.95-11.12-5.9-85.05-2.7-89.54 1.56.25 2 .43 3.56.02 1.06-6.26.08-25.54.71-34.3"/><path fill="#5e5c5c" d="M65.32 932.55c2.83 3.46 4.15 17.2 4.41 22.06 1.33-8.55-2.25-13.18-.85-23.73 1.84 2.82 3.2 29.98 6.3 32.98.74-2.22.6-3.54.61-5.84 1.67 11.4 1.21 17.02 3.93 29.07.66 3.53 1.85 9.05 2.16 12.47 1.08 7.62 2.85 15.57 4.4 23.16-1.23.21-1.5.69-2.35 1.63l-.3.34-1.44-.18c-5.65-19.59-15.1-71.66-16.87-91.96"/><path fill="#949191" d="M70.38 882.1c1.48 6.8 4.07 13.73 4.98 20.48 1.95 14.45 4.1 28.87 6.25 43.29q5.24 33.03 12.12 65.76c.64 2.96 4.76 20.09 4.58 21.95l-1.72-2.18-1.1.44c-.07 6.11 12.03 34.37 13.6 42.23.2.98 1.55 2.2 2.45 2.74l-.64.51c-6.17-3.5-20.66-61.36-24.16-71.2-.64-1.77-3.35-4.12-4.56-6.08l-.3-.48c-.31-3.42-1.5-8.94-2.16-12.47-2.72-12.05-2.26-17.67-3.93-29.07.61-6.04-.55-18.23.42-23.37.34-1.59-3.24-25.96-3.62-29.6-.97-9.42-4.17-12.27-2.2-22.96"/><path fill="#767574" d="M75.79 958.02c.61-6.04-.55-18.23.42-23.37 1.44 8.1 6.76 40.83 5.84 50.24-.02.3-1.84 1.82-2.33 2.2-2.72-12.05-2.26-17.67-3.93-29.07"/><path fill="#b7b6b5" d="M67.23 747.9c1.26 5.66.72 24.15 1.02 31.1.83 19.4 1.19 38.95 2.5 58.35q2.47 35.26 7.34 70.28c2.17 15.21 5.1 30.63 7.05 45.79a805 805 0 0 0 16.23 80.15c1.67 6.58 4.54 18.95 6.88 25.01l-.35.48c-4.76-4.98-8.37-18.75-9.6-25.48.19-1.86-3.93-18.99-4.57-21.95a1330 1330 0 0 1-12.12-65.76c-2.16-14.42-4.3-28.84-6.25-43.29-.91-6.75-3.5-13.68-4.98-20.49-2.66-18.96-4.75-47.88-5.46-67.23.4-7.39 1.24-13.56 1.18-21.18-.07-8.55-.87-17.61-.44-26.05l.74-.22c1.13-2.42.83-16.03.83-19.5"/><path fill="#d5d5d5" d="M63.4 435.15c3.38 4.69 2.33 46.83 2.35 54.94q.12 46.53-.26 93.05-.51 82.4 1.74 164.77c0 3.47.3 17.08-.83 19.5l-.74.22c-.37-26.51-1.73-53-1.79-79.52q.01-5.18-.48-10.34c1.16-22.04-.5-56.1-.8-78.91.75-4.8.44-19.06.42-24.53l-.3-44.53c-.5-29.69-.08-64.78.69-94.65"/><path fill="#181817" d="m81.2 277.55.65 1.12c7.16-.77 10.64-1.18 14.81 5.66l.6-1.75c1.74 4.16 2.06 4.55 2.14 8.96-16.33 27.66-41.05-3.5-18.2-14"/><path fill="#d5d5d5" d="M81.85 278.67c7.16-.77 10.64-1.18 14.81 5.66-5.9 9.44-12.64 2.27-14.8-5.66"/><path fill="#aaa8a9" d="M65.39 317.36c.11 7.54 2.47 31.94-.44 36.98l-1.64-.26c.06-6.6.17-13.03-.13-19.62l1.12-8.27c.84-1.73.35-5.64 1.09-8.83"/><path fill="#b7b6b5" d="M63.36 357.83c.87 4.57 1.34 5.47 2.5 9.37 1.44 4.84-1.61 12.78-2.47 17.37q-.22-13.37-.03-26.74"/><path fill="#5e5c5c" d="M81.2 277.55c7.97-1.87 10.42-1.47 16.5 4.27l-.44.76-.6 1.75c-4.17-6.84-7.65-6.43-14.8-5.66z"/><path fill="#767574" d="M91.7 950.03c-2.3-2.8-4.04-4.37-4.6-8.06l.77-1.04c3.67 1.68 4.18 5.38 5.02 8.95z"/><path fill="#181817" d="M81.22 605.24c5.75-.76 9.2-.1 10.5 6.64l1.07 1.33c.52 4.25-3.88 9.26-7.5 10.27-9.48 2.64-16.04-15.58-4.07-18.24"/><path fill="#d5d5d5" d="M81.22 605.24c5.75-.76 9.2-.1 10.5 6.64-3.97 1.4-4.74 1.82-8.27-.08-1.75-2.31-1.78-3.76-2.23-6.56"/><path fill="#181817" d="M91.8 371.81c4.52 7.71-12.02 16.02-16.15 6-2.24-5.43 1.38-17.71 8.13-13.57 4.4.96 7.53 2.3 8.02 7.57"/><path fill="#d5d5d5" d="M83.78 364.24c4.4.96 7.53 2.3 8.02 7.57-4.33 1.18-6.82 1.3-9.55-2.53-.2-3.13-.4-1.87 1.53-5.04"/><path fill="#181817" d="M94.96 910.75c5.58-1 9.9.42 10.1 7.1l1.17.99c.82 9.73-15.12 14.53-17.42 1.85-.93-5.1.93-8.96 6.15-9.95"/><path fill="#d5d5d5" d="M94.96 910.75c5.58-1 9.9.42 10.1 7.1-3.89.73-4.26.98-7.36-.6-1.68-2.14-2-3.93-2.74-6.5"/><path fill="#181817" d="M81.03 435.43c5.86-2.8 9.27 1.08 10.16 6.79 3.62 5.8-4.22 9.63-8.79 10.72-9.69-3.05-11.32-15.11-1.37-17.51"/><path fill="#181817" d="M91.2 442.22c3.61 5.8-4.23 9.63-8.8 10.72 2.74-1.95 3.3-6.94 3.44-10.16 1.51-.2 3.9-.6 5.35-.56"/><path fill="#d5d5d5" d="M81.03 435.43c5.86-2.8 9.27 1.08 10.16 6.79-1.45-.03-3.84.36-5.35.56-3.49-2.4-3.8-3.46-4.8-7.35"/><path fill="#181817" d="M81.8 520.88c1.6-2.74.69-2.05 3.33-2.87 3.77.82 7.19 4.68 5.86 8.5l.88.42c.85 6.15-7.34 10.46-12.24 8.59-7.17-2.73-5.88-15.86 1.99-16.34z"/><path fill="#d5d5d5" d="M81.8 520.88c1.6-2.74.69-2.05 3.33-2.87 3.77.82 7.19 4.68 5.86 8.5-5.96.1-6.39-.8-9.18-5.63"/><path fill="#181817" d="M83.2 745.5c4.51-.75 7.68-.18 9.36 4.41-.78 2.45-.2 1.68-2.06 3.26 2.18-.59 1.28-.8 2.86.1 2 11-17.68 15.03-16.69-.95.17-2.7 4.51-5.5 6.52-6.82"/><path fill="#d5d5d5" d="M83.2 745.5c4.51-.75 7.68-.18 9.36 4.41-.78 2.45-.2 1.68-2.06 3.26-1.94 0-1.98-.13-3.7-.88-2.3-2.25-2.6-3.8-3.6-6.78"/><path fill="#181817" d="M87.1 824.03c1.54-2.8.67-2.02 3.17-3.36 4.3 1.07 5.4 4.14 6.38 8.16.75.55.55.56 1 1.6-1.52 9.76-17.12 11.3-17.5-.03-.1-3.4 2.8-8.33 6.59-8.25z"/><path fill="#d5d5d5" d="M87.1 824.03c1.54-2.8.67-2.02 3.17-3.36 4.3 1.07 5.4 4.14 6.38 8.16-6.43-.08-6.34.6-9.56-4.8"/><path fill="#181817" d="m91.99 690.59.85 1.08c.56 12.82-20.2 11.57-16.84-1.76.69-2.71 3.27-6.62 6.52-5.53l.06 2.5 1.27-2.66c5.02-1.67 6.52 2.2 8.14 6.37"/><path fill="#d5d5d5" d="m82.58 686.87 1.27-2.65c5.02-1.67 6.52 2.2 8.14 6.37-1.77.36-3.1.42-4.9.54-2.63-.88-2.95-1.9-4.5-4.26"/><path fill="#767574" d="M103.58 950.08c1.9.3 2.33.61 4.1 1.48 1.58 2.5 1.22 1.36 1.34 4.33-3.06-.74-4.47-.84-6.01-3.14z"/><path fill="#212021" d="M504.38 159.15c2.5-2.2 1.82-2.36 4.23-2.23 17.43 10.7 42.42 30.23 60.53 42.55a644 644 0 0 0 51.03 30.95l4.39 2.45c15.32 9.85 31.52 15.7 47.45 23.45q7.12 3.15 14.26 6.2c6.98 2.5 15.31 5.8 22.2 7.99 4.58 1.85 9.3 3.9 14.06 5.15 36.43 11.62 72.3 21.99 110.2 27.75 17.4 2.47 36.72 4.6 53.81 7.4l.9.23.05 2.64c.69 35.2-.38 71.06.27 106.16-.26 116.1 2.2 235.9-5.56 351.56a2806 2806 0 0 1-3.88 48.31c-.45 5.03-1.72 20.91-2.87 25.27-.37 10.54-2.44 25.36-3.78 36.23a994 994 0 0 1-13.02 81.14c-8.13 39.79-18.07 82.55-31.7 120.99-40.04 112.82-104.74 216.65-192.04 298.87-42.75 40.26-82.88 67.22-132.1 97.28a518 518 0 0 1-47.71-27.31c-5.52-3.61-19.47-14.06-24.29-16.75-9.91-7.07-33.17-23.36-40.3-32 6.75 4.01 24.72 19.29 32.86 24.97 23.57 16.46 49.6 33.83 75.27 46.55 53.69-32.98 96.84-64.18 141.5-109.17a754 754 0 0 0 182.24-302.72c7.47-23.99 12.46-46.83 17.96-71.33 29.95-133.68 32.91-268.7 32.94-404.95l-.11-264.56c-86.9-5.7-205.37-42.34-280.47-86.68a875 875 0 0 1-64.47-42.7c-9.6-6.95-19.06-14.7-28.68-21.44-.42-1.56-.66-6.4-.8-8.3z"/><path fill="#5a5958" d="M875.45 844.98c-8.47-13.37-2.14-71.88-.86-89.1 5.04-67.94 4.89-134.7 4.83-202.83l.5-102.12.04-69.92c-.06-11.9-.33-23.77-.24-35.66.1-11.3 6.75-20.62 7.77-31.66.69 35.18-.38 71.05.27 106.15-.26 116.1 2.2 235.9-5.56 351.56a2806 2806 0 0 1-3.88 48.31c-.45 5.03-1.72 20.91-2.87 25.27"/><path fill="#4d4c4c" d="M504.38 159.15c2.5-2.2 1.82-2.36 4.23-2.23 17.43 10.7 42.42 30.23 60.53 42.55a644 644 0 0 0 51.03 30.95l4.39 2.45c15.32 9.85 31.52 15.7 47.45 23.45q7.12 3.15 14.26 6.2c6.98 2.5 15.32 5.8 22.2 7.99 4.58 1.85 9.3 3.9 14.06 5.15l-.73 1.68c3.6 3.49 8.27 3.56 11.49 7.77l.5.64c-4.33-1.56-9.8-2.72-14.47-4.37a819 819 0 0 1-31.63-11.9c-54.76-21.88-104.8-50.47-152.56-85.08-6.48-4.7-13.55-9.74-19.6-14.98-3.98-3.46-5.91-6.56-10.5-9.82z"/><path fill="#767574" d="M569.15 199.47a644 644 0 0 0 51.02 30.95l4.39 2.45c15.32 9.85 31.52 15.7 47.45 23.45-1.3.17-3.98.5-5.18.1-19.61-6.55-39.28-17.8-57.52-27.57-3.48-1.86-6.65-3.27-9.9-4.99-2-.9-7.31-6.36-9.13-6.92-12.8-3.9-13.83-6.35-21.13-17.47"/><path fill="#5e5c5c" d="M686.27 262.52c6.98 2.5 15.32 5.8 22.2 7.99l-2.11 2.23c-5.23.77-16.79-6.01-20.09-10.22m36.26 13.14c36.43 11.62 72.3 21.99 110.2 27.75 17.4 2.47 36.72 4.6 53.81 7.4-11.27-.23-30.14 1.21-40.3.4-31.07-2.5-83.8-13.06-112.45-25.46l-.5-.64c-3.22-4.21-7.88-4.28-11.5-7.77z"/><path fill="#767574" d="M127.7 294.65c7-.56 15.65-2.01 22.72-3.02l-.3 2.73c-1.81 2.64-1.28 1.5-1.61 5.16 12.03 2.53 16.38-1.31 28.33-1.81-10.98 7.63-60.24 3.66-61.85 13.6-.48 3.01 1.23 6.03 2.77 8.53q-.82 144.48.2 288.95c0 29.83 1.8 67.18.77 96.08.95 18.27.75 36.93 1.18 55.24q1.07 38.4 3.56 76.73c1.11 16.24 3.13 32.44 4.91 48.6.4 3.62 2.8 20.6 2.62 23.24 3.17 19.52 5.4 39.47 9.01 58.7 8.96 47.73 21.21 97.52 38.3 142.86 41.85 111.1 114.31 212.67 206.08 288 1.74 1.43 4.7 3.67 6.11 5.19 7.14 8.64 30.4 24.93 40.31 32-3.37.91-9.16-6.63-12.64-6.53-2.1 1.32-2.25 1.59-3.21 3.89 1.18 4.37 15.31 11.82 19.76 13.3 1.12 1.58.97 1.71 1.06 3.61l-.25.43c-25.27-16.32-41.17-31.41-64.23-49.11-1.52-2.28-2.2-2.59-4.44-4.17-1.15.12-2.62-.64-3.48-1.37-117.33-99.62-197.89-237.33-230-387.67-7.01-32.8-11.08-63.51-16.88-96.08-1.67-24.45-5.46-49.94-7.2-75.52q-4.5-75.67-5.25-151.48c-2.9-10.9-.05-40.57-.9-53.68-2.26-34.93-1.04-70.96-1.23-106.05l-.75-136.07c-.07-28.52.74-59.62-.33-87.9 4.73-4.68 19.73-5.52 26.87-6.38"/><path fill="#b7b6b5" d="M112.67 645.13c1.62-2.42 1.5-7.47 2.1-11.22.7 21.08 1.07 44.12 2.32 65.04.5 1.92 1 4.06 1.64 5.92.95 18.27.75 36.93 1.18 55.24q1.07 38.4 3.56 76.73c1.11 16.24 3.13 32.44 4.91 48.6.4 3.62 2.8 20.6 2.62 23.24 3.17 19.52 5.4 39.47 9.01 58.7 8.96 47.73 21.21 97.52 38.3 142.86 41.85 111.1 114.31 212.67 206.08 288 1.74 1.43 4.7 3.67 6.11 5.19 7.14 8.64 30.4 24.93 40.31 32-3.37.91-9.16-6.63-12.64-6.53-2.1 1.32-2.25 1.59-3.21 3.89 1.18 4.37 15.31 11.82 19.76 13.3 1.12 1.58.97 1.71 1.06 3.61l-.25.43c-25.27-16.32-41.17-31.41-64.23-49.11-1.52-2.28-2.2-2.59-4.44-4.17-10-8.53-21.25-19.84-30.75-29.12-46.93-45.82-93.97-105.54-125.39-163.34 2.38.23 2.73 1.02 4.86 2.61l.81-.23c.06-4.74-10.53-23.17-13.19-28.54a869 869 0 0 1-21.3-47.04 700 700 0 0 1-32.56-100.45c-29.19-115.65-35.47-234.13-36.83-352.94-.12-10.87-.1-21.81.16-32.67"/><path fill="#767574" d="M117.1 698.95c.5 1.92 1 4.06 1.63 5.92.95 18.27.75 36.93 1.18 55.24q1.07 38.4 3.56 76.73c1.11 16.24 3.13 32.44 4.91 48.6.4 3.62 2.8 20.6 2.62 23.24l-.8-.21c-1.15-2.55-2.6-16.9-3.09-20.67-8.07-62.48-9.22-125.9-10.02-188.85"/><path fill="#181817" d="M104.05 684.74c.13-6.53-.3-57.5.75-59.32l.4-.12c1.3 10.17.68 35 .8 46.66l1.52 84.7c3.03 124.42 18.18 253.71 64.77 369.94 4.97 12.4 31.1 69.83 38.43 77.79 31.42 57.8 78.46 117.52 125.39 163.34 9.5 9.28 20.75 20.59 30.75 29.12-1.15.12-2.62-.64-3.48-1.37-117.33-99.62-197.89-237.33-230-387.67-7.01-32.8-11.08-63.51-16.88-96.08-1.67-24.45-5.46-49.94-7.2-75.52q-4.5-75.67-5.25-151.48"/><path fill="#898787" d="M127.7 294.65c7-.56 15.65-2.01 22.72-3.02l-.3 2.73c-1.81 2.64-1.28 1.5-1.61 5.16-9.93 1.06-39.87 4.8-47.67 1.5 4.73-4.67 19.73-5.51 26.87-6.37"/><path fill="#aaa8a9" d="M112.67 645.13c-.66-10.07-.41-31.07 1.6-40.6.6 8.95.68 20.45.5 29.38-.6 3.75-.48 8.8-2.1 11.22"/><path fill="#d1d0d1" d="M887.76 419.84c4.04 2.17 3.72 2.08 6.32 5.88 1.39 57-1.67 116.1-1 173.13.13 10.96-1.57 43.35-.55 51.99-.25 15.58-1.19 33.83-.98 49.14l-.12.7c-1.82 10.96-1.57 42.24-2.28 55.31a1616 1616 0 0 1-10.58 119.11c-17.4 130.42-45.9 238.4-114.23 351.85a727 727 0 0 1-57.37 83.31 796 796 0 0 1-33.89 39.44c-5.81 6.38-12.26 12.33-18.2 18.61-2.18 2.29-.89 6.68-3.2 9.01-8.51 8.52-17.85 16.26-26.91 24.17a981 981 0 0 1-65.24 53.04c-17.14 12.51-36.12 25.11-55.31 34.2-4.04-2.06-7.54-4.05-12.07-4.82-7.4-1.76-48.8-27.76-56.62-33.78l.25-.43c-.09-1.9.06-2.03-1.06-3.61-4.45-1.48-18.58-8.93-19.76-13.3.96-2.3 1.1-2.57 3.2-3.88 3.49-.11 9.28 7.43 12.65 6.52 4.82 2.69 18.77 13.14 24.29 16.75a516 516 0 0 0 47.7 27.31c49.23-30.06 89.36-57.02 132.1-97.28 87.3-82.22 152.01-186.05 192.05-298.87 13.63-38.44 23.57-81.2 31.7-120.99a994 994 0 0 0 13.02-81.14c1.34-10.87 3.41-25.69 3.78-36.23 1.15-4.36 2.42-20.24 2.87-25.27q2.14-24.15 3.88-48.31c7.76-115.67 5.3-235.47 5.56-351.56"/><path fill="#d5d5d5" d="M887.43 311.04a28 28 0 0 1 2.58-4c1.44-.03.78-.2 2.03.52.12.74.5 3.44.73 3.96l.48 64.31c.27 16.62 1.05 33.2.83 49.89-2.6-3.8-2.28-3.71-6.32-5.88-.65-35.1.42-70.97-.27-106.15z"/><path fill="#181817" d="M897.4 288.19c1.68-2.64 5.54-8.14 8.88-7.03l.34 2.9c5.63-2.71 7.67-3.53 12.4 1.5l.95 1.7c3.27 1.7 2.72 5.57 1.53 8.62-3.6 4.65-6.4 6.85-11.17 10.3-9.08-3.62-12.22-8.52-12.93-17.99"/><path fill="#d5d5d5" d="M906.62 284.07c5.63-2.72 7.67-3.54 12.4 1.49l.95 1.7c-3.26 2.7-4.1 2.93-8.26 3.95-3.1-2.7-3.42-3.51-5.09-7.14"/><path fill="#767574" d="M919.97 287.26c3.27 1.7 2.72 5.57 1.53 8.62-5.27-1.06-6.16-1.14-9.79-4.67 4.16-1.02 5-1.25 8.26-3.95"/><path fill="#b7b6b5" d="M834.69 295.98c7.43.96 54.2 7.22 57.79 9.77.71 2.32.48 3.35.29 5.77-.23-.52-.61-3.22-.73-3.96-1.25-.72-.59-.55-2.03-.52a28 28 0 0 0-2.58 4l-.88-.24c-17.1-2.8-36.43-4.92-53.81-7.39 1.29-3.21 1.4-4.07 1.95-7.43"/><path fill="#181817" d="M371.3 1401.02c23.06 17.7 38.96 32.79 64.23 49.11 7.82 6.02 49.22 32.01 56.63 33.78 4.3 2.87 6.5 4.24 10.2 7.93-26.84-11.67-115.92-69.23-131.06-90.82"/><path fill="#676667" d="M88.25 1031.07c.61 11.44 11.31 26.42 12.42 39.69a13 13 0 0 0-1.68 5.07c-1.51.6-1.5.44-3.13.1a1096 1096 0 0 1-9.5-34.9c.43-3.32 1.2-6.67 1.89-9.96"/><path fill="#4d4c4c" d="M105.97 1106.75c.94-1.41.5-3.16.08-4.68l1.09 1.71.86-.16 1.87 1.32c2.57 6.43 13.97 33.99 14.8 39.57-2.97-2.07-1.36-.61-3-3.77l-2.6 1.03c-3.01-5.54-11.64-29.55-13.1-35.02"/><path fill="#5e5c5c" d="M289.97 1396.56c12.33 3.44 13.38 14.23 26.6 17.45 3.47 12.15 6.4 9.51 11.12 17.72-11.26-9.18-27.86-24.36-37.72-35.17M95.86 1075.93c1.63.34 1.62.5 3.13-.09.34-2.17.66-3.14 1.68-5.08 1.32 3.87 2.96 8.31 4 12.2l-.88.33-1.64-1.29c-1.43 4.98 5.45 18.2 7.72 22.94l-1.87-1.32-.86.16-1.1-1.71c.43 1.52.87 3.27-.07 4.68-3.4-8.57-7.15-21.74-10.11-30.82"/><path fill="#767574" d="M892.35 298.9c3.94-4.25 4.4-5.04 5.05-10.71.72 9.47 3.85 14.37 12.93 17.98-1.68 2.12-1.79 2.5-4.16 3.58-2.6-.29-4.4-2.5-6.47-4.39-2.36 6.94-2.63 13.75-4.25 17.97l-.54-.49 1-.52-.95-.44c.45-3.95 2.44-13.46 3.63-17.12 1.48-1 1.75-1.09 2.72-2.66-.18-1.68-.67-2.16-1.6-3.56-4.52-2.2-4.4-.86-7.68 2.34-3.18.06-6.73.33-9.77-.45 2.38-.62 7.45-1.17 10.09-1.53m.18 351.93c1.54 7.63 1.6 39.86.85 47.81-1.02 1.14-.52.9-1.83 1.34-.2-15.31.73-33.56.98-49.15"/><path fill="#949191" d="M206.1 1280.7a37 37 0 0 1 4.84.13c3.45 3.28 5.9 9.28 9.02 13.17 2.98 3.71 10.38 10.27 12.94 13.56 5.35 6.84 29.59 36.34 30.52 43.39-8.92-3.37-58.58-61.51-57.32-70.25"/><path fill="#181817" d="M503.01 1524.64c-29.02-3.77-11.73-28.3-5.07-25.21l-.44 3.52c3 10.52 9.6 9.9 16.21 2.98 3.9 10.8-1.7 14.58-10.7 18.71"/><path fill="#949191" d="M238.22 1284.49c2.53 1.24 30.54 35.92 32.8 39.9-1.24 2.02-1.99 1.72-4.68 2.64-.54-.01-2.64-.02-2.86-.33-6.68-9.52-26.01-30.48-30.35-39.09 1.09-2.01 2.5-2.02 5.1-3.12"/><path fill="#181817" d="M216.76 1256.08c2-1.94.99-1.43 3.86-1.82 3.85 1.18 5.7 3.84 7.7 7.13 1.82 4.4-.9 9.61-5.5 10.95-2.77.8-5.75.42-8.22-1.07-7.43-4.51-5.51-15.19 1.4-16.09z"/><path fill="#d5d5d5" d="M216.76 1256.08c2-1.94.99-1.43 3.86-1.82 3.85 1.18 5.7 3.84 7.7 7.13-7.39 2.36-8.4 1.67-11.56-5.31"/><path fill="#181817" d="M772.13 1244.41c1.55-2.86.62-2.09 3.4-3.06 3.73.66 6.5 4.81 6.73 8.39.23 10.29-15.35 14.93-17.34 2.86-.65-3.93 2.64-9.64 7-9.88z"/><path fill="#d5d5d5" d="M772.13 1244.41c1.55-2.86.62-2.09 3.4-3.06 3.73.66 6.5 4.81 6.73 8.39-2.69.55-3.18.64-5.9.41-2.5-1.31-2.98-3.11-4.23-5.74"/><path fill="#181817" d="M891.78 900.38c5.24-.46 8.81-.26 10.57 5.38-.07.25-.47 1.78-.63 2.05 1.9 3.9-1.42 8.28-4.95 9.86-1.6.73-3.4.77-5.03.1-7.15-2.85-9.1-14.76.03-17.4"/><path fill="#d5d5d5" d="M891.78 900.38c5.24-.46 8.81-.26 10.57 5.38-.07.25-.47 1.78-.63 2.05-3.11.53-4.67 1.11-7.35-.42-1.87-2.03-2.06-4.31-2.6-7.01"/><path fill="#181817" d="m143.8 1091.12.82 1.29c.48 11.11-18.7 11.49-17.9-.48.21-3.02 3.74-7.93 7.22-7.53l.27 1.93c1.66-2.47.73-1.79 3.47-2.64 3.76.57 5.9 3.81 6.11 7.43"/><path fill="#d5d5d5" d="M134.21 1086.33c1.66-2.47.73-1.79 3.47-2.64 3.76.57 5.9 3.81 6.11 7.43-2.62.43-3.12.51-5.75.2-2.28-1.22-2.64-2.63-3.83-4.99"/><path fill="#949191" d="M184.38 1242.77c3.68 2.99 7.18 11.22 11.2 15.95 7.74.63 7.58 15.11 7.33 20.84l-.28.45-1.1-.21c-4.87-6.92-16.04-25.27-19.23-33.82-.4-1.08 1.2-2.32 2.08-3.21"/><path fill="#181817" d="M874.28 996.37c5.22-.6 9.11 1.78 9.9 7.29-.24 3.85-1.88 8.52-5.49 10.43-10.1 1.92-16.93-15.67-4.4-17.72"/><path fill="#d5d5d5" d="M874.28 996.37c5.22-.6 9.11 1.78 9.9 7.29-3.83.89-4.6 1.23-7.72-.41-1.7-2.36-1.74-4.05-2.18-6.88"/><path fill="#181817" d="M109.75 993.9c5.34-.52 9.83 1.97 9.93 7.84 1.24 3.55-1.84 8.45-5 9.34-9.42 2.7-18.04-14.3-4.93-17.19"/><path fill="#d5d5d5" d="M109.75 993.9c5.34-.52 9.83 1.97 9.93 7.84-2.8.35-3.6.58-6.28-.42-2.28-1.8-2.8-4.63-3.65-7.43"/><path fill="#181817" d="M905.3 718.14c5.67-2.54 10.4-.87 10.58 5.88l-.75 1.3c.6.14.73.44 1.33.98.15 3.03-1.55 5.5-3.95 7.23a6.8 6.8 0 0 1-5.59 1.11c-7.39-1.77-10.02-11.78-1.62-16.5"/><path fill="#d5d5d5" d="M905.3 718.14c5.67-2.54 10.4-.87 10.58 5.88l-.75 1.3c-2.38.25-2.62.33-4.92-.15-2.64-1.68-3.46-4.15-4.91-7.03"/><path fill="#181817" d="M173.51 1166.61c.68 1.7 1.06 3.09.2 4.89-7.77 16.42-26.37-9.74-9.84-11.92 5.78-.03 7.7 1.17 9.64 7.03"/><path fill="#d5d5d5" d="M163.87 1159.58c5.78-.03 7.7 1.17 9.64 7.03-2.48.62-3.65 1.22-5.98.3-2.28-1.98-2.69-4.38-3.66-7.33"/><path fill="#181817" d="M901.74 801.14c4.97-1.2 10 .4 10.16 6.24 2.95 9.5-8.48 13.1-14.3 6.91a6.4 6.4 0 0 1-1.68-5.21c.51-3.8 3-5.91 5.82-7.94"/><path fill="#d5d5d5" d="M901.74 801.14c4.97-1.2 10 .4 10.16 6.24-3.55 1.58-4.09 2-7.28.81-1.96-2.1-2.22-4.27-2.88-7.05"/><path fill="#181817" d="M909.35 454.76c2.91-.56 3.86-.94 6.67.22 2.43 1.85 2.9 3.58 4.09 6.34-3.38 22.15-26.25 2.63-10.76-6.56"/><path fill="#d5d5d5" d="M909.35 454.76c2.91-.56 3.86-.94 6.67.22 2.43 1.85 2.9 3.58 4.09 6.34-2.68.32-3.76.59-6.43-.15-2.5-1.65-3.05-3.63-4.33-6.4"/><path fill="#181817" d="M910.09 546.41c1.78-2.54.82-1.92 3.51-2.61 3.51.86 5.99 4.43 6 7.97 3.59 8.08-12.67 13.82-15.23 3.4-1.11-4.5.65-8.82 5.26-10.14z"/><path fill="#d5d5d5" d="M910.09 546.41c1.78-2.54.82-1.92 3.51-2.61 3.51.86 5.99 4.43 6 7.97a51 51 0 0 1-5.63-.25c-2.37-1.15-2.71-2.66-3.88-5.1"/><path fill="#181817" d="M847.97 1085.21c3-.33 3.97-.64 6.6 1.04 1.65 2.02 2.4 3.63 2.4 6.35l.32.84c-.59 4.1-2.76 7.8-6.99 8.72-9 1.95-11.9-16.91-2.33-16.95"/><path fill="#949191" d="M847.97 1085.21c3.01-.33 3.97-.64 6.6 1.04 1.65 2.02 2.4 3.63 2.4 6.35-2.75.27-3.88.59-6.36-.79-1.94-2.12-2-3.77-2.64-6.6"/><path fill="#181817" d="M909.28 635.23c2.28-2.03 1.15-1.48 4.35-1.93 4.35 1.4 5.54 3.93 4.12 8.12l1.04.08c2.99 9.2-14.44 12.88-14.76 2.47-.12-4.2.4-7.84 4.65-9.55z"/><path fill="#d5d5d5" d="M909.28 635.23c2.28-2.03 1.15-1.48 4.35-1.93 4.35 1.4 5.54 3.93 4.12 8.12-1.32-.09-2.81-.28-4.15-.42-2.48-1.28-3.04-3.2-4.32-5.77"/><path fill="#181817" d="M653.17 1392.48c.9-3.43.18-2.83 2.46-4.51 4.18.24 6.08 2.82 6.66 6.9-.8 5.58-4.34 11.04-10.66 8.61a8.8 8.8 0 0 1-5.02-5.08c-1.6-4.26 1.29-8.42 5.22-9.84l1.15.84z"/><path fill="#d5d5d5" d="M653.17 1392.48c.9-3.43.18-2.83 2.46-4.51 4.18.24 6.08 2.82 6.66 6.9-5.2 1.1-5.28 1.29-9.12-2.39"/><path fill="#181817" d="m724.38 1327.31.52.58c.54 5.95-6.38 9.2-11.05 6.99a7 7 0 0 1-3.64-4.17c-1.22-3.79.53-9.87 4.95-10.75l1.2 1.04.19 4.09c.74-3.71.05-3.41 2.41-5.25 4.2-.02 7.29 3.7 5.42 7.47"/><path fill="#d5d5d5" d="M716.55 1325.09c.74-3.71.05-3.41 2.41-5.25 4.19-.02 7.29 3.7 5.42 7.47-4.44.16-4.73.13-7.83-2.22"/><path fill="#181817" d="M910.1 375.81c1.8-2.42.84-1.8 3.53-2.5 3.9 1 4.9 3.6 5.63 7.2.32 10.8-12.4 13-14.99 2.98-.9-3.52 1.5-8.47 5.6-9z"/><path fill="#d5d5d5" d="M910.1 375.81c1.8-2.42.84-1.8 3.53-2.5 3.9 1 4.9 3.6 5.63 7.2-1.84.25-3.05.25-4.9.27-2.4-1-2.93-2.63-4.27-4.97"/><path fill="#181817" d="M581.4 1452.84c2.22-1.88 1.15-1.46 4-1.61 2.73 1.22 4.11 3.46 4.56 6.35l.37.53c1.78 8.89-12.86 11.39-15.18 3.41-1.29-4.44 1.47-9.15 5.9-10.06z"/><path fill="#b7b6b5" d="M581.4 1452.84c2.22-1.88 1.15-1.46 4-1.61 2.73 1.22 4.11 3.46 4.56 6.35-2.28.5-2.6.49-4.96.43-2.42-1.66-2.2-2.31-3.6-5.17"/><path fill="#181817" d="m414.12 1455.85 1.26-1.96c2.54-.34 1.63-.32 4.3 1.03 1.56 2.31 1.4 1.43 1.62 4l-1.7 1.38c2.23.56 1.27 0 2.85 1.92.51 6.49-8.16 7.16-12.91 4.59-3.69-4.95-.7-12.99 4.14-12.63z"/><path fill="#d5d5d5" d="m414.12 1455.85 1.26-1.96c2.54-.34 1.63-.32 4.3 1.03 1.56 2.31 1.4 1.43 1.62 4l-1.7 1.38c-3.88.03-3.78-1.41-5.48-4.45"/><path fill="#aaa8a9" d="M338.58 1421c2.64 1.38 65.29 51.16 66.28 52.74-8.15-1.78-58.03-43.91-66.29-52.74"/><path fill="#181817" d="M826.07 1168.37c-.7 10.77-12.58 12.1-15.42 2.74-.9-2.94 1.6-9.38 5.79-9.54l.32 1.98c1.2 2.33 1.6 3.81 3.9 4.93 2.38.2 3.02.19 5.4-.11M275.8 1330.4c.53.32 1 .61 1.2 1.24 2.26 7.27 4.15 5.7 10.07 7.77l.6 1.58c-.88 2.6-2.3 3.54-4.32 5.34-11.1.31-15.63-7.43-7.56-15.93m64.07 64.9c2.33 1.55 1.9 4.24 3.4 6.09 2.33 2.86 6.93 2.7 6.56 7.15-1.73 2.05-2.83 2.06-5.45 2.76-10.93-.39-11.44-8.89-4.5-16"/><path fill="#767574" d="M180.62 1190.03c4.55.71 9.36 16.77 6 19.36l-1.33-.67c-3.64-5.34-7.15-8.19-11.9-12.51 2.51-2.65 4.34-3.97 7.23-6.18"/><path fill="#949191" d="M364.92 1413.04a19 19 0 0 1 3.34 2.22 20.7 20.7 0 0 1 7.69 14.01c-8.38-3.14-11.4-7.42-11.03-16.23"/><path fill="#767574" d="M195.8 1219.22c4.46 1.25 11.4 10.96 10.23 15.67-3.34-1.73-9.46-7.3-10.89-11.03-.87-2.28-.37-2.16.66-4.64"/><path fill="#949191" d="M312.4 1396.16c4.64.95 22.5 18.69 26.18 22.92-4.37-.71-23.18-18.6-26.17-22.92"/><path fill="#5e5c5c" d="M790.35 1213.9c2.86.02 3.7 1.61 4.53 3.86-.28 3.23-.96 3.81-2.94 6.25-2.72-.72-4.02-2.31-4.9-4.79.78-3.52.51-2.47 3.3-5.32"/><path fill="#e4e4e7" fill-opacity=".96" d="M816.76 1163.55c1.3-2.67.59-2.17 2.78-3.54 4.38.9 5.45 4.39 6.53 8.36-2.39.3-3.03.31-5.42.1-2.29-1.11-2.7-2.6-3.89-4.92"/><path fill="#4d4c4c" d="m82.19 1024.51 1.43.18.31-.34c.86-.94 1.12-1.42 2.35-1.63.47 1.91 1.75 6.58 1.97 8.35-.69 3.29-1.46 6.64-1.89 9.96-1.48-5.3-2.83-11.14-4.17-16.52"/></svg>