<svg xmlns="http://www.w3.org/2000/svg" width="779" height="1341" fill="none" viewBox="0 0 779 1341"><path fill="#ffefd6" d="M388.15 0c2.73.01 19 17.01 22.69 20.44 105.96 98.8 234.03 120.22 367.14 139.06.96 87.55-.2 193.69 0 281.25.01 122.13 1.41 246.1-22.6 365.71-33.07 164.69-116.34 308.74-226.76 418.91a1065 1065 0 0 1-138.97 115.41l-1.38.22c-4.15-1.63-23.3-16.64-28.27-20.34-57.65-42.86-110.26-91.09-158.63-147.29a793 793 0 0 1-81.33-113.89C64.5 966.2 29.09 868 12.92 756.28-.32 664.88.03 574.26 0 481.9V156c20.28-1.97 44-3.98 64-8 85-17.07 168.81-28.14 242.93-79.87 28.52-19.9 55.2-44.27 81.22-68.13"/></svg>