<svg width="995" height="1580" viewBox="0 0 995 1580" fill="none" xmlns="http://www.w3.org/2000/svg">
<path d="M51.0921 255.765C60.1776 255.049 69.5792 255.403 78.743 254.719C193.524 246.141 312.484 218.611 411.999 159.134C444.781 139.54 475.959 114.564 505.211 90.2695C511.44 94.3437 527.98 108.594 534.526 113.907C552.076 128.397 570.313 142.032 589.175 154.767C676.816 213.15 780.18 244.769 884.694 253.051C895.238 253.887 908.419 253.604 918.501 255.316L919.28 255.454L919.766 255.424C927.456 255.332 935.146 255.43 942.828 255.717C943.414 283.783 942.967 313.158 942.944 341.31L943.044 489.685C943.237 594.647 943.383 700.258 935.585 804.959C932.755 842.931 929.407 881.799 923.584 919.408C915.655 971.437 903.738 1022.78 887.926 1072.98C884.493 1083.97 869.483 1128.67 864.285 1137.66C858.045 1157.12 841.245 1189.44 831.905 1207.47C769.285 1328.31 676.533 1429.94 565.643 1508.25C548.539 1520.33 519.75 1541.06 501.427 1550.85C493.005 1547.86 478.77 1539.84 470.512 1535.07C426.055 1509.42 382.992 1478.8 343.608 1445.89C341.231 1443.9 328.635 1433.13 327.694 1431.73C316.431 1422.55 299.834 1407.37 289.968 1396.56C285.337 1393.47 267.204 1374.21 262.79 1369.49C205.319 1308.15 148.395 1220.82 119.07 1141.77C116.056 1136.23 107.428 1112.22 105.969 1106.75C102.573 1098.18 98.8181 1085.01 95.8601 1075.93C92.5017 1064.35 89.3355 1052.71 86.362 1041.03C86.7924 1037.71 87.5599 1034.36 88.2471 1031.07C88.0258 1029.3 86.7539 1024.63 86.2811 1022.72C85.0462 1022.93 84.787 1023.41 83.9316 1024.35L83.6231 1024.69L82.1877 1024.51C76.5389 1004.92 67.0933 952.845 65.3166 932.547C64.5341 930.865 63.6943 924.408 63.4204 922.356C48.1324 807.574 51.0849 691.805 50.8122 576.339C50.7639 555.938 50.6768 535.462 51.0406 515.101C49.7482 454.543 51.6697 393.287 50.9117 332.64C50.5958 307.358 50.5042 280.991 51.0921 255.765ZM117.757 319.837C117.213 416.155 117.281 512.477 117.959 608.794C117.959 638.617 119.766 675.972 118.732 704.873C119.685 723.141 119.482 741.799 119.908 760.108C120.622 785.703 121.812 811.285 123.475 836.836C124.584 853.076 126.604 869.277 128.38 885.432C128.778 889.058 131.177 906.046 131.001 908.677C134.168 928.196 136.4 948.154 140.01 967.379C148.973 1015.11 161.22 1064.9 178.305 1110.24C220.162 1221.34 292.624 1322.91 384.388 1398.24C386.129 1399.67 389.081 1401.91 390.503 1403.43C397.255 1407.44 415.227 1422.72 423.372 1428.4C446.935 1444.86 472.965 1462.23 498.638 1474.95C552.328 1441.97 595.478 1410.77 640.147 1365.78C723.997 1280.73 786.451 1176.98 822.379 1063.06C829.853 1039.07 834.843 1016.23 840.335 991.727C870.293 858.052 873.255 723.036 873.278 586.781L873.17 322.216C786.274 316.518 667.795 279.882 592.697 235.538C570.588 222.264 549.078 208.02 528.227 192.847C518.628 185.888 509.166 178.139 499.548 171.398C490.075 179.551 470.866 192.284 460.373 199.373C428.888 220.736 395.606 239.321 360.902 254.917C291.107 286.093 193.876 310.973 117.757 319.837ZM513.711 1505.93C513.281 1503.96 512.3 1502.16 510.883 1500.72C506.08 1495.89 501.199 1498.72 497.5 1502.95C500.493 1513.47 507.097 1512.85 513.711 1505.93ZM826.066 1168.37C824.986 1164.4 823.922 1160.91 819.541 1160.01C817.35 1161.38 818.052 1160.88 816.764 1163.54C817.959 1165.87 818.36 1167.36 820.651 1168.47C823.042 1168.68 823.682 1168.67 826.066 1168.37Z" fill="#858282"/>
<path d="M51.0921 255.765C60.1776 255.049 69.5792 255.403 78.743 254.719C193.524 246.141 312.484 218.611 411.999 159.134C444.781 139.54 475.959 114.564 505.211 90.2695C511.44 94.3437 527.98 108.594 534.526 113.907C552.076 128.397 570.313 142.032 589.175 154.767C676.816 213.15 780.18 244.769 884.694 253.051C895.238 253.887 908.419 253.604 918.501 255.316L919.28 255.454L919.766 255.424C927.456 255.332 935.146 255.43 942.828 255.717C943.414 283.783 942.967 313.158 942.944 341.31L943.044 489.685C943.237 594.647 943.383 700.258 935.585 804.959C932.755 842.931 929.407 881.799 923.584 919.408C915.655 971.437 903.738 1022.78 887.926 1072.98C884.493 1083.97 869.483 1128.67 864.285 1137.66L863.274 1137.13C863.66 1134.88 869.298 1121.41 870.594 1117.89C875.33 1105.04 880.876 1091.5 884.971 1078.47C900.097 1030.41 911.86 981.359 920.151 931.667C922.889 915.536 926.098 894.135 927.594 877.555C927.926 873.814 921.81 874.315 921.478 865.273C921.2 857.528 924.663 845.639 920.568 839.861C920.614 836.783 920.336 834.53 919.997 831.482C918.963 831.328 919.218 831.313 918.246 830.719C920.167 801.688 923.437 772.425 924.556 743.321C930.572 586.359 925.327 429.108 925.751 272.287C920.622 272.277 911.759 271.22 907.278 271.96C913.572 275.346 920.653 271.7 923.26 273.692C924.802 277.915 924.417 284.116 923.769 288.524L921.262 285.632L919.017 285.558C914.289 280.528 912.245 281.348 906.622 284.066L906.283 281.162C902.935 280.054 899.079 285.552 897.397 288.189C896.742 293.863 896.294 294.655 892.345 298.901C889.707 299.258 884.64 299.81 882.264 300.426C875.191 298.593 867.139 298.303 859.834 297.304C824.778 292.503 790.878 285.132 756.663 276.338L756.67 278.79C785.495 287.013 806.22 290.038 834.689 295.984C834.142 299.341 834.026 300.199 832.738 303.41C794.835 297.649 758.964 287.276 722.534 275.657C717.771 274.412 713.055 272.355 708.473 270.505C701.584 268.314 693.253 265.024 686.27 262.518C681.502 260.482 676.747 258.415 672.007 256.316C656.079 248.564 639.881 242.722 624.557 232.871L620.166 230.422C602.69 220.899 585.665 210.571 569.145 199.471C551.029 187.149 526.042 167.626 508.606 156.919C506.205 156.787 506.873 156.956 504.378 159.146L498.758 163.108C498.891 164.996 499.128 169.839 499.548 171.398C490.075 179.551 470.866 192.284 460.373 199.373C428.888 220.736 395.606 239.321 360.902 254.917C291.107 286.093 193.876 310.973 117.757 319.837C116.224 317.341 114.505 314.321 114.993 311.302C116.598 301.367 165.864 305.341 176.841 297.707C164.894 298.205 160.541 302.047 148.509 299.521C148.843 295.864 148.308 296.998 150.111 294.355L150.417 291.631C143.345 292.637 134.704 294.087 127.709 294.653C124.874 294.063 114.295 290.591 112.702 290.588C106.936 290.578 107.393 293.553 99.3965 291.536C99.3233 287.132 99.0039 286.738 97.2615 282.578L97.7089 281.823L98.0336 280.92L98.7417 282.81C100.359 281.626 99.9735 282.224 100.563 280.048L100.768 279.274C102.366 273.406 97.8069 272.506 101.041 268.538C103.299 268.57 105.557 268.533 107.813 268.426L107.179 267.548C105.638 267.864 104.706 267.622 103.164 267.41C88.477 268.688 82.0473 270.249 66.7149 269.927C66.2018 273.37 66.24 276.77 66.283 280.245C66.4374 292.719 66.2071 304.91 65.3861 317.357C64.652 320.553 65.1374 324.457 64.2976 326.187L63.1839 334.459C63.4762 341.046 63.3723 347.486 63.3122 354.074L63.3583 357.827C63.2257 366.742 63.2352 375.658 63.3867 384.572C63.1878 401.429 63.1921 418.289 63.3997 435.146C62.6339 465.02 62.2115 500.113 62.7009 529.799L63.0062 574.33C63.025 579.798 63.3411 594.063 62.5923 598.858C61.4679 586.026 60.7406 553.726 62.2765 541.819L61.3823 541.356C53.9039 548.722 56.2553 567.685 56.32 577.622C57.1118 577.956 57.871 578.192 58.699 578.411C61.0303 588.496 59.7827 598.912 57.9722 609.082L57.4874 609.091C53.925 580.722 57.0443 549.294 54.9537 521.216C54.452 528.497 55.3165 535.516 54.4412 543.242C54.1636 542.609 53.1078 486.172 53.0771 479.978C52.6848 485.246 52.29 513.261 51.0406 515.101C49.7482 454.543 51.6697 393.287 50.9117 332.64C50.5958 307.358 50.5042 280.991 51.0921 255.765Z" fill="#B7B6B5"/>
<path d="M51.0921 255.765C60.1776 255.049 69.5792 255.403 78.743 254.719C193.524 246.141 312.484 218.611 411.999 159.134C444.781 139.54 475.959 114.564 505.211 90.2695C511.44 94.3437 527.98 108.594 534.526 113.907C552.076 128.397 570.313 142.032 589.175 154.767C676.816 213.15 780.18 244.769 884.694 253.051C895.238 253.887 908.419 253.604 918.501 255.316L919.28 255.454L919.766 255.424C927.456 255.332 935.146 255.43 942.828 255.717C943.414 283.783 942.967 313.158 942.944 341.31L943.044 489.685C943.237 594.647 943.383 700.258 935.585 804.959C932.755 842.931 929.407 881.799 923.584 919.408C915.655 971.437 903.738 1022.78 887.926 1072.98C884.493 1083.97 869.483 1128.67 864.285 1137.66L863.274 1137.13C863.66 1134.88 869.298 1121.41 870.594 1117.89C875.33 1105.04 880.876 1091.5 884.971 1078.47C900.097 1030.41 911.86 981.359 920.151 931.667C922.889 915.536 926.098 894.135 927.594 877.555C927.926 873.814 921.81 874.315 921.478 865.273C921.2 857.528 924.663 845.639 920.568 839.861C920.614 836.783 920.336 834.53 919.997 831.482C918.963 831.328 919.218 831.313 918.246 830.719C920.167 801.688 923.437 772.425 924.556 743.321C930.572 586.359 925.327 429.108 925.751 272.287C920.622 272.277 911.759 271.22 907.278 271.96C886.314 268.394 862.21 267.705 840.258 264.256C748.255 249.806 660.236 217.446 582.744 165.27C565.413 153.584 548.545 141.226 532.178 128.224C524.267 121.962 515.448 113.656 507.457 108.189C506.268 108.087 506.15 108.084 505.042 108.406L504.188 108.662L502.924 107.526L503.448 105.941C506.217 104.339 507.691 104.773 510.39 106.921C534.677 126.252 560.298 148.957 586.518 165.391C621.566 187.358 676.224 220.845 717.315 225.569C699.257 216.474 679.766 209.199 660.255 199.138C601.834 169.009 555.822 136.676 505.503 95.1592C485.722 112.143 466.083 129.032 445.501 145.077C435.659 152.748 423.871 158.917 414.688 167.076C434.185 158.161 448.607 148.053 465.948 135.461C472.502 130.701 481.659 123.818 488.332 119.826C488.014 120.211 487.693 120.593 487.369 120.972C478.621 131.239 458.85 144.695 447.334 152.901C352.213 220.674 218.993 258.292 103.164 267.41C88.477 268.688 82.0473 270.249 66.7149 269.927C66.2018 273.37 66.24 276.77 66.283 280.245C66.4374 292.719 66.2071 304.91 65.3861 317.357C64.652 320.553 65.1374 324.457 64.2976 326.187L63.1839 334.459C63.4762 341.046 63.3723 347.486 63.3122 354.074L63.3583 357.827C63.2257 366.742 63.2352 375.658 63.3867 384.572C63.1878 401.429 63.1921 418.289 63.3997 435.146C62.6339 465.02 62.2115 500.113 62.7009 529.799L63.0062 574.33C63.025 579.798 63.3411 594.063 62.5923 598.858C61.4679 586.026 60.7406 553.726 62.2765 541.819L61.3823 541.356C53.9039 548.722 56.2553 567.685 56.32 577.622C57.1118 577.956 57.871 578.192 58.699 578.411C61.0303 588.496 59.7827 598.912 57.9722 609.082L57.4874 609.091C53.925 580.722 57.0443 549.294 54.9537 521.216C54.452 528.497 55.3165 535.516 54.4412 543.242C54.1636 542.609 53.1078 486.172 53.0771 479.978C52.6848 485.246 52.29 513.261 51.0406 515.101C49.7482 454.543 51.6697 393.287 50.9117 332.64C50.5958 307.358 50.5042 280.991 51.0921 255.765Z" fill="#767574"/>
<path d="M919.997 831.483C919.974 814.456 922.828 792.067 924.047 774.686C925.983 745.182 927.309 715.646 928.042 686.091C929.993 584.895 930.456 483.675 929.43 382.466L929.376 319.85C929.338 308.504 927.633 275.938 933.989 267.777L935.57 267.23C940.005 274.631 935.277 430.922 937.298 452.675C937.575 455.75 939.882 482.558 939.828 485.483C938.694 541.387 937.953 596.816 937.822 652.737C937.653 679.313 937.144 705.886 936.295 732.45C935.076 767.711 932.925 802.93 929.839 838.079C929.106 846.326 928.729 861.208 926.978 868.46C926.685 869.717 926.299 870.952 925.828 872.155L924.903 872.348C921.964 865.382 923.391 849.936 923.291 842.229C923.283 841.342 921.386 840.254 920.568 839.861C920.614 836.783 920.337 834.53 919.997 831.483Z" fill="#949191"/>
<path d="M54.954 521.216L55.2398 332.917C55.2866 323.289 53.6724 267.297 56.1685 263.122C63.0582 267.897 60.8542 318.889 60.8498 330.363L61.0456 434.441C61.0764 439.566 60.8483 459.298 61.7673 463.317C62.5529 460.658 62.3273 444.921 62.4038 440.659C62.8608 415.195 61.8926 389.521 62.148 364.084C62.2205 356.867 62.146 340.576 63.1841 334.459C63.4764 341.046 63.3725 347.485 63.3124 354.074L63.3585 357.827C63.2259 366.742 63.2354 375.658 63.3869 384.571C63.188 401.429 63.1923 418.288 63.3999 435.146C62.6341 465.02 62.2117 500.113 62.7011 529.799L63.0064 574.33C63.0252 579.798 63.3413 594.063 62.5925 598.858C61.4681 586.026 60.7408 553.726 62.2767 541.818L61.3825 541.356C53.9041 548.722 56.2556 567.685 56.3202 577.622C57.112 577.956 57.8712 578.192 58.6992 578.411C61.0305 588.496 59.7829 598.911 57.9724 609.082L57.4876 609.091C53.9252 580.722 57.0445 549.294 54.954 521.216Z" fill="#949191"/>
<path d="M919.766 255.425C924.502 258.373 931.899 257.314 937.552 258C937.074 259.131 936.966 259.229 935.855 259.853C925.126 265.899 810.678 251.498 793.925 246.234C791.303 245.41 788.187 244.483 786.829 241.916C788.657 239.512 805.726 245.052 810.323 245.443C834.149 247.468 898.069 260.709 919.28 255.454L919.766 255.425Z" fill="#949191"/>
<path d="M61.5803 260.282C73.7978 259.916 109.307 254.746 119.335 258.283C109.958 261.771 74.0859 263.821 63.4788 264.384C64.557 265.936 66.3802 268.191 66.7151 269.927C66.202 273.37 66.2402 276.771 66.2832 280.246C66.4375 292.719 66.2073 304.911 65.3863 317.357C64.6522 320.554 65.1376 324.458 64.2978 326.188C62.6098 320.838 62.2204 277.785 62.2362 269.267L61.5803 260.282Z" fill="#949191"/>
<path d="M349.323 248.98C397.04 231.276 458.752 194.1 498.758 163.108C498.892 164.996 499.128 169.84 499.548 171.399C490.075 179.552 470.866 192.284 460.373 199.374C428.888 220.737 395.606 239.322 360.902 254.918C291.107 286.094 193.876 310.974 117.757 319.838C116.224 317.341 114.505 314.322 114.994 311.303C116.599 301.368 165.864 305.342 176.842 297.708C236.871 284.516 292.016 273.715 349.323 248.98Z" fill="#181817"/>
<path d="M506.619 148.602C510.76 152.962 524.439 162.413 529.879 166.348C558.486 187.457 588.346 206.811 619.295 224.304C620.389 226.902 620.932 227.694 620.166 230.422C602.69 220.899 585.665 210.571 569.145 199.471C551.029 187.15 526.042 167.626 508.606 156.919C506.205 156.787 506.873 156.956 504.378 159.146L498.758 163.108C458.752 194.099 397.04 231.275 349.323 248.979C347.87 247.529 347.65 244.263 347.137 241.853C350.699 240.468 354.424 238.714 357.935 237.139C362.067 236.517 378.499 228.626 382.917 226.444C423.026 206.63 473.064 177.945 506.619 148.602Z" fill="#D5D5D5"/>
<path d="M347.137 241.854C347.65 244.263 347.871 247.529 349.323 248.98C292.016 273.715 236.871 284.516 176.842 297.707C164.894 298.205 160.541 302.048 148.51 299.521C148.844 295.864 148.308 296.998 150.112 294.355L150.417 291.631C156.223 291.141 168.081 288.877 174.042 287.842C193.313 284.571 212.472 280.668 231.487 276.138C239.134 274.361 246.742 272.27 254.381 270.513C256.787 269.959 256.318 270.103 258.348 271.118C263.612 271.418 329.564 249.151 338.039 245.074C341.063 243.975 344.096 242.901 347.137 241.854Z" fill="#D5D5D5"/>
<path d="M150.417 291.631C156.223 291.14 168.081 288.877 174.042 287.841C193.313 284.57 212.472 280.667 231.487 276.138C239.134 274.361 246.742 272.27 254.381 270.513C256.787 269.959 256.318 270.103 258.348 271.118C227.601 278.734 197.383 285.853 166.098 290.964C160.907 291.812 155.202 292.983 150.112 294.355L150.417 291.631Z" fill="#767574"/>
<path d="M756.67 278.79C751.287 276.58 739.894 274.387 735.021 271.353C740.706 272.008 750.762 274.842 756.663 276.339L756.67 278.79Z" fill="#767574"/>
<path d="M619.295 224.305C622.065 225.33 624.057 225.811 625.993 228.09C626.379 230.031 626.277 231.474 624.557 232.871L620.166 230.423C620.932 227.695 620.389 226.902 619.295 224.305Z" fill="#D5D5D5"/>
<path d="M338.039 245.075C338.371 244.491 339.111 243.192 339.739 242.945C346.397 240.315 350.782 236.321 357.935 237.14C354.424 238.715 350.699 240.468 347.137 241.854C344.096 242.901 341.063 243.975 338.039 245.075Z" fill="#767574"/>
<path d="M495.86 121.405C501.132 118.225 507.196 115.107 512.116 120.171C516.851 124.619 517.139 125.463 518.575 131.867C515.829 136.821 513.951 141.04 508.024 142.697C496.801 145.834 487.219 133.764 493.893 123.818C494.465 122.949 495.124 122.141 495.86 121.405Z" fill="#181817"/>
<path d="M495.86 121.405C501.132 118.225 507.196 115.107 512.116 120.171C502.764 117.968 504.682 126.44 498.596 126.537C496.513 124.542 496.587 124.719 495.86 121.405Z" fill="#5E5C5C"/>
<path d="M225.124 256.416C228.895 255.77 233.347 256.22 234.166 260.628C232.502 262.709 232.039 262.137 228.713 262.573C231.021 262.7 232.057 262.547 234.019 263.625C234.759 266.868 231.415 270.904 228.408 271.999C219.192 272.482 214.929 257.65 225.124 256.416Z" fill="#181817"/>
<path d="M225.124 256.416C228.895 255.77 233.347 256.22 234.166 260.628C232.502 262.709 232.039 262.137 228.713 262.573C226.463 260.047 226.28 259.428 225.124 256.416Z" fill="#D5D5D5"/>
<path d="M682.594 233.04C685.181 231.194 683.968 231.648 687.244 231.422C690.451 232.554 691.89 234.302 692.682 237.584C695.217 245.142 684.163 249.161 680.482 245.116C677.715 242.077 677.887 234.698 681.739 231.989L682.594 233.04Z" fill="#181817"/>
<path d="M682.594 233.04C685.181 231.194 683.968 231.648 687.244 231.422C690.451 232.554 691.89 234.302 692.682 237.584C690.606 237.94 689.689 237.981 687.574 238.04C684.815 237.092 684.237 235.547 682.594 233.04Z" fill="#D5D5D5"/>
<path d="M156.003 272.044C158.675 271.412 159.652 270.962 162.209 272.136C164.377 274.264 164.602 275.219 165.667 277.962C165.887 286.362 153.35 288.786 149.851 279.894C149.982 276.227 151.98 272.362 156.003 272.044Z" fill="#181817"/>
<path d="M156.003 272.044C158.675 271.412 159.652 270.962 162.209 272.136C164.377 274.264 164.602 275.219 165.668 277.962C163.022 278.285 162.645 278.332 160.086 277.631C157.693 276.071 157.229 274.572 156.003 272.044Z" fill="#D5D5D5"/>
<path d="M350.19 218.308C351.313 215.746 350.586 216.531 352.829 215.196C357.93 215.524 359.283 217.625 359.273 222.489C359.639 231.234 348.028 232.763 345.107 225.493C343.964 222.649 346.11 217.391 349.637 216.73L350.19 218.308Z" fill="#181817"/>
<path d="M350.19 218.308C351.313 215.746 350.586 216.531 352.829 215.196C357.93 215.524 359.283 217.625 359.273 222.489C353.581 222.619 353.782 222.485 350.19 218.308Z" fill="#D5D5D5"/>
<path d="M755.801 257.764C757.933 255.895 756.892 256.375 759.761 256.002C763.173 257.03 765.03 259.285 765.266 262.886L765.895 263.424C766.216 273.169 748.039 273.72 751.368 260.777C751.799 259.105 753.555 257.318 755.14 256.731L755.801 257.764Z" fill="#181817"/>
<path d="M755.801 257.764C757.933 255.895 756.892 256.375 759.761 256.002C763.173 257.03 765.03 259.285 765.266 262.886C759.146 262.491 759.104 262.887 755.801 257.764Z" fill="#D5D5D5"/>
<path d="M289.066 240.234C291.58 239.058 291.948 238.84 294.625 239.436C297.255 241.214 297.836 242.836 297.637 245.958L298.272 246.867C296.909 252.855 289.46 255.182 285.276 251.146C282.09 248.073 284.659 239.855 289.066 240.234Z" fill="#181817"/>
<path d="M289.066 240.234C291.58 239.058 291.948 238.84 294.625 239.436C297.255 241.214 297.836 242.836 297.637 245.958C291.89 245.657 291.991 245.177 289.066 240.234Z" fill="#D5D5D5"/>
<path d="M836.024 277.214L837.327 275.084C841.546 274.297 844.732 278.462 844.624 282.212C844.246 285.155 844.208 285.572 842.596 288.043C832.468 294.254 828.719 280.39 835.399 276.366L836.024 277.214Z" fill="#181817"/>
<path d="M836.024 277.214L837.327 275.084C841.546 274.297 844.732 278.462 844.624 282.212C839.965 281.606 839.047 280.479 836.024 277.214Z" fill="#D5D5D5"/>
<path d="M616.162 202.595C621.242 201.496 623.561 202.638 625.278 207.709C625.718 210.075 625.726 210.365 625.016 212.659C618.466 219.013 607.9 211.017 616.162 202.595Z" fill="#181817"/>
<path d="M616.163 202.595C621.242 201.496 623.561 202.638 625.278 207.709C619.946 209.216 618.514 206.865 616.163 202.595Z" fill="#D5D5D5"/>
<path d="M439.265 169.553C439.896 170.387 440.635 173.073 441.491 173.748C444.321 175.98 446.138 174.885 448.321 177.723C447.706 180.156 446.34 181.039 444.477 182.793C433.88 184.136 431.256 176.474 439.265 169.553Z" fill="#181817"/>
<path d="M581.804 179.493C582.221 179.934 582.328 179.979 582.497 180.414C585.866 189.037 588.7 184.05 591.968 187.444C591.699 190.081 590.81 190.805 589.173 192.912C579.083 195.029 575.456 187.463 581.804 179.493Z" fill="#181817"/>
<path d="M703.856 260.694C708.363 261.284 723.168 266.166 727.097 268.318C721.818 268.864 708.607 263.597 703.856 260.694Z" fill="#949191"/>
<path d="M675.302 250.114C680.1 250.237 689.617 254.045 693.665 256.967C688.925 256.534 679.488 252.506 675.302 250.114Z" fill="#949191"/>
<path d="M66.7151 269.927C82.0475 270.249 88.4772 268.689 103.165 267.41C104.706 267.622 105.638 267.864 107.179 267.548L107.813 268.426C105.557 268.533 103.299 268.57 101.041 268.538C97.807 272.506 102.366 273.406 100.768 279.274L100.563 280.048C99.9737 282.224 100.359 281.626 98.7419 282.81L98.0338 280.92L97.7091 281.823L97.2617 282.578C99.0041 286.738 99.3234 287.132 99.3967 291.536C107.393 293.553 106.936 290.578 112.702 290.588C114.295 290.591 124.874 294.063 127.709 294.654C120.572 295.506 105.573 296.348 100.84 301.027C101.911 329.313 101.099 360.408 101.175 388.933L101.918 524.995C102.11 560.09 100.892 596.116 103.148 631.051C103.995 644.16 101.147 673.824 104.049 684.735C104.547 735.263 106.295 785.772 109.292 836.212C111.04 861.794 114.828 887.284 116.495 911.725C116.408 919.709 113.658 927.386 113.094 935.664C112.477 944.713 115.37 958.693 114.349 966.577L113.736 966.893C110.37 965.266 110.779 965.289 106.463 966.816C104.669 967.472 102.883 968.143 101.105 968.83C99.6659 965.165 95.0604 951.68 92.8853 949.874L91.6943 950.029C89.6997 950.962 86.8327 952.143 85.1397 953.416C89.1891 980.387 94.6068 1007.14 101.373 1033.57C103.039 1040.15 105.906 1052.52 108.248 1058.58L107.896 1059.05C103.141 1054.08 99.5309 1040.31 98.3076 1033.58L96.5853 1031.4L95.4977 1031.84C95.4159 1037.95 107.515 1066.21 109.086 1074.07C109.281 1075.05 110.643 1076.27 111.54 1076.81L110.901 1077.32C104.733 1073.82 90.2419 1015.96 86.7355 1006.12C86.1023 1004.35 83.3903 1002 82.1824 1000.04L81.8832 999.558C82.963 1007.18 84.7293 1015.13 86.2812 1022.72C85.0463 1022.93 84.7872 1023.41 83.9318 1024.35L83.6233 1024.69L82.1878 1024.51C76.5391 1004.92 67.0935 952.845 65.3168 932.547C64.5342 930.865 63.6945 924.408 63.4205 922.356C48.1326 807.574 51.0851 691.805 50.8123 576.339C50.7641 555.938 50.677 535.462 51.0408 515.101C52.2902 513.261 52.685 485.246 53.0772 479.978C53.108 486.172 54.1638 542.609 54.4414 543.242C55.3167 535.516 54.4522 528.497 54.9539 521.216C57.0444 549.294 53.9251 580.722 57.4875 609.091L57.9723 609.082C59.7828 598.912 61.0304 588.497 58.6992 578.411C57.8712 578.192 57.112 577.956 56.3202 577.622C56.2555 567.685 53.9041 548.722 61.3825 541.357L62.2767 541.819C60.7408 553.726 61.4681 586.026 62.5925 598.858C63.3413 594.064 63.0251 579.798 63.0063 574.33L62.701 529.799C62.2117 500.113 62.6341 465.02 63.3999 435.146C63.1923 418.289 63.188 401.429 63.3869 384.572C63.2353 375.658 63.2258 366.742 63.3584 357.827L63.3124 354.074C63.3725 347.486 63.4764 341.046 63.1841 334.459L64.2977 326.187C65.1376 324.458 64.6522 320.553 65.3863 317.357C66.2073 304.91 66.4375 292.719 66.2832 280.245C66.2402 276.771 66.202 273.37 66.7151 269.927Z" fill="#A3A0A0"/>
<path d="M51.0408 515.102C52.2902 513.261 52.685 485.247 53.0772 479.979C53.108 486.173 54.1638 542.61 54.4414 543.243C55.3167 535.516 54.4522 528.498 54.9539 521.217C57.0444 549.295 53.9251 580.723 57.4875 609.092L57.9723 609.083C59.7828 598.912 61.0304 588.497 58.6992 578.411C57.8712 578.192 57.112 577.956 56.3202 577.623C56.2555 567.686 53.9041 548.722 61.3825 541.357L62.2767 541.819C60.7408 553.726 61.4681 586.027 62.5925 598.859C62.888 621.67 64.5488 655.727 63.3928 677.767C63.726 681.213 63.8631 684.646 63.8708 688.106C63.9296 714.626 65.2873 741.118 65.6624 767.63C65.2252 776.067 66.0313 785.132 66.1017 793.68C66.1644 801.303 65.3159 807.474 64.9207 814.865C65.6317 834.214 67.7161 863.129 70.3826 882.092C68.4158 892.777 71.6167 895.632 72.5907 905.059C72.9663 908.693 76.5537 933.064 76.2064 934.646C75.237 939.792 76.4003 951.981 75.7904 958.022C77.4628 969.417 77.0028 975.041 79.7243 987.091C80.3752 990.617 81.57 996.141 81.8832 999.559C82.963 1007.18 84.7293 1015.13 86.2812 1022.72C85.0463 1022.93 84.7872 1023.41 83.9318 1024.35L83.6233 1024.69L82.1878 1024.51C76.5391 1004.92 67.0935 952.845 65.3168 932.547C64.5342 930.866 63.6945 924.408 63.4205 922.356C48.1326 807.575 51.0851 691.806 50.8123 576.339C50.7641 555.938 50.677 535.462 51.0408 515.102Z" fill="#787676"/>
<path d="M63.3928 677.767C63.726 681.212 63.8631 684.646 63.8708 688.106C63.9295 714.626 65.2872 741.117 65.6623 767.63C65.2251 776.067 66.0312 785.132 66.1017 793.68C66.1644 801.302 65.3158 807.474 64.9207 814.865C64.0136 812.141 62.0125 803.879 61.8164 801.58C60.8674 790.463 55.9166 716.531 59.1265 712.037C60.6841 712.29 61.1235 712.466 62.6839 712.057C63.7359 705.804 62.7625 686.516 63.3928 677.767Z" fill="#949191"/>
<path d="M65.3167 932.547C68.1458 936.011 69.468 949.744 69.7341 954.612C71.064 946.056 67.4759 941.427 68.8793 930.881C70.7163 933.697 72.0793 960.861 75.1792 963.862C75.9191 961.64 75.7785 960.321 75.7902 958.022C77.4626 969.417 77.0027 975.041 79.7241 987.091C80.3751 990.617 81.5699 996.141 81.883 999.558C82.9629 1007.18 84.7292 1015.13 86.2811 1022.72C85.0462 1022.93 84.787 1023.41 83.9316 1024.35L83.6231 1024.69L82.1877 1024.51C76.5389 1004.92 67.0933 952.845 65.3167 932.547Z" fill="#5E5C5C"/>
<path d="M70.3826 882.092C71.8588 888.896 74.4458 895.832 75.3578 902.582C77.3101 917.032 79.4512 931.451 81.6148 945.87C85.1027 967.889 89.1444 989.814 93.7345 1011.63C94.3724 1014.59 98.4905 1031.72 98.3077 1033.58L96.5853 1031.4L95.4977 1031.84C95.416 1037.95 107.515 1066.21 109.086 1074.07C109.281 1075.05 110.643 1076.27 111.54 1076.81L110.901 1077.32C104.733 1073.82 90.242 1015.96 86.7356 1006.12C86.1023 1004.35 83.3904 1002 82.1825 1000.04L81.8832 999.558C81.5701 996.14 80.3753 990.616 79.7243 987.091C77.0029 975.04 77.4628 969.416 75.7904 958.021C76.4003 951.981 75.2371 939.791 76.2065 934.645C76.5537 933.064 72.9663 908.693 72.5908 905.059C71.6167 895.631 68.4159 892.777 70.3826 882.092Z" fill="#949191"/>
<path d="M75.7903 958.022C76.4002 951.981 75.2369 939.791 76.2063 934.646C77.6462 942.746 82.9676 975.48 82.0543 984.885C82.025 985.185 80.2055 986.713 79.7242 987.091C77.0027 975.04 77.4627 969.416 75.7903 958.022Z" fill="#767574"/>
<path d="M67.2276 747.906C68.4937 753.558 67.9512 772.055 68.2483 779.006C69.0777 798.409 69.4383 817.951 70.7483 837.354C72.3936 860.853 74.8438 884.291 78.0944 907.628C80.2579 922.842 83.1843 938.256 85.1396 953.416C89.189 980.387 94.6067 1007.14 101.373 1033.57C103.039 1040.15 105.906 1052.52 108.248 1058.58L107.896 1059.06C103.141 1054.08 99.5308 1040.31 98.3075 1033.58C98.4903 1031.72 94.3723 1014.59 93.7344 1011.63C89.1443 989.814 85.1026 967.889 81.6147 945.871C79.4511 931.452 77.3099 917.033 75.3577 902.583C74.4457 895.832 71.8587 888.897 70.3825 882.092C67.716 863.129 65.6317 834.214 64.9207 814.865C65.3158 807.474 66.1643 801.302 66.1016 793.68C66.0312 785.132 65.2251 776.067 65.6623 767.63L66.4037 767.406C67.5301 764.992 67.2294 751.383 67.2276 747.906Z" fill="#B7B6B5"/>
<path d="M63.3999 435.146C66.777 439.839 65.7299 481.979 65.752 490.094C65.8283 521.109 65.7421 552.124 65.4932 583.139C65.154 638.067 65.7322 692.997 67.2277 747.906C67.2295 751.383 67.5302 764.992 66.4039 767.406L65.6624 767.63C65.2873 741.117 63.9296 714.626 63.8709 688.106C63.8631 684.646 63.7261 681.212 63.3929 677.767C64.5488 655.726 62.888 621.67 62.5926 598.859C63.3413 594.064 63.0252 579.798 63.0064 574.33L62.7011 529.799C62.2118 500.113 62.6341 465.021 63.3999 435.146Z" fill="#D5D5D5"/>
<path d="M81.2043 277.549L81.8546 278.674C89.0132 277.903 92.4949 277.486 96.6639 284.332L97.2616 282.579C99.0041 286.739 99.3234 287.132 99.3967 291.537C83.0748 319.199 58.3529 288.041 81.2043 277.549Z" fill="#181817"/>
<path d="M81.8545 278.674C89.0131 277.903 92.4948 277.486 96.6638 284.332C90.7655 293.765 84.018 286.601 81.8545 278.674Z" fill="#D5D5D5"/>
<path d="M65.3863 317.357C65.4998 324.9 67.8613 349.305 64.9521 354.339L63.3124 354.075C63.3724 347.486 63.4763 341.047 63.1841 334.46L64.2977 326.188C65.1375 324.458 64.6521 320.554 65.3863 317.357Z" fill="#AAA8A9"/>
<path d="M63.3584 357.827C64.2332 362.396 64.6966 363.298 65.8604 367.2C67.3029 372.036 64.2464 379.98 63.3869 384.571C63.2353 375.658 63.2258 366.742 63.3584 357.827Z" fill="#B7B6B5"/>
<path d="M81.2043 277.549C89.1705 275.68 91.6233 276.078 97.709 281.824L97.2616 282.579L96.6639 284.332C92.4949 277.486 89.0132 277.903 81.8546 278.674L81.2043 277.549Z" fill="#5E5C5C"/>
<path d="M91.6943 950.029C89.3989 947.221 87.6611 945.655 87.1003 941.967L87.8732 940.934C91.5393 942.608 92.0499 946.311 92.8852 949.875L91.6943 950.029Z" fill="#767574"/>
<path d="M81.2182 605.236C86.9714 604.478 90.4154 605.132 91.7166 611.877L92.7918 613.209C93.3109 617.46 88.9136 622.475 85.2969 623.481C75.8094 626.121 69.2521 607.898 81.2182 605.236Z" fill="#181817"/>
<path d="M81.2183 605.236C86.9715 604.478 90.4155 605.132 91.7167 611.877C87.7475 613.282 86.9846 613.703 83.4489 611.802C81.6965 609.489 81.6726 608.044 81.2183 605.236Z" fill="#D5D5D5"/>
<path d="M91.7983 371.812C96.3213 379.52 79.7819 387.835 75.6452 377.805C73.4096 372.385 77.031 360.1 83.7835 364.237C88.1847 365.205 91.3077 366.538 91.7983 371.812Z" fill="#181817"/>
<path d="M83.7837 364.237C88.1849 365.205 91.3079 366.538 91.7985 371.813C87.4668 372.994 84.9754 373.118 82.2473 369.28C82.0529 366.146 81.8439 367.409 83.7837 364.237Z" fill="#D5D5D5"/>
<path d="M94.9593 910.745C100.538 909.758 104.867 911.17 105.061 917.851L106.227 918.838C107.052 928.567 91.1143 933.373 88.8088 920.69C87.884 915.598 89.7444 911.733 94.9593 910.745Z" fill="#181817"/>
<path d="M94.9592 910.745C100.538 909.758 104.867 911.17 105.061 917.851C101.17 918.576 100.801 918.831 97.6951 917.241C96.0167 915.112 95.6943 913.315 94.9592 910.745Z" fill="#D5D5D5"/>
<path d="M81.0323 435.429C86.895 432.638 90.3012 436.511 91.1928 442.216C94.8103 448.022 86.9683 451.854 82.4029 452.943C72.7134 449.891 71.0789 437.83 81.0323 435.429Z" fill="#181817"/>
<path d="M91.193 442.215C94.8105 448.021 86.9685 451.853 82.4031 452.942C85.1382 450.992 85.7089 446.003 85.8447 442.782C87.3511 442.584 89.7406 442.187 91.193 442.215Z" fill="#181817"/>
<path d="M81.0322 435.429C86.895 432.638 90.3012 436.511 91.1928 442.216C89.7404 442.188 87.3509 442.585 85.8445 442.783C82.352 440.377 82.0373 439.317 81.0322 435.429Z" fill="#D5D5D5"/>
<path d="M81.8068 520.876C83.4065 518.14 82.4863 518.83 85.1312 518.013C88.8952 518.83 92.3168 522.687 90.9878 526.502L91.8671 526.927C92.7194 533.078 84.5257 537.385 79.6255 535.519C72.4625 532.793 73.7513 519.661 81.6201 519.183L81.8068 520.876Z" fill="#181817"/>
<path d="M81.8066 520.876C83.4064 518.14 82.4862 518.83 85.131 518.013C88.8951 518.83 92.3166 522.687 90.9876 526.502C85.0284 526.602 84.6019 525.704 81.8066 520.876Z" fill="#D5D5D5"/>
<path d="M83.1913 745.505C87.7112 744.747 90.8798 745.324 92.5567 749.912C91.7784 752.356 92.3677 751.587 90.5003 753.173C92.6785 752.584 91.7846 752.373 93.3557 753.27C95.3511 764.271 75.681 768.297 76.6725 752.322C76.8406 749.614 81.1805 746.822 83.1913 745.505Z" fill="#181817"/>
<path d="M83.1912 745.505C87.7111 744.747 90.8797 745.324 92.5565 749.912C91.7782 752.356 92.3675 751.587 90.5002 753.173C88.5564 753.171 88.5233 753.038 86.8009 752.292C84.5039 750.036 84.2078 748.492 83.1912 745.505Z" fill="#D5D5D5"/>
<path d="M87.0918 824.03C88.6429 821.237 87.769 822.008 90.2727 820.666C94.5659 821.738 95.6658 824.809 96.6477 828.828C97.4043 829.384 97.2038 829.392 97.6573 830.425C96.1347 840.192 80.5279 841.728 80.1538 830.402C80.0412 827 82.9421 822.07 86.7385 822.155L87.0918 824.03Z" fill="#181817"/>
<path d="M87.0918 824.03C88.6429 821.237 87.769 822.008 90.2727 820.666C94.5659 821.738 95.6658 824.809 96.6477 828.828C90.2241 828.751 90.3144 829.43 87.0918 824.03Z" fill="#D5D5D5"/>
<path d="M91.9857 690.589L92.8411 691.671C93.398 704.489 72.6414 703.239 76.0028 689.906C76.6852 687.199 79.2659 683.286 82.5186 684.376L82.5818 686.871L83.8452 684.222C88.8696 682.55 90.3744 686.419 91.9857 690.589Z" fill="#181817"/>
<path d="M82.582 686.871L83.8455 684.222C88.8698 682.55 90.3747 686.419 91.9859 690.589C90.2227 690.949 88.8845 691.007 87.0881 691.134C84.4617 690.246 84.1355 689.223 82.582 686.871Z" fill="#D5D5D5"/>
<path d="M103.579 950.075C105.484 950.376 105.914 950.692 107.673 951.564C109.261 954.064 108.902 952.922 109.019 955.892C105.963 955.152 104.547 955.051 103.006 952.745L103.579 950.075Z" fill="#767574"/>
<path d="M504.378 159.146C506.873 156.956 506.205 156.787 508.606 156.919C526.042 167.626 551.029 187.15 569.145 199.471C585.665 210.571 602.69 220.899 620.166 230.422L624.557 232.871C639.881 242.722 656.079 248.564 672.007 256.316C676.747 258.415 681.502 260.482 686.27 262.518C693.253 265.024 701.584 268.314 708.473 270.505C713.055 272.355 717.771 274.412 722.534 275.657C758.964 287.276 794.835 297.649 832.738 303.41C850.123 305.884 869.452 308.005 886.545 310.801L887.432 311.035L887.486 313.685C888.18 348.874 887.108 384.739 887.764 419.839C887.501 535.932 889.962 655.731 882.202 771.399C881.045 787.516 879.75 803.617 878.315 819.71C877.875 824.74 876.603 840.625 875.446 844.984C875.083 855.522 873.008 870.342 871.674 881.212C868.45 908.43 864.107 935.494 858.646 962.35C850.524 1002.14 840.582 1044.9 826.945 1083.34C786.914 1196.16 722.209 1299.99 634.909 1382.21C592.163 1422.47 552.03 1449.43 502.807 1479.49C486.433 1471.24 470.508 1462.12 455.1 1452.18C449.576 1448.57 435.627 1438.12 430.811 1435.43C420.899 1428.36 397.637 1412.07 390.503 1403.43C397.255 1407.44 415.227 1422.72 423.372 1428.4C446.935 1444.86 472.965 1462.23 498.638 1474.95C552.328 1441.97 595.478 1410.77 640.147 1365.78C723.997 1280.73 786.451 1176.98 822.379 1063.06C829.853 1039.07 834.843 1016.23 840.335 991.728C870.293 858.053 873.255 723.037 873.278 586.782L873.17 322.216C786.274 316.518 667.795 279.882 592.697 235.538C570.588 222.264 549.078 208.021 528.227 192.847C518.628 185.888 509.166 178.139 499.548 171.398C499.128 169.839 498.891 164.996 498.758 163.108L504.378 159.146Z" fill="#212021"/>
<path d="M875.446 844.984C866.977 831.614 873.309 773.097 874.59 755.889C879.634 687.936 879.48 621.185 879.418 553.054L879.912 450.934L879.958 381.007C879.896 369.111 879.626 357.241 879.719 345.346C879.811 334.053 886.468 324.734 887.486 313.686C888.18 348.874 887.108 384.739 887.764 419.839C887.501 535.932 889.962 655.732 882.202 771.399C881.045 787.516 879.75 803.617 878.315 819.71C877.875 824.74 876.603 840.625 875.446 844.984Z" fill="#5A5958"/>
<path d="M504.378 159.146C506.873 156.956 506.205 156.787 508.606 156.919C526.042 167.626 551.029 187.15 569.145 199.471C585.665 210.571 602.69 220.899 620.167 230.422L624.557 232.871C639.881 242.722 656.079 248.564 672.007 256.316C676.747 258.415 681.502 260.482 686.27 262.518C693.253 265.024 701.585 268.314 708.473 270.505C713.055 272.355 717.771 274.412 722.534 275.657L721.796 277.343C725.405 280.829 730.072 280.9 733.286 285.11L733.786 285.754C729.456 284.187 723.982 283.028 719.32 281.385C708.703 277.642 698.126 273.662 687.686 269.489C632.929 247.603 582.895 219.014 535.13 184.4C528.647 179.702 521.58 174.662 515.536 169.416C511.548 165.955 509.615 162.855 505.03 159.601L504.378 159.146Z" fill="#4D4C4C"/>
<path d="M569.145 199.471C585.665 210.571 602.69 220.899 620.166 230.422L624.557 232.871C639.881 242.722 656.079 248.564 672.007 256.316C670.717 256.486 668.031 256.816 666.827 256.414C647.22 249.867 627.555 238.617 609.306 228.848C605.834 226.99 602.661 225.579 599.409 223.863C597.407 222.952 592.1 217.499 590.28 216.943C577.475 213.035 576.449 210.594 569.145 199.471Z" fill="#767574"/>
<path d="M686.27 262.519C693.253 265.024 701.585 268.315 708.473 270.506L706.358 272.74C701.133 273.514 689.57 266.729 686.27 262.519Z" fill="#5E5C5C"/>
<path d="M722.534 275.657C758.964 287.276 794.835 297.649 832.738 303.41C850.123 305.884 869.453 308.005 886.545 310.801C875.268 310.585 856.402 312.022 846.244 311.208C815.167 308.716 762.437 298.152 733.786 285.754L733.286 285.11C730.072 280.899 725.405 280.828 721.796 277.343L722.534 275.657Z" fill="#5E5C5C"/>
<path d="M127.709 294.654C134.704 294.087 143.346 292.637 150.417 291.631L150.112 294.355C148.308 296.998 148.844 295.864 148.51 299.521C160.541 302.047 164.894 298.205 176.842 297.707C165.864 305.341 116.599 301.367 114.994 311.302C114.505 314.321 116.224 317.341 117.757 319.837C117.213 416.155 117.281 512.477 117.959 608.794C117.959 638.618 119.766 675.972 118.732 704.873C119.685 723.141 119.482 741.799 119.908 760.108C120.623 785.703 121.812 811.285 123.475 836.837C124.584 853.076 126.604 869.277 128.38 885.432C128.778 889.058 131.177 906.046 131.001 908.677C134.168 928.196 136.4 948.154 140.01 967.379C148.973 1015.11 161.22 1064.9 178.306 1110.24C220.162 1221.34 292.624 1322.91 384.389 1398.24C386.129 1399.67 389.081 1401.91 390.503 1403.43C397.637 1412.07 420.899 1428.36 430.811 1435.43C427.442 1436.34 421.649 1428.8 418.165 1428.9C416.065 1430.22 415.92 1430.49 414.957 1432.79C416.137 1437.16 430.271 1444.61 434.718 1446.09C435.839 1447.67 435.69 1447.8 435.776 1449.7L435.528 1450.13C410.263 1433.81 394.361 1418.72 371.299 1401.02C369.778 1398.74 369.093 1398.43 366.863 1396.85C365.71 1396.97 364.235 1396.21 363.383 1395.48C246.05 1295.86 165.494 1158.15 133.379 1007.81C126.369 975.002 122.303 944.297 116.495 911.725C114.828 887.284 111.04 861.794 109.292 836.212C106.295 785.772 104.547 735.263 104.049 684.735C101.147 673.824 103.995 644.16 103.148 631.051C100.892 596.116 102.11 560.09 101.918 524.995L101.175 388.933C101.099 360.408 101.911 329.312 100.84 301.027C105.573 296.348 120.572 295.506 127.709 294.654Z" fill="#767574"/>
<path d="M112.673 645.125C114.294 642.712 114.161 637.661 114.771 633.911C115.472 654.987 115.843 678.026 117.092 698.947C117.597 700.873 118.093 703.011 118.732 704.874C119.685 723.141 119.482 741.799 119.908 760.108C120.623 785.703 121.812 811.285 123.475 836.837C124.584 853.077 126.604 869.278 128.38 885.433C128.778 889.059 131.177 906.047 131.001 908.678C134.168 928.196 136.4 948.154 140.01 967.38C148.973 1015.11 161.22 1064.9 178.306 1110.24C220.162 1221.34 292.624 1322.91 384.389 1398.24C386.129 1399.67 389.081 1401.91 390.503 1403.43C397.637 1412.07 420.899 1428.36 430.811 1435.43C427.442 1436.34 421.649 1428.8 418.165 1428.9C416.065 1430.22 415.92 1430.49 414.957 1432.79C416.137 1437.16 430.271 1444.61 434.718 1446.09C435.839 1447.67 435.69 1447.8 435.776 1449.7L435.528 1450.13C410.263 1433.81 394.361 1418.72 371.299 1401.02C369.778 1398.74 369.093 1398.43 366.863 1396.85C356.862 1388.32 345.614 1377.01 336.109 1367.73C289.176 1321.91 242.138 1262.19 210.72 1204.39C213.1 1204.62 213.45 1205.41 215.583 1207L216.392 1206.77C216.447 1202.03 205.861 1183.6 203.204 1178.23C195.637 1162.77 188.53 1147.08 181.892 1131.19C168.529 1098.57 157.647 1065 149.339 1030.74C120.152 915.089 113.872 796.612 112.514 677.796C112.389 666.929 112.412 655.987 112.673 645.125Z" fill="#B7B6B5"/>
<path d="M117.092 698.947C117.597 700.873 118.093 703.011 118.732 704.874C119.685 723.141 119.482 741.799 119.908 760.108C120.623 785.703 121.812 811.285 123.475 836.837C124.584 853.077 126.604 869.278 128.38 885.433C128.778 889.059 131.177 906.047 131.001 908.678L130.198 908.469C129.048 905.923 127.598 891.574 127.112 887.801C119.042 825.319 117.888 761.893 117.092 698.947Z" fill="#767574"/>
<path d="M104.049 684.735C104.182 678.211 103.745 627.249 104.797 625.419L105.206 625.304C106.491 635.466 105.88 660.294 105.993 671.956L107.519 756.653C110.553 881.082 125.7 1010.37 172.292 1126.6C177.263 1139 203.384 1196.43 210.72 1204.39C242.138 1262.19 289.176 1321.91 336.109 1367.73C345.615 1377.01 356.862 1388.32 366.863 1396.85C365.71 1396.97 364.235 1396.21 363.383 1395.48C246.05 1295.86 165.494 1158.15 133.379 1007.81C126.369 975.002 122.303 944.297 116.495 911.725C114.828 887.284 111.04 861.795 109.292 836.212C106.295 785.772 104.547 735.263 104.049 684.735Z" fill="#181817"/>
<path d="M127.709 294.654C134.704 294.087 143.346 292.637 150.417 291.631L150.112 294.355C148.308 296.998 148.844 295.864 148.51 299.521C138.578 300.575 108.642 304.321 100.84 301.027C105.573 296.348 120.572 295.506 127.709 294.654Z" fill="#898787"/>
<path d="M112.673 645.125C112.012 635.063 112.259 614.06 114.273 604.522C114.878 613.478 114.953 624.981 114.771 633.911C114.161 637.661 114.294 642.712 112.673 645.125Z" fill="#AAA8A9"/>
<path d="M887.764 419.84C891.798 422.011 891.481 421.916 894.081 425.721C895.469 482.718 892.407 541.813 893.078 598.854C893.209 609.809 891.512 642.202 892.53 650.835C892.276 666.416 891.342 684.67 891.551 699.977L891.427 700.68C889.607 711.641 889.862 742.921 889.152 755.993C887.093 795.81 883.568 835.541 878.57 875.103C861.169 1005.52 832.661 1113.5 764.337 1226.95C747.171 1256.02 728.002 1283.86 706.97 1310.26C696.272 1323.7 684.645 1336.99 673.08 1349.7C667.27 1356.08 660.817 1362.03 654.873 1368.31C652.697 1370.6 653.993 1374.99 651.671 1377.32C643.169 1385.84 633.826 1393.58 624.77 1401.49C603.794 1420.09 582.029 1437.79 559.533 1454.53C542.385 1467.04 523.412 1479.64 504.219 1488.73C500.184 1486.67 496.684 1484.68 492.155 1483.91C484.745 1482.15 443.347 1456.15 435.528 1450.13L435.776 1449.7C435.69 1447.8 435.839 1447.67 434.718 1446.09C430.271 1444.61 416.137 1437.16 414.957 1432.79C415.92 1430.49 416.065 1430.22 418.165 1428.91C421.648 1428.8 427.442 1436.34 430.811 1435.43C435.627 1438.12 449.576 1448.57 455.1 1452.18C470.508 1462.13 486.433 1471.24 502.807 1479.49C552.03 1449.43 592.163 1422.47 634.909 1382.21C722.209 1299.99 786.914 1196.16 826.945 1083.34C840.582 1044.9 850.524 1002.14 858.646 962.35C864.107 935.495 868.45 908.431 871.674 881.213C873.008 870.343 875.083 855.523 875.446 844.984C876.603 840.625 877.875 824.74 878.315 819.71C879.75 803.617 881.045 787.516 882.202 771.399C889.962 655.732 887.501 535.932 887.764 419.84Z" fill="#D1D0D1"/>
<path d="M887.432 311.035C888.365 309.319 888.844 308.618 890.008 307.04C891.451 307.015 890.795 306.842 892.037 307.557C892.16 308.296 892.538 311.001 892.77 311.521L893.248 375.831C893.518 392.45 894.297 409.031 894.081 425.72C891.482 421.915 891.798 422.01 887.764 419.839C887.108 384.739 888.18 348.874 887.486 313.685L887.432 311.035Z" fill="#D5D5D5"/>
<path d="M897.397 288.19C899.079 285.553 902.936 280.054 906.283 281.162L906.622 284.066C912.245 281.349 914.289 280.529 919.018 285.559L919.966 287.262C923.237 288.96 922.689 292.832 921.501 295.88C917.899 300.529 915.099 302.734 910.325 306.171C901.246 302.559 898.115 297.656 897.397 288.19Z" fill="#181817"/>
<path d="M906.623 284.066C912.245 281.349 914.289 280.528 919.018 285.559L919.966 287.262C916.711 289.961 915.871 290.186 911.713 291.212C908.605 288.511 908.289 287.699 906.623 284.066Z" fill="#D5D5D5"/>
<path d="M919.966 287.262C923.237 288.96 922.689 292.831 921.501 295.879C916.233 294.825 915.338 294.743 911.713 291.212C915.871 290.186 916.711 289.96 919.966 287.262Z" fill="#767574"/>
<path d="M834.689 295.984C842.125 296.94 888.897 303.201 892.476 305.754C893.194 308.073 892.955 309.095 892.769 311.521C892.538 311.001 892.16 308.296 892.037 307.557C890.795 306.842 891.451 307.015 890.008 307.04C888.843 308.617 888.365 309.319 887.432 311.034L886.545 310.801C869.453 308.005 850.123 305.884 832.738 303.41C834.026 300.199 834.142 299.341 834.689 295.984Z" fill="#B7B6B5"/>
<path d="M371.299 1401.02C394.361 1418.72 410.263 1433.81 435.528 1450.13C443.347 1456.15 484.746 1482.14 492.155 1483.91C496.457 1486.78 498.663 1488.15 502.368 1491.84C475.521 1480.17 386.441 1422.61 371.299 1401.02Z" fill="#181817"/>
<path d="M88.2472 1031.07C88.865 1042.51 99.5647 1057.49 100.667 1070.76C99.6503 1072.69 99.3349 1073.67 98.9947 1075.83C97.4767 1076.43 97.4906 1076.27 95.8601 1075.93C92.5017 1064.35 89.3355 1052.71 86.3621 1041.03C86.7925 1037.71 87.5599 1034.36 88.2472 1031.07Z" fill="#676667"/>
<path d="M105.969 1106.75C106.911 1105.34 106.467 1103.59 106.049 1102.07L107.136 1103.78L107.998 1103.62L109.867 1104.94C112.442 1111.37 123.836 1138.93 124.665 1144.51C121.705 1142.44 123.311 1143.9 121.673 1140.74L119.07 1141.77C116.056 1136.23 107.428 1112.22 105.969 1106.75Z" fill="#4D4C4C"/>
<path d="M289.969 1396.56C302.302 1400 303.352 1410.79 316.564 1414.01C320.043 1426.16 322.97 1423.52 327.694 1431.73C316.431 1422.55 299.834 1407.37 289.969 1396.56Z" fill="#5E5C5C"/>
<path d="M95.8601 1075.93C97.4907 1076.27 97.4768 1076.43 98.9947 1075.84C99.3349 1073.67 99.6504 1072.7 100.667 1070.76C101.989 1074.63 103.629 1079.07 104.679 1082.96L103.792 1083.29L102.149 1082C100.722 1086.98 107.602 1100.2 109.867 1104.94L107.998 1103.62L107.136 1103.78L106.049 1102.07C106.467 1103.59 106.911 1105.34 105.969 1106.75C102.573 1098.18 98.8181 1085.01 95.8601 1075.93Z" fill="#5E5C5C"/>
<path d="M892.345 298.901C896.294 294.655 896.742 293.863 897.397 288.189C898.115 297.656 901.246 302.559 910.325 306.17C908.651 308.292 908.543 308.663 906.175 309.749C903.576 309.463 901.771 307.25 899.704 305.363C897.336 312.296 897.074 319.107 895.446 323.331L894.914 322.841L895.917 322.319L894.96 321.878C895.415 317.933 897.397 308.424 898.585 304.755C900.066 303.76 900.336 303.672 901.308 302.102C901.131 300.423 900.637 299.937 899.711 298.545C895.191 296.345 895.315 297.677 892.029 300.879C888.851 300.937 885.303 301.214 882.264 300.426C884.64 299.81 889.707 299.259 892.345 298.901Z" fill="#767574"/>
<path d="M892.53 650.834C894.073 658.461 894.127 690.69 893.379 698.643C892.361 699.779 892.862 699.545 891.551 699.977C891.343 684.67 892.276 666.416 892.53 650.834Z" fill="#767574"/>
<path d="M206.096 1280.7C207.982 1280.63 209.053 1280.69 210.939 1280.83C214.393 1284.11 216.834 1290.11 219.959 1294C222.937 1297.71 230.338 1304.27 232.903 1307.56C238.255 1314.4 262.486 1343.9 263.422 1350.95C254.496 1347.58 204.839 1289.44 206.096 1280.7Z" fill="#949191"/>
<path d="M503.013 1524.64C473.989 1520.87 491.277 1496.34 497.941 1499.43L497.5 1502.95C500.493 1513.47 507.097 1512.85 513.711 1505.93C517.61 1516.73 512.01 1520.51 503.013 1524.64Z" fill="#181817"/>
<path d="M238.222 1284.49C240.75 1285.73 268.76 1320.41 271.019 1324.39C269.778 1326.41 269.033 1326.11 266.338 1327.03C265.798 1327.02 263.697 1327.01 263.481 1326.7C256.803 1317.18 237.466 1296.22 233.131 1287.61C234.218 1285.6 235.635 1285.59 238.222 1284.49Z" fill="#949191"/>
<path d="M216.763 1256.08C218.753 1254.14 217.745 1254.65 220.621 1254.26C224.474 1255.44 226.312 1258.1 228.329 1261.39C230.14 1265.79 227.418 1271 222.815 1272.34C220.049 1273.14 217.072 1272.76 214.602 1271.27C207.171 1266.76 209.089 1256.08 215.998 1255.18L216.763 1256.08Z" fill="#181817"/>
<path d="M216.763 1256.08C218.753 1254.14 217.745 1254.65 220.621 1254.26C224.474 1255.44 226.312 1258.1 228.329 1261.39C220.934 1263.75 219.925 1263.06 216.763 1256.08Z" fill="#D5D5D5"/>
<path d="M772.128 1244.41C773.678 1241.55 772.745 1242.32 775.537 1241.35C779.262 1242.01 782.039 1246.16 782.255 1249.74C782.494 1260.03 766.914 1264.67 764.918 1252.6C764.269 1248.67 767.56 1242.96 771.919 1242.72L772.128 1244.41Z" fill="#181817"/>
<path d="M772.128 1244.41C773.678 1241.55 772.745 1242.32 775.537 1241.35C779.262 1242.01 782.039 1246.16 782.255 1249.74C779.571 1250.29 779.077 1250.38 776.362 1250.15C773.863 1248.84 773.385 1247.04 772.128 1244.41Z" fill="#D5D5D5"/>
<path d="M891.775 900.376C897.02 899.921 900.591 900.121 902.349 905.761C902.28 906.008 901.879 907.543 901.717 907.813C903.614 911.701 900.305 916.091 896.773 917.673C895.176 918.398 893.363 918.436 891.744 917.773C884.594 914.918 882.642 903.007 891.775 900.376Z" fill="#181817"/>
<path d="M891.775 900.376C897.02 899.921 900.591 900.121 902.349 905.761C902.28 906.008 901.879 907.543 901.717 907.813C898.609 908.338 897.05 908.924 894.374 907.389C892.5 905.36 892.307 903.076 891.775 900.376Z" fill="#D5D5D5"/>
<path d="M143.791 1091.12L144.623 1092.41C145.097 1103.52 125.927 1103.9 126.729 1091.93C126.931 1088.91 130.461 1084 133.942 1084.4L134.21 1086.33C135.874 1083.86 134.938 1084.54 137.676 1083.69C141.443 1084.26 143.579 1087.5 143.791 1091.12Z" fill="#181817"/>
<path d="M134.21 1086.33C135.874 1083.86 134.938 1084.54 137.676 1083.69C141.443 1084.26 143.579 1087.5 143.79 1091.12C141.172 1091.55 140.667 1091.63 138.045 1091.32C135.763 1090.1 135.395 1088.69 134.21 1086.33Z" fill="#D5D5D5"/>
<path d="M184.384 1242.77C188.055 1245.76 191.558 1253.99 195.571 1258.72C203.317 1259.35 203.159 1273.83 202.91 1279.56L202.631 1280.01L201.531 1279.8C196.657 1272.88 185.489 1254.53 182.298 1245.98C181.895 1244.9 183.507 1243.66 184.384 1242.77Z" fill="#949191"/>
<path d="M874.281 996.372C879.495 995.77 883.39 998.154 884.185 1003.66C883.938 1007.51 882.295 1012.18 878.693 1014.09C868.589 1016.01 861.762 998.417 874.281 996.372Z" fill="#181817"/>
<path d="M874.281 996.372C879.495 995.77 883.39 998.154 884.185 1003.66C880.351 1004.55 879.572 1004.89 876.464 1003.25C874.767 1000.89 874.721 999.196 874.281 996.372Z" fill="#D5D5D5"/>
<path d="M109.749 993.895C115.09 993.379 119.58 995.87 119.676 1001.74C120.92 1005.29 117.842 1010.19 114.686 1011.08C105.262 1013.78 96.6437 996.781 109.749 993.895Z" fill="#181817"/>
<path d="M109.749 993.895C115.09 993.379 119.58 995.87 119.676 1001.74C116.882 1002.09 116.08 1002.32 113.4 1001.32C111.122 999.527 110.609 996.688 109.749 993.895Z" fill="#D5D5D5"/>
<path d="M905.296 718.141C910.965 715.604 915.693 717.27 915.878 724.019L915.13 725.319C915.732 725.456 915.855 725.761 916.457 726.3C916.611 729.328 914.914 731.791 912.508 733.528C910.896 734.699 908.859 735.106 906.923 734.643C899.534 732.867 896.904 722.855 905.296 718.141Z" fill="#181817"/>
<path d="M905.296 718.141C910.965 715.604 915.693 717.27 915.878 724.019L915.13 725.319C912.747 725.572 912.507 725.651 910.209 725.175C907.571 723.491 906.753 721.02 905.296 718.141Z" fill="#D5D5D5"/>
<path d="M173.512 1166.61C174.186 1168.31 174.565 1169.7 173.713 1171.5C165.944 1187.92 147.336 1161.76 163.872 1159.58C169.655 1159.55 171.565 1160.75 173.512 1166.61Z" fill="#181817"/>
<path d="M163.872 1159.58C169.655 1159.55 171.565 1160.75 173.512 1166.61C171.034 1167.23 169.86 1167.83 167.526 1166.91C165.248 1164.93 164.843 1162.53 163.872 1159.58Z" fill="#D5D5D5"/>
<path d="M901.74 801.14C906.707 799.944 911.736 801.534 911.898 807.382C914.852 816.871 903.421 820.489 897.598 814.294C896.287 812.898 895.67 810.984 895.924 809.079C896.433 805.283 898.925 803.169 901.74 801.14Z" fill="#181817"/>
<path d="M901.74 801.14C906.707 799.944 911.736 801.534 911.898 807.382C908.35 808.955 907.81 809.387 904.617 808.192C902.658 806.085 902.396 803.918 901.74 801.14Z" fill="#D5D5D5"/>
<path d="M909.353 454.764C912.261 454.195 913.209 453.819 916.025 454.984C918.447 456.83 918.925 458.561 920.105 461.317C916.734 483.47 893.865 463.946 909.353 454.764Z" fill="#181817"/>
<path d="M909.353 454.764C912.261 454.195 913.209 453.819 916.025 454.984C918.447 456.83 918.925 458.561 920.105 461.317C917.429 461.639 916.349 461.907 913.68 461.172C911.189 459.522 910.633 457.535 909.353 454.764Z" fill="#D5D5D5"/>
<path d="M910.086 546.412C911.875 543.865 910.911 544.493 913.603 543.799C917.112 544.658 919.588 548.229 919.604 551.767C923.19 559.853 906.931 565.59 904.37 555.171C903.259 550.678 905.018 546.352 909.631 545.025L910.086 546.412Z" fill="#181817"/>
<path d="M910.086 546.412C911.875 543.865 910.911 544.493 913.603 543.799C917.112 544.658 919.588 548.229 919.604 551.767C917.49 551.791 916.079 551.71 913.973 551.521C911.605 550.367 911.258 548.864 910.086 546.412Z" fill="#D5D5D5"/>
<path d="M847.971 1085.21C850.979 1084.88 851.944 1084.57 854.566 1086.25C856.217 1088.27 856.973 1089.88 856.973 1092.6L857.289 1093.44C856.703 1097.54 854.528 1101.24 850.301 1102.16C841.307 1104.11 838.407 1085.25 847.971 1085.21Z" fill="#181817"/>
<path d="M847.971 1085.21C850.98 1084.88 851.944 1084.57 854.566 1086.25C856.217 1088.27 856.973 1089.88 856.973 1092.6C854.219 1092.87 853.085 1093.19 850.609 1091.81C848.673 1089.69 848.604 1088.04 847.971 1085.21Z" fill="#949191"/>
<path d="M909.276 635.225C911.559 633.199 910.433 633.747 913.634 633.303C917.984 634.7 919.172 637.231 917.753 641.423L918.786 641.504C921.779 650.699 904.347 654.384 904.031 643.972C903.907 639.769 904.424 636.134 908.682 634.421L909.276 635.225Z" fill="#181817"/>
<path d="M909.276 635.225C911.559 633.199 910.433 633.747 913.634 633.303C917.984 634.7 919.172 637.231 917.752 641.423C916.426 641.334 914.937 641.14 913.595 640.995C911.119 639.723 910.564 637.804 909.276 635.225Z" fill="#D5D5D5"/>
<path d="M653.17 1392.48C654.076 1389.05 653.351 1389.65 655.626 1387.97C659.812 1388.21 661.707 1390.79 662.291 1394.87C661.494 1400.45 657.952 1405.91 651.633 1403.48C649.311 1402.57 647.482 1400.73 646.605 1398.4C645.013 1394.14 647.899 1389.98 651.831 1388.56L652.985 1389.4L653.17 1392.48Z" fill="#181817"/>
<path d="M653.17 1392.48C654.076 1389.05 653.351 1389.65 655.626 1387.97C659.811 1388.21 661.707 1390.79 662.291 1394.87C657.089 1395.97 657.006 1396.16 653.17 1392.48Z" fill="#D5D5D5"/>
<path d="M724.377 1327.31L724.902 1327.89C725.443 1333.84 718.521 1337.09 713.845 1334.88C712.11 1334.05 710.794 1332.54 710.205 1330.71C708.992 1326.92 710.745 1320.84 715.157 1319.96L716.355 1321L716.55 1325.09C717.291 1321.38 716.597 1321.68 718.962 1319.84C723.151 1319.82 726.25 1323.54 724.377 1327.31Z" fill="#181817"/>
<path d="M716.55 1325.09C717.291 1321.38 716.597 1321.68 718.962 1319.84C723.15 1319.82 726.25 1323.54 724.377 1327.31C719.942 1327.47 719.647 1327.44 716.55 1325.09Z" fill="#D5D5D5"/>
<path d="M910.093 375.812C911.906 373.392 910.942 374.002 913.626 373.317C917.521 374.313 918.539 376.918 919.257 380.504C919.581 391.315 906.854 393.513 904.27 383.487C903.367 379.967 905.766 375.016 909.862 374.485L910.093 375.812Z" fill="#181817"/>
<path d="M910.093 375.812C911.906 373.392 910.942 374.002 913.626 373.317C917.521 374.313 918.539 376.918 919.257 380.504C917.421 380.758 916.21 380.758 914.351 380.782C911.952 379.782 911.428 378.151 910.093 375.812Z" fill="#D5D5D5"/>
<path d="M581.404 1452.84C583.618 1450.96 582.552 1451.38 585.402 1451.23C588.134 1452.45 589.51 1454.69 589.957 1457.58L590.328 1458.11C592.111 1467 577.469 1469.5 575.149 1461.52C573.863 1457.08 576.623 1452.37 581.043 1451.46L581.404 1452.84Z" fill="#181817"/>
<path d="M581.404 1452.84C583.618 1450.96 582.552 1451.38 585.403 1451.23C588.134 1452.45 589.51 1454.69 589.957 1457.58C587.676 1458.08 587.354 1458.07 584.998 1458.01C582.575 1456.35 582.804 1455.7 581.404 1452.84Z" fill="#B7B6B5"/>
<path d="M414.116 1455.85L415.381 1453.89C417.918 1453.55 417.015 1453.57 419.674 1454.92C421.24 1457.23 421.078 1456.35 421.304 1458.92L419.609 1460.3C421.831 1460.86 420.87 1460.3 422.452 1462.22C422.96 1468.71 414.285 1469.38 409.537 1466.81C405.855 1461.86 408.831 1453.82 413.677 1454.18L414.116 1455.85Z" fill="#181817"/>
<path d="M414.116 1455.85L415.381 1453.89C417.918 1453.55 417.015 1453.57 419.674 1454.92C421.24 1457.23 421.078 1456.35 421.304 1458.92L419.609 1460.3C415.72 1460.33 415.817 1458.89 414.116 1455.85Z" fill="#D5D5D5"/>
<path d="M338.575 1421C341.224 1422.38 403.867 1472.16 404.864 1473.74C396.713 1471.96 346.831 1429.83 338.575 1421Z" fill="#AAA8A9"/>
<path d="M826.066 1168.37C825.364 1179.14 813.486 1180.47 810.647 1171.11C809.753 1168.17 812.252 1161.73 816.44 1161.57L816.764 1163.55C817.959 1165.88 818.36 1167.36 820.651 1168.48C823.042 1168.68 823.683 1168.67 826.066 1168.37Z" fill="#181817"/>
<path d="M275.793 1330.4C276.33 1330.72 276.794 1331.01 276.991 1331.64C279.261 1338.91 281.15 1337.34 287.075 1339.41L287.662 1340.99C286.792 1343.59 285.372 1344.53 283.345 1346.33C272.255 1346.64 267.716 1338.9 275.793 1330.4Z" fill="#181817"/>
<path d="M339.862 1395.3C342.186 1396.85 341.767 1399.54 343.264 1401.39C345.59 1404.25 350.185 1404.09 349.815 1408.54C348.093 1410.59 346.992 1410.6 344.374 1411.3C333.443 1410.91 332.934 1402.41 339.862 1395.3Z" fill="#181817"/>
<path d="M180.622 1190.03C185.169 1190.74 189.982 1206.8 186.615 1209.39L185.291 1208.72C181.651 1203.38 178.14 1200.53 173.395 1196.21C175.904 1193.56 177.725 1192.24 180.622 1190.03Z" fill="#767574"/>
<path d="M364.918 1413.04C366.215 1413.73 367.11 1414.33 368.263 1415.26C372.597 1418.71 375.365 1423.77 375.946 1429.27C367.57 1426.13 364.556 1421.85 364.918 1413.04Z" fill="#949191"/>
<path d="M195.801 1219.22C200.26 1220.47 207.206 1230.18 206.035 1234.89C202.688 1233.16 196.567 1227.59 195.142 1223.86C194.269 1221.58 194.77 1221.7 195.801 1219.22Z" fill="#767574"/>
<path d="M312.407 1396.16C317.039 1397.11 334.909 1414.85 338.581 1419.08C334.208 1418.37 315.403 1400.48 312.407 1396.16Z" fill="#949191"/>
<path d="M790.346 1213.9C793.208 1213.92 794.049 1215.51 794.882 1217.76C794.596 1220.99 793.917 1221.57 791.943 1224.01C789.22 1223.29 787.924 1221.7 787.045 1219.22C787.816 1215.7 787.554 1216.75 790.346 1213.9Z" fill="#5E5C5C"/>
<path d="M816.764 1163.55C818.052 1160.88 817.35 1161.38 819.541 1160.01C823.922 1160.91 824.986 1164.4 826.066 1168.37C823.683 1168.67 823.042 1168.68 820.651 1168.47C818.36 1167.36 817.959 1165.87 816.764 1163.55Z" fill="#E4E4E7" fill-opacity="0.964706"/>
<path d="M82.1877 1024.51L83.6232 1024.69L83.9317 1024.35C84.7871 1023.41 85.0462 1022.93 86.2811 1022.72C86.7539 1024.63 88.0259 1029.3 88.2472 1031.07C87.56 1034.36 86.7925 1037.71 86.3621 1041.03C84.8781 1035.73 83.5283 1029.89 82.1877 1024.51Z" fill="#4D4C4C"/>
</svg>
