<svg xmlns="http://www.w3.org/2000/svg" width="520" height="480"><path fill="#ef7521" d="M264 34.82q3.64 1.61 7.25 3.3a482 482 0 0 0 19.81 8.63 300 300 0 0 1 13.56 5.81c4.47 2.06 9 3.91 13.56 5.72q9.79 3.9 19.52 7.93l5.6 2.3c7.01 2.9 13.92 5.92 20.78 9.16 2.93 1.34 5.9 2.51 8.92 3.64a436 436 0 0 1 20.1 8.3q9.99 4.32 20.16 8.2C416 99 416 99 418 101c.25 2.5.25 2.5.26 5.72l.02 3.7.01 8.35.01 11.66.01 9.76v23.1q0 11.85.03 23.68.03 10.2.02 20.41l.02 12.16c.07 21.06-.37 41.38-6.63 61.71l-.92 3.05c-5.86 18.9-15.12 34.97-26.76 50.87q-2.1 2.87-4.07 5.83h-2l-.75 1.69c-5.07 9.41-13.8 17.26-21.31 24.75l-1.5 1.5C334.5 388.84 334.5 388.84 325 392v2c-5.41 4-5.41 4-8 4v2c-1.57 1.22-1.57 1.22-3.77 2.57l-2.43 1.52-2.61 1.6-5.3 3.27-2.57 1.6q-4.04 2.53-8 5.19c-5.63 3.6-11.58 6.47-17.58 9.38a97 97 0 0 0-10.55 6.06c-4.48 1.66-8.29 1.62-12.63-.23a160 160 0 0 1-7.87-4.59l-5.64-3.34-2.68-1.62a172 172 0 0 0-8.06-4.47A241 241 0 0 1 191 393q-3.3-2.57-6.62-5.13l-1.62-1.24a352 352 0 0 0-13.81-10.04L167 375v-2l-1.7-.71C157.66 368 151.61 359.65 146 353l-5.44-6.38-1.36-1.58c-3.2-3.81-3.2-3.81-3.2-6.04h-2a150 150 0 0 1-5.25-7.38l-1.5-2.23a881 881 0 0 1-6.03-9.08c-9-14.33-14.7-30.07-19.22-46.31l-.6-2.16c-2.94-11.72-2.56-24.16-2.6-36.15l-.02-4.43-.07-19.3-.05-20.63q-.03-14.73-.1-29.47-.07-10.4-.07-20.8 0-6.2-.05-12.4-.05-5.8-.02-11.62l-.03-4.26q-.02-2.91 0-5.82v-3.29c.61-2.67.61-2.67 2.97-4.46q4.27-1.98 8.65-3.73l3.49-1.41 3.63-1.45c7.51-3 14.97-6.06 22.31-9.45 3.98-1.82 8.02-3.5 12.06-5.17 5.16-2.15 10.3-4.33 15.38-6.69 4.77-2.2 9.65-4.08 14.59-5.9 2.94-1.17 5.78-2.43 8.66-3.75 7.07-3.25 14.3-6.07 21.55-8.91a345 345 0 0 0 17.9-7.66 128 128 0 0 1 8.86-3.53 115 115 0 0 0 15.9-7.52c3.86-1.5 5.9-.77 9.65.78M250 66.7l-2.05.83a336 336 0 0 0-13.84 6.08c-8.14 3.67-16.42 7.02-24.65 10.46L202 87.2l-2.43 1.02a345 345 0 0 0-12.13 5.35c-5.46 2.53-11.06 4.63-16.68 6.78a242 242 0 0 0-16.68 7.26c-4.23 1.92-8.56 3.53-12.92 5.17-8.12 2.71-8.12 2.71-15.16 7.23q-.14 2.62-.15 5.24l-.02 3.44v3.82l-.03 3.99-.05 17.7-.04 21.4q-.02 12.28-.08 24.58-.04 9.53-.05 19.05 0 5.67-.03 11.35c-.13 19.45-.01 37.86 8.76 55.68l1.18 2.5q1.73 3.63 3.51 7.25l2.04 4.27c3.08 7 3.08 7 7.96 12.73 2.95.3 5.69.42 8.64.4l2.7.03 9.02.02 6.45.04q8.77.04 17.55.04l10.96.03q19.1.05 38.2.05 17.82 0 35.64.1 15.3.07 30.57.07 9.14 0 18.28.05 8.58.06 17.18.02l6.3.02q4.32.04 8.61 0l2.54.05c4.39-.08 4.39-.08 7.94-2.42A47 47 0 0 0 373 306q1.05-1.73 2.13-3.44a55 55 0 0 0 4.06-9.57c.81-1.99.81-1.99 2.24-4.24 1.96-3.44 3.02-6.9 4.13-10.69l1.26-4.15.54-1.84q.76-2.43 1.61-4.82c3.05-9.61 3.33-19.6 3.32-29.61l.02-3.84a2177 2177 0 0 0 .04-16.7l.02-22.46q0-10.46.05-20.9.04-9 .04-18.01 0-5.37.02-10.73.04-5.97 0-11.93l.04-3.6-.03-3.26v-2.85c-.28-2.49-.28-2.49-2.3-4.08a78 78 0 0 0-9.93-4.64l-2.3-.96-7.27-3q-2.4-.97-4.77-1.97c-11.75-4.86-23.5-9.71-35.42-14.15a211 211 0 0 1-15.48-6.76c-6-2.84-12.12-5.4-18.25-7.96a351 351 0 0 1-12.27-5.34 598 598 0 0 0-15.5-6.81l-2.54-1.1-2.4-1.02-2.15-.91c-4.4-1.52-7.86.36-11.91 2.03M165 335l1 2h2v2h2l.8 1.77A22 22 0 0 0 180 350c5.05 1.02 10.05.96 15.18.9l4.6.04q6.22.04 12.44 0 6.52-.02 13.05.01 10.95.02 21.92-.04 12.65-.05 25.29.02 10.87.04 21.76.01l12.98.01q6.1.03 12.2-.03h4.47c7.97.08 14.12-.24 20.25-5.86A84 84 0 0 0 352 335a993 993 0 0 0-53-1.13h-79.7c-18.13-.02-36.2.3-54.31 1.13m41 37a48 48 0 0 0 10.38 8c3.32 2 6.6 3.98 9.78 6.19 4.06 2.59 7.21 2.94 11.97 2.96l3.1.01h3.32l3.44.02h7.2l11 .04 6.99.01 3.31.02c5.23-.01 9.63-.12 14.51-2.25v-2l2.54-.68c4.14-1.58 7.3-3.77 10.83-6.38l1.95-1.4q2.36-1.73 4.68-3.54v-1z"/><path fill="#ee7420" d="m259.06 115.75 3.79-.02C266 116 266 116 268 118c.32 1.97.32 1.97.41 4.35l.12 2.58.1 2.7.11 2.71.26 6.66 3-1v-2c1.83-1.76 1.83-1.76 4.25-3.69l2.4-1.95C281 127 281 127 283.3 127.3l1.7.71v2l1.75.69c2.9 1.7 4.44 3.5 6.25 6.31-.09 3.19-1.18 4.19-3.4 6.52q-1.54 1.38-3.1 2.73l-1.63 1.45-3.3 2.9a321 321 0 0 0-4.3 3.9l-2.4 2.19-2.13 1.95C271 160 271 160 269 160l-.08 2.38-.36 10.75-.12 3.75-.12 3.63-.11 3.33c-.2 3.11-.64 6.1-1.21 9.16q6.06-2.92 12.03-6c1.86-.95 3.75-1.8 5.65-2.65 4.99-2.5 9-4.65 10.91-10.08a86 86 0 0 0 2.1-10.98c.42-3.06.97-6.1 1.54-9.14q.39-2.11.73-4.24.44-2.47 1.04-4.91c4.72-2.36 11.28-1.5 16.19-.06 2.48 2.83 2.38 4.81 2.19 8.5-.64 4.34-1.93 8.43-3.38 12.56l3.38-2c3.37-2 3.37-2 5.62-2v-2a20 20 0 0 1 7.94-3.75c4.36 1.07 5.56 3.55 7.96 7.2 1.39 3.21 1.75 5.09 1.1 8.55-2.13 1.81-3.84 3-6.25 4.31l-1.78 1.05c-2.91 1.68-5.63 3.07-8.97 3.64v2l1.76.55A77 77 0 0 1 340 189c.53 6.26-1.18 10.45-4 16-3.83.38-6.33 0-9.65-1.8a97 97 0 0 0-13.48-5.57l-2.33-.87c-6.2-2.12-9.32-1.32-15.22 1.54-5.98 3.3-11.72 6.8-17.32 10.7 3.44 4 7.34 5.9 12 8.13l2.16 1.05 4.1 1.97c1.74.85 1.74.85 3.74 2.15 6.1 2.12 13.58-1.28 19.38-3.3l2.44-.83c4.16-1.4 4.16-1.4 8.18-3.17 2.88-.44 2.88-.44 6 0 3.3 3.74 4.67 7.05 5 12-1 3-1 3-4.16 4.82q-1.95.96-3.9 1.87l-2.01.97q-2.46 1.19-4.93 2.34c5.24 3.2 10.44 6.37 16 9-.37 5.85-2 10.58-6 15-2.33.98-3.5 1.15-5.92.44L325 259v-2l-2.87-.94C319 255 319 255 317 254l1 3.44c1.07 4.37 2.04 9.11 1 13.56-2.36 2.58-3.74 2.98-7.23 3.3l-3.52-.11-3.55-.08-2.7-.11c-2.2-5.9-3.36-11.98-4.62-18.12l-.7-3.29-.66-3.16-.6-2.87C295 244 295 244 295 240l-1.97-.7c-4.05-1.74-7.75-3.97-11.53-6.24l-2.26-1.34Q273.6 228.37 268 225q.06 6.3.2 12.6.06 2.14.07 4.28.04 3.08.12 6.17l.06 3.74c.64 3.75 1.73 4.78 4.55 7.21v2l1.62.66c3.24 1.82 5.77 4.3 8.44 6.84 2.88 2.71 5.64 5.3 8.94 7.5.47 2.3.47 2.3 0 5-1.97 2.68-1.97 2.68-4.5 5.31l-2.53 2.68L283 291c-4.1-.53-6.18-2.72-9.12-5.5-3.19-3.11-3.19-3.11-6.88-5.5l1 2q.14 3.03.13 6.06v3.29C268 294 268 294 267 295c-2.66.13-5.28.19-7.94.19l-2.25.03c-1.94.01-3.87-.1-5.81-.22-2-2-2-2-2.23-4.53l.04-2.97.02-2.97C249 282 249 282 250 280l-4.81 3.81-2.71 2.15A60 60 0 0 0 237 291c-4.89-1.18-7.46-4.28-10.74-7.83-1.26-2.17-1.26-2.17-1.17-4.73 1.04-2.79 1.97-3.8 4.28-5.63 3.59-2.94 7.04-5.98 10.44-9.12A66 66 0 0 1 248 257c.6-3.26.6-3.26.69-7.12l.1-2.13c.32-7.58.3-15.17.21-22.75l-8 4.69-2.25 1.32-4.5 2.67q-2.24 1.3-4.52 2.52c-3.77 2.08-5.42 3.12-7.25 7.16l-.73 3.83-.43 2.07q-.45 2.2-.87 4.4c-.64 3.31-1.4 6.6-2.14 9.9q-1.19 5.2-2.31 10.44-3.12.08-6.25.13l-3.52.07c-4.84-.3-4.84-.3-7.23-2.2-1.6-4.17-.63-7.58.44-11.81l.87-3.52.69-2.67a52 52 0 0 0-11.04 5.88A16 16 0 0 1 184 262c-3-1-3-1-4.64-3.62l-1.61-3.25-1.64-3.25C175 249 175 249 176 246c2.84-1.75 2.84-1.75 6.38-3.56A97 97 0 0 0 192 237l-3.56-1.75c-3.9-1.95-7.68-4.05-11.44-6.25.43-5.7 2.84-9.41 6-14 7.36.72 14.04 3.22 21 5.65 7.46 2.5 11.52 2.63 18.67-.83q2.55-1.33 5.08-2.7l2.61-1.35c5.01-2.56 5.01-2.56 8.64-6.77a290 290 0 0 0-17.87-11.56l-2.56-1.5c-7.22-2.63-16.65 2.5-23.57 5.06q-2.34 1.1-4.62 2.31c-3.2 1.6-4.89 2.4-8.38 1.69-2-3-2-3-2-7h-2l-2-7a37 37 0 0 1 11.31-6.75l3.24-1.3L193 182c-8.43-4.64-8.43-4.64-17-9-.4-4.46.78-6.98 3-10.81l1.69-2.96L182 157c5.4-.52 7.96.88 12.31 4 3.08 2.6 3.08 2.6 6.69 4l-.7-2.89-.86-3.8-.88-3.76c-.53-3.34-.7-5.38.44-8.55 5.02-3.2 9.02-3.22 14.86-2.71 2.14.71 2.14.71 3.2 2.45 1 2.4 1.52 4.6 1.98 7.15l.5 2.84.52 2.96.53 2.9A226 226 0 0 1 223 179l2.5.69c4.27 1.6 7.8 3.83 11.63 6.31l4.19 2.69 1.85 1.2A68 68 0 0 0 249 193q.04-6.45-.04-12.92-.03-2.19 0-4.38c.36-8.41.36-8.41-2.58-15.96-1.87-1.63-1.87-1.63-3.88-2.79L241 156v-2h-2v-2h-2v-2l-1.73-.77a33 33 0 0 1-6.52-4.85l-2.14-1.92L225 141c.53-4.01 1.6-6.26 4.25-9.31l1.77-2.12C233 128 233 128 235.4 127.5c3.63.71 5.27 2.47 7.91 5.01l2.68 2.53L248 137l.04-1.71.27-7.66.07-2.7.1-2.58.09-2.38c1.11-5.1 6.35-4.24 10.5-4.22"/><path fill="#c75e18" d="M413 99c3.88.88 3.88.88 5 2a107 107 0 0 1 .14 5.6l.02 3.7.02 8.36.03 18.98q.03 11.46.03 22.93 0 13.17.05 26.35.03 10.2.03 20.42 0 6.09.03 12.17c.08 20.53.04 40.72-6.35 60.49h-1q-.3-4.16-.56-8.31l-.17-2.38-.15-2.3-.14-2.1C410 263 410 263 411 260c3.87-30.42 2.24-61.77 2.14-92.39l-.04-22.5q-.03-23.05-.1-46.11"/><path fill="#733212" d="m128.13 116.88 2.87.12-1.97 1.16c-2.25 1.67-2.25 1.67-2.53 4.31v3l-.04 3.46.02 3.8-.02 3.99q-.02 5.43 0 10.86v11.4q-.01 9.61.02 19.22.02 11.04 0 22.08-.04 9.51-.02 19.02v11.33c-.07 19.7.2 38.12 9.17 56.12l2.35 4.92 1.08 2.25A64 64 0 0 1 142 302c-1.84-.6-1.84-.6-4-2-1.38-2.9-1.38-2.9-2.56-6.37-1.48-4.52-1.48-4.52-3.92-8.52-1.68-2.33-2.34-4.23-3.09-7l-.78-2.84-.78-2.96-.8-2.9c-2.75-10.24-3.22-20.04-3.22-30.6v-3.93l-.02-17.2-.02-23.07-.02-21.51a8324 8324 0 0 1-.03-29.53v-12.28l-.02-3.7.01-3.36v-2.93c.41-3.82 1.67-4.28 5.38-4.42"/><path fill="#a24410" d="M168 339h2a45 45 0 0 1 3.44 3.88c3.78 4.66 3.78 4.66 9.36 6.38l3.47.02 3.99.04 8.99.03a3012 3012 0 0 0 20.35.07l24.5.06q14.13 0 28.27.1 10.93.06 21.86.07 6.53 0 13.05.05 6.13.04 12.28.02l4.5.02c9.32.32 9.32.32 17.39-3.78L344 343l2 1c-.75 2.44-.75 2.44-2 5-2.12.81-2.12.81-4 1v2a50878 50878 0 0 1-90.62.15 13509 13509 0 0 1-38.3.06 3131 3131 0 0 1-17.06.03h-9.8c-4.43-.33-7.95-1.14-11.34-4.08l-1.75-2.1-1.81-2.09C168 342 168 342 168 339"/><path fill="#884212" d="M100 100h1l.01 2.43.49 86.62a26808 26808 0 0 0 .28 49.9l.06 10.65.02 3.47c.12 2.51.47 4.53 1.14 6.93q.1 3.13.06 6.25l-.02 3.27L103 272h2l.3 1.84a71 71 0 0 0 4.75 15.75A67 67 0 0 1 113 300l4 1v9c-15.9-15.9-18.09-49.42-18.14-70.25v-32.92l.01-20.92v-24.2a20217 20217 0 0 1 0-44.9v-13.39C99 101 99 101 100 100"/><path fill="#df6f1e" d="m259.06 115.75 3.79-.02C266 116 266 116 268 118c.32 1.97.32 1.97.41 4.35l.12 2.58.1 2.7.11 2.71.26 6.66h3l-2 2h-4v-21h-15v21c-2.7 1.35-5 1-8 1v2h-4l-.31 1.94L238 146l-3 1 2 3c-3.24-1.44-5.62-3.26-8.25-5.62l-2.14-1.92L225 141c.53-4.01 1.6-6.26 4.25-9.31l1.77-2.12C233 128 233 128 235.4 127.5c3.63.71 5.27 2.47 7.91 5.01l2.68 2.53L248 137l.04-1.71.27-7.66.07-2.7.1-2.58.09-2.38c1.11-5.1 6.35-4.24 10.5-4.22"/><path fill="#6c2a06" d="M162 333h190v2h-2.43l-87.25-.08-37.94-.03c-19.49-.03-38.91.13-58.38 1.11l2 1v2l-4-1v-2h-2z"/><path fill="#602713" d="M413 99c3.88.88 3.88.88 5 2a107 107 0 0 1 .14 5.6l.02 3.7.02 8.36.03 18.98q.03 11.46.03 22.93 0 13.17.05 26.35.03 10.2.03 20.42 0 6.09.03 12.17c.08 19.6-.41 38.4-5.35 57.49h-1q.18-3.66.38-7.31l.09-2.04c.22-3.93.71-7.65 1.54-11.5 1.29-7.02 1.3-13.97 1.3-21.08l.04-4.4q.04-5.94.05-11.87l.07-12.44.12-23.51.14-26.79q.15-27.52.27-55.06h-3z"/><path fill="#86380c" d="M211.42 369.88h8.91l17.55.03 18.93.02 19.3.02L314 370v3c-3 2.19-3 2.19-6 4l-2-1 4-3H207c4.41 3.15 8.24 5.82 12.94 8.31l2.9 1.55L225 384v3l-1-2a87 87 0 0 0-5-1c-3.36-.93-6.69-1.9-10-3v-3c-2.94-2.21-2.94-2.21-6-4l1-3a20 20 0 0 1 7.42-1.12"/><path fill="#b64f18" d="M285 128v2l1.75.69c2.9 1.7 4.44 3.5 6.25 6.31-.09 3.19-1.18 4.19-3.4 6.52q-1.54 1.38-3.1 2.73l-1.63 1.45-3.3 2.9a321 321 0 0 0-4.3 3.9l-2.4 2.19-2.13 1.95C271 160 271 160 269 160l-.44 13.13-.12 3.75-.12 3.63-.11 3.33c-.2 3.11-.64 6.1-1.21 9.16l7-2v2c-2.25 1.69-2.25 1.69-5 3-2.17-.42-2.17-.42-4-1l-.08-18.75-.02-6.84-.01-2.15c0-5.03 0-5.03 1.11-7.26h2l-.19-2.37.19-2.63c3.23-2.15 4.28-2.2 8-2l-1-5h3v2h2l1-5h3v-4h6v-5l-2.37-.69C285 134 285 134 283.69 131.37L283 129l-2.25 1.38A89 89 0 0 1 274 134c6.05-7.48 6.05-7.48 11-6"/><path fill="#8a4420" d="M142 302a86 86 0 0 1 6 9c2.07 2.07 6.55 1.16 9.4 1.16l11.75.05 6.46.03 21.25.07h3.65q17 .06 34.03.08 21.8.03 43.6.14 15.3.06 30.6.08 9.15 0 18.31.05 8.61.06 17.21.04 3.16 0 6.33.03 4.32.04 8.62 0l2.55.05c2.61.02 2.61.02 6.24-.78 2.61-2.87 2.61-2.87 4-6 .75 1.75.75 1.75 1 4-1.61 2.39-2.94 3.79-5.84 4.36a97 97 0 0 1-7.1.12l-2.78.01q-4.6 0-9.2-.04h-6.6q-8.95 0-17.92-.04l-18.71-.04q-15.72 0-31.43-.07l-32.36-.08h-2.02l-10-.02q-41.53-.06-83.04-.2-1.01-1.87-2-3.75l-1.12-2.1C142 306 142 306 142 302"/><path fill="#e56a1b" d="M327 177h5c-2.17 2.5-3.73 3.44-7 4v2l1.76.55A77 77 0 0 1 340 189c.53 6.26-1.18 10.45-4 16-4.85.48-7.52-.6-11.63-2.84-4.59-2.24-9.51-3.64-14.37-5.16v-1h10v2h3v-2c3.82-1.42 6.91-2.24 11-2l1-4-2-1v-2l-2.12.25c-3.8-.33-5.86-2-8.88-4.25l1-3c2.06-.69 2.06-.69 4-1z"/><path fill="#c05b19" d="M216 144c1.76 2.86 2.45 5.6 3.04 8.89l.5 2.84.52 2.96.53 2.9A226 226 0 0 1 223 179l2.48.69c4.32 1.61 7.95 3.84 11.83 6.31l2.2 1.37c5.36 3.37 5.36 3.37 6.49 5.63l-9-3v-2l-1.94-.31L233 187l-1-3c-2.67-.74-5.3-1.4-8-2-2.37-.69-2.37-.69-4-2-1.5-3.93-2.16-7.86-2.87-12-.84-4.78-1.95-9.44-3.2-14.12l-.52-2.02c-.69-3.2-.69-3.2-2.41-5.86-3.83-.17-7.27.12-11 1l.44 1.65A58 58 0 0 1 202 165h-1l-1.56-6.69-.88-3.76c-.53-3.34-.7-5.38.44-8.55 5.27-3.36 11-4.01 17-2"/><path fill="#cb650f" d="M123 92c-4.25 3.93-7.24 5.69-13 7l-7 2-1 154h2l1 17h-2a212 212 0 0 1-2.23-32.23v-4.65l.03-12.45.01-13.07q.01-12.33.05-24.68l.04-28.13q.03-28.9.1-57.79a1726 1726 0 0 1 12.71-5.24l2.72-1.1 2.5-1.04C121 91 121 91 123 92"/><path fill="#b35516" d="m254 222-.22 3.78A495 495 0 0 0 253 259l-3 1 1 2-3.37 1.75c-2.95 1.6-2.95 1.6-4.63 4.44l-1 1.81c-6.15 1.43-6.15 1.43-9 0l3-3.12 1.91-1.99c2.06-1.87 4.04-2.99 6.47-4.33 2.98-2.17 3.56-3.26 4.35-6.93.38-4.21.33-8.4.27-12.63q0-2.3.04-4.6.03-5.7-.04-11.4l-2.12 1.35-2.75 1.71-2.75 1.73L239 231l-2-1 3.38-2.5c.93-.7.93-.7 1.9-1.4C244 225 244 225 246 225v-2c2.7-1.35 5-1.07 8-1"/><path fill="#833a0e" d="m275 228 2.06.44c3.3.63 6.61 1.1 9.94 1.56l2 5h4l.25 1.88c.56 2.3.56 2.3 2.81 3.37l1.94.75v5l4 2-.1 5.96c.02 2.24.02 2.24 1.1 5.04q.32 3.09.56 6.19l.26 3.29.18 2.52a535 535 0 0 0 6.64.1c2.27-.1 4.19-.47 6.36-1.1a107 107 0 0 0-1-16c2.76 4.14 3.08 7.74 3.31 12.63l.12 2.28c-.43 2.09-.43 2.09-2.03 3.85-3.19 1.65-5.58 1.53-9.15 1.43l-3.55-.08-2.7-.11c-2.2-5.9-3.36-11.98-4.62-18.12l-.7-3.29-.66-3.16-.6-2.87C295 244 295 244 295 240l-2.01-.71a88 88 0 0 1-10.8-5.85l-2.1-1.25q-2.57-1.55-5.09-3.19z"/><path fill="#874612" d="M388 118h4c1.3 2.62 1.13 4.53 1.13 7.46v76.14a17397 17397 0 0 1 0 41.74v5.87c-.02 9-.22 16.51-4.13 24.79l-1.69 3.94L386 281c-1.78-4.73.3-8.48 1.9-13.03 3.01-9.85 3.4-20.11 3.37-30.33l.02-3.84.01-10.27.01-8.6v-20.29q0-10.46.03-20.9.03-9 .02-18.01 0-5.37.02-10.73v-11.93l.02-3.6-.03-3.26v-2.85c-.43-2.76-1.21-3.64-3.37-5.36"/><path fill="#f1771d" d="M190 186h5l-4 1v3h2a29 29 0 0 1-3.62 6.06c-1.67 1.95-1.67 1.95-1.38 4.94h-4l-1-1v3c4.97-1.13 4.97-1.13 9-4h3v-2l7-1v-2a37 37 0 0 1 14-2v2l-1.8.58-11.03 3.58A110 110 0 0 0 187 205c-2.87.44-2.87.44-5 0-2-3-2-3-2-7h-2l-2-7 4-2v2h5l1-2h3z"/><path fill="#bf5211" d="M162 332h192c0 4 0 4-2 6.25l-2 1.75-2-1 1.44-1.31c1.8-1.71 1.8-1.71 2.56-4.69H162z"/><path fill="#703411" d="M265 222c2.32-.16 2.32-.16 5 0 2.81 2.5 2.81 2.5 5 5-3.1 0-4.35-.54-7-2q.06 6.3.2 12.6.06 2.14.07 4.28.04 3.08.12 6.17l.06 3.74c.64 3.75 1.73 4.78 4.55 7.21v2l1.62.66c3.24 1.82 5.77 4.3 8.44 6.84 2.88 2.71 5.64 5.3 8.94 7.5.44 2.44.44 2.44 0 5-2 1.81-2 1.81-4 3v-7l-2-1-1-3c-2.41-1.99-2.41-1.99-5.31-3.94A65 65 0 0 1 270 261l-2.6-1.62c-2.4-2.38-2.4-2.38-2.97-6.05q0-2.19.08-4.38l.02-2.33q.06-3.68.16-7.37l.07-5q.08-6.13.24-12.25"/><path fill="#d36319" d="m267.56 276.94 2.44.06 1 5-4-2 1 2q.14 3.03.13 6.06v3.29C268 294 268 294 267 295c-2.66.13-5.28.19-7.94.19l-2.25.03c-1.94.01-3.87-.1-5.81-.22-2-2-2-2-2.23-4.53l.04-2.97.02-2.97C249 282 249 282 250 280h-2v-2h5v13h11l-.04-2.8-.02-3.64-.04-3.62c.13-3.92.13-3.92 3.66-4"/><path fill="#ee7921" d="M190 241h2l-1 4h-2v2l3 1v3l3 1v2c-5.05 4.5-7.3 6.15-14 6-1.75-4.48-2.46-8.19-2-13 3.44-2.29 4.99-2.18 9-2z"/><path fill="#b1561c" d="M317 370c-.9 3-1.4 4.62-4.1 6.34l-2.52 1.04c-4.68 2.1-7.91 4.62-11.5 8.26-2.4 1.74-3.97 1.62-6.88 1.36v2a63 63 0 0 1-12 1.11h-3.52l-3.75-.01h-3.88l-10.15-.03-10.38-.02L228 390v-2h-2l1-2 2.27.99c5.19 1.4 10.12 1.28 15.48 1.24l10.59-.02 10.94-.02 6.97-.02h3.3c4.92-.04 9.61-.12 14.45-1.17v-2c6.99-4.73 14.97-9.32 23-12v-3h-26v-1c23.46-1.77 23.46-1.77 29 1"/><path fill="#e16c18" d="M207 250v5h-2l1 7h2l1 3c-2.5 1.25-3.41.78-6 0v8l-4-1c-1.24-4.36-.66-7.46.44-11.81l.87-3.52.69-2.67a52 52 0 0 0-11.04 5.88A14 14 0 0 1 184 262l-3-2 2.12-.3 2.75-.45 2.75-.42c2.54-.61 2.54-.61 3.7-2.9L193 254h2v-2c3.9-2.6 7.47-2.15 12-2"/><path fill="#732806" d="M168 339h2a45 45 0 0 1 3.44 3.88A28 28 0 0 0 180 349c2.53.16 4.94.2 7.47.16l2.33-.02q2.52-.01 5.04-.05 6.88-.07 13.75-.09h2.97c12.5-.04 25 .23 37.5.5l3.48.07L272 350v1q-18.57.31-37.14.47-8.62.06-17.24.2-8.32.15-16.65.18-3.17.03-6.35.1c-16.52.37-16.52.37-21.74-2.9-3.06-3.3-4.88-5.5-4.88-10.05"/><path fill="#8f380f" d="m237 232-2.7 1.19c-7.33 3.71-7.33 3.71-11.91 10.27-.93 3.37-1.5 6.8-2.02 10.25-.67 4.14-1.68 8.2-2.62 12.29l-1.75 8h-13v-1l2.12-.26A52 52 0 0 0 213 271c1.72-2.05 1.72-2.05 2-5l.93-4.05a219 219 0 0 0 2.7-15.01l.4-2.63.97-6.31 3-1c.73-2.02.73-2.02 1-4l2.25-.44c2.65-.5 2.65-.5 4.81-1.19 2.28-.44 3.73.01 5.94.63"/><path fill="#923811" d="M233 74c-1.98 1.98-3.15 2.62-5.68 3.66l-2.29.95-2.47 1.02-5.18 2.15-2.7 1.11q-6.35 2.63-12.68 5.3l-2.42 1.01A379 379 0 0 0 187 94.75c-5.19 2.39-10.48 4.75-16 6.25l-2-1c4-2.67 8.18-4.3 12.64-6.02 2.5-.96 2.5-.96 5.11-2.73 2.87-1.6 5.02-1.48 8.25-1.25v-2h5v-2l8.69-3.87 2.47-1.11c3.23-1.44 6.44-2.86 9.73-4.15 7.4-3.05 7.4-3.05 12.11-2.87"/><path fill="#f27217" d="M191 187h5v2h3l1 2c2.02 1.13 2.02 1.13 4 2l-2 3c-3.62.69-3.62.69-7 1v2c-7.29 4.57-7.29 4.57-12 4l-1-4 2-1v3h4l-.68-1.77c-.32-2.23-.32-2.23.9-4.15l1.72-1.83 1.71-1.86L193 190h-2z"/><path fill="#672c09" d="m259.06 115.75 3.79-.02C266 116 266 116 268 118c.32 1.97.32 1.97.41 4.35l.12 2.58.1 2.7.11 2.71.26 6.66h3l-2 2h-4v-21h-15v21l-2 1-3-2 1-2 1 1 .04-1.71.27-7.66.07-2.7.1-2.58.09-2.38c1.11-5.1 6.35-4.24 10.5-4.22"/><path fill="#833612" d="M409 282h2c-4.4 19.75-14.85 37.08-27 53l-1-4 3-1 .25-2.2c.9-3.4 2.38-5.1 4.69-7.74 3.12-3.57 4.79-6.48 6.06-11.06h2l.38-2.19c.61-2.77 1.5-5.2 2.62-7.81h2l2-13h2z"/><path fill="#dc7017" d="M394 152h1a41193 41193 0 0 1 .65 58.12 12284 12284 0 0 1 .37 34.06l.04 2.85.02 2.62.03 2.26c-.2 4.01-1.58 7.41-3.11 11.09-.92-3.02-1-5.25-.58-8.37.98-9.53.82-19.13.9-28.7l.21-23.19.16-17.15z"/><path fill="#9e4a13" d="M182 157c4.2-.24 6.56-.15 9.88 2.5l1.8 1.4L195 162c-3 1-3 1-5.37 0-3.12-1.19-4.54-1.25-7.63 0-1.95 3.34-2.22 6.18-2 10l2.88.81C186 174 186 174 188 177a45 45 0 0 0 7 2l1 4c-5.11-1.35-9.19-3.8-13.63-6.56A73 73 0 0 0 176 173c-.4-4.46.78-6.98 3-10.81l1.69-2.96z"/><path fill="#82370e" d="M327 177h5c-2.17 2.5-3.73 3.44-7 4v2l1.76.55A77 77 0 0 1 340 189c.53 6.26-1.18 10.45-4 16-5.66.57-9.23-1.29-14-4 3.68-1.84 8.14.16 12 1l4-12-5-1v-2l-2.12.25c-3.8-.33-5.86-2-8.88-4.25l1-3c2.06-.69 2.06-.69 4-1z"/><path fill="#6f2f0a" d="M317.19 144.94c2.48 2.83 2.38 4.81 2.19 8.5-.64 4.34-1.93 8.43-3.38 12.56h-1l.22-1.87c.63-5.75.87-11.35.78-17.13l-14-1 .13 3.13A73 73 0 0 1 298 174h-2a705 705 0 0 1 3.5-21.75l.36-2.13c.31-1.72.72-3.42 1.14-5.12 4.72-2.36 11.28-1.5 16.19-.06"/><path fill="#8a3e10" d="M266 160h3l-.44 13.13-.12 3.75-.12 3.63-.11 3.33c-.2 3.11-.64 6.1-1.21 9.16l7-2v2c-2.25 1.69-2.25 1.69-5 3-2.17-.42-2.17-.42-4-1l-.08-18.75-.02-6.84-.01-2.15c0-5.03 0-5.03 1.11-7.26"/><path fill="#733412" d="M125 252h1l.48 3.23c2.21 14.08 6.67 26.47 12.93 39.26 2.59 5.32 2.59 5.32 2.59 7.51-1.84-.6-1.84-.6-4-2-1.38-2.9-1.38-2.9-2.56-6.37-1.46-4.51-1.46-4.51-3.92-8.48-2.4-3.39-3.18-7.17-4.2-11.15l-.68-2.56A57 57 0 0 1 125 252"/><path fill="#9c4410" d="M285 75h8v2l8 1v2l7 1v2l3.19.25c4.18.82 5.69 1.96 8.81 4.75l2.75 1.63C325 91 325 91 326 93c-4.2-1.34-8.2-2.9-12.21-4.71l-3.52-1.58-3.64-1.65c-10.7-4.82-10.7-4.82-21.63-9.06z"/><path fill="#d36d1d" d="M117 310h2v2l3 1v3h2v6h3v3h2v2h2l1 2 3 1 1 9h-2a150 150 0 0 1-5.25-7.37l-1.5-2.21C117 314.15 117 314.15 117 310"/><path fill="#6a2c09" d="M216 144c2.46 3.21 2.39 6.82 2.63 10.75l.22 3.55.15 2.7-2-1a95 95 0 0 1-1.62-6.56l-.8-3.63L214 147c-7.03-1.04-7.03-1.04-14 0l.44 1.65A58 58 0 0 1 202 165h-1l-1.56-6.69-.88-3.76c-.53-3.34-.7-5.38.44-8.55 5.27-3.36 11-4.01 17-2"/><path fill="#b74b15" d="M216 192v2l-1.8.58-11.03 3.58A110 110 0 0 0 187 205c-2.87.44-2.87.44-5 0-2-3-2-3-2-6l3 1v3c4.97-1.13 4.97-1.13 9-4h3v-2l7-1v-2a37 37 0 0 1 14-2"/><path fill="#712e0d" d="M336 215c3.3 3.74 4.67 7.05 5 12-1 3-1 3-4.05 4.79l-3.82 1.84-1.94.94A68 68 0 0 1 323 238c.13-1.83.13-1.83 1-4 2.62-1.48 2.62-1.48 5.88-2.75l3.24-1.3C336 229 336 229 339 229l-2-8h-2l-1-3c-4.34.18-4.34.18-8 2q-3.5.06-7 0c11.67-6.07 11.67-6.07 17-5"/><path fill="#78360d" d="m243 156 6 1v4h2v34l-5-1 3-1q-.03-6.45-.15-12.92-.04-2.19-.05-4.38-.01-3.17-.1-6.33l-.04-3.84c-.85-4.56-2.48-6.24-5.66-9.53"/><path fill="#682c0d" d="m326 238 16 8c-1.14 7.97-1.14 7.97-3.31 11.38l-1.24 2.02c-1.79 1.98-2.8 2.37-5.45 2.6-2.5-.73-4.64-1.86-7-3a30 30 0 0 1 7.56-1.12L336 257c2.02-3.52 3-5.94 3-10l-7-2v-2l-2.44-.81L327 241z"/><path fill="#964c12" d="M235.46 127.55c3.2.57 4.51 1.73 6.85 3.95l2.12 1.97L246 135c-3.88 0-5.92-1-8.75-3.62L236 130v4h-2v2l-6 2v4l-3-1c.53-4.01 1.6-6.26 4.25-9.31l1.77-2.12c1.98-1.57 1.98-1.57 4.44-2.02"/><path fill="#652a0a" d="M248 278h3l1 14 14 1 1-11h1l.06 5.94.04 3.34C268 294 268 294 267 295c-2.66.13-5.28.19-7.94.19l-2.25.03c-1.94.01-3.87-.1-5.81-.22-2-2-2-2-2.23-4.53l.04-2.97.02-2.97C249 282 249 282 250 280h-2z"/><path fill="#aa4c14" d="M181 218a37 37 0 0 1 1 4l-1 1a100 100 0 0 0 0 5q3.46 1.6 7 3l2-1v2h3v2h2l-1 5-5 1 3-3-3.56-1.75c-3.9-1.95-7.68-4.05-11.44-6.25.51-4.39 1.52-7.34 4-11"/><path fill="#d76516" d="M251 163h1v25h2c.36 6.28.36 6.28-1.19 9.38-2.26 2.03-3.79 2.46-6.81 2.62l-2-2h3l-2-2-3 1 1-5 8 3z"/><path fill="#c46017" d="M183 215c4.32.5 8.03 1.2 12 3v1h-7v3l-5 1 1 6-4-1c-.46-4.93 1.17-8.5 3-13"/><path fill="#77300b" d="M162 333h33c-3.44 2.3-4.92 2.3-8.98 2.41l-3.53.12-3.68.1-3.71.11-9.1.26 2 1v2l-4-1v-2h-2z"/><path fill="#924111" d="m226 276 1.38 2 1.62 2h2v5h2v2l8-2v-2l3-1 1-2 3 1-11 10c-4.47-1.79-5.88-2.46-8.87-5.81l-1.87-2.02C225 281 225 281 225.3 278.24z"/><path fill="#9d4610" d="m226 218 2 1-4 1v3c-3.68 2.45-6.5 2.33-10.75 2.31l-2.1.05c-5.08 0-8.6-1.1-13.15-3.36v-2l-2-1a128 128 0 0 1 12.69 3.19c6.17 1.51 10.26-.46 15.58-3.45z"/><path fill="#a44414" d="m313 400 2 1c-17.76 11.65-17.76 11.65-26 16l-1-4 3-1v-2l6 1-1-3 3.88-1.5 2.17-.84C304 405 304 405 306 405v-2h4v-2z"/><path fill="#c45516" d="m339 379 3 1-10 8-2.7 2.27C327 392 327 392 325 392l-1 2c-1.03-2.79-1.05-3.87-.06-6.75L325 385l5 1v-2l7-2v-2z"/><path fill="#c2621c" d="M171 377c6.55 1.76 6.55 1.76 9.25 3.19 1.92 1.13 1.92 1.13 4.75-.19l3 4h-2v3h2a53 53 0 0 1 3 5c-3.95-1.72-7.2-4.31-10.56-6.94l-1.75-1.34A62 62 0 0 1 171 377"/><path fill="#a74c14" d="M313 251c6.63-.25 6.63-.25 10 2v3l-6-2 1 16h-3l.13-3.06c-.13-4-1-7.12-2.13-10.94-.12-2.94-.12-2.94 0-5"/><path fill="#a24b10" d="m204 371 1 2 5 2a222 222 0 0 1 6.63 3.94l1.73 1.05c2.86 1.76 5.4 3.49 7.64 6.01l-2 1v-2l-2.06-.37c-4.4-.94-8.68-2.2-12.94-3.63v-3c-2.94-2.21-2.94-2.21-6-4z"/><path fill="#652c0a" d="M218 252h2c-.64 7.55-2.22 14.64-4 22h-13v-1l2.12-.26 2.75-.43 2.75-.38c2.55-.7 2.55-.7 3.6-3.06q1.36-5.04 2.4-10.18l.8-3.8z"/><path fill="#4a1803" d="M285 128v2l1.75.69c2.9 1.7 4.44 3.5 6.25 6.31.13 2.06.13 2.06-1 4-3.06 2.25-3.06 2.25-6 4l1-4h3v-5l-2.37-.69C285 134 285 134 283.69 131.37L283 129l-2.25 1.38A89 89 0 0 1 274 134c6.05-7.48 6.05-7.48 11-6"/><path fill="#af571b" d="M354 74a364 364 0 0 1 19.08 6.72A27 27 0 0 1 380 85l-9 1v-4l-3.44-.12c-5.4-.64-9.41-3.5-13.56-6.88z"/><path fill="#f58027" d="M262 37v1l-1.8.37c-6.29 1.25-6.29 1.25-12.2 3.63l-1 3h-8v2l-3-1c2.7-3.32 6.13-4.38 10-6l2-2c4.69-2.7 8.9-1.82 14-1"/><path fill="#9f4e16" d="M107 284c2.43 2.43 2.72 4.13 3.56 7.44.75 2.9 1.5 5.72 2.44 8.56l4 1v9c-6.6-6.6-9.68-16.8-10-26"/><path fill="#6d2909" d="M332.75 156.25c3.87.9 4.39 1.72 6.63 4.88a31 31 0 0 1 3.5 8.12c-1.24 3.87-3.5 4.91-6.93 6.87-1.95.88-1.95.88-3.95.88v-2c5.75-3 5.75-3 8-3-1.74-5.14-3.3-8.92-7-13l-5 1c2-3 2-3 4.75-3.75"/><path fill="#c9641b" d="M302 146c10.84-.1 10.84-.1 14 0 1 1 1 1 1.1 3.07l-.04 2.5-.02 2.5L317 156h-1v-8l-12-1 .13 3.44c.01 4.7-.95 9.02-2.13 13.56h-2z"/><path fill="#ad4f13" d="M265 222c5 0 5 0 7.81 2.5L275 227c-3.1 0-4.35-.54-7-2-1.91 1.91-1.24 5.34-1.32 7.88l-.06 2.08-.31 11.07L266 257h-1z"/><path fill="#be5b12" d="m200 147 1 2 3 1v18l-6-1v-2h-3v-2c4.75 1.88 4.75 1.88 7 3z"/><path fill="#bd5c1b" d="M133 287c2.95 2.95 3.63 6.55 4.9 10.47.96 2.83.96 2.83 4.1 4.53 1.42 2.7 2.12 4.27 1.63 7.31L143 311l-3-5-2 1-.81-2.94a166 166 0 0 0-3.6-10.95C133 291 133 291 133 287"/><path fill="#77330f" d="m415 250 2 1c-.39 9.01-1.48 17.33-4 26h-1c.44-9.14 1.04-18.03 3-27"/><path fill="#8b350f" d="M262 62v3l-2.69.19c-5.05.7-9.62 2.75-14.32 4.65A44 44 0 0 1 238 72c2.4-3.6 3.96-4.03 7.94-5.56 11.79-4.6 11.79-4.6 16.06-4.44"/><path fill="#9c4a13" d="M223 179c5.38 1.5 9.65 4.03 14.31 7l2.2 1.37c5.36 3.37 5.36 3.37 6.49 5.63l-9-3v-2l-1.94-.31L233 187l-1-3c-1.85-.7-1.85-.7-4-1-2.19-.37-2.19-.37-4-1z"/><path fill="#f18128" d="M141 84h3v2a88 88 0 0 1-6.25 4.25l-1.78 1.18c-1.74 1.09-1.74 1.09-4.97 2.57-2.42-.77-2.42-.77-4-2l1-3 12-2z"/><path fill="#8e4521" d="M142 302a86 86 0 0 1 6 9c1.8 1.8 4.57 1.24 7 1.32l3.69.12 3.87.12 3.9.13 9.54.31v1h-30c-4-8-4-8-4-12"/><path fill="#a6521d" d="M123 92c-6.63 6.14-13.19 7.24-22 8 3.68-2.45 7.5-4 11.56-5.69l2.37-1 2.26-.95 2.07-.86C121 91 121 91 123 92"/><path fill="#984916" d="M333 65a229 229 0 0 1 21 8v1c-7.75.13-7.75.13-10-1v-2l-2.12-.25c-3.55-.92-5.96-2.57-8.88-4.75z"/><path fill="#bb5e20" d="M317.63 57.94c5 1.57 9.66 3.79 14.37 6.06v1c-6.62.25-6.62.25-10-2v-2l-12 1c4.1-3.98 4.1-3.98 7.63-4.06"/><path fill="#f7791f" d="m313 376-2 7c-6.05.98-6.05.98-8 1l-2-2 4.31-3 2.43-1.69C310 376 310 376 313 376"/><path fill="#6b380d" d="M384 281c1.33 2.67.67 4.17 0 7h-2l-.3 1.72c-1.06 5.5-2.52 9.65-5.7 14.28l-3 1c1.81-4.78 4.11-9.28 6.43-13.83 1.7-3.34 3.24-6.67 4.57-10.17"/><path fill="#6c3008" d="M199 252h5c-1 7.43-1 7.43-2 11h-2q.4 3.51 1 7l2 1v2l-4-1c-1.57-5.48.04-9.78 1.5-15.14l.5-2.86z"/><path fill="#984515" d="M266 426c2.69-.19 2.69-.19 5 0-5.17 4.3-8.06 6.16-14.9 6.46-3.03-.67-4.8-2.44-7.1-4.46l2.96.32 3.85.37 3.83.38c3.31.28 3.31.28 5.14-1.54z"/><path fill="#aa5717" d="M182 157c5.26-.64 7.69.8 11.68 3.9L195 162c-3 1-3 1-5.37 0-3.06-1.17-4.56-1.02-7.63 0l-1 2z"/><path fill="#a35218" d="m157 364 9 1 .38 2.94.62 3.06 2 1v3h-2v-2l-1.8-.77c-3.59-2-5.62-5.06-8.2-8.23"/><path fill="#9e531d" d="m138 342 6 1v4l1.94.69c2.06 1.31 2.06 1.31 2.69 3.87L149 354l2 1h-3a84 84 0 0 1-5.19-5.94l-1.4-1.7c-3.41-4.2-3.41-4.2-3.41-5.36"/><path fill="#72310c" d="M281 268c4.12 2.3 7.63 4.7 11 8 .63 2.63.63 2.63 0 5-2 1.81-2 1.81-4 3v-7l-2-1-1-3-4-3z"/><path fill="#b96523" d="M307 377v2c-1.68 1.44-1.68 1.44-3.87 3a47 47 0 0 0-6.13 5h-4v-3c2.3-1.82 2.3-1.82 5.31-3.69l3-1.88C304 377 304 377 307 377"/><path fill="#af5317" d="M265 277h5l1 5-4-2 .04 1.83.02 2.42.04 2.4c-.1 2.26-.47 4.18-1.1 6.35l-2-1z"/><path fill="#a34015" d="M233 74c-2.69 2.69-5.84 3.74-9.31 5.13l-2.02.83c-3.68 1.48-6.7 2.4-10.67 2.04 3.18-2.12 6.35-3.5 9.84-5 6.9-3.2 6.9-3.2 12.16-3"/><path fill="#9b4c13" d="M117 310h2v2l3 1v3h2l2 10a38 38 0 0 1-6.19-8l-1.6-2.62C117 313 117 313 117 310"/><path fill="#7e3c10" d="M102 260h1v12h2l1 4.69.56 2.63c.43 2.62.52 5.04.44 7.68-4.58-8.4-6.94-17.6-5-27"/><path fill="#893b11" d="M262 65c6.52.41 12.41 1.38 18 5l1 3a114 114 0 0 1-19-7z"/><path fill="#5c290c" d="M133 283c2.74 2.74 4.03 6.03 5.63 9.5l.98 2.09c2.39 5.15 2.39 5.15 2.39 7.41-3.18-1.05-3.93-1.86-5.48-4.9l-1.27-3.48-1.3-3.46C133 287 133 287 133 283"/><path fill="#87330a" d="m287 203-1.97 1.24-2.53 1.63-2.53 1.62L278 209v2l-4-1v-2h2v-4c6.96-2.28 6.96-2.28 11-1"/><path fill="#cf5d15" d="m288.69 197.88 3 .05 2.31.07c-4.5 4.64-8.87 4.76-15 5 1.75-5.25 4.7-5.24 9.69-5.12"/><path fill="#9a5019" d="M202 400c3.8.67 7.41 1.53 11 3l1 3 2 1v2c-5.6-1.4-9.7-4.26-14-8z"/><path fill="#8e4414" d="M181 218a37 37 0 0 1 1 4l-1 1c-.5 2.33-.5 2.33 0 5 2.4 2.81 2.4 2.81 5 5-3.4-1.06-6.01-2-9-4 .51-4.39 1.52-7.34 4-11"/><path fill="#b85514" d="M310 196h10v2h3v-2h3l-2 4c-5.42.4-9.07-.96-14-3z"/><path fill="#984112" d="M327 177h5c-2.17 2.5-3.73 3.44-7 4v2l7 2v2c-3.96-.57-6.67-1.8-10-4l1-3c2.06-.69 2.06-.69 4-1z"/><path fill="#823c10" d="M354 104c5.9.39 10.76 1.16 16 4l1 3a118 118 0 0 1-17-6z"/><path fill="#e07b2c" d="m353 339-2 2v3l-1 2c-3.06.63-3.06.63-6 1 2.44-6.6 2.44-6.6 5.06-8.5 1.94-.5 1.94-.5 3.94.5"/><path fill="#b45315" d="M334 332h20c0 4 0 4-2 6.25l-2 1.75-2-1 1.44-1.31c1.8-1.71 1.8-1.71 2.56-4.69h-18z"/><path fill="#bc5919" d="M238 207h6a88 88 0 0 1 1 5c-1 1-1 1-4.56 1.06L237 213l1.06-1.87.94-2.13z"/><path fill="#9e541a" d="m147 82-2.94 1.38c-3.13 1.28-3.13 1.28-4.06 3.62-7.34 2.29-7.34 2.29-12 1q4.18-1.8 8.38-3.56l2.4-1.04 2.3-.97 2.13-.9C145 81 145 81 147 82"/><path fill="#85430f" d="m179 244 2 1-1 2a42 42 0 0 0 1 12c-2.48-2.2-3.61-4.06-4.69-7.19l-.76-2.17L175 248z"/><path fill="#e76a20" d="M237 232c-4.39 3.32-7.37 4.55-13 5v-4l2.25-.44c2.65-.5 2.65-.5 4.81-1.19 2.28-.44 3.76-.07 5.94.63"/><path fill="#71300f" d="M332 186c5.75 1.88 5.75 1.88 8 3 .18 4.55 0 7.88-2 12h-1l1-11-5-1z"/><path fill="#ca5e1a" d="M315 156c1.24 3.58.75 6.34 0 10l3 1c-3.75 3-3.75 3-6 3-.3-5.67 0-9 3-14"/><path fill="#b64f15" d="m356 361 4 2-9 9-1-3 4-2v-5z"/><path fill="#773c11" d="M389 264h1c.49 6.7-.92 11.07-4 17-1.56-3.97-.36-6.81.94-10.75l1.15-3.55z"/><path fill="#682c0b" d="M219 161a33.5 33.5 0 0 1 4 18h-2a60 60 0 0 1-2-18"/><path fill="#a74516" d="M390 321c.68 1.7.68 1.7 1 4-1.14 2.32-1.14 2.32-2.81 4.69l-1.65 2.38C385 334 385 334 383 335l1-5h2l.31-2.25c.73-2.92 1.76-4.48 3.69-6.75"/><path fill="#883a11" d="m199 254-5.25 3.44-2.95 1.93c-4.14 2.4-4.14 2.4-6.8 2.63l-3-2 2.12-.3 2.75-.45 2.75-.42c2.53-.6 2.53-.6 3.58-2.85l.8-1.98c2.5-1.25 3.41-.78 6 0"/><path fill="#f57f28" d="m274 135 2 1c-1.74 3.06-3.38 5.63-6 8l-5-2 1.69-.69c2.94-1.67 5-3.86 7.31-6.31"/><path fill="#9a4b19" d="m189 62 2 1c-6.21 4.9-11.05 6.97-19 7a62 62 0 0 1 10.06-5.19l1.93-.86A89 89 0 0 1 189 62"/><path fill="#d06a12" d="m298 246 4 2v6l-4 1z"/><path fill="#8f4312" d="M389 89c10.56 3.08 10.56 3.08 15 5v1h-10l-1-4-4-1z"/><path fill="#984d1a" d="M237 421c4.5-.44 6.35-.53 9.94 2.38C249 426 249 426 249 428a36 36 0 0 1-12-6z"/><path fill="#9b511d" d="M171 377c3.8 1 6.72 1.81 10 4v3l3 1-1 2-6-4.44-1.73-1.27A198 198 0 0 1 171 378z"/><path fill="#9e4a10" d="M227 200h7l1 3h2l1 4a43 43 0 0 1-11-6z"/><path fill="#d2641a" d="m236 130 3 1v2l2.38.94A43 43 0 0 1 246 136v2l-2.19-1c-2.83-1-4.84-1.17-7.81-1-1.25-2.5-.78-3.41 0-6"/><path fill="#b75d19" d="m113 300 4 1v9c-3.52-3.52-3.55-5.2-4-10"/><path fill="#a54612" d="M409 282h2q-.63 2.73-1.31 5.44l-.74 3.06-.95 2.5-3 1 1-8h2z"/><path fill="#7f3609" d="M215 266h1v8h-13v-1l2.12-.26A48 48 0 0 0 213 271c1.76-2.46 1.76-2.46 2-5"/><path fill="#bc591e" d="m337 246 3 1a241 241 0 0 1-.81 4.38l-.46 2.46C338 256 338 256 335 258a168 168 0 0 1 2-12"/><path fill="#f2822d" d="M234 217c-1.37 3.16-1.99 4-5 6-2.69-.37-2.69-.37-5-1v-2l3.88-1.5 2.17-.84C232 217 232 217 234 217"/><path fill="#ab531b" d="M291 181v2c-1.83 1.54-1.83 1.54-4.25 3.19l-2.4 1.67c-2.35 1.14-2.35 1.14-4.65.82L278 188l5.38-3.5 3.02-1.97C289 181 289 181 291 181"/><path fill="#e07828" d="m211 145 2 4h-12v-2c3.4-2.1 6.05-2.18 10-2"/><path fill="#9f521a" d="M232 46v3c-.89.1-.89.1-1.8.18-4.11.44-8.16.9-12.2 1.82 3.37-2.95 9.6-7.2 14-5"/><path fill="#dd631a" d="M404 288h2c-.87 7.63-.87 7.63-2 11h-2l-1 5c-1.36-3.67-.62-5.62.94-9.12 1.56-3.33 1.56-3.33 2.06-6.88"/><path fill="#86420f" d="m226 276 1.38 2 1.62 2h2l1 8-7-7c.38-2.62.38-2.62 1-5"/><path fill="#c86723" d="M191 241c-1 1.94-1 1.94-3 4-2.7.67-5.2.82-8 1 2.98-4.47 5.59-6.93 11-5"/><path fill="#7f310d" d="m336 232-7.52 3.8C326 237 326 237 323 238c.26-1.89.26-1.89 1-4 1.7-1.08 1.7-1.08 3.81-1.81l2.08-.77c2.38-.47 3.83-.17 6.11.58"/><path fill="#b35f24" d="m226 218 2 1-4 1v3c-3.23 2.15-4.28 2.2-8 2v-2q2.43-1.3 4.88-2.56l2.74-1.44z"/><path fill="#f27e23" d="m190 187-1 2h-3l-1 3-5-1-1 2c.25-1.89.25-1.89 1-4 1.78-1.08 1.78-1.08 3.94-1.81l2.15-.77C188 186 188 186 190 187"/><path fill="#f6791c" d="M203 148h9l1 3h-8l-1 3z"/><path fill="#f47e2a" d="m109 98 3 2c-2.54 2.54-3.5 3.21-7 4v-2l-3-1c3.31-1.62 3.31-1.62 7-3"/><path fill="#a75118" d="m344 343 2 1c-.75 2.44-.75 2.44-2 5-2.12.81-2.12.81-4 1v2l-3-1h2l.25-1.75c.96-2.87 2.53-4.25 4.75-6.25"/><path fill="#f47c24" d="M236 270h5l-1 3-3 1c-1.2 2-1.2 2-2 4a22 22 0 0 1-1-6h2z"/><path fill="#c85e19" d="M124 261a19 19 0 0 1 3.19 6.94l.54 2.02c.3 2.29-.04 3.86-.73 6.04l-1-5h-2z"/><path fill="#984e1b" d="M243 261c0 3.63-1.23 5.02-3.55 7.7-2 1.8-3.8 2.15-6.45 2.3 6.15-7.48 6.15-7.48 10-10"/><path fill="#994710" d="M326 238q2.48 1.14 4.94 2.31l2.77 1.3C336 243 336 243 337 246l-5-1v-2l-2.44-.81L327 241z"/><path fill="#a55117" d="m275 228 2.06.44c3.05.63 3.05.63 6.63.87l3.31.69a20 20 0 0 1 2 4q-2.66-.64-5.31-1.31l-3-.74c-2.7-.95-3.9-1.77-5.69-3.95"/><path fill="#7b380c" d="M283 127.06c2 .94 2 .94 3.25 4L287 134h-2l-2-5-2.25 1.38A89 89 0 0 1 274 134c5.7-7.04 5.7-7.04 9-6.94"/><path fill="#823c10" d="m262 34 2 2-5.19.44-2.92.24c-2.68.3-5.26.75-7.89 1.32 4.51-3.68 8.2-5.88 14-4"/><path fill="#983d12" d="M376 341h2c-1.36 3-2.95 5.29-5.12 7.75l-1.64 1.86L370 352l-1-3 3-1v-3h2z"/><path fill="#72310b" d="M168 339h2a43 43 0 0 1 3.44 3.81A96 96 0 0 0 180 350c-3.58-.6-5.54-2-8.25-4.37l-2.14-1.84C168 342 168 342 168 339"/><path fill="#f77115" d="M224 71h3c-.37 1.94-.37 1.94-1 4-3.21 1.6-6.44 1.06-10 1l1-2 6-1z"/><path fill="#bc6825" d="m235 270 1 2h-2l1 3-8 3c1.29-2.88 2.57-4.96 5-7z"/><path fill="#9c4811" d="M286 216q6.05 2.4 12 5l-1 2c-7.37-2.35-7.37-2.35-10-4z"/><path fill="#8c3910" d="M307 193c1.88 1.5 1.88 1.5 3 3l-3.62-.62c-3.94-.52-6.7.05-10.38 1.62l1-3c3.23-1.31 6.56-1.3 10-1"/><path fill="#93390f" d="M139 111h6c-2.96 2.47-5.54 3.66-9.25 4.69l-2.7.76-2.05.55v-2c3.09-1.76 4.23-2 8-2z"/><path fill="#893a0e" d="M300 81h8v2h2l1 3-4.37-1.37-2.47-.78C302 83 302 83 300 81"/><path fill="#944918" d="M191 392c5.37.88 5.37.88 8 2 2 3.13 2 3.13 3 6-4.6-1.49-7.47-3.8-11-7z"/><path fill="#c5571d" d="M336 221c3 3 3 3 3.19 5.69L339 229l-5 1z"/><path fill="#602a09" d="m180 199 3 1v3l8-1c-2.25 2-3.6 2.94-6.62 3.38-1.18-.2-1.18-.2-2.38-.38-2-3-2-3-2-6"/><path fill="#ca631b" d="M333.38 158.88 335 160v3l-2.19-.5c-2.67-.48-5.1-.58-7.81-.5v-2c5.42-2.22 5.42-2.22 8.38-1.12"/><path fill="#cf6018" d="m283 131 2 1v2l5 2v5h-3l-.31-2.37c-.47-2.96-.47-2.96-3.69-4.63z"/><path fill="#8c3c11" d="m354 74 6.64 2.15c2.23.8 4.27 1.75 6.36 2.85-3.32 1.1-3.93.94-7.06-.25l-2.1-.77C356 77 356 77 354 74"/><path fill="#dc7128" d="m282 190-3 1-1 3-4-1v-3c2.86-1.43 4.93-.6 8 0"/><path fill="#763a0e" d="M181 159c1 2 1 2 .19 5-1.19 3-1.19 3-3.19 5v4h-2c-.29-4.07.42-6.33 2.5-9.81l1.4-2.4z"/><path fill="#f18227" d="M145 344c3.07 2.05 4.78 4.1 7 7l-1 2c-3-1-3-1-4.06-3l-.94-2-2-1z"/><path fill="#954e18" d="m126 327 4 1v3l3 1 1 5c-3.29-3.11-5.84-6.02-8-10"/><path fill="#984b12" d="M199 252h5c-.47 4.12-1.02 7.36-3 11l.07-1.9.06-2.48.07-2.46c.01-2.37.01-2.37-2.2-4.16"/><path fill="#de6a1c" d="M236 200c3 1 3 1 4.69 4.06L242 207l-5-1v-3h-2z"/><path fill="#6f2f09" d="M215 148c2 1 2 1 3.13 3.69.86 3.27 1.03 5.95.87 9.31l-2-1c-.63-2.72-.63-2.72-1.12-6.06l-.51-3.35z"/><path fill="#f47b2a" d="M276 144h5l-1 6h-2v-2h-3z"/><path fill="#984211" d="m376 113 9 1v2h2v2c-4.3-1.08-7.64-2.04-11-5"/><path fill="#904715" d="m404 95 9 3v1h-9z"/><path fill="#f77518" d="M152 83v2l-8 1v-3c3.05-.98 4.95-.98 8 0"/><path fill="#853109" d="m245 280 3 1-9 8-1-3 3-1v-2l3-1z"/><path fill="#cb5d1b" d="m273 208 2 2a221 221 0 0 0 7 3c-3.94 1.31-6.12.24-10-1z"/><path fill="#8d4111" d="M216 194c3.31.19 3.31.19 7 1 1.94 2.56 1.94 2.56 3 5a48 48 0 0 1-10-5z"/><path fill="#ed681b" d="M216 76h7c-1 2-1 2-3.29 2.85l-2.77.78-2.79.78L212 81l2-3h2z"/><path fill="#9b4a14" d="m321 60 4.38 1.38 2.46.77C330 63 330 63 332 65c-6.38.5-6.38.5-9.44-1.94C321 61 321 61 321 60"/><path fill="#b34d17" d="M258.69 61.81 262 62v3h-10c3-3 3-3 6.69-3.19"/><path fill="#944a17" d="M372 306c.75 1.75.75 1.75 1 4-1.62 2.25-1.62 2.25-4 4-2.75.25-2.75.25-5 0l1.75-.62c3.06-1.88 4.4-4.35 6.25-7.38"/><path fill="#b14f13" d="M273 262c5.75 2.75 5.75 2.75 8 5l-1 3-3.5-2.87-1.97-1.62L273 264z"/><path fill="#9b4b17" d="M298 222c8.57 1 8.57 1 12 2-2.92 1.98-4.12 1.99-7.75 1.63L299 225z"/><path fill="#ab591e" d="m237 213-2 5h-7c6.13-5 6.13-5 9-5"/><path fill="#843b0e" d="M223 179a41 41 0 0 1 11 5l-2 1c-2.16-.78-2.16-.78-4.62-1.94l-2.48-1.15-1.9-.91z"/><path fill="#b05518" d="m189 178 6 1 1 4c-2.94-.81-2.94-.81-6-2z"/><path fill="#c85e1f" d="M336 163c2.52 1.97 3 2.97 3.69 6.19L340 172h-2v-4l-3 1z"/><path fill="#cd5c1d" d="M272 154v5l-4 1v-5c2-1 2-1 4-1"/><path fill="#832e0b" d="M163 101h5c-2.55 2-4.97 3.83-8 5l-3-1 1-2h5z"/><path fill="#9d4d19" d="M158 76v2c-3.72 2.84-6.37 3.32-11 3 3.27-2.67 6.65-5 11-5"/><path fill="#914412" d="m267 37 4.44 1.38 2.5.77C276 40 276 40 277 42c-6.5-.61-6.5-.61-8.94-2.5C267 38 267 38 267 37"/><path fill="#e7792d" d="M289 388a14 14 0 0 1 4 3v3h-3v-3h-4v-2z"/><path fill="#8b3c13" d="m339 379 3 1-7 6-2-1 2-3h2v-2z"/><path fill="#955615" d="M379 295c0 3.75-1.11 5.79-3 9l-3 1c1.37-4 3.26-6.8 6-10"/><path fill="#e7721b" d="M290 233q3 .43 6 1v5h-2l-1-4-4-1z"/><path fill="#a64513" d="M287 203c-2.9 1.93-3.9 2.3-7.19 2.63L276 206v-2c7.43-2.43 7.43-2.43 11-1"/><path fill="#a14914" d="M345 100h8l1 4-9-3z"/><path fill="#fb8120" d="M128 90h5v3l-3 1-3-2zm6 0 2 1Z"/><path fill="#8a3f11" d="m294 49 4.38 1.38 2.46.77C303 52 303 52 305 54l-3 1v-2l-2.31.25C297 53 297 53 295.19 51z"/><path fill="#62290d" d="M142 302a66 66 0 0 1 7 11c-3.22-.93-4.66-1.38-6.31-4.37C142 306 142 306 142 302"/><path fill="#79350e" d="m178 189 2 1v8h-2l-2-7z"/><path fill="#bd521a" d="m317 393 5 2c-1.37 1.5-1.37 1.5-3 3h-2v2l-2-1 1-3h2z"/><path fill="#8f4314" d="m204 371 1 2q2.5 1.02 5 2l2 2c-5.54-.62-5.54-.62-7.87-2.56L203 373z"/><path fill="#6e2b09" d="m290 137 2 1c-.19 1.81-.19 1.81-1 4-2.56 1.75-2.56 1.75-5 3l1-4h3z"/><path fill="#863910" d="M285 75h8l2 4-10-3z"/><path fill="#c45317" d="m299.56 406.94 2.44.06-2 4h-3l-1-3c1-1 1-1 3.56-1.06"/><path fill="#dd701e" d="M390 268h1c.3 6.05.3 6.05 0 8l-3 2c.54-3.38 1.11-6.7 2-10"/><path fill="#802f0a" d="m235.31 231.25 1.69.75c-2.81 2.06-2.81 2.06-6 4l-3-1c4.43-4.06 4.43-4.06 7.31-3.75"/><path fill="#7a280d" d="M214 82c-2.94 2.5-5.18 3.47-9 4v-2c3.13-1.86 5.37-2.2 9-2"/></svg>