<svg xmlns="http://www.w3.org/2000/svg" width="515" height="484"><path fill="#ee7521" d="m271.94 53.13 2.26.94c6 2.54 11.91 5.26 17.8 8.05 10.72 5.07 21.6 9.82 32.44 14.63l27.93 12.42a457 457 0 0 1 21.57 10.32c3.46 1.7 6.98 3.11 10.58 4.49 2.84 1.17 5.51 2.54 8.23 3.96 5.58 2.86 11.27 4.93 17.22 6.88 2.95 1.15 4.77 2 7.03 4.18.5 2.51.5 2.51.5 5.57l.02 3.52-.03 3.86v4.07q.02 5.53-.02 11.06-.02 5.8-.01 11.6 0 9.78-.05 19.54-.04 11.23-.04 22.48a9778 9778 0 0 1-.07 41.76v5.82c-.09 11.68-1.2 23.35-4.49 34.6l-.65 2.26c-6.83 22.9-18.96 42.15-34.18 60.45-1.98 2.35-1.98 2.35-3.62 4.73L373 352h-2v2h-2l-.78 1.76c-2.23 4.09-5.76 7.1-9.03 10.37l-2.16 2.2-2.11 2.12-1.92 1.92c-2.22 1.8-4.3 2.7-7 3.63v2h-2v2a95 95 0 0 1-5.44 3.88l-3.61 2.44-1.96 1.31q-3 2.07-5.94 4.21a329 329 0 0 1-23.49 15.6l-2.43 1.46c-4.79 2.84-9.65 5.4-14.63 7.85q-3.73 1.88-7.39 3.9l-2.4 1.3q-2.42 1.31-4.83 2.65c-4.6 2.48-8.53 4.47-13.88 4.4a45 45 0 0 1-8.06-4l-4.53-2.53-2.25-1.28c-3.06-1.69-6.2-3.18-9.35-4.69a154 154 0 0 1-17.36-10.29 98 98 0 0 0-7.66-4.5c-5.64-3.1-10.85-6.76-16.1-10.46l-3.06-2.14C172.35 376.95 172.35 376.95 169 374v-2l-1.67-.71c-7.16-3.96-13.35-11-18.58-17.22-2.79-3.3-5.73-6.47-8.64-9.68-6.11-6.92-6.11-6.92-6.11-9.39h-2c-2.13-2.72-3.8-5.78-5.56-8.75l-1.62-2.71c-5.37-9.2-9.74-18.72-13.82-28.54l-1.34-3.1c-6.57-16.37-6.72-34.78-6.85-52.15l-.04-3.4v-3.18l-.01-2.87c.24-2.3.24-2.3 2.24-4.3 2.23-.24 2.23-.24 4.97-.23h2.98l3.11.04h3.13c7.67.05 7.67.05 8.81 1.19q.24 3.98.32 7.97l.05 2.14.2 7.95L129 263h50v-10l-3.37.13C172 253 172 253 170 251c-.24-2.77-.24-2.77-.23-6.3v-3.9l.02-2.05q.03-3.03.02-6.04c.1-23.56.1-23.56 3.88-32.46l.8-1.9A69 69 0 0 1 183 184l1.81-2.69c6.77-7.15 16.66-12.35 26.56-12.8q2.93-.01 5.85.02h3.25q5.26 0 10.53.04l7.35.01q7.68.01 15.35.06 9.86.06 19.7.07a10391 10391 0 0 1 32.55.11l3.06.01 2.76.02 2.42.02C316 169 316 169 317 170q.16 3.84.17 7.68v2.34l.02 4.9.03 7.51.01 4.75.02 2.28c-.02 5.31-.02 5.31-2.25 7.54-3.05.2-6.01.28-9.07.27l-8.98.03q-4.86.01-9.71.05-13.8.07-27.6.1-8.44.03-16.88.1h-6.43q-4.5.01-9 .05l-2.7-.01c-4.53.05-7.2.13-10.63 3.41h-2c-1.8 4.42-3.12 8.02-3.14 12.82l-.02 2.96-.02 3.21-.07 6.77-.08 10.63c-.14 32.52-.14 32.52-10.67 43.61l-1.78 1.9c-5.08 4.92-10.48 7.15-17.22 9.1l-1.7.53c-3.17.65-6.25.7-9.47.79l-2.07.06-10.94.31L144 304l4.9 8.03c1.52 2.5 3.05 4.9 4.86 7.2C155 321 155 321 155 324h2a55 55 0 0 1 4 4.75l2.13 2.67C165 334 165 334 166 336.2c1.3 2.34 2.6 2.71 5 3.8a92 92 0 0 1 4.25 3.5l2.14 1.84C179 347 179 347 179 349l1.65.71c2.97 1.63 5.38 3.67 7.97 5.85A39 39 0 0 0 196 361v2l2.31.88C201 365 201 365 204 367v2l2.2.81a47 47 0 0 1 7.61 4.19l2.9 1.87L220 378a388 388 0 0 0 27 16l8.59 4.8c4.02 2.05 4.02 2.05 8.32 1.57l2-1.07 2.28-1.2q1.19-.67 2.44-1.35l2.55-1.38c23.14-12.65 45.98-27.23 65.37-45.23C340 349 340 349 342 349v-2h2v-2h2v-2h2v-2h2v-2c1.88-2.12 1.88-2.12 4-4h2l.68-1.57c1.82-3.35 4.15-6.28 6.44-9.3 21.22-28.54 28.24-56.26 28.08-91.39l-.01-10.23q-.01-9.65-.05-19.3l-.04-22q-.03-22.6-.1-45.21l-1.72-.77-10.5-4.7a316 316 0 0 1-15.34-7.34c-8.35-4.27-16.93-7.99-25.51-11.76a360 360 0 0 1-20.13-9.56c-6.25-3.18-12.69-5.86-19.15-8.58a269 269 0 0 1-18.41-8.72 145 145 0 0 0-13.8-5.62C264 78 264 78 263 77c-4.6-.56-7.98 1.12-12 3.13l-4 1.92-2.03 1a566 566 0 0 1-8.9 4.2l-2.97 1.4a115 115 0 0 1-7.03 2.8 99 99 0 0 0-11.32 5.17c-11.36 5.78-23.02 10.89-34.7 15.97a939 939 0 0 0-35.82 16.44l-2.96 1.44-2.58 1.26c-3.2 1.5-6.44 2.88-9.69 4.27l-.03 2.72-.47 38.56a7093 7093 0 0 1-.3 24.22l-.04 3.89c-.43 9.88-.43 9.88-2.16 11.61-3.47.25-6.96.19-10.44.19l-2.97.03-2.84.01-2.61.01C105 217 105 217 103 215c-.2-3-.26-5.91-.24-8.92v-2.8q-.01-4.59.01-9.19v-6.36l.02-13.36q.03-8.57.02-17.15a8258 8258 0 0 1 .04-28.3v-2.66c.04-6.03.04-6.03 1.15-8.26a166 166 0 0 1 7.88-3.31l4.72-1.9 2.31-.94c3.38-1.38 6.68-2.9 10-4.42q3.72-1.72 7.47-3.39 13.4-5.95 26.62-12.29a326 326 0 0 1 19.17-8.57c3.2-1.34 6.32-2.81 9.46-4.3A489 489 0 0 1 213 69.5 638 638 0 0 0 241 57q5.14-2.38 10.3-4.74c2.63-1.16 2.63-1.16 4.69-2.49 5.24-2 11.1 1.3 15.95 3.35"/><path fill="#f17721" d="M272 229c3 .3 3.9.88 5.88 3.23l1.96 2.97 2.2 3.32 2.33 3.6 2.41 3.68a1078 1078 0 0 1 15.1 23.76l1.7 2.75c7.74 12.75 11.45 25.18 8.22 40.15-1.7 5.37-4.7 9.88-7.8 14.54h-2v2h-2v2c-8.6 8.32-19.38 9.3-30.8 9.14-9.74-.42-15.8-3.67-23.2-10.14-4-4.54-4-4.54-4-7h-2c-4.95-10.35-6.83-21.03-3.94-32.38 4.14-11.5 10.86-22.2 16.9-32.79q3.58-6.38 7.04-12.83h2l.74-2.14c1.43-3.26 3.26-5.82 5.38-8.67z"/><path fill="#ed7622" d="m337.56 157.81 3.2-.03 3.06-.01 2.8-.01C349 158 349 158 352 160c.37 2.32.37 2.32.37 5.24l.02 3.32-.03 3.6v3.67l-.02 7.71q-.03 5.91-.02 11.83l-.02 7.47v3.6l-.03 3.32v2.92C352 215 352 215 350 217c-2.72.34-5.33.56-8.06.69l-2.33.12c-5.32.23-10.36.2-15.61-.81-2-2-2-2-2.24-4.37l.01-3v-3.4l.03-3.68.01-3.75.05-9.9.04-10.1q.03-9.9.1-19.8c5.17-1.38 10.23-1.18 15.56-1.19"/><path fill="#ea721f" d="M358 169h21c1.13 11.25 1.13 11.25 1.1 16.88l-.01 3.6-.03 3.65L380 206c-2.27 1.14-3.54 1.13-6.06 1.13h-12.09C360 207 360 207 358 206c-1.7-8.03-.96-16.55-.56-24.69l.16-3.6z"/><path fill="#924414" d="m104 118 2 1-1 96 17-2v-6h1l1-71 5-1-.5 41.86a7281 7281 0 0 1-.3 24.55l-.04 3.94c-.43 9.92-.43 9.92-2.16 11.65-3.47.25-6.96.19-10.44.19l-2.97.03-2.84.01-2.61.01C105 217 105 217 103 215c-.2-3-.26-5.91-.24-8.92v-2.8q-.01-4.59.01-9.19v-6.36l.02-13.36q.03-8.57.02-17.15a8258 8258 0 0 1 .04-28.3v-2.66c.04-6.03.04-6.03 1.15-8.26"/><path fill="#9b4519" d="M217.22 168.53h3.25q5.26 0 10.53.04l7.35.01q7.68.01 15.35.06 9.86.06 19.7.07l18.8.05 3.63.01 10.12.05 3.06.01 2.76.02 2.42.02C316 169 316 169 317 170a180 180 0 0 1 .18 10.02v4.9l.04 7.51.03 7.03c-.02 5.31-.02 5.31-2.25 7.54-3.01.19-5.93.25-8.95.23h-2.8q-4.62 0-9.23-.03l-6.38-.01-16.82-.05-17.15-.04q-16.83-.03-33.67-.1l1-2 92-1 1-33a25729 25729 0 0 0-61.4.42 7318 7318 0 0 0-25.96.18l-10.04.08h-3c-4.95.07-8.95.44-13.6 2.32q-2.5.55-5 1c1.65-3.3 4.8-3.88 8.12-5.15 4.7-1.39 9.22-1.38 14.1-1.32"/><path fill="#a24c10" d="M370 125c5.77.6 10.62 2.77 15.88 5.06L395 134a6141 6141 0 0 1-.42 90.38 4029 4029 0 0 1-.18 18.94c-.1 12.6-.34 24.94-5.4 36.68-1.48-3.93-.49-6.95.42-10.96 2.52-12.74 1.95-25.68 1.87-38.6l-.01-8.2q0-9.62-.06-19.25-.05-10.96-.07-21.94-.04-22.52-.15-45.05l-1.82-.8-8.12-3.57-2.86-1.25-2.73-1.22-2.52-1.1C371 127 371 127 370 125"/><path fill="#75310c" d="m337.56 157.81 3.2-.03 3.06-.01 2.8-.01C349 158 349 158 352 160c.37 2.32.37 2.32.37 5.24l.02 3.32-.03 3.6v3.67l-.02 7.71q-.03 5.91-.02 11.83l-.02 7.47v3.6l-.03 3.32v2.92C352 215 352 215 350 217c-2.72.34-5.33.56-8.06.69l-2.33.12c-5.32.23-10.36.2-15.61-.81-2-2-2-2-2.24-4.37l.01-3v-3.4l.03-3.68.01-3.75.05-9.9.04-10.1q.03-9.9.1-19.8c5.17-1.38 10.23-1.18 15.56-1.19M324 160v55h26v-55z"/><path fill="#863d13" d="M404 114q2.13.39 4.25.81l2.4.46c2.75.86 4.26 1.72 6.35 3.73.5 2.53.5 2.53.49 5.6l.02 3.55-.04 3.88v4.1q.02 5.55-.03 11.11-.03 5.83-.02 11.66l-.06 19.6q-.06 12.53-.07 25.07a13990 13990 0 0 1-.12 45.33A169 169 0 0 1 416 269h-1l-1-149-2-1v-2l-8-1z"/><path fill="#72320d" d="M291 254c4.3 3.93 6.94 9.13 9.94 14.06l1.88 3.03c8.08 13.26 12.36 25.7 8.98 41.37-1.7 5.37-4.7 9.88-7.8 14.54h-2v2h-2v2c-3.4 3.2-6.51 4.75-11 6l1-4h5v-5h6l-.25-2.75c.25-3.25.25-3.25 2.13-5.62C305 318 305 318 307 318c2.93-13.24 3.35-28.9-3.78-40.71L301 274l-4.07-6.46q-1.34-2.12-2.73-4.21c-2.27-3.48-3.2-5.06-3.2-9.33"/><path fill="#984b10" d="m103 228 3 2c.4 2.49.4 2.49.44 5.6l.08 3.43.04 3.6c.09 9.77.09 9.77 1.96 19.3 1.3 5.58 1.23 11.53 1.52 17.23.38 5.73 1.07 10.15 4 15.14 1.54 2.73 2.2 5.68 2.96 8.7l1 3h2v7c-18.85-21.79-17.43-58.35-17-85"/><path fill="#8a3f12" d="M211 211c0 3 0 3-.98 5.37-1.08 2.77-1.27 4.72-1.28 7.67l-.02 2.97v3.18q-.01 3.38-.06 6.74l-.04 10.57c-.1 32.56-.1 32.56-10.62 43.5-1.94 1.8-3.9 3.4-6 5 0-3 0-3 1-5h3v-4h2l.81-1.69c1.19-2.31 1.19-2.31 2.75-4.69 3.37-6.15 2.6-13.5 2.65-20.33l.09-6.96.1-10.91q.05-5.3.12-10.57l.01-3.28c.1-5.93.49-10.39 3.47-15.57z"/><path fill="#c85c1a" d="M409 117h3v2l3 1q.18 29.66.26 59.3a7953 7953 0 0 0 .12 27.55q.07 12 .09 24.03 0 6.34.06 12.7c.28 33.9.28 33.9-5.53 48.42h-1q.14-3.65.31-7.31l.07-2.04c.21-4.09.87-7.62 2.13-11.53 1.92-6.9 1.89-13.55 1.83-20.68v-4.29q0-5.77-.04-11.55l-.02-12.1q0-11.44-.06-22.87-.05-13.04-.07-26.06-.04-26.79-.15-53.57l-4-1z"/><path fill="#db6e1b" d="m395 140 4 1-.98 1.71c-1.12 2.52-1.28 4.19-1.3 6.93l-.02 2.81v3.07l-.03 3.24-.05 10.63-.05 7.4q-.07 9.74-.11 19.47a16842 16842 0 0 1-.25 42.01l-.04 9.73c-.04 5.43-.38 10.64-1.17 16h-2l.5-48.33c.25-25.24.65-50.45 1.5-75.67"/><path fill="#9a410f" d="M186 300c-9.03 3.1-17.75 3.54-27.19 3.69l-4.33.1L144 304l3.81 6.25 1.08 1.78c1.53 2.5 3.06 4.9 4.87 7.2C155 321 155 321 155 324h2a55 55 0 0 1 4 4.75l2.13 2.67a23 23 0 0 1 3 4.84c1.16 2.32 2.57 2.66 4.87 3.74l2 3c-1.94-.31-1.94-.31-4-1l-1-3-1.82-.4c-3.11-.85-4.07-2.56-6-5.1l-2.09-2.73L156 328l-3.81-4.81c-6.24-8.08-6.24-8.08-7.19-13.19h-2l-1-4h-2v-5l16.28-.5c7.79-.23 15.5-.57 23.26-1.4 2.4-.1 4.18.18 6.46.9"/><path fill="#853b10" d="M358 169h21c1.13 11.25 1.13 11.25 1.1 16.88l-.01 3.6-.03 3.65L380 206c-2.27 1.14-3.54 1.13-6.06 1.13h-12.09C360 207 360 207 358 206c-1.7-8.03-.96-16.55-.56-24.69l.16-3.6zm1 1v35h18v-35z"/><path fill="#733710" d="M391 135h2q.15 25.48.2 50.96l.1 23.66q.06 10.32.08 20.64 0 5.46.04 10.92.05 6.12.03 12.23l.05 3.6c-.04 8.25-1.69 15.24-4.5 22.99-1.2-4.09-.53-6.77.42-10.95 2.4-12.16 1.96-24.47 1.88-36.81l-.02-10.3q0-9.7-.06-19.4-.05-11.06-.07-22.11-.04-22.72-.15-45.43"/><path fill="#cf6213" d="m130 107 2 1c-2.28 2.62-4.12 3.56-7.44 4.5-2.6.8-4.37 1.36-6.56 3-2 1.5-2 1.5-11 4.5l-1 95h-1q-.1-18.7-.16-37.4-.01-8.67-.07-17.36-.05-8.37-.05-16.75l-.04-6.4q-.03-4.47-.02-8.94l-.03-2.68v-4.6c.49-2.46 1.43-3.32 3.37-4.87a94 94 0 0 1 6.13-2.44 151 151 0 0 0 14.16-5.96z"/><path fill="#6d2c0b" d="m105 226 10.94-.06 3.15-.03h3c1.37-.02 1.37-.02 2.78-.02C127 226 127 226 128 227q.24 3.98.32 7.97l.05 2.14.2 7.95L129 263h47v1l-27.99.08-10.2.02-3.23.01h-2.97l-2.63.01C127 264 127 264 126 263q-.13-3.99-.1-7.97l.05-15.28L126 227h-21z"/><path fill="#984e19" d="m330 359-1 5-3 1-1 3-7 1-.19 1.88c-.81 2.12-.81 2.12-3.25 3.25L312 375l-2 2-2-1-1 3c-4.9 4.23-9.52 6.72-16 7 3.22-2.63 6.5-5.08 9.95-7.4l2.82-1.9 5.77-3.86a198 198 0 0 0 16.47-12.36C328 359 328 359 330 359"/><path fill="#a84f15" d="M309 292h2q.08 7 0 14l-.01 3.29c-.27 7.17-1.95 12.42-6.99 17.71h-2v2h-2v2c-3.4 3.2-6.51 4.75-11 6l1-4h5v-5h6l-.25-2.75c.25-3.25.25-3.25 2.13-5.62C305 318 305 318 307 318a57 57 0 0 0 1.32-10.08l.12-2.82.12-2.91.13-2.97z"/><path fill="#d06c24" d="M104 227h22v36c-2-2-2-2-2.23-5.16q0-2.03.03-4.04l.01-2.14.06-6.78.03-4.6q.03-5.64.1-11.28l-19 1z"/><path fill="#893e10" d="M323 160h1v55h26v2c-18.34 1.37-18.34 1.37-26 0-1-1-1-1-1.12-3.25v-6.4l.02-3.7.03-13.68.02-10.11z"/><path fill="#883d11" d="M144 306c2.73 3.27 5.26 6.67 7.75 10.13l1.86 2.57C155 321 155 321 155 324h2a55 55 0 0 1 4 4.75l2.13 2.67a23 23 0 0 1 3 4.84c1.16 2.32 2.57 2.66 4.87 3.74l2 3c-1.94-.31-1.94-.31-4-1l-1-3-1.82-.4c-3.11-.85-4.07-2.56-6-5.1l-2.09-2.73L156 328l-3.81-4.81A68 68 0 0 1 146 314l-1.19-2.06C144 310 144 310 144 306"/><path fill="#cd5e18" d="M409 117h3v2l3 1v88h-1l-1-88-4-1z"/><path fill="#9c4614" d="M324 104c5.14.64 10 1.68 15 3v2l9 2v2l3.25.88c7.18 2.15 7.18 2.15 9 5.25L361 121c-6.12-1.95-11.9-4.5-17.77-7.11q-2.78-1.24-5.57-2.46l-3.57-1.58-3.25-1.44A35 35 0 0 1 324 104"/><path fill="#cc5f16" d="M181 253h1v11c-3.59 1.8-4.54 2.25-8.22 2.23h-2.54l-2.74-.04-2.86-.02c-12.55-.13-25.1-.65-37.64-1.17v-1l51-1z"/><path fill="#a04c16" d="M283 85c5.1.55 9.54 2.22 14.3 4.02a63 63 0 0 0 6.82 2.04L307 92l1 3c1.84.65 1.84.65 4 1a165 165 0 0 1 6.4 2.38l1.6.62v3c-4.98-1.2-9.15-3-13.7-5.36-4.58-2.28-9.25-4.36-13.93-6.45l-2.77-1.24L283 86z"/><path fill="#ca6319" d="M370 125c5.77.6 10.62 2.77 15.88 5.06L395 134v41h-1v-40l-7-1c-2.25-.72-2.25-.72-4.15-1.56l-2.1-.92-2.12-.96-2.2-.94c-5.3-2.36-5.3-2.36-6.43-4.62"/><path fill="#b54c16" d="M159 114q3.3.14 6.56.44l3.63.3 2.81.26c-3.46 3.46-8.12 5.1-12.5 7.19l-2.96 1.44-2.82 1.35-2.6 1.25-2.12.77-2-1 1-4h6l1-3 5-1v-2l-2-1z"/><path fill="#b04d16" d="m380 336 4 2-1.64 2.05-2.17 2.7-2.15 2.67q-1.9 2.4-3.68 4.9L373 352h-2v2h-2l-.62 1.69c-1.93 3.24-4.42 5-7.38 7.31v-7h5l1-3h2v-3l2-2h3l1-4 1 1 .62-1.71.82-2.23.8-2.21C379 337 379 337 380 336"/><path fill="#7c340e" d="M272 229c2.94.32 3.87.85 5.83 3.13l1.84 2.78 2.01 3 2.07 3.15 2.11 3.17q2.6 3.87 5.14 7.77l-1 2a119 119 0 0 1-13-17l-2-3v-3h-3l-.44 2.38C271 236 271 236 270 238c-2.06.63-2.06.63-4 1 1.37-4 3.26-6.8 6-10"/><path fill="#b66221" d="m362 326 2 1-1 3c.39 2.14.39 2.14 1 4-3-1-3-1-5-2l-.37 1.75A21 21 0 0 1 356 340c-2.12.75-2.12.75-4 1l1 2 1 3-8-1v-2h2v-2h2v-2c1.88-2.12 1.88-2.12 4-4h2l.75-1.69A44 44 0 0 1 362 326"/><path fill="#ad5316" d="M216 405c6.15.59 6.15.59 8 1l1 2 3 1v2l1.9.62 2.47.82 2.47.8C237 414 237 414 239 415v3l7 1v3a133 133 0 0 1-30-16z"/><path fill="#bb4c18" d="M210 99a1786 1786 0 0 1-14.67 6.95q-2.67 1.27-5.35 2.52l-3.25 1.54C184 111 184 111 181 110l4-1v-2l3-2 2-3q3.5-.13 7 0 2.52-.42 5-1v-2c3.1-1 4.9-.88 8 0"/><path fill="#944b20" d="m126 256 3 1v6h47v1l-27.99.08-10.2.02-3.23.01h-2.97l-2.63.01C127 264 127 264 126 263q-.06-3.5 0-7"/><path fill="#f77f23" d="m359 332 3 1 1 7a103 103 0 0 1-9 5l-3-2 1-3h4c1.08-2.65 2.1-5.28 3-8"/><path fill="#83400e" d="M237 288a24 24 0 0 1 .96 8.23c-.6 12.46-.6 12.46 4.04 23.77l2 3-1 3-1-3h-2c-5.62-11.76-6.31-22.37-3-35"/><path fill="#dc711d" d="M174 204h1l.06 7.19.03 2.04a38 38 0 0 1-.58 8.1 57 57 0 0 0-.83 9.06l-.12 3.65-.12 3.77-.13 3.84L173 251h-1a3861 3861 0 0 1-.15-23.03q-.04-4.2-.05-8.42l-.03-2.62c0-4.72.4-8.5 2.23-12.93"/><path fill="#a64413" d="M236 83h7c-8.31 5.54-17.55 8.93-27 12v-2l3-2 2-3c2.16-.3 2.16-.3 4.63-.19l2.47.08 1.9.11v-2l2.44-.37L235 85z"/><path fill="#ba6525" d="m330 359-1 5-3 1-1 3-7 1-1 4-4-1c12.19-13 12.19-13 17-13"/><path fill="#ab4917" d="M412 270h3c-.53 7.75-2.56 14.65-5 22h-1q.17-3.81.38-7.62l.09-2.17c.24-4.38.92-8.07 2.53-12.21"/><path fill="#b04b14" d="M205 275c1.23 3.69.68 4.36-1 7.75-2.98 5.7-6.71 11.15-13 13.25l2-5h3v-4h2l.84-1.73a83 83 0 0 1 3.78-6.52l1.36-2.14z"/><path fill="#ab5923" d="m130 107 2 1c-2.28 2.62-4.12 3.56-7.44 4.5-2.7.82-4.36 1.34-6.56 3.13-3.28 2.25-7.1 2.13-11 2.37 1.52-3.05 3.85-3.23 7-4.37 4.88-1.81 9.61-3.75 14.3-6.03z"/><path fill="#dc6518" d="M335 385a71 71 0 0 1-12 10l-2-1v-3l3-2v-3c3.72-.7 7.21-1.11 11-1"/><path fill="#934713" d="M291 63c3.52.6 6.53 1.53 9.8 3l2.65 1.19 2.74 1.25 2.77 1.23c6.78 3.07 6.78 3.07 9.04 5.33h-5v-2l-8-1-1-3-2-.31c-3.84-.88-7.33-2.26-11-3.69z"/><path fill="#853b0e" d="M179 349c3.72 1.61 6.53 3.96 9.63 6.56 3.48 3.03 3.48 3.03 7.37 5.44v2l3 1-2 1c-4.89-1.82-7.82-4.66-11.32-8.36-1.75-1.84-1.75-1.84-4.62-3.39L179 352z"/><path fill="#ae5c1f" d="m344 345 2 1-1 3h-2l-.23 1.8c-1.04 2.97-2.53 3.8-5.14 5.51l-2.4 1.62C333 359 333 359 330 358l4.88-4.5 2.74-2.53C340 349 340 349 342 349v-2h2z"/><path fill="#913b0e" d="M275 423c-10.55 5.98-10.55 5.98-15.87 6.06A53 53 0 0 1 250 425c3.05-.98 4.95-.98 8 0v2c2.72-.88 5.42-1.77 8.07-2.84l2.12-.85 1.98-.82C272 422 272 422 275 423"/><path fill="#974513" d="M318 75c4.71.65 8.58 2.52 12.81 4.56l2.1 1q2.55 1.2 5.09 2.44v1l-7 1-1-4-1.73-.4a63 63 0 0 1-6.52-2.16l-2.14-.82L318 77z"/><path fill="#a2531d" d="m223 67-5 2v2c-4.8 2.64-10.64 5.68-16.24 4.55L200 75q5.17-2.3 10.38-4.56l5.83-2.57 2.64-1.16C221 66 221 66 223 67"/><path fill="#9a4313" d="M407 292h2a89 89 0 0 1-8 20h-1c.6-4.87 1.57-9.33 3-14h2z"/><path fill="#9e4f16" d="M253 258a17 17 0 0 1 1 4l-2 3q-.6 3.49-1 7h-4v2l-3 1a68 68 0 0 1 5.63-11.31l1.9-3.24z"/><path fill="#8d3f11" d="M370 125c5.3.6 9.58 2.37 14.38 4.56L392 133l-1 2a65 65 0 0 1-14.44-5.62c-.95-.5-.95-.5-1.93-.99L370 126z"/><path fill="#ba5d1a" d="m131 325 1 3 3 1 1 7-2 1v-2h-2l-5-9z"/><path fill="#ec6a1c" d="M159 114q3.3.14 6.56.44l3.63.3 2.81.26c-3.31 3.31-6.15 3.97-10.81 4.13L158 119l2-1v-2l-2-1z"/><path fill="#c7681e" d="M187 179h2l2 5-4 3v-2l-7 6c0-3.77 1.07-4.77 3.38-7.69l1.9-2.45z"/><path fill="#ba4f15" d="M297 407h5a29 29 0 0 1-7.5 5.75l-2.34 1.36C290 415 290 415 287 414l2-4h3v-2h5z"/><path fill="#b85f21" d="m288 390-1 2-3 1-1 2h-6v2l-7 1c5.5-4.66 10.46-8.74 18-8"/><path fill="#a74f16" d="M221 380c4.78 1.64 8.8 4.27 13 7-2.57 2.57-4.48 2.54-8 3l-.81-2.81c-1.11-2.99-1.86-4.17-4.19-6.19z"/><path fill="#f47f27" d="M188 384c4.75-.12 4.75-.12 7 1v2l6-1-2 5c-2.44-.37-2.44-.37-5-1l-1-2-2-.44-2-.56z"/><path fill="#a54919" d="M265.81 75.5 268 77c-1.94.56-1.94.56-4 1l-1-1c-3.41-.39-5 0-8.12 1.56L252 80l-3-1c3.67-5.5 11.11-6.54 16.81-3.5"/><path fill="#ac561b" d="m184 384 5 1v2l5 1v2l1.88.25c2.12.75 2.12.75 3.37 2.81L200 395c-4.13-1.44-7.3-3.47-10.81-6.06l-2.96-2.16L184 385z"/><path fill="#d57327" d="M200 175v2l-2.19.81A54 54 0 0 0 190 182l-1-4c3.51-3.37 6.26-3.27 11-3"/><path fill="#9f4d16" d="m189 80 2 1-2.37 1.25c-3.02 1.7-3.02 1.7-4.63 5.75h-11c3.1-2.07 6.2-3.6 9.56-5.19l3.5-1.67z"/><path fill="#b25f1b" d="M241 279h1c-.37 6.3-1.17 11.33-4 17-1.01-3.17-.95-5.28-.19-8.5l.52-2.28A33 33 0 0 1 241 279"/><path fill="#a64517" d="M295 328h7l-2 1v2c-3.4 3.2-6.51 4.75-11 6l1-4h5z"/><path fill="#da6d15" d="m238 295 2 2c-.02 2.92-.14 5.72-.37 8.63l-.18 2.42L239 314c-2.44-3.66-2.26-6.4-2.19-10.62v-2.1c.05-5.14.05-5.14 1.19-6.28"/><path fill="#a5541d" d="M166 370c3.4 1.06 6.01 2 9 4v2l4 1v3a59 59 0 0 1-10-6v-2l-3-1z"/><path fill="#b85617" d="M382 104c4.86.6 8.74 2.73 13 5l-1.81.44q-2.62.69-5.19 1.56l-2-1v-4h-4z"/><path fill="#b65118" d="M398 312h2c-1.57 4.3-3.68 8.06-6 12-1.1-3.33-.84-5.62 0-9h3z"/><path fill="#be5017" d="m221 88 5 1-1 3c-2.07.95-2.07.95-4.56 1.69l-2.5.76L216 95v-2l3-2z"/><path fill="#cf601a" d="M286 249c4.83 4.05 6.38 7.97 8 14l-3-1v-3h-2l-1-3 1-2-3-1z"/><path fill="#c5591b" d="M307 318q-.63 2.22-1.31 4.44l-.74 2.5L304 327l-3 1c-.34-3.7-.48-5.4 1.88-8.37C305 318 305 318 307 318"/><path fill="#8e340f" d="m210 99-6.31 3.06-3.55 1.73C197 105 197 105 194 104c3.06-2.62 3.73-3 8-3v-2c3.1-1 4.9-.88 8 0"/><path fill="#b44f18" d="m345 376 1 2h-2v2c-5.41 4-5.41 4-8 4v-3c2.95-2.23 5.49-3.83 9-5"/><path fill="#8c3e10" d="M209 372c4.67 2.13 8.6 4.03 12 8-4.75-.58-7.97-2.55-12-5z"/><path fill="#a94b15" d="M350 114c3.32.55 6.16 1.14 9 3a20 20 0 0 1 2 4c-5-1.28-7.58-3.17-11-7"/><path fill="#b85d1e" d="M143 102c-1.4 3.37-2.98 4.99-6 7l-1-2c-2.02-.65-2.02-.65-4-1l4.38-2 2.46-1.12C141 102 141 102 143 102"/><path fill="#ae5319" d="M216 405c6.15.59 6.15.59 8 1l1 2 3 2c-5.28.5-7.86-.75-12-4z"/><path fill="#f47a2e" d="m360 337 3 1c-1.07 2.91-1.64 3.83-4.5 5.19l-2.5.81-2 1c1.44-3.37 3.33-5.51 6-8"/><path fill="#914917" d="M260 245h2c-1.87 5.75-1.87 5.75-3 8h-2v5h-3c1.41-4.83 3.43-8.72 6-13"/><path fill="#f37d27" d="M242 59c-1.01 2.54-1.69 3.8-4 5.31l-2 .69-2-1v-3c5.75-2 5.75-2 8-2"/><path fill="#b0551a" d="M203 393c4.8 3.45 4.8 3.45 5.81 6.25L209 401c-3.94-1.31-6.23-2.92-9-6h3z"/><path fill="#ad4a17" d="M391 324h2c-1.56 4.67-4.08 8.09-7 12l-1-2 1-3h2v-5h3z"/><path fill="#b55a1d" d="m120 314 5 1 2 7h-3z"/><path fill="#a35014" d="M114 300a91 91 0 0 1 4 4v2h2v7c-3.43-3.76-4.56-8.23-6-13"/><path fill="#90370e" d="M205 275c1 3 1 3 0 5.48l-1.44 2.7-1.43 2.74L201 288h-1c-.84-5.37 2.08-8.8 5-13"/><path fill="#8e4414" d="m200 365 4 2v2l5 2-3 2v-2l-2.37-.31C201 370 201 370 199 367z"/><path fill="#a5561f" d="m157 362 6 1v2h2l1 5-6.15-4.5C158 364 158 364 157 362"/><path fill="#f8832a" d="m333 358 2 1-6 5 1-5zm-7 6 3 1-1 3-3-1z"/><path fill="#e56819" d="M203 272h1c.57 5.66-1.29 9.23-4 14-1.37-3.69-.6-5.7.94-9.25l1.15-2.7z"/><path fill="#9d511e" d="m130 107 2 1c-2.67 3.45-5.84 4.12-10 5-2.22-.45-2.22-.45-4-1q2.93-1.3 5.88-2.56l3.3-1.44z"/><path fill="#b96024" d="M301 380v3c-6.62 3.13-6.62 3.13-10 2 6.29-4.43 6.29-4.43 10-5"/><path fill="#904c1b" d="M140 343c6 2.1 6 2.1 8 5-.43 2.1-.43 2.1-1 4l-3.5-3.94-1.97-2.21C140 344 140 344 140 343"/><path fill="#d26921" d="M300 273c3.3 2.8 5.06 6.2 7 10l-1 2c-3.53-2.35-4.38-4.13-6-8z"/><path fill="#f77e26" d="M182 191h2l-2 9-2-1h-2a37 37 0 0 1 4-8"/><path fill="#8a4617" d="M357 92a70 70 0 0 1 12 5c-1.69 1.19-1.69 1.19-4 2a23 23 0 0 1-8-6z"/><path fill="#b14212" d="m331 389-8 6-2-1v-3q1.93-.8 3.88-1.56l2.17-.88C329 388 329 388 331 389"/><path fill="#c46514" d="M107 270h1l1 4.69.56 2.63c.43 2.62.52 5.04.44 7.68-2.97-3.27-3.34-5.38-3.19-9.75l.08-2.98z"/><path fill="#9f4b15" d="m348 88 9 3c-4 2-4 2-6.25 1.63L349 92z"/><path fill="#be5416" d="m380 336 4 2-5 5c-.62-2.37-.62-2.37-1-5z"/><path fill="#894114" d="m126 256 3 1v7l-3-1z"/><path fill="#b15b19" d="M135 337h6v5h-3c-1.69-2.5-1.69-2.5-3-5"/><path fill="#f78128" d="m204.63 171.88 3.37.12v2h-5v2l-4-2c2-2 2-2 5.63-2.12"/><path fill="#994c1a" d="M382 130c3.56.61 6.68 1.58 10 3l-1 2c-6.75-1.62-6.75-1.62-9-5"/><path fill="#ea7f30" d="m199 77 1 2c-2.31 1.56-2.31 1.56-5 3l-3-1v2h-5c3.63-3.17 7.51-4.43 12-6"/><path fill="#974e18" d="M246 329c2.88.19 2.88.19 6 1 1.38 2.56 1.38 2.56 2 5-3.37-1.44-5.51-3.33-8-6"/><path fill="#f57318" d="M253 266c.98 2.93 1.08 4.96 1 8l-3-1v-6z"/><path fill="#f07d2f" d="m136 106 2 1c-2 3-2 3-4.62 3.69L131 111v-3c2.38-1.06 2.38-1.06 5-2"/><path fill="#f78026" d="m277 395 4 1c-2.07 2.8-3.14 3.03-6.69 3.69L271 400l2-3h4z"/><path fill="#cd681f" d="m362 326 2 1-1 3c.39 2.14.39 2.14 1 4l-3-1c-.62-2.37-.62-2.37-1-5z"/><path fill="#a44011" d="M164 115h8c-2.69 2.69-5.38 3.06-9 4z"/><path fill="#7b3611" d="m165 335 2 1v2l1.88.81C171 340 171 340 173 343c-1.94-.31-1.94-.31-4-1l-1-3h-2z"/><path fill="#ef7d2b" d="m369 200 1 4h5v1c-6.75.13-6.75.13-9-1v-2z"/><path fill="#884814" d="m184 183 1 3-5 5c0-3.9 1.5-5.12 4-8"/><path fill="#e96e1a" d="m360 171 4 1-2 3q-.6 3.49-1 7h-1z"/><path fill="#f6802b" d="M172 92c-2.36 2.1-3.55 2.97-6.75 3.19L163 95v-2c3.43-1.62 5.38-2.34 9-1"/><path fill="#924311" d="M224 410c5.54.62 5.54.62 7.88 2.56L233 414c-3.7 0-5.78-1.28-9-3z"/><path fill="#cd6e1f" d="M245 322c2.36 2.36 2.5 3.78 3 7l-4-2z"/><path fill="#c26822" d="M374 308h3l-1 4-4 1z"/><path fill="#863a15" d="M291 254c2.52 1.97 3 2.97 3.69 6.19L295 263c-4-4.5-4-4.5-4-9"/><path fill="#a0531a" d="m269 233 3 1c-.75 1.94-.75 1.94-2 4-2.12.75-2.12.75-4 1 1.88-4.87 1.88-4.87 3-6"/><path fill="#f67917" d="M106 229h5c-1.37 2.5-1.37 2.5-3 5h-2z"/><path fill="#a14f14" d="M178 192h1l-1 7h-3c1.88-5.87 1.88-5.87 3-7"/><path fill="#f9761a" d="M339 106h4v2l2 1c-3.75 1.13-3.75 1.13-6 0z"/></svg>